<svg width="56" height="56" viewBox="0 0 56 56" fill="none" xmlns="http://www.w3.org/2000/svg">
<circle cx="28" cy="28" r="27" stroke="black" stroke-width="2"/>
<path fill-rule="evenodd" clip-rule="evenodd" d="M18.25 28.25C18.25 33.773 22.727 38.25 28.25 38.25C33.773 38.25 38.25 33.773 38.25 28.25C38.25 22.727 33.773 18.25 28.25 18.25C22.727 18.25 18.25 22.727 18.25 28.25ZM24.75 32.25V30.25H30.25C30.5261 30.25 30.75 30.0261 30.75 29.75C30.75 29.4739 30.5261 29.25 30.25 29.25H26.25C24.8693 29.25 23.75 28.1307 23.75 26.75C23.75 25.3693 24.8693 24.25 26.25 24.25H27.25V22.25H29.25V24.25H31.75V26.25H26.25C25.9739 26.25 25.75 26.4739 25.75 26.75C25.75 27.0261 25.9739 27.25 26.25 27.25H30.25C31.6307 27.25 32.75 28.3693 32.75 29.75C32.75 31.1307 31.6307 32.25 30.25 32.25H29.25V34.25H27.25V32.25H24.75Z" fill="black"/>
</svg>
