<svg width="70" height="54" viewBox="0 0 70 54" fill="none" xmlns="http://www.w3.org/2000/svg">
<path id="Shape Copy" fill-rule="evenodd" clip-rule="evenodd" d="M3 54V50C8.39754 47.9102 12.8144 44.6901 16 40C19.2489 35.9057 20.8575 31.3383 21 27C20.8575 25.5719 20.6939 24.8174 20 24C20.2032 24.009 19.985 23.8473 20 24C19.4398 23.8473 19.0035 24.0629 18 24C16.6588 25.7335 14.4776 26.3533 12 26C8.69745 26.3533 5.93008 25.1003 4 23C1.18602 20.0883 0 17.1108 0 14C0 9.99701 1.36324 6.80389 4 4C6.81618 1.36078 10.1697 0 14 0C18.6763 0 22.6161 1.84581 26 6C29.3232 9.22904 31 14.2006 31 20C31 27.7275 28.737 34.2485 24 40C19.6851 45.7814 12.5418 50.4431 3 54ZM42 54V50C47.3975 47.9102 51.8144 44.6901 55 40C58.2489 35.9057 59.8575 31.3383 60 27C59.8575 25.5719 59.6939 24.8174 59 24C59.2032 24.009 58.9851 23.8473 59 24C58.4398 23.8473 58.0035 24.0629 57 24C55.6588 25.7335 53.4776 26.3533 51 26C47.6974 26.3533 44.9301 25.1003 43 23C40.186 20.0883 39 17.1108 39 14C39 9.99701 40.3632 6.80389 43 4C45.8162 1.36078 49.1697 0 53 0C57.6763 0 61.6161 1.84581 65 6C68.3232 9.22904 70 14.2006 70 20C70 27.7275 67.737 34.2485 63 40C58.6851 45.7814 51.5418 50.4431 42 54Z" fill="#474150" fill-opacity="0.17"/>
</svg>
