<svg width="29" height="32" viewBox="0 0 29 32" fill="none" xmlns="http://www.w3.org/2000/svg">
<path d="M23.4836 5.6355H21.6049C21.0857 5.6355 20.6655 6.05562 20.6655 6.57487C20.6655 7.09406 21.0857 7.51424 21.6049 7.51424H23.4836C24.0028 7.51424 24.423 7.09412 24.423 6.57487C24.4229 6.05562 24.0028 5.6355 23.4836 5.6355Z" fill="white"/>
<path d="M13.9913 2.39743L13.052 0.518751C12.8181 0.0545643 12.2557 -0.131623 11.7915 0.0986267C11.3274 0.330689 11.1393 0.894875 11.3714 1.35906L12.3108 3.23775C12.5425 3.70006 13.1039 3.88999 13.5712 3.65787C14.0353 3.42581 14.2234 2.86162 13.9913 2.39743Z" fill="white"/>
<path d="M20.1464 0.0986155C19.684 -0.131634 19.1181 0.0546156 18.886 0.51874L17.9466 2.39742C17.7145 2.86161 17.9026 3.42573 18.3667 3.65786C18.8354 3.89061 19.3961 3.69848 19.6271 3.23773L20.5665 1.35905C20.7986 0.894864 20.6105 0.330678 20.1464 0.0986155Z" fill="white"/>
<path d="M10.3327 5.6355H8.45402C7.93484 5.6355 7.51465 6.05562 7.51465 6.57487C7.51465 7.09406 7.93477 7.51424 8.45402 7.51424H10.3327C10.8519 7.51424 11.2721 7.09412 11.2721 6.57487C11.2721 6.05562 10.8519 5.6355 10.3327 5.6355Z" fill="white"/>
<path d="M4.6968 15.0918H0.939373C0.420624 15.0918 0 15.5124 0 16.0312V31.0606C0 31.5794 0.420562 32 0.939373 32H4.69674C5.21549 32 5.63611 31.5795 5.63611 31.0606V16.0311C5.63611 15.5124 5.21561 15.0918 4.6968 15.0918Z" fill="white"/>
<path d="M28.1615 17.5817C27.9959 16.1245 26.6347 15.0917 25.1681 15.0917H17.8447C18.4671 13.9773 18.8011 10.8252 18.7863 9.53761C18.7618 7.40624 16.9967 5.69824 14.8653 5.69824H14.0901C13.5709 5.69824 13.1508 6.11837 13.1508 6.63762C13.1508 8.8098 12.305 12.7305 10.7098 14.3258C9.63608 15.3995 8.71821 15.7885 7.51465 16.39V30.4849C9.35733 31.0991 11.697 32 15.263 32H21.4077C23.4324 32 25.0093 30.1248 24.2247 28.1436C25.42 27.8179 26.3015 26.7217 26.3015 25.4246C26.3015 25.0585 26.2309 24.7081 26.1034 24.3861C28.1177 23.8373 28.8592 21.3501 27.4611 19.7885C27.9747 19.2147 28.258 18.4298 28.1615 17.5817Z" fill="white"/>
</svg>
