<svg width="32" height="32" viewBox="0 0 32 32" fill="none" xmlns="http://www.w3.org/2000/svg">
<path d="M0.436212 16.0416C0.0922159 16.1682 -0.0850946 16.5496 0.0402165 16.8949L0.458899 18.0468L3.6468 14.8589L0.436212 16.0416Z" fill="white"/>
<path d="M3.45361 26.2815L5.37359 31.5614C5.43359 31.7281 5.5589 31.8641 5.7189 31.9374C5.80821 31.9787 5.90421 32.0001 6.00021 32.0001C6.07889 32.0001 6.15621 31.9868 6.23089 31.9588L8.34956 31.1775L3.45361 26.2815Z" fill="white"/>
<path d="M31.96 21.7734L29.7627 15.7322L24.4894 21.0054L27.1027 20.0428C27.4454 19.9121 27.832 20.0908 27.9587 20.4374C28.0867 20.7827 27.9094 21.1667 27.564 21.2934L24.2441 22.5174C24.1681 22.5454 24.0908 22.5587 24.0134 22.5587C23.7427 22.5587 23.4867 22.392 23.3881 22.1227C23.3868 22.1187 23.3881 22.1147 23.3868 22.1107L17.7988 27.6987L31.564 22.6267C31.9093 22.5001 32.0866 22.1187 31.96 21.7734Z" fill="white"/>
<path fill-rule="evenodd" clip-rule="evenodd" d="M21.1384 0.194998L31.805 10.8616C32.065 11.1229 32.065 11.5442 31.805 11.8055L11.8052 31.8053C11.6745 31.9347 11.5039 32 11.3332 32C11.1625 32 10.9918 31.9347 10.8625 31.804L0.195974 21.1374C-0.0640227 20.8774 -0.0640227 20.4548 0.195974 20.1948L20.1957 0.194998C20.4557 -0.0649992 20.8784 -0.0649992 21.1384 0.194998ZM5.1386 21.1388L7.80526 18.4722C8.06526 18.2108 8.06394 17.7895 7.80395 17.5294C7.54395 17.2694 7.12127 17.2694 6.86127 17.5294L4.19461 20.1961C3.93462 20.4561 3.93462 20.8788 4.19461 21.1388C4.3253 21.2681 4.49592 21.3334 4.66661 21.3334C4.83729 21.3334 5.00792 21.2681 5.1386 21.1388ZM19.3184 19.3188C18.8464 19.7908 18.2051 20.0175 17.4918 20.0175C16.3131 20.0175 14.9358 19.4001 13.7838 18.2468C12.9411 17.4041 12.3491 16.3961 12.1185 15.4095C11.8625 14.3095 12.0732 13.3522 12.7118 12.7122C13.3505 12.0722 14.3078 11.8615 15.4091 12.1189C16.3958 12.3496 17.4038 12.9402 18.2464 13.7842C20.0984 15.6348 20.5704 18.0668 19.3184 19.3188ZM25.1384 14.4722L27.805 11.8055C28.065 11.5442 28.0637 11.1229 27.8037 10.8629C27.5437 10.6029 27.121 10.6029 26.861 10.8629L24.1944 13.5295C23.9344 13.7895 23.9344 14.2122 24.1944 14.4722C24.3251 14.6016 24.4957 14.6669 24.6664 14.6669C24.8371 14.6669 25.0077 14.6015 25.1384 14.4722Z" fill="white"/>
</svg>
