<svg width="32" height="29" viewBox="0 0 32 29" fill="none" xmlns="http://www.w3.org/2000/svg">
<path fill-rule="evenodd" clip-rule="evenodd" d="M7.61 15H1.875V16.875H7.61C7.65913 17.5155 7.75844 18.1407 7.90319 18.75H3.75V20.625H8.50288C10.3435 25.0247 14.6906 28.125 19.75 28.125C26.47 28.125 32 22.6575 32 15.9375C32 13.3101 31.1556 10.8805 29.7359 8.88794L31.6621 7.283L30.4628 5.84194L28.5375 7.44619C26.8843 5.74788 24.6824 4.5275 22.2804 4.018C22.4561 3.65125 22.5625 3.24569 22.5625 2.8125C22.5625 1.26163 21.3009 0 19.75 0C18.1991 0 16.9375 1.26163 16.9375 2.8125C16.9375 3.24569 17.0439 3.65125 17.2196 4.018C14.8176 4.5275 12.6783 5.74788 11.0251 7.44619L9.09969 5.84194L7.90037 7.283L9.82662 8.88794C9.30406 9.62119 8.85469 10.4092 8.50288 11.25H0V13.1244H7.90319C7.75844 13.7343 7.65906 14.3595 7.61 15ZM28.25 15.9375C28.25 17.7786 27.665 19.5291 26.559 20.9994L25.9969 21.7474L18.8125 16.4062V7.5H19.75C24.4027 7.5 28.25 11.2848 28.25 15.9375ZM19.75 1.875C19.2327 1.875 18.8125 2.29525 18.8125 2.8125C18.8125 3.32975 19.2327 3.75 19.75 3.75C20.2673 3.75 20.6875 3.32975 20.6875 2.8125C20.6875 2.29525 20.2673 1.875 19.75 1.875Z" fill="white"/>
<path d="M26.375 15.9376C26.375 12.6371 23.8634 9.89783 20.6875 9.44189V15.4688L25.5712 19.0843C26.0994 18.1248 26.375 17.0527 26.375 15.9376Z" fill="white"/>
</svg>
