<svg width="27" height="32" viewBox="0 0 27 32" fill="none" xmlns="http://www.w3.org/2000/svg">
<path fill-rule="evenodd" clip-rule="evenodd" d="M14.9477 6.96267C17.382 4.91774 19.0085 0.310814 18.0075 0.109318C17.1457 -0.0642348 15.6295 0.367798 14.2891 0.749763C13.5609 0.95726 12.8846 1.14998 12.3932 1.22282C11.5306 1.32697 10.6345 0.93286 9.7977 0.564839C8.71374 0.0881086 7.72931 -0.344844 7.04618 0.405765C6.06197 1.48719 7.75179 5.41998 10.3956 7.1333C2.508 11.0099 -8.57851 30.4709 10.7625 31.8829C37.5241 33.8368 24.1236 10.7404 14.9477 6.96267ZM17.246 22.3105C17.1637 23.0692 16.7616 23.7553 16.1606 24.2211C15.526 24.7129 14.73 24.9417 13.9391 25.0058V25.8441C13.9391 26.0684 13.8412 26.2853 13.6733 26.4338C13.4425 26.638 13.1033 26.6884 12.8232 26.5593C12.5467 26.4321 12.365 26.1484 12.365 25.8441V24.9278C12.2294 24.9021 12.0947 24.8714 11.9617 24.8349C11.2226 24.6318 10.537 24.236 10.0362 23.6503C9.78671 23.3584 9.58333 23.0272 9.44267 22.6696C9.40593 22.5761 9.37317 22.481 9.34449 22.3847L9.3428 22.3791C9.31736 22.2938 9.2915 22.2071 9.28244 22.1183C9.26686 21.9659 9.29705 21.8105 9.36805 21.6748C9.51398 21.3957 9.8215 21.2271 10.1355 21.2551C10.4445 21.2825 10.7154 21.497 10.8126 21.7915C10.8252 21.8296 10.8361 21.868 10.8469 21.9064L10.8469 21.9065C10.862 21.9597 10.877 22.0129 10.8966 22.065C10.93 22.1542 10.9702 22.2408 11.0176 22.3234C11.1111 22.4859 11.2283 22.6357 11.3632 22.7657C11.6414 23.0337 11.9956 23.2079 12.365 23.3115V20.197C11.6428 20.0101 10.8973 19.7686 10.301 19.3049C10.0112 19.0795 9.76525 18.7994 9.60419 18.4678C9.43424 18.1179 9.36384 17.7281 9.36098 17.3409C9.35804 16.9478 9.43274 16.5581 9.59673 16.2C9.75034 15.8646 9.97149 15.5635 10.2426 15.3138C10.8224 14.7802 11.5926 14.4826 12.365 14.3732V14.3047V13.503C12.365 13.2788 12.463 13.0618 12.6309 12.9133C12.8618 12.7092 13.2008 12.6587 13.481 12.7878C13.7574 12.9151 13.9392 13.1987 13.9392 13.503V14.3047V14.3685C14.0421 14.3814 14.1448 14.397 14.2469 14.4155C15.0054 14.5527 15.7473 14.866 16.3021 15.4129C16.5648 15.6719 16.78 15.9805 16.9312 16.3171C16.9735 16.411 17.0105 16.5071 17.0425 16.6051C17.0723 16.6964 17.1022 16.7904 17.1165 16.8858C17.1392 17.0379 17.116 17.1952 17.0509 17.3344C16.9175 17.6196 16.6182 17.8012 16.3034 17.7878C15.9941 17.7743 15.7138 17.5728 15.6031 17.2837C15.5869 17.2416 15.5747 17.1982 15.5625 17.1549C15.5498 17.1098 15.5371 17.0647 15.5199 17.0209C15.486 16.9341 15.442 16.8513 15.3913 16.773C15.2928 16.6209 15.1652 16.4905 15.0195 16.3831C14.704 16.1501 14.3214 16.0287 13.939 15.9609V18.9413C14.3934 19.0501 14.8482 19.1688 15.2836 19.3405C15.9416 19.5999 16.5651 19.9978 16.9243 20.6252C16.8686 20.5275 16.8144 20.4322 16.9262 20.6284C17.036 20.8212 16.9836 20.7293 16.9285 20.6327C17.2142 21.1363 17.3081 21.7385 17.246 22.3105ZM11.1268 16.6808C11.0237 16.8313 10.959 17.0023 10.9412 17.1841C10.9233 17.3662 10.9333 17.5689 11.0025 17.7403C11.0684 17.9037 11.2064 18.0243 11.3489 18.1215C11.5088 18.2302 11.6846 18.3151 11.8636 18.3871C12.0139 18.4476 12.1828 18.5054 12.365 18.5613V15.971C11.9048 16.0692 11.4021 16.2789 11.1268 16.6808ZM15.4478 21.2568C15.3283 21.1259 15.1771 21.028 15.0209 20.9465C14.6807 20.7691 14.3086 20.6615 13.9392 20.5643V23.4269C14.5388 23.3591 15.2272 23.1415 15.542 22.5817C15.6923 22.3143 15.7222 21.9858 15.661 21.6882C15.6278 21.5269 15.5592 21.3788 15.4478 21.2568Z" fill="white"/>
</svg>
