<svg width="50" height="27" viewBox="0 0 50 27" fill="none" xmlns="http://www.w3.org/2000/svg">
<path fill-rule="evenodd" clip-rule="evenodd" d="M45.2828 16.3757L48.8186 20.0904C49 20.2806 49.0505 20.5612 48.9468 20.8034C48.8432 21.045 48.6053 21.2022 48.342 21.2022H44.9002C44.7199 23.6483 42.6733 25.5838 40.1816 25.5838C37.6901 25.5838 35.6435 23.6483 35.4631 21.2022H13.2973C13.1168 23.6483 11.0702 25.5838 8.57875 25.5838C6.08711 25.5838 4.04052 23.6483 3.86002 21.2022H1.8026H1.77314C1.68238 21.2022 1.59431 21.1824 1.51315 21.1475C1.2131 21.0313 1 20.7405 1 20.3997V16.4794C1 16.0366 1.35922 15.6769 1.80249 15.6769H2.51836L2.70233 15.0514C2.94489 13.756 4.24201 11.374 7.49373 11.374C7.55178 11.374 7.61083 11.3746 7.67044 11.3766H11.102L17.3828 4.31164C17.5076 4.17143 17.6869 4.0905 17.8748 4.0905H23.7086V3.66286C23.7086 3.24492 24.0471 2.90635 24.4654 2.90635C24.8832 2.90635 25.2223 3.24492 25.2223 3.66286V4.0905H26.0567C26.42 4.0905 26.7148 4.38509 26.7148 4.749V16.1718H28.1316V11.9885H29.8261L40.4291 1.38553C40.9431 0.871488 41.7767 0.871488 42.2906 1.38553C42.8047 1.89958 42.8047 2.73311 42.2906 3.24704L31.8171 13.7205V16.1718H41.755L41.7549 16.1695V15.3144C41.7549 14.8965 42.0935 14.5572 42.5117 14.5572C42.9297 14.5572 43.2686 14.8965 43.2686 15.3144V16.1695L43.2685 16.1718H44.8061C44.9862 16.1718 45.1586 16.2451 45.2828 16.3757ZM6.20354 20.851C6.20354 22.1605 7.26902 23.2259 8.57876 23.2259C9.88826 23.2259 10.9536 22.1605 10.9536 20.851C10.9536 19.5415 9.88826 18.4761 8.57876 18.4761C7.26902 18.4761 6.20354 19.5415 6.20354 20.851ZM23.7571 10.9355H15.8971L19.7401 6.46003H23.7571V10.9355ZM37.8066 20.851C37.8066 22.1605 38.8719 23.2259 40.1815 23.2259C41.4912 23.2259 42.5567 22.1605 42.5567 20.851C42.5567 19.5415 41.4912 18.4761 40.1815 18.4761C38.872 18.4761 37.8066 19.5415 37.8066 20.851Z" fill="white"/>
<path d="M48.8186 20.0904L48.3874 20.5008L48.3878 20.5012L48.8186 20.0904ZM45.2828 16.3757L44.8514 16.786L44.8516 16.7862L45.2828 16.3757ZM48.9468 20.8034L49.4939 21.0381L49.4941 21.0377L48.9468 20.8034ZM44.9002 21.2022V20.6068C44.5884 20.6068 44.3294 20.8474 44.3065 21.1584L44.9002 21.2022ZM35.4631 21.2022L36.0568 21.1584C36.0339 20.8474 35.7749 20.6068 35.4631 20.6068V21.2022ZM13.2973 21.2022V20.6068C12.9855 20.6068 12.7265 20.8474 12.7035 21.1584L13.2973 21.2022ZM3.86002 21.2022L4.45375 21.1584C4.43081 20.8474 4.17182 20.6068 3.86002 20.6068V21.2022ZM1.51315 21.1475L1.74858 20.6007C1.74182 20.5977 1.73502 20.595 1.72816 20.5923L1.51315 21.1475ZM2.51836 15.6769V16.2723C2.78247 16.2723 3.01501 16.0983 3.08953 15.8449L2.51836 15.6769ZM2.70233 15.0514L3.27349 15.2193C3.27914 15.2001 3.28382 15.1806 3.2875 15.1609L2.70233 15.0514ZM7.67044 11.3766L7.65038 11.9716C7.65706 11.9718 7.66375 11.9719 7.67044 11.9719V11.3766ZM11.102 11.3766V11.9719C11.272 11.9719 11.434 11.8992 11.5469 11.7721L11.102 11.3766ZM17.3828 4.31164L16.9382 3.9158L16.9379 3.91608L17.3828 4.31164ZM23.7086 4.0905V4.68585C24.0374 4.68585 24.3039 4.41931 24.3039 4.0905H23.7086ZM25.2223 4.0905H24.6269C24.6269 4.41931 24.8935 4.68585 25.2223 4.68585V4.0905ZM26.7148 16.1718H26.1195C26.1195 16.5006 26.386 16.7671 26.7148 16.7671V16.1718ZM28.1316 16.1718V16.7671C28.4604 16.7671 28.727 16.5006 28.727 16.1718H28.1316ZM28.1316 11.9885V11.3932C27.8028 11.3932 27.5363 11.6597 27.5363 11.9885H28.1316ZM29.8261 11.9885V12.5839C29.984 12.5839 30.1355 12.5211 30.2471 12.4095L29.8261 11.9885ZM40.4291 1.38553L40.8501 1.80651V1.80651L40.4291 1.38553ZM42.2906 1.38553L41.8696 1.80646L41.8696 1.80651L42.2906 1.38553ZM42.2906 3.24704L41.8697 2.82602L41.8696 2.82607L42.2906 3.24704ZM31.8171 13.7205L31.3961 13.2996C31.2845 13.4112 31.2218 13.5626 31.2218 13.7205H31.8171ZM31.8171 16.1718H31.2218C31.2218 16.5006 31.4883 16.7671 31.8171 16.7671V16.1718ZM41.755 16.1718V16.7671C41.918 16.7671 42.0739 16.7003 42.1863 16.5822C42.2987 16.4641 42.3577 16.3051 42.3496 16.1423L41.755 16.1718ZM41.7549 16.1695H41.1596C41.1596 16.1794 41.1598 16.1892 41.1603 16.199L41.7549 16.1695ZM43.2686 16.1695L43.8632 16.199C43.8637 16.1892 43.8639 16.1794 43.8639 16.1695H43.2686ZM43.2685 16.1718L42.6739 16.1423C42.6658 16.3051 42.7248 16.4641 42.8372 16.5822C42.9496 16.7003 43.1055 16.7671 43.2685 16.7671V16.1718ZM15.8971 10.9355L15.4454 10.5477C15.2939 10.7241 15.259 10.9727 15.3561 11.1841C15.4532 11.3954 15.6645 11.5309 15.8971 11.5309V10.9355ZM23.7571 10.9355V11.5309C24.0859 11.5309 24.3525 11.2643 24.3525 10.9355H23.7571ZM19.7401 6.46003V5.86468C19.5665 5.86468 19.4015 5.94046 19.2884 6.07218L19.7401 6.46003ZM23.7571 6.46003H24.3525C24.3525 6.13123 24.0859 5.86468 23.7571 5.86468V6.46003ZM49.2498 19.6799L45.714 15.9652L44.8516 16.7862L48.3874 20.5008L49.2498 19.6799ZM49.4941 21.0377C49.6912 20.5772 49.5957 20.0426 49.2495 19.6795L48.3878 20.5012C48.4043 20.5185 48.4097 20.5452 48.3995 20.5691L49.4941 21.0377ZM48.342 21.7975C48.8437 21.7975 49.2966 21.4982 49.4939 21.0381L48.3996 20.5688C48.3897 20.5918 48.3669 20.6068 48.342 20.6068V21.7975ZM44.9002 21.7975H48.342V20.6068H44.9002V21.7975ZM40.1816 26.1791C42.9879 26.1791 45.2909 24.0002 45.494 21.246L44.3065 21.1584C44.1488 23.2963 42.3587 24.9884 40.1816 24.9884V26.1791ZM34.8694 21.246C35.0725 24.0002 37.3755 26.1791 40.1816 26.1791V24.9884C38.0047 24.9884 36.2145 23.2963 36.0568 21.1584L34.8694 21.246ZM13.2973 21.7975H35.4631V20.6068H13.2973V21.7975ZM8.57875 26.1791C11.3848 26.1791 13.6878 24.0002 13.891 21.246L12.7035 21.1584C12.5458 23.2963 10.7556 24.9884 8.57875 24.9884V26.1791ZM3.26628 21.246C3.46953 24.0002 5.77251 26.1791 8.57875 26.1791V24.9884C6.40171 24.9884 4.61152 23.2963 4.45375 21.1584L3.26628 21.246ZM1.8026 21.7975H3.86002V20.6068H1.8026V21.7975ZM1.77314 21.7975H1.8026V20.6068H1.77314V21.7975ZM1.27773 21.6943C1.42758 21.7588 1.59548 21.7975 1.77314 21.7975V20.6068C1.76928 20.6068 1.76103 20.606 1.74858 20.6007L1.27773 21.6943ZM0.404651 20.3997C0.404651 20.9955 0.777507 21.501 1.29815 21.7026L1.72816 20.5923C1.64869 20.5615 1.59535 20.4855 1.59535 20.3997H0.404651ZM0.404651 16.4794V20.3997H1.59535V16.4794H0.404651ZM1.80249 15.0816C1.0302 15.0816 0.404651 15.708 0.404651 16.4794H1.59535C1.59535 16.3652 1.68824 16.2723 1.80249 16.2723V15.0816ZM2.51836 15.0816H1.80249V16.2723H2.51836V15.0816ZM2.13116 14.8834L1.9472 15.509L3.08953 15.8449L3.27349 15.2193L2.13116 14.8834ZM7.49373 10.7787C3.86763 10.7787 2.39443 13.4611 2.11715 14.9418L3.2875 15.1609C3.49536 14.051 4.61639 11.9694 7.49373 11.9694V10.7787ZM7.6905 10.7816C7.62166 10.7792 7.55532 10.7787 7.49373 10.7787V11.9694C7.54824 11.9694 7.6 11.9699 7.65038 11.9716L7.6905 10.7816ZM11.102 10.7812H7.67044V11.9719H11.102V10.7812ZM16.9379 3.91608L10.6571 10.981L11.5469 11.7721L17.8278 4.7072L16.9379 3.91608ZM17.8748 3.49515C17.516 3.49515 17.1753 3.64943 16.9382 3.9158L17.8275 4.70747C17.84 4.69344 17.8578 4.68585 17.8748 4.68585V3.49515ZM23.7086 3.49515H17.8748V4.68585H23.7086V3.49515ZM23.1132 3.66286V4.0905H24.3039V3.66286H23.1132ZM24.4654 2.311C23.7185 2.311 23.1132 2.91595 23.1132 3.66286H24.3039C24.3039 3.5739 24.3758 3.5017 24.4654 3.5017V2.311ZM25.8176 3.66286C25.8176 2.91572 25.2116 2.311 24.4654 2.311V3.5017C24.5548 3.5017 24.6269 3.57412 24.6269 3.66286H25.8176ZM25.8176 4.0905V3.66286H24.6269V4.0905H25.8176ZM26.0567 3.49515H25.2223V4.68585H26.0567V3.49515ZM27.3102 4.749C27.3102 4.05635 26.7489 3.49515 26.0567 3.49515V4.68585C26.0912 4.68585 26.1195 4.71382 26.1195 4.749H27.3102ZM27.3102 16.1718V4.749H26.1195V16.1718H27.3102ZM28.1316 15.5764H26.7148V16.7671H28.1316V15.5764ZM27.5363 11.9885V16.1718H28.727V11.9885H27.5363ZM29.8261 11.3932H28.1316V12.5839H29.8261V11.3932ZM40.0081 0.96456L29.4052 11.5675L30.2471 12.4095L40.8501 1.80651L40.0081 0.96456ZM42.7116 0.964605C41.9652 0.217975 40.7546 0.21804 40.0081 0.96456L40.8501 1.80651C41.1317 1.52494 41.5882 1.525 41.8696 1.80646L42.7116 0.964605ZM42.7115 3.66806C43.4582 2.92159 43.4581 1.71108 42.7116 0.96456L41.8696 1.80651C42.1512 2.08808 42.1511 2.54462 41.8697 2.82602L42.7115 3.66806ZM32.2381 14.1415L42.7116 3.66802L41.8696 2.82607L31.3961 13.2996L32.2381 14.1415ZM32.4125 16.1718V13.7205H31.2218V16.1718H32.4125ZM41.755 15.5764H31.8171V16.7671H41.755V15.5764ZM41.1603 16.199L41.1604 16.2012L42.3496 16.1423L42.3495 16.1401L41.1603 16.199ZM41.1596 15.3144V16.1695H42.3503V15.3144H41.1596ZM42.5117 13.9618C41.7641 13.9618 41.1596 14.5683 41.1596 15.3144H42.3503C42.3503 15.2248 42.4229 15.1525 42.5117 15.1525V13.9618ZM43.8639 15.3144C43.8639 14.5681 43.2589 13.9618 42.5117 13.9618V15.1525C42.6005 15.1525 42.6732 15.2249 42.6732 15.3144H43.8639ZM43.8639 16.1695V15.3144H42.6732V16.1695H43.8639ZM43.8631 16.2012L43.8632 16.199L42.674 16.1401L42.6739 16.1423L43.8631 16.2012ZM44.8061 15.5764H43.2685V16.7671H44.8061V15.5764ZM45.7142 15.9654C45.4767 15.7158 45.148 15.5764 44.8061 15.5764V16.7671C44.8244 16.7671 44.8404 16.7745 44.8514 16.786L45.7142 15.9654ZM8.57876 22.6305C7.59775 22.6305 6.79888 21.8316 6.79888 20.851H5.60819C5.60819 22.4894 6.9403 23.8212 8.57876 23.8212V22.6305ZM10.3583 20.851C10.3583 21.8317 9.55946 22.6305 8.57876 22.6305V23.8212C10.2171 23.8212 11.549 22.4893 11.549 20.851H10.3583ZM8.57876 19.0715C9.55946 19.0715 10.3583 19.8703 10.3583 20.851H11.549C11.549 19.2127 10.2171 17.8808 8.57876 17.8808V19.0715ZM6.79888 20.851C6.79888 19.8704 7.59775 19.0715 8.57876 19.0715V17.8808C6.9403 17.8808 5.60819 19.2126 5.60819 20.851H6.79888ZM15.8971 11.5309H23.7571V10.3402H15.8971V11.5309ZM19.2884 6.07218L15.4454 10.5477L16.3488 11.3234L20.1918 6.84788L19.2884 6.07218ZM23.7571 5.86468H19.7401V7.05538H23.7571V5.86468ZM24.3525 10.9355V6.46003H23.1618V10.9355H24.3525ZM40.1815 22.6305C39.2007 22.6305 38.402 21.8317 38.402 20.851H37.2113C37.2113 22.4893 38.5431 23.8212 40.1815 23.8212V22.6305ZM41.9614 20.851C41.9614 21.8316 41.1625 22.6305 40.1815 22.6305V23.8212C41.82 23.8212 43.1521 22.4894 43.1521 20.851H41.9614ZM40.1815 19.0715C41.1625 19.0715 41.9614 19.8704 41.9614 20.851H43.1521C43.1521 19.2126 41.82 17.8808 40.1815 17.8808V19.0715ZM38.402 20.851C38.402 19.8703 39.2008 19.0715 40.1815 19.0715V17.8808C38.5432 17.8808 37.2113 19.2127 37.2113 20.851H38.402Z" fill="black"/>
</svg>
