<svg height="96" viewBox="0 0 96 96" width="96" xmlns="http://www.w3.org/2000/svg"><g fill="none" fill-rule="evenodd"><path d="m0 0h96v96h-96z" fill="none"/><g fill="#090909" transform="translate(9 39)"><path d="m59 18.8022581c-1.5474194 0-2.8019355-1.2548387-2.8019355-2.8022581 0-1.5470968 1.2545161-2.8016129 2.8019355-2.8016129s2.8019355 1.2545161 2.8019355 2.8016129c0 1.5474194-1.2545161 2.8022581-2.8019355 2.8022581m0-7.8022581c-2.7616129 0-5 2.2387097-5 5 0 2.7616129 2.2383871 5 5 5s5-2.2383871 5-5c0-2.7612903-2.2383871-5-5-5"/><path d="m15 18.8022581c-1.5474194 0-2.8019355-1.2548387-2.8019355-2.8022581 0-1.5470968 1.2545161-2.8016129 2.8019355-2.8016129s2.8019355 1.2545161 2.8019355 2.8016129c0 1.5474194-1.2545161 2.8022581-2.8019355 2.8022581m0-7.8022581c-2.7616129 0-5 2.2387097-5 5 0 2.7616129 2.2383871 5 5 5s5-2.2383871 5-5c0-2.7612903-2.2383871-5-5-5"/><path d="m62.2713945 5.94497832-.5895794-4.87253201c.839664-.00670664 3.3431494-.00574855 5.6582465-.00383237 1.8386826.00159682 3.4705011 1.13629606 4.0614002 2.82125895l.591559 1.68879526zm-17.5402342.41645027.6021166-5.21872227c1.4553076-.01181646 3.0818473-.02363291 4.9225095-.04918201 3.3065275-.04598837 9.6843446-.00255491 9.6843446-.00255491l.4411122 4.90351029zm-10.5705282-4.30502271c2.3520489-.73325907 5.023797-.84918809 9.5111329-.89805074l-.604756 5.24203582-17.2423102.40335635s2.5090942-2.93080069 8.3359333-4.74734143zm41.8268138 8.25459362c0-1.69805681-1.160353-4.90382966-2.1326476-7.29203143-.7393662-1.81654074-2.5509948-3.00872544-4.568168-2.99467343-4.8980948.03353318-13.9621768.08558947-17.5910429.03544937-5.7760303-.0792022-9.8578861-.0651502-12.2363291-.03992047-2.6955029.02842337-5.3649415.5279082-7.8618283 1.51090968-2.4371701.95968793-5.5077999 2.53127671-8.7918923 5.09353169-9.5807475.13572958-15.6609705 1.27266436-18.06118876 1.82037311-.75883189.17309513-1.40911782.64639213-1.79348267 1.30268454-.99275007 1.69614064-1.09271792 2.40672484-1.09271792 2.40672484s-1.85814835-.0447109-1.85814835 1.6188546c0 2.6523156 3.43717853 4.181429 9.0106338 4.2261399.12669193.0009581.25338386.0009581.38040572.0009581-.35797069-.8277907-.52260422-1.7536261-.43484366-2.7251305.24348606-2.6919166 2.46653354-4.8958455 5.24220864-5.1848697 3.5651902-.37173934 6.5790725 2.3227322 6.5790725 5.6980872 0 .4490254-.058727.88336-.1593547 1.3020458.0207854-.0028743.0353022-.0051098.0353022-.0051098h32.6548457c-.2322686-.9724625-.2385372-2.0285982.1890481-3.1492455.884864-2.3211354 3.1039523-3.9138022 5.6595662-3.8796302 3.231964.0437528 5.8380566 2.5932332 5.8380566 5.7319397 0 .4467898-.0577372.8795276-.157705 1.296936h.0339824l13.1287815-2.2783407v-2.6076046s-.2939649-1.8880782-2.0125541-1.8880782z"/></g></g></svg>