<svg width="81" height="33" viewBox="0 0 81 33" fill="none" xmlns="http://www.w3.org/2000/svg">
<path fill-rule="evenodd" clip-rule="evenodd" d="M23.2457 24.5562C23.2457 21.3662 20.6526 18.7803 17.4537 18.7803C14.2548 18.7803 11.6616 21.3662 11.6616 24.5562C11.6616 27.7462 14.2548 30.3321 17.4537 30.3321C20.6526 30.3321 23.2457 27.7462 23.2457 24.5562Z" stroke="black" stroke-width="3.36"/>
<path fill-rule="evenodd" clip-rule="evenodd" d="M64.5011 24.5562C64.5011 21.3662 61.908 18.7803 58.709 18.7803C55.5101 18.7803 52.917 21.3662 52.917 24.5562C52.917 27.7462 55.5101 30.3321 58.709 30.3321C61.908 30.3321 64.5011 27.7462 64.5011 24.5562Z" stroke="black" stroke-width="3.36"/>
<path d="M23.2456 25.7455H52.9167" stroke="black" stroke-width="3.36"/>
<path d="M64.5012 25.7455H74.662C77.1171 25.7455 79.1077 23.7604 79.1077 21.3122V12.2955H56.3672L56.5702 7.12748C54.0572 6.94608 51.64 9.36356 49.2537 12.5995L34.2146 12.498L42.6485 2.00695C39.3256 1.90545 34.7489 2.91876 32.0713 4.88384L27.4665 8.26441C25.3904 9.78842 22.9981 10.8287 20.4656 11.3087L5.76916 13.9869C3.77207 14.3513 2.28548 16.0335 2.17505 18.0552L2.00668 21.1286C1.86918 23.6368 3.87168 25.7455 6.39065 25.7455H11.6614" stroke="black" stroke-width="3.36"/>
</svg>
