<svg height="96" viewBox="0 0 96 96" width="96" xmlns="http://www.w3.org/2000/svg"><g fill="none" fill-rule="evenodd"><path d="m0 0h96v96h-96z" fill="none"/><g fill="#090909" transform="translate(1 18)"><path d="m64.5 39.9819869c-1.7023407 0-3.0823248-1.3799841-3.0823248-3.0819869 0-1.7023407 1.3799841-3.0823248 3.0823248-3.0823248s3.0823248 1.3799841 3.0823248 3.0823248c0 1.7020028-1.3799841 3.0819869-3.0823248 3.0819869m0-8.5819869c-3.0377219 0-5.5 2.4622781-5.5 5.5 0 3.037384 2.4622781 5.5 5.5 5.5s5.5-2.462616 5.5-5.5c0-3.0377219-2.4622781-5.5-5.5-5.5"/><path d="m11.9 39.9819869c-1.7023407 0-3.08232475-1.3799841-3.08232475-3.0819869 0-1.7023407 1.37998405-3.0823248 3.08232475-3.0823248s3.0823248 1.3799841 3.0823248 3.0823248c0 1.7020028-1.3799841 3.0819869-3.0823248 3.0819869m0-8.5819869c-3.03772194 0-5.5 2.4622781-5.5 5.5 0 3.037384 2.46227806 5.5 5.5 5.5 3.0377219 0 5.5-2.462616 5.5-5.5 0-3.0377219-2.4622781-5.5-5.5-5.5"/><path d="m72.4180454 22.7873269c0 .673133-.5406417 1.2192035-1.2074878 1.2192035h-17.3363565c-.6671748 0-1.2078165-.5460705-1.2078165-1.2192035v-7.2492011c0-.673133.5406417-1.21854 1.2078165-1.21854h17.3363565c.6668461 0 1.2074878.545407 1.2074878 1.21854zm-27.5046921 10.0286533c0 .673133-.5406417 1.2185399-1.2074878 1.2185399h-6.5885977c-.6668461 0-1.2074878-.5454069-1.2074878-1.2185399v-17.2778544c0-.673133.5406417-1.21854 1.2074878-1.21854h6.5885977c.6668461 0 1.2074878.545407 1.2074878 1.21854zm-35.35106221-9.5854272 5.47379131-6.7751218c.9623093-1.3416214 2.5040418-2.1358454 4.1453575-2.1358454h7.441464l.2474792 8.8927206zm82.48909841 9.6822999v-.8774947l-1.1690349-11.6549213-1.5650672-16.30050116c0-2.253287-1.8092598-4.07993574-4.0415018-4.07993574h-63.2810371c-2.9641624 0-5.3669776 2.42580014-5.3669776 5.4182396 0 2.99177594 2.4028152 5.4175761 5.3669776 5.4175761h6.4107939v2.2227654l-10.5683118-.0371566c-1.4273597-.0046446-2.7781422.6509053-3.6658462 1.7795393l-6.4876998 7.4674967-2.83861516 1.4580678c-1.15884648.595502-2.56615807 2.7701629-2.61841461 4.0815945-.09596801 2.4035725-.23597612 5.1183321-.22743102 6.0999982h-1.99922381v1.988214c0 1.1621414.93338741 2.103665 2.08434611 2.103665h.75755563 2.4064305c-.19259332-.8370205-.23860538-1.154511-.10089787-1.9998254.44763157-2.7535751 2.41924815-5.039706 5.10438023-5.7022228 4.5867446-1.1326151 8.6834608 2.3421977 8.6834608 6.7827522 0 .5454069-.0683607.4100505-.1853628.919296h.0404249.9787421 37.8294687c-.2757437-1.2019521-.2793589-1.8283075.2402487-3.2332943 1.018181-2.7525799 3.5895976-4.6814095 6.5005174-4.6850588 3.8331329-.0043128 6.9422332 3.1307817 6.9422332 6.9990571 0 .5454069-.0680321.4100505-.1850342.919296h.0397676l19.8187069-.6635121c.2931625 0 .5311106-.2395278.5311106-.535786v-.6605262c.4834552-.1008539 1.0625498-.2637461 1.5433758-.4090552.5761367-.174172.9705257-.7076357.9705257-1.3147492v-1.5035184z"/></g></g></svg>