<svg height="96" viewBox="0 0 96 96" width="96" xmlns="http://www.w3.org/2000/svg"><g fill="none" fill-rule="evenodd"><path d="m0 0h96v96h-96z" fill="none"/><g fill="#090909" transform="translate(13 39)"><path d="m59 18.8022581c-1.5474194 0-2.8019355-1.2548387-2.8019355-2.8022581 0-1.5470968 1.2545161-2.8016129 2.8019355-2.8016129s2.8019355 1.2545161 2.8019355 2.8016129c0 1.5474194-1.2545161 2.8022581-2.8019355 2.8022581m0-7.8022581c-2.7616129 0-5 2.2387097-5 5 0 2.7616129 2.2383871 5 5 5 2.7612903 0 5-2.2383871 5-5 0-2.7612903-2.2387097-5-5-5"/><path d="m15 18.8022581c-1.5474194 0-2.8019355-1.2548387-2.8019355-2.8022581 0-1.5470968 1.2545161-2.8016129 2.8019355-2.8016129s2.8019355 1.2545161 2.8019355 2.8016129c0 1.5474194-1.2545161 2.8022581-2.8019355 2.8022581m0-7.8022581c-2.7616129 0-5 2.2387097-5 5 0 2.7616129 2.2383871 5 5 5 2.7612903 0 5-2.2383871 5-5 0-2.7612903-2.2387097-5-5-5"/><path d="m55.907345 6.08723863-.9362426-4.908391c1.2034571.04310087 2.2478422.08875587 2.8513897.10280356.5846969.01372843 1.1144958.32980148 1.3906395.82785598l1.3112688 3.88865633zm-14.3773272.27712263.6035475-5.21680167c1.4590966-.01181283 6.3962802-.02362566 8.2413165-.04916692.9051558-.01245136 1.9148163.00223486 2.9046342.02777612l.9524474 4.99363494zm-1.6684366.03895042-16.9522426.40387112s2.5150567-2.93022067 8.3560732-4.74588475c2.3573076-.73303407 4.7050245-.84924678 9.2026932-.89809444zm29.1207514 4.89083142c0-1.2154446.8611713-2.7654796-.9425262-4.92978184l-4.6329295-4.94766068c-.839675-.8964981-2.0351951-1.40317278-3.2872667-1.39104069-2.5312615.02458346-6.7851962.06034122-8.3015059.03958895-9.0958735-.12483289-13.1877599-.03033024-12.2650764-.04022748-2.7022391.02873392-8.354089.52774622-10.85724 1.51044607-2.4429617.95939345-5.5208884 2.5305-8.812785 5.09196878-9.6061606.13568792-12.72542613 1.27323164-15.13002534 1.82045307-.7593123.17272274-1.40949.64491673-1.79443753 1.30036923-.99610134 1.69625869-1.09630675 2.40758269-1.09630675 2.40758269s-1.86223328-.0450165-1.86223328 1.6180386c0 2.651821 3.44501581 4.1801459 9.03204636 4.2251624.12666228.0009578.25365528.0009578.38097899.0009578-.35882136-.827856-.52384612-1.7534073-.43587701-2.7246136.24406467-2.6907713 2.47239496-4.8943433 5.25433536-5.1832787 3.5739931-.37130605 6.5950375 2.3220195 6.5950375 5.696658 0 .4485683-.0585359.8827697-.1597334 1.3016463.0211655-.0031927.0357168-.0057468.0357168-.0057468h32.7321148c-.2328205-.9718448-.2387733-2.0273372.1894973-3.1479599.8869668-2.3204231 3.1113285-3.9126012 5.6730154-3.8784398 3.2396444.0437394 5.85193 2.5927568 5.85193 5.7305002 0 .4463335-.0578744.8792578-.1580798 1.2958995h.0340632l5.9749545-1.2958995v-2.6068045s-.2949942-1.8878181-2.0176674-1.8878181z"/></g></g></svg>