<svg width="82" height="33" viewBox="0 0 82 33" fill="none" xmlns="http://www.w3.org/2000/svg">
<path fill-rule="evenodd" clip-rule="evenodd" d="M23.246 24.5562C23.246 21.3662 20.6523 18.7803 17.4534 18.7803C14.2551 18.7803 11.6614 21.3662 11.6614 24.5562C11.6614 27.7462 14.2551 30.3321 17.4534 30.3321C20.6523 30.3321 23.246 27.7462 23.246 24.5562Z" stroke="black" stroke-width="3.36"/>
<path fill-rule="evenodd" clip-rule="evenodd" d="M67.673 24.5562C67.673 21.3662 65.0794 18.7803 61.8804 18.7803C58.6821 18.7803 56.0884 21.3662 56.0884 24.5562C56.0884 27.7462 58.6821 30.3321 61.8804 30.3321C65.0794 30.3321 67.673 27.7462 67.673 24.5562Z" stroke="black" stroke-width="3.36"/>
<path d="M23.1223 25.746H56.0887" stroke="black" stroke-width="3.36"/>
<path d="M67.673 25.7459H75.6554C78.1105 25.7459 80.1011 23.7609 80.1011 21.3126V16.2639C80.1011 13.9863 78.3704 12.0795 76.0977 11.8528L70.7312 11.4776C68.7531 11.3394 66.8826 10.5263 65.434 9.17562L60.6862 4.7461C59.1509 3.31387 57.1446 2.48843 55.0436 2.42472L41.3335 2.00687C38.0101 1.90592 34.7489 2.91923 32.0713 4.88431L27.4665 8.26488C25.3904 9.78889 22.9981 10.8292 20.4656 11.3086L5.76916 13.9873C3.77207 14.3512 2.28548 16.0334 2.17505 18.0552L2.00668 21.1291C1.86918 23.6373 3.87168 25.7459 6.39065 25.7459H11.6614" stroke="black" stroke-width="3.36"/>
<path d="M76.0977 11.9482H17.4534" stroke="black" stroke-width="3.36"/>
</svg>
