<svg width="96" height="42" viewBox="0 0 96 42" fill="none" xmlns="http://www.w3.org/2000/svg">
<path fill-rule="evenodd" clip-rule="evenodd" d="M29.4112 34.9146C29.4112 32.1732 27.1829 29.9512 24.4339 29.9512C21.6848 29.9512 19.4561 32.1732 19.4561 34.9146C19.4561 37.656 21.6848 39.878 24.4339 39.878C27.1829 39.878 29.4112 37.656 29.4112 34.9146Z" stroke="black" stroke-width="3.36"/>
<path fill-rule="evenodd" clip-rule="evenodd" d="M76.4005 34.9146C76.4005 32.1732 74.1717 29.9512 71.4226 29.9512C68.6741 29.9512 66.4453 32.1732 66.4453 34.9146C66.4453 37.656 68.6741 39.878 71.4226 39.878C74.1717 39.878 76.4005 37.656 76.4005 34.9146Z" stroke="black" stroke-width="3.36"/>
<path d="M29.4111 35.5639H66.4453" stroke="black" stroke-width="3.36"/>
<path d="M76.3576 35.5639H89.6113C92.0664 35.5639 94.057 33.5794 94.057 31.1311V14.8199V6.44517C94.057 3.99045 92.0615 2 89.5999 2H20.9181C11.7496 2 13.0852 16.3693 7.88589 18.7819C2.68663 21.1951 2.6574 22.4292 2.17505 27.8737L2.00668 30.9471C1.86918 33.4552 3.87168 35.5639 6.39065 35.5639H19.5328" stroke="black" stroke-width="3.36"/>
<path d="M7.88574 18.7821H94.0568" stroke="black" stroke-width="3.36"/>
</svg>
