<svg width="81" height="44" viewBox="0 0 81 44" fill="none" xmlns="http://www.w3.org/2000/svg">
<path fill-rule="evenodd" clip-rule="evenodd" d="M23.266 36.2705C23.266 33.0805 20.6729 30.4946 17.4739 30.4946C14.275 30.4946 11.6819 33.0805 11.6819 36.2705C11.6819 39.4605 14.275 42.0465 17.4739 42.0465C20.6729 42.0465 23.266 39.4605 23.266 36.2705Z" stroke="black" stroke-width="3.36"/>
<path fill-rule="evenodd" clip-rule="evenodd" d="M67.078 36.2705C67.078 33.0805 64.4849 30.4946 61.2859 30.4946C58.087 30.4946 55.4939 33.0805 55.4939 36.2705C55.4939 39.4605 58.087 42.0465 61.2859 42.0465C64.4849 42.0465 67.078 39.4605 67.078 36.2705Z" stroke="black" stroke-width="3.36"/>
<path d="M23.2659 37.4599H55.6172" stroke="black" stroke-width="3.36"/>
<path d="M66.9546 37.4599H74.682C77.1377 37.4599 79.1277 35.4748 79.1277 33.0266V14.8199V6.44517C79.1277 3.99045 77.1323 2 74.6707 2H35.9464V12.2697H28.6867C19.5176 12.2697 19.4055 17.1969 11.0458 20.9516C2.2914 24.8823 1.85181 24.1168 2.02667 29.7583V32.843C2.02017 35.3447 3.89167 37.4599 6.41063 37.4599H11.6814" stroke="black" stroke-width="3.36"/>
<path d="M11.0457 20.9515H35.9468V12.2695" stroke="black" stroke-width="3.36"/>
</svg>
