<svg height="96" viewBox="0 0 96 96" width="96" xmlns="http://www.w3.org/2000/svg"><g fill="none" fill-rule="evenodd"><path d="m0 0h96v96h-96z" fill="none"/><g fill="#090909" transform="translate(14 27)"><path d="m47.8001689 31.0820611c-1.7022884 0-3.08223-1.3799416-3.08223-3.0818922 0-1.7022884 1.3799416-3.08223 3.08223-3.08223 1.7019506 0 3.0818922 1.3799416 3.0818922 3.08223 0 1.7019506-1.3799416 3.0818922-3.0818922 3.0818922m0-8.5820611c-3.0376286 0-5.5001689 2.4625403-5.5001689 5.5001689 0 3.0372908 2.4625403 5.4998311 5.5001689 5.4998311 3.0372908 0 5.4998311-2.4625403 5.4998311-5.4998311 0-3.0376286-2.4625403-5.5001689-5.4998311-5.5001689"/><path d="m12.7998311 31.0820611c-1.7022885 0-3.08223012-1.3799416-3.08223012-3.0818922 0-1.7022884 1.37994162-3.08223 3.08223012-3.08223 1.7022884 0 3.08223 1.3799416 3.08223 3.08223 0 1.7019506-1.3799416 3.0818922-3.08223 3.0818922m0-8.5820611c-3.03762867 0-5.4998311 2.4625403-5.4998311 5.5001689 0 3.0372908 2.46220243 5.4998311 5.4998311 5.4998311 3.0376286 0 5.5001689-2.4625403 5.5001689-5.4998311 0-3.0376286-2.4625403-5.5001689-5.5001689-5.5001689"/><path d="m19.8035791 15.8796842-8.9219827.0119096c-.5685098.0006616-1.11810183.2080856-1.54864278.5848895l-2.58291954 2.2578455h-2.15270476v-2.8351262l5.87036068-6.63856218c1.0323197-1.4456828 1.8506737-2.3018446 3.6103468-2.3018446h5.8129551zm45.8242347 8.0471932v-23.9268774h-39.3912353v22.7418807l-4.3168254-.0635175.0280504-17.29823977-8.8714268-.04631478c-1.4165449-.00463148-2.7570929.64939939-3.63807102 1.77451774l-6.76862562 8.01245711c-.39466253.5058235-.61449935 1.1267724-.62526288 1.772202-.02902889 1.7497062-.08219418 5.4403326-.06034096 8.0263515h-1.98407622v1.9826034c0 1.158862.92631538 2.0980596 2.06855357 2.0980596h.75181583 3.3663736c-.19080792-.8346585-.23614519-1.1512531-.09980722-1.9941821.44423998-2.7458049 2.40091814-5.0258154 5.06570572-5.6867935 4.551992-1.1290882 8.6173423 2.3362499 8.6173423 6.7642738 0 .543537-.0675166.4088933-.1836322.9167018h.0401186.9713265 20.2178116c-.0407709-.3073317-.0694736-.6179715-.0694736-.936551 0-.0691414.0084803-.1362978.0104373-.2047775-.0172868-.3718416.0176131-.7314427.122639-1.1558846.6242843-3.197374 3.4029043-5.60872 6.7386182-5.60872.625589 0 1.2286725.0919679 1.8046841.2510923.0264196.0069472.0531653.0132328.0792587.0205108.150037.0433374.2964862.0932912.442283.1462224.0626241.0231574.1252483.0453223.1872201.0694722.1183987.047638.2345143.0985843.3496514.1521771.0887175.0410217.1761304.0836974.2628909.1283581.0896961.0469764.1780874.0942837.2655003.1448991.1138324.0651715.2247293.1343129.3346477.2061008.058384.0383751.1174203.0757577.1748257.1157869.1467754.1022234.288332.2107323.4263008.3238727.0189177.0155485.0388139.029443.0574055.0453223 1.2625939 1.0556462 2.1507477 2.5549218 2.4227713 4.266253.001957.0125711.0084804.0224957.0130467.0334128v.2510922c.0309859.2679641.0508821.5385748.0508821.8148094 0 .2759037-.0198962.5468452-.0508821.8144785v.1220725h4.8331484v-1.9796261l4.7069215-.0052931c.2909413 0 .5267604-.2388519.5267604-.5342741v-.6586623c.4804445-.1009001 1.0558038-.2633326 1.5329867-.4085625.5714452-.1733496.9618676.6176407.9618676.0122403v-1.4989448z"/></g></g></svg>