<svg height="96" viewBox="0 0 96 96" width="96" xmlns="http://www.w3.org/2000/svg"><g fill="none" fill-rule="evenodd"><path d="m0 0h96v96h-96z" fill="none"/><g fill="#090909" transform="translate(9 35)"><path d="m61.5001689 22.5820611c-1.7022884 0-3.08223-1.3799416-3.08223-3.0818922 0-1.7022884 1.3799416-3.08223 3.08223-3.08223 1.7019506 0 3.0818922 1.3799416 3.0818922 3.08223 0 1.7019506-1.3799416 3.0818922-3.0818922 3.0818922m0-8.5820611c-3.0376286 0-5.5001689 2.4625403-5.5001689 5.5001689 0 3.0372908 2.4625403 5.4998311 5.5001689 5.4998311 3.0372908 0 5.4998311-2.4625403 5.4998311-5.4998311 0-3.0376286-2.4625403-5.5001689-5.4998311-5.5001689"/><path d="m12.9998311 22.5820611c-1.7022885 0-3.08223012-1.3799416-3.08223012-3.0818922 0-1.7022884 1.37994162-3.08223 3.08223012-3.08223 1.7022884 0 3.08223 1.3799416 3.08223 3.08223 0 1.7019506-1.3799416 3.0818922-3.08223 3.0818922m0-8.5820611c-3.03762867 0-5.4998311 2.4625403-5.4998311 5.5001689 0 3.0372908 2.46220243 5.4998311 5.4998311 5.4998311 3.0376286 0 5.5001689-2.4625403 5.5001689-5.4998311 0-3.0376286-2.4625403-5.5001689-5.5001689-5.5001689"/><path d="m42.1468429 8.8286694-.329597-7.61169772h.7199005l1.200604 7.59614396zm-2.4384898-.01555376-16.5824564.01555376 5.005981-5.78693092c.8799151-1.14600084 2.2896928-1.8247668 3.7905303-1.8247668h7.8605086zm36.3355103 6.41654706v-.8227938l-1.9181951-5.23041749c-.1273518-.34747094-.4744349-.58046622-.8644085-.58046622h-27.2945232l-1.9307323-8.55238896-13.2627318-.0435735c-1.4328725-.00433207-2.789202.61066349-3.6800047 1.66863006l-6.5130871 7.00199043s-13.55669667.77924324-16.37163306 1.43716718c-2.6803262.6268164-2.23195553 2.7648359-2.20160226 6.0550777h-2.00694538v1.8642733c0 1.0896963.93666249 1.9728386 2.09239645 1.9728386h.7601516 3.40550555c-.19300724-.7848426-.23886708-1.0825415-.10095763-1.875161.44936045-2.5819237 2.42826204-4.7258536 5.12376493-5.3473817 4.6044599-1.0616995 8.7169988 2.1965016 8.7169988 6.3605535 0 .5110964-.0682949.3844889-.1857488.8619892h.040251.9828523 34.097946c-.2768087-1.1270252-.2804379-1.7146462.2411766-3.0320494 1.0221135-2.5813016 3.6031317-4.3895814 6.5256243-4.3930032 3.8479375-.004044 6.9687161 2.9356161 6.9687161 6.5630634 0 .5110964-.0682948.3844889-.1854189.8619892h.0395913l6.4207075-.6221503c.2942948 0 .532832-.2252184.532832-.5023863v-.6193507c.4859823-.0948779 1.0676435-.2476158 1.5506564-.3841778.578032-.1630033.9729545-.6638343.9729545-1.2327908v-1.4094814z"/></g></g></svg>