<svg width="83" height="33" viewBox="0 0 83 33" fill="none" xmlns="http://www.w3.org/2000/svg">
<path fill-rule="evenodd" clip-rule="evenodd" d="M23.2463 24.5562C23.2463 21.3662 20.6526 18.7803 17.4537 18.7803C14.2553 18.7803 11.6616 21.3662 11.6616 24.5562C11.6616 27.7462 14.2553 30.3321 17.4537 30.3321C20.6526 30.3321 23.2463 27.7462 23.2463 24.5562Z" stroke="black" stroke-width="3.36"/>
<path fill-rule="evenodd" clip-rule="evenodd" d="M67.673 24.5562C67.673 21.3662 65.0794 18.7803 61.8804 18.7803C58.6821 18.7803 56.0884 21.3662 56.0884 24.5562C56.0884 27.7462 58.6821 30.3321 61.8804 30.3321C65.0794 30.3321 67.673 27.7462 67.673 24.5562Z" stroke="black" stroke-width="3.36"/>
<path d="M23.1226 25.746H56.0889" stroke="black" stroke-width="3.36"/>
<path d="M67.673 25.7459H76.6191C79.0747 25.7459 81.0648 23.7614 81.0648 21.3132V17.9175C81.0648 9.15618 73.9491 2.05006 65.1633 2.03819L41.3335 2.00687C38.0101 1.90592 34.7489 2.91923 32.0713 4.88431L27.4665 8.26488C25.3904 9.78889 22.9981 10.8292 20.4656 11.3086L5.76916 13.9873C3.77207 14.3512 2.28548 16.0334 2.17505 18.0557L2.00668 21.1291C1.86918 23.6373 3.87168 25.7459 6.39065 25.7459H11.6614" stroke="black" stroke-width="3.36"/>
<path d="M17.3267 11.8578H79.9738" stroke="black" stroke-width="3.36"/>
</svg>
