<svg width="96" height="42" viewBox="0 0 96 42" fill="none" xmlns="http://www.w3.org/2000/svg">
<path fill-rule="evenodd" clip-rule="evenodd" d="M29.4117 34.9146C29.4117 32.1732 27.1834 29.9512 24.4344 29.9512C21.6853 29.9512 19.4565 32.1732 19.4565 34.9146C19.4565 37.656 21.6853 39.878 24.4344 39.878C27.1834 39.878 29.4117 37.656 29.4117 34.9146Z" stroke="black" stroke-width="3.36"/>
<path fill-rule="evenodd" clip-rule="evenodd" d="M81.3785 34.9146C81.3785 32.1732 79.1497 29.9512 76.4006 29.9512C73.6516 29.9512 71.4233 32.1732 71.4233 34.9146C71.4233 37.656 73.6516 39.878 76.4006 39.878C79.1497 39.878 81.3785 37.656 81.3785 34.9146Z" stroke="black" stroke-width="3.36"/>
<path fill-rule="evenodd" clip-rule="evenodd" d="M68.8506 34.9146C68.8506 32.1732 66.6219 29.9512 63.8728 29.9512C61.1243 29.9512 58.8955 32.1732 58.8955 34.9146C58.8955 37.656 61.1243 39.878 63.8728 39.878C66.6219 39.878 68.8506 37.656 68.8506 34.9146Z" stroke="black" stroke-width="3.36"/>
<path d="M29.4116 35.5639H58.8954" stroke="black" stroke-width="3.36"/>
<path d="M81.3787 35.5639H89.6118C92.0668 35.5639 94.0569 33.5794 94.0569 31.1311V14.8199V6.44517C94.0569 3.99045 92.0614 2 89.6004 2H12.0051C2.83654 2 2.65789 22.4292 2.17499 27.8737L2.00663 30.9471C1.86967 33.4552 3.87217 35.5639 6.3906 35.5639H19.5333" stroke="black" stroke-width="3.36"/>
<path d="M2.94238 18.7821H29.4113" stroke="black" stroke-width="3.36"/>
<path d="M58.4443 18.7821H94.7125" stroke="black" stroke-width="3.36"/>
<path d="M38.3994 35.564V12.592C38.3994 11.0243 39.6738 9.75293 41.2464 9.75293H46.6103C48.1824 9.75293 49.4568 11.0243 49.4568 12.592V35.564" stroke="black" stroke-width="3.36"/>
</svg>
