<svg width="81" height="35" viewBox="0 0 81 35" fill="none" xmlns="http://www.w3.org/2000/svg">
<path fill-rule="evenodd" clip-rule="evenodd" d="M23.2457 27.0801C23.2457 23.8901 20.6526 21.3042 17.4537 21.3042C14.2548 21.3042 11.6616 23.8901 11.6616 27.0801C11.6616 30.2701 14.2548 32.856 17.4537 32.856C20.6526 32.856 23.2457 30.2701 23.2457 27.0801Z" stroke="black" stroke-width="3.36"/>
<path fill-rule="evenodd" clip-rule="evenodd" d="M67.0582 27.0801C67.0582 23.8901 64.4651 21.3042 61.2662 21.3042C58.0673 21.3042 55.4741 23.8901 55.4741 27.0801C55.4741 30.2701 58.0673 32.856 61.2662 32.856C64.4651 32.856 67.0582 30.2701 67.0582 27.0801Z" stroke="black" stroke-width="3.36"/>
<path d="M23.2461 28.2699H55.5975" stroke="black" stroke-width="3.36"/>
<path d="M66.9346 28.2699H74.662C77.1177 28.2699 79.1077 26.2849 79.1077 23.8366V14.8194V6.44463C79.1077 3.98991 77.1123 2 74.6507 2H28.6667C19.4976 2 19.3855 7.46712 11.0258 11.2213C2.27141 15.1525 2.65794 15.1347 2.17505 20.5791L2.00668 23.6531C1.86918 26.1607 3.87168 28.2699 6.39065 28.2699H11.6614" stroke="black" stroke-width="3.36"/>
<path d="M11.0254 11.2211H36.8566" stroke="black" stroke-width="3.36"/>
</svg>
