<svg height="96" viewBox="0 0 96 96" width="96" xmlns="http://www.w3.org/2000/svg"><g fill="none" fill-rule="evenodd"><path d="m0 0h96v96h-96z" fill="none"/><g fill="#090909" transform="translate(15 39)"><path d="m51 18.8022581c-1.5474194 0-2.8019355-1.2545162-2.8019355-2.8022581 0-1.5470968 1.2545161-2.8016129 2.8019355-2.8016129s2.8019355 1.2545161 2.8019355 2.8016129c0 1.5477419-1.2545161 2.8022581-2.8019355 2.8022581m0-7.8022581c-2.7616129 0-5 2.2390323-5 5 0 2.7616129 2.2383871 5 5 5s5-2.2383871 5-5c0-2.7609677-2.2383871-5-5-5"/><path d="m15 18.8022581c-1.5474194 0-2.8019355-1.2545162-2.8019355-2.8022581 0-1.5470968 1.2545161-2.8016129 2.8019355-2.8016129s2.8019355 1.2545161 2.8019355 2.8016129c0 1.5477419-1.2545161 2.8022581-2.8019355 2.8022581m0-7.8022581c-2.7616129 0-5 2.2390323-5 5 0 2.7616129 2.2383871 5 5 5s5-2.2383871 5-5c0-2.7609677-2.2383871-5-5-5"/><path d="m63.9911783 10.2659426c0-3.06701158-1.2981598-4.48237492-2.4570194-4.48237492-.0421523 0-1.3350431 0-3.2190543.00033516-2.548569-1.69287242-7.296633-2.45401145-12.3598515-2.45434661v2.45568723c-1.7746787.00033516-2.9638352.00067031-2.9638352.00067031l-.0046105.04088902s-.2087857.00201094-.5825582.00569765v-2.65376436h-2.2564666l-2.2567959 2.67823074h2.2577839c-4.3624362.04658667-12.5907014.13674361-16.2316083.18735215 3.4011656-2.40440838 8.3474772-5.34238494 11.1008802-6.04252561 0 0-4.4760498-.03485621-4.9864881.20276932-3.2157612 1.49881715-6.968306 3.73598274-9.4711001 5.91047418-8.2957748.27516299-13.61948152 1.32788765-15.82523356 1.85709881-.75742456.18165449-1.40617515.67802037-1.78949784 1.36643057-.99123823 1.78034816-1.09135 2.52640516-1.09135 2.52640516s-1.8543729-.0469219-1.8543729 1.6989052v3.8325076s6.21219863.5791494 8.99392264.6026103c.12612766.0010055.25291394.0010055.37937091.0010055-.35697749-.8687241-.52130568-1.8400059-.43370789-2.8595501.24270518-2.825029 2.46162984-5.1379398 5.23215714-5.44159107 3.5585781-.3897863 6.5672002 2.43758877 6.5672002 5.97985147 0 .4712292-.0586181.9270412-.1590592 1.3667657.0207469-.0033515.0352367-.0056976.0352367-.0056976h24.6907233c-.232167-1.0202146-.2380947-2.1285751.1883682-3.3046371.8832229-2.4359131 3.0978665-4.10767068 5.6487407-4.071809 3.2262993.04558121 5.827888 2.7214659 5.827888 6.015378 0 .4688831-.0579595.9230193-.1574126 1.3610681h.0339194l9.1526525-1.0500434v-4.0775066s-.293749-1.6462858-2.0088217-1.6462858"/></g></g></svg>