<svg height="96" viewBox="0 0 96 96" width="96" xmlns="http://www.w3.org/2000/svg"><g fill="none" fill-rule="evenodd"><path d="m0 0h96v96h-96z" fill="none"/><g fill="#090909" transform="translate(9 39)"><path d="m59 18.8019355c-1.5474194 0-2.8019355-1.2545161-2.8019355-2.8019355s1.2545161-2.8019355 2.8019355-2.8019355 2.8019355 1.2545161 2.8019355 2.8019355-1.2545161 2.8019355-2.8019355 2.8019355m0-7.8019355c-2.7616129 0-5 2.2387097-5 5 0 2.7616129 2.2383871 5 5 5s5-2.2383871 5-5c0-2.7612903-2.2383871-5-5-5"/><path d="m15 18.8019355c-1.5474194 0-2.8019355-1.2545161-2.8019355-2.8019355s1.2545161-2.8019355 2.8019355-2.8019355 2.8019355 1.2545161 2.8019355 2.8019355-1.2545161 2.8019355-2.8019355 2.8019355m0-7.8019355c-2.7616129 0-5 2.2387097-5 5 0 2.7616129 2.2383871 5 5 5s5-2.2383871 5-5c0-2.7612903-2.2383871-5-5-5"/><path d="m44.7311603 6.36118312.6021166-5.218485c1.4553076-.01181664 3.0818473-.02363329 4.9225095-.04918278 8.8169667-.1226376 10.1254568 4.90135185 10.1254568 4.90135185zm-10.5705282-4.30477107c2.3520489-.73295123 5.023797-.84952082 9.5111329-.89838423l-.604756 5.24211828-17.2423102.40368207s2.5090942-2.93116617 8.3359333-4.74741612zm41.8268138 8.25440415c0-2.92254325-1.3005719-4.27123739-2.4615847-4.27123739-1.1613427 0-10.4972845-.53941378-10.4972845-.53941378s-1.5325104-5.30535329-11.3329893-5.44012689c-5.7757004-.07952282-9.8578861-.06547059-12.2363291-.04024046-2.6955029.02810444-5.3649415.52759713-7.8618283 1.51093344-2.4371701.95938366-5.5077999 2.53099716-8.7918923 5.09329246-9.5777782.13605108-15.65767123 1.27236501-18.05920919 1.82008238-.7601516.17341722-1.41142732.64736041-1.79645202 1.30525998-.99176029 1.69457046-1.09172814 2.40484656-1.09172814 2.40484656s-1.85814835-.0447117-1.85814835 1.61888c0 2.6523573 3.43717853 4.1811754 9.0106338 4.225887.12669193.0012775.25338386.0009936.38040572.0009936-.35797069-.8272005-.52227429-1.7520923-.43484366-2.7229732.24249628-2.6925978 2.46587374-4.8978388 5.24187874-5.1871869 3.5655201-.37142582 6.5794024 2.3227688 6.5794024 5.6984962 0 .4487131-.058727.8833739-.1593547 1.3020663.0211153-.0031937.0353022-.0054293.0353022-.0054293h32.6551756c-.2329284-.9721584-.2388671-2.0283108.1887182-3.149295.8851939-2.3211719 3.1042823-3.9141831 5.660226-3.8793719 3.2316341.0437535 5.8373968 2.5932741 5.8373968 5.7320299 0 .4467969-.0577372.8792221-.157705 1.296637h.0339824l13.1287815-2.2780571v-2.6076457s-.2939649-1.8884272-2.0125541-1.8884272z"/></g></g></svg>