<svg width="76" height="33" viewBox="0 0 76 33" fill="none" xmlns="http://www.w3.org/2000/svg">
<path fill-rule="evenodd" clip-rule="evenodd" d="M23.2463 24.5562C23.2463 21.3662 20.6526 18.7803 17.4537 18.7803C14.2553 18.7803 11.6616 21.3662 11.6616 24.5562C11.6616 27.7462 14.2553 30.3321 17.4537 30.3321C20.6526 30.3321 23.2463 27.7462 23.2463 24.5562Z" stroke="black" stroke-width="3.36"/>
<path fill-rule="evenodd" clip-rule="evenodd" d="M67.673 24.5562C67.673 21.3662 65.0794 18.7803 61.8804 18.7803C58.6821 18.7803 56.0884 21.3662 56.0884 24.5562C56.0884 27.7462 58.6821 30.3321 61.8804 30.3321C65.0794 30.3321 67.673 27.7462 67.673 24.5562Z" stroke="black" stroke-width="3.36"/>
<path d="M23.1226 25.7455H56.0889" stroke="black" stroke-width="3.36"/>
<path d="M67.673 25.7455H69.6788C72.1339 25.7455 74.1245 23.761 74.1245 21.3127V17.9683C74.1245 9.14977 66.9547 2.00155 58.1115 2.00317L41.3335 2.00695C38.0101 1.90545 34.7489 2.91876 32.0713 4.88384L27.4665 8.26441C25.3904 9.78842 22.9986 10.8287 20.4656 11.3087L5.76916 13.9869C3.77207 14.3513 2.28548 16.0335 2.17505 18.0552L2.00668 21.1286C1.86918 23.6368 3.87168 25.7455 6.39065 25.7455H11.6614" stroke="black" stroke-width="3.36"/>
<path d="M14.563 12.3842H73.9149" stroke="black" stroke-width="3.36"/>
</svg>
