<svg height="96" viewBox="0 0 96 96" width="96" xmlns="http://www.w3.org/2000/svg"><g fill="none" fill-rule="evenodd"><path d="m0 0h96v96h-96z" fill="none"/><g fill="#090909" transform="translate(0 22)"><path d="m26.4 35.3624975c-1.8570036 0-3.3624219-1.5053751-3.3624219-3.3623255s1.5054183-3.3623255 3.3624219-3.3623255c1.8566596 0 3.3620779 1.5053751 3.3620779 3.3623255s-1.5054183 3.3623255-3.3620779 3.3623255m0-9.3624975c-3.3139155 0-6 2.6866955-6 6.000172s2.6860845 5.999828 6 5.999828c3.3135715 0 6-2.6863515 6-5.999828s-2.6864285-6.000172-6-6.000172"/><path d="m69.8 35.3624975c-1.8570036 0-3.3624219-1.5053751-3.3624219-3.3623255s1.5054183-3.3623255 3.3624219-3.3623255c1.8566596 0 3.3624219 1.5053751 3.3624219 3.3623255s-1.5057623 3.3623255-3.3624219 3.3623255m0-9.3624975c-3.3139155 0-6 2.6866955-6 6.000172s2.6860845 5.999828 6 5.999828c3.3135715 0 6-2.6863515 6-5.999828s-2.6864285-6.000172-6-6.000172"/><path d="m77.2444878 13.4032646-.3284028-11.19430362h11.9909723c1.4101617 0 2.5756633 1.12191084 2.6584208 2.55857348l.9612351 8.63573014zm-19.1609912 0-.3284028-11.19430362h17.4322787l.3284028 11.19430362zm-19.4742875 0-.3284028-11.19430362h17.4326071l.3284029 11.19430362zm-19.473959 0-.3284028-11.19430362h17.4322787l.3284028 11.19430362zm-3.4807416 16.8045283h-6.58381977c-.66632933 0-1.20655198-.5514023-1.20655198-1.2315209l-.32840282-25.53579013c0-.68011864.54022264-1.23152089 1.20655197-1.23152089h6.5838198c.6663294 0 1.206552.55140225 1.206552 1.23152089l.3284028 25.53579013c0 .6801186-.5402226 1.2315209-1.206552 1.2315209zm80.2475289-5.9015125-1.9497275-22.10670499c-.0729055-1.23554327-1.0758477-2.19957541-2.2889677-2.19957541h-83.19264543c-1.20622357 0-2.53428459.95330577-2.6160569 2.18147467l-.76222295 11.02603383-2.40029624 1.3625836s-1.34907881 10.342228-.32873123 11.2526283l-1.85810318-.006704c-.19605649-.0006704-.36846797.1354204-.40951832.3308414-.26436428 1.2606832-.0226598 4.456805 1.24694552 5.4607258l9.64486253.7193369 7.9174637.1800019c-.0013136-.0626822-.0045976-.1253644-.0045976-.1883818 0-4.1950147 3.3316466-7.5952727 7.441608-7.5952727 4.1096329 0 7.4412795 3.400258 7.4412795 7.5952727 0 .2296112-.0118225.4568761-.0315266.6814594h28.5651344c-.0197041-.2245833-.0311982-.4518482-.0311982-.6814594 0-4.1950147 3.3316466-7.5952727 7.4412795-7.5952727 4.1099614 0 7.4412796 3.400258 7.4412796 7.5952727 0 .2296112-.0118225.4568761-.0311982.6814594h.0311982l18.8319316-3.5286392c-.0486036-.3170982-.0541865-4.7457465-.0981925-5.1650804z"/></g></g></svg>