<svg width="85" height="35" viewBox="0 0 85 35" fill="none" xmlns="http://www.w3.org/2000/svg">
<path fill-rule="evenodd" clip-rule="evenodd" d="M26.6453 26.4105C26.6453 22.6904 23.6213 19.6753 19.8913 19.6753C16.1613 19.6753 13.1372 22.6904 13.1372 26.4105C13.1372 30.1301 16.1613 33.1458 19.8913 33.1458C23.6213 33.1458 26.6453 30.1301 26.6453 26.4105Z" stroke="black" stroke-width="3.36"/>
<path fill-rule="evenodd" clip-rule="evenodd" d="M67.3665 26.4105C67.3665 22.6904 64.3425 19.6753 60.6125 19.6753C56.8825 19.6753 53.8584 22.6904 53.8584 26.4105C53.8584 30.1301 56.8825 33.1458 60.6125 33.1458C64.3425 33.1458 67.3665 30.1301 67.3665 26.4105Z" stroke="black" stroke-width="3.36"/>
<path d="M26.645 26.641H53.8583" stroke="black" stroke-width="3.36"/>
<path d="M68.2996 26.6408L78.4318 25.2302C80.9794 25.2302 83.0448 23.1706 83.0448 20.6301L83.1758 7.67784C83.2077 4.55154 80.6747 2.00018 77.5396 2.00072L37.987 2.0072C34.5385 1.90193 31.1545 2.95357 28.3762 4.99314L24.6798 7.92348C22.9669 9.28067 20.9232 10.1606 18.7578 10.4727L5.91176 12.3228C3.83888 12.7007 2.29653 14.4466 2.18177 16.5444L2.0069 21.8496C1.86453 24.4522 3.94228 26.6408 6.55653 26.6408H12.0259" stroke="black" stroke-width="3.36"/>
<path d="M18.7578 10.4726H83.1763" stroke="black" stroke-width="3.36"/>
</svg>
