<svg height="96" viewBox="0 0 96 96" width="96" xmlns="http://www.w3.org/2000/svg"><g fill="none" fill-rule="evenodd"><path d="m0 0h96v96h-96z" fill="none"/><g fill="#090909" transform="translate(11 31)"><path d="m53.4998275 26.1425046c-2.0115967 0-3.6426771-1.6310804-3.6426771-3.6426771s1.6310804-3.6423321 3.6426771-3.6423321 3.6426771 1.6307354 3.6426771 3.6423321-1.6310804 3.6426771-3.6426771 3.6426771m0-10.1425046c-3.5898946 0-6.4998275 2.9099329-6.4998275 6.4998275 0 3.5898947 2.9099329 6.5001725 6.4998275 6.5001725 3.5898947 0 6.5001725-2.9102778 6.5001725-6.5001725 0-3.5898946-2.9102778-6.4998275-6.5001725-6.4998275"/><path d="m14.9001725 26.1425046c-2.0119417 0-3.6426771-1.6310804-3.6426771-3.6426771s1.6307354-3.6423321 3.6426771-3.6423321c2.0115967 0 3.6423321 1.6307354 3.6423321 3.6423321s-1.6307354 3.6426771-3.6423321 3.6426771m0-10.1425046c-3.5898947 0-6.5001725 2.9099329-6.5001725 6.4998275 0 3.5898947 2.9102778 6.5001725 6.5001725 6.5001725 3.5895497 0 6.4998275-2.9102778 6.4998275-6.5001725 0-3.5898946-2.9102778-6.4998275-6.4998275-6.4998275"/><path d="m54.2775794 8.57789664-1.19184-7.28885651c.7231092-.00582823 8.9703902.0534255 12.0477388.05536824 1.1494987.00064758 1.3909761.81789577 1.5735728 1.92849849l.9559859 5.30498978zm-14.9266128 0 .3248368-7.2040233c1.7366527-.0142468 11.6312729-.06216785 11.6312729-.06216785l1.0505922 7.26619115zm-1.9033714 0h-17.6490226l7.0415478-5.54394745c.6781216-1.02123644 1.839198-1.63482016 3.0833029-1.62769676 2.3833491.01295164 4.5331598.02525569 8.0693155-.01359922zm33.2084386 9.69462276c-.0413488-.2580613-.0459799-.7427763-.0833593-1.0837281h1.6341075c.9903883 0 1.793218-1.3459987 1.793218-6.1008678 0-3.36936786-.8028297-6.10086772-1.793218-6.10086772h-2.1296324c-.485932 0-.9262148.66085718-1.2493976 1.72936709-.3407147-1.98354294-.6208947-3.58306988-.7446105-4.25396459-.2629788-1.42694641-1.5342086-2.45919173-3.0154907-2.44947801-5.074003.03399805-15.7992394.10037518-19.1054954.05439687-6.8916996-.0958421-14.3222576-.04856863-14.3222576-.04856863l-3.0191294-.01879425c-1.168023-.00322353-2.2669107.54042136-2.9569407 1.46257778l-8.6892179 6.89836471s-10.71928209 1.53574014-13.58327052 2.19627355c-.90537494.2091689-1.86433803 4.1992439-1.87558493 4.2196427-.63478791 1.1031556-.37544778 2.2574701.49089384 2.9986274l-1.57754225-.0051807c-.17134974-.0006476-.31623619.1194789-.35096925.2836408-.21931442 1.0364546-.0109161 1.9987611 1.06183909 2.8121238l6.11797943.5860615c0-4.2546121 3.52358569-7.1554546 7.86984849-7.1554546 4.3465937 0 7.8698486 3.4486966 7.8698486 7.7033088h22.5831011c0-4.2546122 3.5235856-7.7033088 7.8698485-7.7033088 4.3465937 0 7.8698485 3.4486966 7.8698485 7.7033088l11.5088803-1.364131s.5798766-1.467744 0-2.2995628c-.1280161-.1839132-2.1352559.1758184-2.1732969-.0637868z"/></g></g></svg>