<svg height="96" viewBox="0 0 96 96" width="96" xmlns="http://www.w3.org/2000/svg"><g fill="none" fill-rule="evenodd"><path d="m0 0h96v96h-96z" fill="none"/><g fill="#090909" transform="translate(15 31)"><path d="m50.7001689 26.5823248c-1.7022884 0-3.08223-1.3799841-3.08223-3.0823248s1.3799416-3.0819869 3.08223-3.0819869c1.7019506 0 3.0818922 1.3796462 3.0818922 3.0819869s-1.3799416 3.0823248-3.0818922 3.0823248m0-8.5823248c-3.0376286 0-5.5001689 2.4622781-5.5001689 5.5s2.4625403 5.5 5.5001689 5.5c3.0372908 0 5.4998311-2.4622781 5.4998311-5.5s-2.4625403-5.5-5.4998311-5.5"/><path d="m11.9998311 26.5823248c-1.7022885 0-3.08223012-1.3799841-3.08223012-3.0823248s1.37994162-3.0819869 3.08223012-3.0819869c1.7022884 0 3.08223 1.3796462 3.08223 3.0819869s-1.3799416 3.0823248-3.08223 3.0823248m0-8.5823248c-3.03762867 0-5.4998311 2.4622781-5.4998311 5.5s2.46220243 5.5 5.4998311 5.5c3.0376286 0 5.5001689-2.4622781 5.5001689-5.5s-2.4625403-5.5-5.5001689-5.5"/><path d="m26.9286536 9.79153178-17.34583809.01753148 5.48605809-6.50959815c.964408-1.28904197 2.5095027-2.05245826 4.1540685-2.05245826h7.458022zm38.1184863 9.32037262v-.8431048l-1.6406134-15.68079386c-.1534884-1.46913808-1.4327781-2.58669028-2.9584398-2.58509651l-29.3317684.0417568-13.2401876-.04464591c-1.4308019-.00412348-2.7845302.6257348-3.6741702 1.70981782l-6.50184841 7.17483816-2.84447635 1.4012434c-1.16137374.5718451-2.57175443 2.6612788-2.62412494 3.9213141-.0961773 2.3096929-.23649074 4.9177398-.22792701 5.8609334h-2.00358379v1.9099751c0 1.116596.93542298 2.0218579 2.08889173 2.0218579h.75887836 2.41167853c-.19268396-.8045356-.23879636-1.1092646-.10111791-1.921769.44893715-2.6453411 2.4248535-4.842195 5.11584139-5.4790659 4.5964182-1.0879081 8.7020687 2.2507234 8.7020687 6.5172483 0 .5240319-.0681805.3939802-.1854377.8835866h.0401836.981206 24.159604c-.276345-1.1548464-.2799681-1.7569731.2407726-3.1068971 1.0200722-2.6450223 3.5970966-4.4979405 6.5143647-4.5014468 3.8414923-.0044625 6.9570437 3.0080834 6.9570437 6.7247573 0 .5240319-.0678511.3939802-.1851084.8835866h.0398543l6.409953-.6375084c.2938019 0 .5319395-.2304593.5319395-.5151068v-.6346396c.4845096-.0969012 1.0651964-.2534096 1.547071-.3930239.5773931-.1673459.9723129-.6799027.9723129-1.2635416v-1.4442753z"/></g></g></svg>