<svg width="82" height="33" viewBox="0 0 82 33" fill="none" xmlns="http://www.w3.org/2000/svg">
<path fill-rule="evenodd" clip-rule="evenodd" d="M23.246 24.5567C23.246 21.3667 20.6528 18.7808 17.4539 18.7808C14.255 18.7808 11.6619 21.3667 11.6619 24.5567C11.6619 27.7467 14.255 30.3326 17.4539 30.3326C20.6528 30.3326 23.246 27.7467 23.246 24.5567Z" stroke="black" stroke-width="3.36"/>
<path fill-rule="evenodd" clip-rule="evenodd" d="M67.673 24.5567C67.673 21.3667 65.0798 18.7808 61.8809 18.7808C58.682 18.7808 56.0889 21.3667 56.0889 24.5567C56.0889 27.7467 58.682 30.3326 61.8809 30.3326C65.0798 30.3326 67.673 27.7467 67.673 24.5567Z" stroke="black" stroke-width="3.36"/>
<path d="M23.1226 25.746H56.0889" stroke="black" stroke-width="3.36"/>
<path d="M67.673 25.7459H75.8449C78.3 25.7459 80.2906 23.7609 80.2906 21.3126L80.2824 10.8762L47.0535 11.0279V2.0058L41.3335 2.00687C38.0106 1.90592 34.7494 2.91923 32.0718 4.88431L27.4664 8.26488C25.3908 9.78889 22.9986 10.8287 20.4661 11.3086L5.76965 13.9873C3.77202 14.3518 2.28543 16.0339 2.175 18.0557L2.00663 21.1291C1.86967 23.6373 3.87163 25.7459 6.3906 25.7459H11.6619" stroke="black" stroke-width="3.36"/>
<path d="M47.0534 11.0282H21.6877" stroke="black" stroke-width="3.36"/>
</svg>
