<svg width="70" height="56" viewBox="0 0 70 56" fill="none" xmlns="http://www.w3.org/2000/svg">
<path fill-rule="evenodd" clip-rule="evenodd" class="logo-fill" d="M18.7036 50.019C17.7868 51.2641 16.5844 51.8871 15.098 51.8871C14.3715 51.8871 13.783 51.7225 13.3338 51.3937C12.8841 51.0645 12.6597 50.6585 12.6597 50.1744C12.6597 49.7937 12.9788 48.9375 13.6193 47.6065C14.2588 46.275 14.5789 45.0386 14.5789 43.8974C14.5789 41.5801 13.9218 39.7295 12.6078 38.346C11.2928 36.9625 9.52856 36.2705 7.31565 36.2705C5.27417 36.2705 3.54492 37.0402 2.12744 38.5791C0.709956 40.1184 0 42.0293 0 44.3121C0 47.5978 1.23732 50.304 3.71003 52.4315C6.18225 54.5584 9.37317 55.6224 13.2818 55.6224C17.0006 55.6224 20.3561 55.0076 23.3484 53.7795C21.5007 51.6467 20.3726 49.1065 20.0162 46.2842C19.8671 47.7799 19.433 49.0274 18.7036 50.019Z" />
<path fill-rule="evenodd" clip-rule="evenodd" class="logo-fill" d="M46.2269 0H43.5503H42.8539H12.3481V3.16518H20.0785V42.0146C20.467 39.7041 21.4576 37.6699 23.0441 35.9475C25.1905 33.6175 27.9725 32.386 31.0891 32.386C33.5822 32.386 35.8039 33.0537 37.6268 34.3265C37.8939 32.5434 38.0299 30.668 38.0299 28.6959V3.16518H42.8539H43.5503H43.8518V45.0905C43.8518 47.1315 43.3934 48.7743 42.4771 50.0194C41.5603 51.2645 40.3579 51.8875 38.8719 51.8875C38.145 51.8875 37.5569 51.7229 37.1073 51.3941C36.6576 51.0649 36.4332 50.6589 36.4332 50.1747C36.4332 49.794 36.7523 48.9379 37.3933 47.6069C38.0323 46.2748 38.3523 45.039 38.3523 43.8973C38.3523 41.7524 37.7818 40.0125 36.6561 38.6673C36.5653 38.5595 36.4794 38.4488 36.3818 38.3464C35.0667 36.9629 33.3025 36.2709 31.0891 36.2709C29.0481 36.2709 27.3184 37.0406 25.9014 38.5794C24.4834 40.1188 23.774 42.0297 23.774 44.3125C23.774 44.6685 23.7914 45.0166 23.8201 45.359C23.8225 45.3891 23.824 45.4202 23.8269 45.4503C23.8575 45.7781 23.9031 46.0991 23.9604 46.4147C23.9677 46.4536 23.974 46.4929 23.9813 46.5322C24.0415 46.8435 24.1158 47.1489 24.2028 47.4481C24.213 47.484 24.2232 47.5195 24.2338 47.5554C24.3251 47.8584 24.43 48.1551 24.5485 48.4455C24.5587 48.4693 24.5689 48.4926 24.5786 48.5164C24.7049 48.8175 24.8447 49.1122 25.0001 49.3997C25.0016 49.4026 25.0035 49.4055 25.005 49.4085C25.6091 50.52 26.4336 51.5286 27.4835 52.4318C29.9557 54.5588 33.1466 55.6223 37.0553 55.6223C44.4919 55.6223 50.4755 53.1661 55.0062 48.2556C59.5374 43.3437 61.8032 36.8245 61.8032 28.6959V3.16518H70.0003V0H46.2269Z" />
</svg>
