<svg aria-hidden="true" style="position: absolute; width: 0; height: 0; overflow: hidden;" version="1.1" xmlns="http://www.w3.org/2000/svg" xmlns:xlink="http://www.w3.org/1999/xlink">
<defs>
<symbol id="icon-adress" viewBox="0 0 32 32">
<path d="M12 2.667l-9.333 4v21.655c-0 0.224 0.112 0.433 0.299 0.557s0.424 0.145 0.63 0.056l8.404-3.601 8 4 9.333-4v-21.655c0-0.224-0.112-0.433-0.299-0.557s-0.424-0.145-0.63-0.056l-8.404 3.601-8-4zM26.667 23.575l-5.333 2.285v-16.864l5.333-2.285v16.864zM18.667 25.685l-5.333-2.667v-16.704l5.333 2.667v16.704zM10.667 6.14v16.864l-5.333 2.285v-16.864l5.333-2.285z"></path>
</symbol>
<symbol id="icon-email" viewBox="0 0 32 32">
<path d="M28 4h-24c-0.736 0-1.333 0.597-1.333 1.333v21.333c0 0.736 0.597 1.333 1.333 1.333h24c0.736 0 1.333-0.597 1.333-1.333v-21.333c0-0.736-0.597-1.333-1.333-1.333zM7.531 8.317l8.551 7.26 8.38-7.252 1.744 2.017-10.108 8.747-10.293-8.74 1.727-2.032z"></path>
</symbol>
<symbol id="icon-fax" viewBox="0 0 32 32">
<path d="M2.667 16c0-7.365 5.97-13.333 13.333-13.333s13.333 5.968 13.333 13.333-5.97 13.333-13.333 13.333c-7.364 0-13.333-5.968-13.333-13.333zM16.758 8.998c-0.035-0.557-0.489-0.998-1.045-0.998-0.578 0-1.047 0.478-1.047 1.068v8.531l0.002 0.070c0.035 0.557 0.489 0.998 1.045 0.998l4.642-0.002c0.546-0.036 0.978-0.499 0.978-1.066l-0.002-0.070c-0.035-0.557-0.489-0.998-1.045-0.998h-3.526l0-7.463-0.002-0.070z"></path>
</symbol>
<symbol id="icon-home" viewBox="0 0 32 32">
<path d="M32 19.93l-16-18.863-16 18.863h4.571v11.004h8.229v-5.491h6.4v5.491h8.228v-11.004h4.572z"></path>
</symbol>
<symbol id="icon-phone-contacts" viewBox="0 0 32 32">
<path d="M28 21.893v4.715c0 0.7-0.541 1.282-1.24 1.331-0.583 0.040-1.059 0.061-1.427 0.061-11.783 0-21.333-9.551-21.333-21.333 0-0.368 0.020-0.844 0.061-1.427 0.049-0.699 0.63-1.24 1.331-1.24h4.715c0.343-0 0.63 0.259 0.664 0.6 0.031 0.307 0.059 0.551 0.085 0.736 0.265 1.849 0.808 3.648 1.611 5.335 0.127 0.267 0.044 0.585-0.196 0.756l-2.877 2.056c1.759 4.099 5.026 7.366 9.125 9.125l2.053-2.872c0.173-0.242 0.495-0.326 0.764-0.199 1.687 0.801 3.485 1.343 5.333 1.607 0.185 0.027 0.429 0.056 0.733 0.085 0.34 0.035 0.599 0.322 0.599 0.664h-0.001z"></path>
</symbol>
<symbol id="icon-arrow" viewBox="0 0 18 32">
<path stroke-linejoin="miter" stroke-linecap="round" stroke-miterlimit="4" stroke-width="4.8" d="M3.2 28.8l11.2-12.8-11.2-12.8"></path>
</symbol>
<symbol id="icon-arrow1" viewBox="0 0 18 32">
<path stroke-linejoin="miter" stroke-linecap="round" stroke-miterlimit="4" stroke-width="4.8" d="M3.2 28.8l11.2-12.8-11.2-12.8"></path>
</symbol>
<symbol id="icon-arrow-big-left" viewBox="0 0 17 32">
<path stroke-linejoin="miter" stroke-linecap="butt" stroke-miterlimit="4" stroke-width="3.4286" d="M14.857 2.286l-14.857 13.714 14.857 13.714"></path>
</symbol>
<symbol id="icon-arrow-big-right" viewBox="0 0 17 32">
<path stroke-linejoin="miter" stroke-linecap="butt" stroke-miterlimit="4" stroke-width="3.4286" d="M2.286 2.286l14.857 13.714-14.857 13.714"></path>
</symbol>
<symbol id="icon-dote" viewBox="0 0 26 32">
<path d="M22.348 22.348l-9.257 9.257-9.257-9.257c-5.112-5.112-5.112-13.401 0-18.513s13.401-5.112 18.513 0c5.112 5.112 5.112 13.401 0 18.513zM13.091 16c1.607 0 2.909-1.302 2.909-2.909s-1.302-2.909-2.909-2.909c-1.607 0-2.909 1.302-2.909 2.909s1.302 2.909 2.909 2.909z"></path>
</symbol>
<symbol id="icon-phone" viewBox="0 0 32 32">
<path d="M16.35 0c4.003 0.551 7.63 2.336 10.496 5.164 2.718 2.688 4.501 6.073 5.154 9.803l-2.483 0.418c-0.558-3.219-2.099-6.146-4.447-8.462-2.476-2.436-5.611-3.982-9.070-4.46l0.35-2.462zM24.325 21.17c-1.045-1.032-2.35-1.032-3.389 0h-0c-0.792 0.786-1.584 1.571-2.363 2.37-0.213 0.22-0.393 0.266-0.652 0.12-0.203-0.111-0.411-0.213-0.62-0.316v0c-0.317-0.156-0.634-0.312-0.931-0.497-2.297-1.445-4.221-3.302-5.926-5.393-0.846-1.039-1.598-2.151-2.124-3.402-0.107-0.253-0.087-0.419 0.12-0.626 0.679-0.656 1.343-1.326 2.009-1.999l0.335-0.338c1.085-1.092 1.085-2.37-0.007-3.469-0.31-0.313-0.619-0.622-0.929-0.932l-0-0c-0.31-0.31-0.619-0.619-0.929-0.932-0.213-0.213-0.425-0.427-0.638-0.641-0.425-0.428-0.849-0.855-1.28-1.277-1.045-1.019-2.35-1.019-3.389 0.007-0.32 0.314-0.634 0.632-0.948 0.949v0c-0.471 0.476-0.942 0.951-1.429 1.414-0.752 0.712-1.132 1.585-1.212 2.603-0.127 1.658 0.28 3.222 0.852 4.747 1.172 3.156 2.956 5.959 5.12 8.529 2.923 3.475 6.412 6.225 10.493 8.209 1.838 0.892 3.742 1.578 5.812 1.691 1.425 0.080 2.663-0.28 3.655-1.392 0.446-0.499 0.93-0.969 1.413-1.439v0c0.252-0.245 0.504-0.49 0.75-0.738 1.065-1.079 1.072-2.384 0.013-3.449-1.265-1.272-2.537-2.537-3.808-3.802zM23.346 16l2.5-0.409c-0.393-2.201-1.477-4.193-3.124-5.777-1.742-1.668-3.944-2.72-6.37-3.044l-0.352 2.408c1.877 0.253 3.585 1.065 4.933 2.356 1.274 1.22 2.108 2.765 2.413 4.466z"></path>
</symbol>
<symbol id="icon-phone-bigger" viewBox="0 0 32 32">
<path d="M15.146 0c4.311 0.529 8.217 2.243 11.304 4.957 2.927 2.58 4.848 5.83 5.55 9.411l-2.674 0.401c-0.601-3.090-2.261-5.9-4.79-8.124-2.666-2.338-6.043-3.823-9.768-4.282l0.377-2.364zM24.842 20.94c-1.068-1.054-2.4-1.054-3.461 0-0.809 0.802-1.618 1.605-2.414 2.421-0.218 0.224-0.401 0.272-0.666 0.122-0.207-0.113-0.42-0.218-0.633-0.322h-0c-0.324-0.159-0.648-0.318-0.951-0.507-2.346-1.475-4.311-3.373-6.052-5.508-0.864-1.061-1.632-2.196-2.169-3.475-0.109-0.258-0.088-0.428 0.122-0.639 0.693-0.67 1.371-1.354 2.051-2.041v0l0.342-0.345c1.108-1.115 1.108-2.421-0.007-3.543-0.316-0.32-0.632-0.636-0.948-0.952l-0-0c-0.316-0.316-0.632-0.632-0.948-0.952-0.218-0.218-0.434-0.436-0.651-0.654l-0-0c-0.434-0.437-0.867-0.873-1.307-1.304-1.068-1.040-2.4-1.040-3.461 0.007-0.326 0.321-0.647 0.645-0.968 0.969l-0 0c-0.481 0.486-0.962 0.971-1.459 1.444-0.768 0.728-1.156 1.618-1.238 2.659-0.129 1.693 0.286 3.291 0.87 4.848 1.197 3.223 3.019 6.086 5.229 8.71 2.985 3.549 6.548 6.358 10.716 8.384 1.877 0.911 3.821 1.611 5.936 1.727 1.455 0.082 2.72-0.286 3.733-1.421 0.456-0.509 0.95-0.99 1.443-1.469l0-0c0.257-0.25 0.515-0.5 0.766-0.754 1.088-1.102 1.095-2.434 0.014-3.522-1.292-1.299-2.591-2.591-3.889-3.882zM23.033 16l2.813-0.382c-0.442-2.054-1.662-3.914-3.514-5.392-1.959-1.557-4.437-2.539-7.166-2.841l-0.396 2.248c2.112 0.236 4.033 0.994 5.55 2.199 1.433 1.139 2.371 2.581 2.714 4.168z"></path>
</symbol>
<symbol id="icon-send" viewBox="0 0 32 32">
<path d="M1.441 11.147c-0.795-0.265-0.803-0.693 0.015-0.966l29.085-9.694c0.806-0.268 1.268 0.183 1.042 0.972l-8.311 29.083c-0.229 0.806-0.693 0.834-1.035 0.069l-5.477-12.325 9.143-12.191-12.19 9.143-12.273-4.091z"></path>
</symbol>

<symbol id="icon-upload" viewBox="0 0 32 32">
<path fill="#000000" d="M17.333 22.667v-14.893l8.095 8.092 1.885-1.885-11.313-11.313-11.313 11.315 1.885 1.885 8.095-8.096v14.896h2.667zM28 28v-2.667h-24v2.667h24z"></path>
</symbol>

<symbol
xmlns="http://www.w3.org/2000/svg"
viewBox="0 0 24 24"
id="icon-star"
>
<path
    d="m12.9 2.6 2.3 5c.1.3.4.5.7.6l5.2.8c.9 0 1.2 1 .6 1.6l-3.8 3.9c-.2.2-.3.6-.3.9l.9 5.4c.1.8-.7 1.5-1.4 1.1l-4.7-2.6c-.3-.2-.6-.2-.9 0l-4.7 2.6c-.7.4-1.6-.2-1.4-1.1l.9-5.4c.1-.3-.1-.7-.3-.9l-3.8-3.9C1.7 10 2 9 2.8 8.9L8 8.1c.3 0 .6-.3.7-.6l2.3-5c.5-.7 1.5-.7 1.9.1z"
    fill="currentColor"
    stroke="#FEB402"
    stroke-width="2"
></path>
</symbol>

<symbol id="icon-close" viewBox="0 0 32 32">
<path fill="none" stroke="#474150" style="stroke: var(--color1, #474150)" stroke-linejoin="miter" stroke-linecap="round" stroke-miterlimit="4" stroke-width="4.8" d="M3.2 3.2l25.6 25.6"></path>
<path fill="none" stroke="#474150" style="stroke: var(--color1, #474150)" stroke-linejoin="miter" stroke-linecap="round" stroke-miterlimit="4" stroke-width="4.8" d="M28.8 3.2l-25.6 25.6"></path>
</symbol>

<symbol id="icon-thanks" viewBox="0 0 34 32">
<path fill="#000000"  d="M2.593 10.125c-1.431 0-2.593 1.113-2.593 2.479v16.289c0 1.366 1.162 2.479 2.593 2.479 1.364-0.242 6.296 1.033 6.296-2.479v-16.289c0-3.546-5.013-2.252-6.296-2.479z"></path>
<path fill="#676767" d="M28.628 11.379h-6.782c0 0 1.077-2.133 1.077-5.69 0-4.267-3.232-5.69-4.67-5.69s-2.155 0.71-2.155 4.267c0 3.379-3.306 6.097-5.433 7.499v17.619c7.107 3.255 15.304 2.498 16.349 2.615 7.256 0 5.773-9.286 7.269-13.967 0.608-3.482-2.095-6.654-5.657-6.654z"></path>
</symbol>

<symbol id="icon-yards-option-1" viewBox="0 0 32 32">
<path fill="none" stroke="#000" style="stroke: var(--color1, #000)" stroke-linejoin="miter" stroke-linecap="butt" stroke-miterlimit="4" stroke-width="1.1429" d="M31.429 16c0 8.521-6.908 15.429-15.429 15.429s-15.429-6.908-15.429-15.429c0-8.521 6.908-15.429 15.429-15.429s15.429 6.908 15.429 15.429z"></path>
<path d="M15.695 10.286c1.54 0.189 2.935 0.801 4.037 1.77 1.046 0.922 1.731 2.082 1.982 3.361l-0.955 0.143c-0.215-1.104-0.807-2.107-1.711-2.901-0.952-0.835-2.158-1.365-3.488-1.529l0.135-0.844zM19.158 17.764c-0.381-0.376-0.857-0.376-1.236 0-0.289 0.287-0.578 0.573-0.862 0.864-0.078 0.080-0.143 0.097-0.238 0.044-0.074-0.040-0.15-0.078-0.226-0.115-0.116-0.057-0.231-0.114-0.34-0.181-0.838-0.527-1.54-1.204-2.161-1.967-0.308-0.379-0.583-0.784-0.775-1.241-0.039-0.092-0.032-0.153 0.044-0.228 0.248-0.239 0.49-0.484 0.733-0.729l0-0 0.122-0.123c0.396-0.398 0.396-0.864-0.002-1.265-0.113-0.114-0.226-0.227-0.339-0.34h-0c-0.113-0.113-0.226-0.226-0.339-0.34-0.078-0.078-0.155-0.156-0.233-0.234-0.155-0.156-0.31-0.312-0.467-0.466-0.381-0.372-0.857-0.372-1.236 0.002-0.117 0.115-0.231 0.23-0.346 0.346v0h-0c-0.172 0.174-0.343 0.347-0.521 0.516-0.274 0.26-0.413 0.578-0.442 0.95-0.046 0.605 0.102 1.175 0.311 1.731 0.427 1.151 1.078 2.173 1.867 3.111 1.066 1.268 2.339 2.271 3.827 2.994 0.67 0.325 1.365 0.576 2.12 0.617 0.52 0.029 0.971-0.102 1.333-0.508 0.163-0.182 0.339-0.353 0.516-0.525v0c0.092-0.089 0.184-0.179 0.274-0.269 0.389-0.393 0.391-0.869 0.005-1.258-0.461-0.464-0.925-0.925-1.389-1.387zM18.512 16l1.005-0.136c-0.158-0.733-0.594-1.398-1.255-1.926-0.7-0.556-1.585-0.907-2.559-1.015l-0.142 0.803c0.754 0.084 1.44 0.355 1.982 0.786 0.512 0.407 0.847 0.922 0.969 1.489z"></path>
</symbol>
<symbol id="icon-yards-option-2" viewBox="0 0 32 32">
<path fill="none" stroke="#000" style="stroke: var(--color1, #000)" stroke-linejoin="miter" stroke-linecap="butt" stroke-miterlimit="4" stroke-width="1.1429" d="M31.429 16c0 8.521-6.908 15.429-15.429 15.429s-15.429-6.908-15.429-15.429c0-8.521 6.908-15.429 15.429-15.429s15.429 6.908 15.429 15.429z"></path>
<path d="M19.446 18.638l2.447 2.447-0.809 0.809-2.447-2.447c-0.91 0.73-2.043 1.127-3.21 1.125-2.839 0-5.143-2.304-5.143-5.143s2.304-5.143 5.143-5.143c2.839 0 5.143 2.304 5.143 5.143 0.002 1.167-0.395 2.299-1.125 3.21zM18.3 18.214c0.725-0.746 1.13-1.745 1.129-2.786 0-2.21-1.79-4-4-4s-4 1.79-4 4c0 2.21 1.79 4 4 4 1.040 0.002 2.040-0.403 2.786-1.129l0.086-0.086zM15.441 14.446c-0.072-0.503 0.198-0.993 0.661-1.203-1.004-0.309-2.089 0.106-2.631 1.005s-0.401 2.053 0.342 2.795c0.743 0.743 1.896 0.884 2.795 0.342s1.314-1.627 1.005-2.631c-0.209 0.463-0.699 0.733-1.203 0.661s-0.899-0.467-0.97-0.97z"></path>
</symbol>
<symbol id="icon-cash" viewBox="0 0 32 32">
<path d="M2.667 16c0 7.364 5.969 13.333 13.333 13.333s13.333-5.969 13.333-13.333c0-7.364-5.969-13.333-13.333-13.333s-13.333 5.969-13.333 13.333zM11.333 21.333v-2.667h7.333c0.368 0 0.667-0.299 0.667-0.667s-0.299-0.667-0.667-0.667h-5.333c-1.841 0-3.333-1.492-3.333-3.333s1.492-3.333 3.333-3.333h1.333v-2.667h2.667v2.667h3.333v2.667h-7.333c-0.368 0-0.667 0.299-0.667 0.667s0.298 0.667 0.667 0.667h5.333c1.841 0 3.333 1.492 3.333 3.333s-1.492 3.333-3.333 3.333h-1.333v2.667h-2.667v-2.667h-3.333z"></path>
</symbol>
<symbol id="icon-arrow-down" viewBox="0 0 52 32">
<path fill="none" stroke="#000000" stroke-linejoin="miter" stroke-linecap="round" stroke-miterlimit="4" stroke-width="5.8182" d="M49.455 2.909l-23.273 23.273-23.273-23.273"></path>
</symbol>
</defs>
</svg>
