<svg height="84" viewBox="0 0 84 84" width="84" xmlns="http://www.w3.org/2000/svg"><g fill="none" fill-rule="evenodd"><path d="m0 0h84v84h-84z" fill="none"/><g fill="#060606" transform="translate(5 30)"><path d="m63.5 21.0217419c-1.3926774 0-2.5217419-1.1290645-2.5217419-2.5217419s1.1290645-2.5217419 2.5217419-2.5217419 2.5217419 1.1290645 2.5217419 2.5217419-1.1290645 2.5217419-2.5217419 2.5217419m0-7.0217419c-2.4854516 0-4.5 2.0145484-4.5 4.5s2.0145484 4.5 4.5 4.5c2.4851613 0 4.5-2.0145484 4.5-4.5s-2.0148387-4.5-4.5-4.5"/><path d="m23.5 21.0217419c-1.3926774 0-2.5217419-1.1290645-2.5217419-2.5217419s1.1290645-2.5217419 2.5217419-2.5217419 2.5217419 1.1290645 2.5217419 2.5217419-1.1290645 2.5217419-2.5217419 2.5217419m0-7.0217419c-2.4854516 0-4.5 2.0145484-4.5 4.5s2.0145484 4.5 4.5 4.5c2.4851613 0 4.5-2.0145484 4.5-4.5s-2.0148387-4.5-4.5-4.5"/><path d="m60.3953533 9.74920812-.8439371-4.63605301c1.0848064.04070681 2.026224.0841274 2.5702668.09739481.5270507.01296587 1.004616.31148245 1.2535342.78217375l1.1819888 3.67235705zm-12.9598443.26203118.5440428-4.92733278c1.3152421-.01115668 5.765661-.02231336 7.4287924-.04643592.8159151-.01175974 1.7260316.00211073 2.6182617.02593175l.8585442 4.7162605zm-1.5039429.0367869-15.2808947.3811364s2.2670934-2.76745984 7.532235-4.48227178c2.124897-.69231725 4.2411489-.80207486 8.2953855-.84820924zm26.2496914 4.6188657c0-1.1482335.7762671-2.6118693-.849601-4.6556526l-4.1761618-4.67314139c-.7568902-.84700311-1.8345421-1.32523271-2.96317-1.3137745-2.2817005.02321796-6.1162332.05698953-7.4830476.03738996-8.1990973-.11789898-11.8875582-.02894707-11.0558435-.03799302-2.4358211.02683634-7.5304464.49843223-9.7868079 1.42654743-2.2021063.90610337-4.9765754 2.38994186-7.9439189 4.80913232-8.6590743.1281511-11.4708066 1.2022077-13.6383327 1.7193349-.6844505.1631288-1.2705262.6090945-1.6175211 1.2278379-.8978942 1.6023406-.9882202 2.2741536-.9882202 2.2741536s-1.6786328-.042516-1.6786328 1.5281637c0 2.504524 3.1053664 3.9476557 8.1415629 3.9901717.1141745.0012061.228647.0009381.3434177.0009381-.3234446-.7816042-.4721993-1.6557452-.3929032-2.5727037.2200019-2.5416124 2.2286377-4.6227856 4.7363023-4.895672 3.2216275-.3506816 5.9448225 2.1930415 5.9448225 5.3802338 0 .4236523-.0527647.8337357-.1439851 1.2293455.0190788-.0030153.0321955-.005126.0321955-.005126h29.5050049c-.2098664-.9181647-.2152323-1.9150291.1708145-2.9734061.7995193-2.1915339 2.8045778-3.6952735 5.113704-3.6630096 2.9202428.0413099 5.2749792 2.4484391 5.2749792 5.4121962 0 .4215416-.0521685.8301173-.1424945 1.2242195h.0307048l5.3858745-1.2242195v-2.462008s-.2659102-1.7829582-1.8187425-1.7829582z"/><path d="m15.8572247 9.18201061 3.1427753-8.3247867-7.2572 4.8176839-6.6576089-5.67490781 2.17230321 8.65258472-7.25749431 4.81768388 8.59973044.5297314 1.80230526-5.63641521z"/></g></g></svg>