<svg height="84" viewBox="0 0 85 84" width="85" xmlns="http://www.w3.org/2000/svg"><g fill="none" fill-rule="evenodd" transform="translate(1)"><path d="m0 0h84v84h-84z" fill="none"/><g stroke="#030303" stroke-width="2.8"><path d="m33.0348157 52.4743036c0-2.6577525-2.1568689-4.8122007-4.816602-4.8122007-2.6601833 0-4.816602 2.1544482-4.816602 4.8122007 0 2.6577526 2.1564187 4.8122008 4.816602 4.8122008 2.6597331 0 4.816602-2.1544482 4.816602-4.8122008z"/><path d="m69.9798054 52.4743036c0-2.6577525-2.1568689-4.8122007-4.816602-4.8122007-2.6601834 0-4.8166021 2.1544482-4.8166021 4.8122007 0 2.6577526 2.1564187 4.8122008 4.8166021 4.8122008 2.6597331 0 4.816602-2.1544482 4.816602-4.8122008z"/><path d="m32.931947 53.46544h27.414429"/><path d="m69.9798054 53.4654398h6.638078c2.0416198 0 3.696975-1.6538426 3.696975-3.6935968v-4.2063465c0-1.8976236-1.4392632-3.4862481-3.3291683-3.6751558l-4.4627513-.3125974c-1.6450008-.1151438-3.2004135-.7925131-4.4051267-1.9183135l-3.948182-3.6899986c-1.276744-1.1932675-2.9447046-1.8809817-4.6923491-1.9345056l-11.4011072-.3476803c-2.7637275-.0841089-5.4756828.7596792-7.7018813 2.3973297l-3.8297816 2.816525c-1.7264855 1.2697301-3.7154328 2.1360072-5.8218802 2.535862l-12.2209065 2.2318104c-1.6612077.303152-2.8974344 1.7046678-2.9892735 3.3890955l-.1400097 2.5610497c-.1143487 2.0892301 1.5509108 3.8465222 3.6456532 3.8465222h4.3835175"/><path d="m76.98569 41.969457h-48.767476"/><path d="m7.56359423 49.7049156 1.4100007-8.2147896-5.97359493-5.8174599 8.2556171-1.1986648 3.6920229-7.4740013 3.692023 7.4740013 8.2551669 1.1986648"/></g></g></svg>