<svg height="84" viewBox="0 0 84 84" width="84" xmlns="http://www.w3.org/2000/svg"><g fill="none" fill-rule="evenodd"><path d="m0 0h84v84h-84z" fill="none"/><g stroke="#030303" stroke-width="2.8" transform="translate(4 23)"><path d="m28.7408698 29.2389208c0-2.6577525-2.1568689-4.8122007-4.816602-4.8122007-2.6601833 0-4.816602 2.1544482-4.816602 4.8122007s2.1564187 4.8122007 4.816602 4.8122007c2.6597331 0 4.816602-2.1544482 4.816602-4.8122007z"/><path d="m65.6858595 29.2389208c0-2.6577525-2.1568689-4.8122007-4.8166021-4.8122007-2.6601833 0-4.816602 2.1544482-4.816602 4.8122007s2.1564187 4.8122007 4.816602 4.8122007c2.6597332 0 4.8166021-2.1544482 4.8166021-4.8122007z"/><path d="m28.638001 30.229832h27.414429"/><path d="m65.6858595 30.229832h6.638078c2.0416198 0 3.696975-1.6533928 3.696975-3.693147v-4.2067963c0-1.8976236-1.4392632-3.486248-3.3291683-3.6751558l-4.4627513-.3125974c-1.6450008-.1151438-3.2004135-.7920633-4.4051267-1.9178637l-3.948182-3.6904484c-1.276744-1.1932674-2.9447046-1.8809817-4.6923491-1.9340558l-11.4011072-.3476802c-2.7637275-.0845587-5.4756828.7596791-7.7018813 2.3968798l-3.8297816 2.816525c-1.7264855 1.2697302-3.7154328 2.136457-5.8218803 2.535862l-12.2209064 2.2318105c-1.6612077.303152-2.8974344 1.7051176-2.9892735 3.3895452l-.1400097 2.5606c-.1143487 2.0896798 1.5509108 3.8465221 3.6456532 3.8465221h4.3835175"/><path d="m72.691744 18.734074h-48.767476"/><path d="m3.63831038 20.2630577c-2.72951285-2.0312083-3.5006914-5.784626-3.5006914-5.784626-.38761513-1.9596932.05177206-3.992251 1.21461746-5.61685785 1.03589132-1.44739339 3.73479114-4.21894035 2.32343986-8.86157385 6.438643 2.66539877 10.0329743 5.89302307 5.46847973 12.7.94810397-.1871087 4.70810577-.9296962 6.61556847-3.73767534.4006707.68186712.8837265 3.35761084.4065231 4.80590384"/></g></g></svg>