<svg height="84" viewBox="0 0 84 84" width="84" xmlns="http://www.w3.org/2000/svg"><g fill="none" fill-rule="evenodd"><path d="m0 0h84v84h-84z" fill="none"/><g stroke="#030303" stroke-width="2.8" transform="translate(4 23)"><path d="m28.7835977 29.8069035c0-2.6573027-2.1568689-4.8122007-4.8166021-4.8122007-2.6601833 0-4.816602 2.154898-4.816602 4.8122007 0 2.6577525 2.1564187 4.8122007 4.816602 4.8122007 2.6597332 0 4.8166021-2.1544482 4.8166021-4.8122007z"/><path d="m65.7285873 29.8069035c0-2.6573027-2.1568689-4.8122007-4.816602-4.8122007-2.6601833 0-4.816602 2.154898-4.816602 4.8122007 0 2.6577525 2.1564187 4.8122007 4.816602 4.8122007 2.6597331 0 4.816602-2.1544482 4.816602-4.8122007z"/><path d="m28.680729 30.798265h27.414429"/><path d="m72.734472 19.302507h-46.468347"/><path d="m65.7285873 30.7982645h6.638078c2.0416198 0 3.696975-1.6538426 3.696975-3.6935968v-4.2063465c0-1.8976236-1.4392631-3.486248-3.3291683-3.6751558l-4.4627512-.3125974c-1.6450009-.1155936-3.2004135-.7925131-4.4051268-1.9178637l-3.948182-3.6904484c-1.2767439-1.1937172-2.9447045-1.8809817-4.6923491-1.9340558l-11.4011072-.34813c-2.7637274-.0841089-5.4756828.7601289-7.7023314 2.3973296l-3.8293314 2.816525c-1.7264855 1.2692804-3.9211705 2.668997-6.0271678 3.0684021l-3.3377219-2.7733461c-.5546363 1.6947726-3.4781818 2.0451516-6.0843421 1.8575931.9701633 3.2298732-.0846361 6.0787824-3.5290535 7.4375691 0 0 2.0924914 3.3693051 1.4518685 4.9741216h4.3830673"/><path d="m28.680729 30.798265h27.414429"/><path d="m5.23933211 24.8215823c0-7.4299228-5.23933211-6.4165675-5.23933211-12.4107911 0-5.99422372 5.23933211-5.65643862 5.23933211-12.4107912"/><path d="m11.2678955 18.0779345c-1.31005817-1.4244546-2.6196661-2.6703464-2.6196661-5.6672333 0-5.99422367 5.2393321-5.65643858 5.2393321-12.41034138"/></g></g></svg>