<svg height="84" viewBox="0 0 84 84" width="84" xmlns="http://www.w3.org/2000/svg"><g fill="none" fill-rule="evenodd"><path d="m0 0h84v84h-84z" fill="none"/><g fill="#060606" transform="translate(9 27)"><path d="m56 24.0217419c-1.3926774 0-2.5217419-1.1290645-2.5217419-2.5217419 0-1.3923871 1.1290645-2.5214516 2.5217419-2.5214516s2.5217419 1.1290645 2.5217419 2.5214516c0 1.3926774-1.1290645 2.5217419-2.5217419 2.5217419m0-7.0217419c-2.4854516 0-4.5 2.0148387-4.5 4.5 0 2.4854516 2.0145484 4.5 4.5 4.5 2.4851613 0 4.5-2.0145484 4.5-4.5 0-2.4851613-2.0148387-4.5-4.5-4.5"/><path d="m16 24.0217419c-1.3926774 0-2.5217419-1.1290645-2.5217419-2.5217419 0-1.3923871 1.1290645-2.5214516 2.5217419-2.5214516s2.5217419 1.1290645 2.5217419 2.5214516c0 1.3926774-1.1290645 2.5217419-2.5217419 2.5217419m0-7.0217419c-2.4854516 0-4.5 2.0148387-4.5 4.5 0 2.4854516 2.0145484 4.5 4.5 4.5 2.4851613 0 4.5-2.0145484 4.5-4.5 0-2.4851613-2.0148387-4.5-4.5-4.5"/><path d="m52.8973531 12.7490587-.843813-4.6357026c1.0846469.04070637 2.0259261.08382498 2.5698889.09709225.5269733.01296573 1.0044683.31147917 1.25335.78186398l1.181815 3.67261987zm-12.9579392.2617269.5439628-4.92697932c1.3150487-.01115656 5.7648135-.02231312 7.4277003-.04643542.8157952-.01175962 1.7257779.0021107 2.6178769.026233l.858418 4.71621074zm-1.5037219.0367865-15.2786485.3814339s2.2667601-2.7674307 7.5311278-4.48222451c2.1245846-.69230995 4.2405254-.80206641 8.2941661-.8482003zm26.2458329 4.6191186c0-1.1479199.7761529-2.6118418-.8494762-4.6559051l-4.1755479-4.67309213c-.7567789-.84669266-1.8342724-1.32491722-2.9627344-1.31345913-2.2813651.02321772-6.1153342.05698893-7.4819476.03738957-8.1978921-.11789774-11.8858109-.02864523-11.0542185-.03799262-2.435463.02683605-7.5293394.49842698-9.7853693 1.42653239-2.2017826.90609382-4.9758438 2.38991672-7.9427511 4.80878012-8.6578015.1284512-5.395515-3.81584603-7.5624243-3.29872427-.6843499.16312707-1.2456003 2.83135477-1.557373 3.46878647-.3075998.629592-4.32368464-2.0681855-3.2047606 1.5314644 1.20416972 3.873438-1.53203771 2.7614-1.53203771 4.3320632 0 2.5044975-.95856679 4.6637447 4.07688951 4.7065618.1141576.0009046.2286134.0009046.3433672.0009046-.3233971-.781864-.4721299-1.6559958-.3928455-2.5732461.2199696-2.5412841 2.2283101-4.6224354 4.7356061-4.8953189 3.221154-.3506779 5.9439486 2.1930184 5.9439486 5.3801771 0 .4236478-.0527569.8337269-.1439638 1.2293326.0190759-.0030153.0321906-.0054276.0321906-.0054276h29.5006679c-.2098355-.9178534-.2152006-1.9147074.1707894-2.9730732.7994018-2.1915107 2.8041656-3.695536 5.1129524-3.6629709 2.9198135.0413094 5.2742037 2.4487148 5.2742037 5.4121391 0 .4215371-.0521608.8304101-.1424735 1.223905h.0307003l5.3850828-1.223905v-2.4619821s-.2658711-1.7829393-1.8184751-1.7829393z"/><g fill-rule="nonzero"><path d="m6 0c0 2.18435964-.47011896 3.45192639-1.60174588 5.06794008l-.31162177.43360732c-.84391015 1.16258167-1.08663235 1.73972711-1.08663235 2.9984526 0 1.11696493.1889434 1.6355338.83415699 2.5038914l.3551342.4633851c1.26419111 1.6447702 1.81070881 3.0334782 1.81070881 5.5327235h-3c0-1.6830083-.2698905-2.4623037-1.04686577-3.5155623l-.34947691-.4570005c-1.13284671-1.4693242-1.60365732-2.5759472-1.60365732-4.5274372 0-1.88761797.42529667-3.00375712 1.46831787-4.49372689l.31763114-.44200111c.92502746-1.27478883 1.21405099-1.98692783 1.21405099-3.564272z"/><path d="m12 0c0 2.07395355-.4832126 3.2816223-1.6318119 4.80316753l-.3143433.40564399c-.82549822 1.05446287-1.0538448 1.55791498-1.0538448 2.67265092 0 .63031485.09855095 1.0749344.28599923 1.45488704l-2.69040368 1.32730102c-.39634795-.80338667-.59559555-1.70230625-.59559555-2.78218806 0-1.79974013.43811937-2.86567896 1.4980759-4.27033158l.32064988-.41382096c.90675886-1.15867949 1.18127422-1.78585068 1.18127422-3.1973099z"/></g></g></g></svg>