<svg height="84" viewBox="0 0 84 84" width="84" xmlns="http://www.w3.org/2000/svg"><g fill="none" fill-rule="evenodd"><path d="m0 0h84v84h-84z" fill="none"/><g stroke="#030303" stroke-width="2.8" transform="translate(13 22)"><path d="m46.097839 13.2685824c-1.8809013-1.8796324-4.9309507-1.8796324-6.811852 0-1.8809013 1.8791826-1.8809013 4.9259952 0 6.8056276 1.8809013 1.8791826 4.9309507 1.8791826 6.811852 0 1.8809014-1.8796324 1.8809014-4.926445 0-6.8056276z"/><path d="m34.220519 26.536205 5.766957-5.761687"/><path d="m46.7992829 13.9691604 4.6936996-4.68986046c1.4437651-1.44199603 1.4437651-3.78085422 0-5.22285024l-2.9771183-2.97439793c-1.3429221-1.34214477-3.4849347-1.44874273-4.9548109-.24692945l-3.3768887 2.931219c-1.2447803 1.08127214-2.8240531 1.70106956-4.4722053 1.75594277l-5.4041023.17991217c-1.7471943.05802167-3.4133542.75068352-4.6864965 1.94709944l-8.3082896 7.8090877c-2.0137079 1.892676-3.3336703 4.4051494-3.7491973 7.1362161l-.9111882 7.2949887"/><path d="m43.617192.890805-29.373664 29.346823"/><path d="m0 25.0735193c7.18686181 0 7.18686181 5.2943654 14.3737236 5.2943654 7.1868618 0 7.1868618-5.2943654 14.3737237-5.2943654 7.1868618 0 7.1868618 5.2943654 14.3737236 5.2943654s7.1868618-5.2943654 14.3737236-5.2943654"/><path d="m0 33.958032c7.18686181 0 7.18686181 5.2939155 14.3737236 5.2939155 7.1868618 0 7.1868618-5.2939155 14.3737237-5.2939155 7.1868618 0 7.1868618 5.2939155 14.3737236 5.2939155s7.1868618-5.2939155 14.3737236-5.2939155"/></g></g></svg>