<svg height="84" viewBox="0 0 84 84" width="84" xmlns="http://www.w3.org/2000/svg"><g fill="none" fill-rule="evenodd"><path d="m0 0h84v84h-84z" fill="none"/><g fill="#060606" transform="translate(15 22)"><path d="m54 24.5v3c-2.3252798 0-3.4635811.462851-5.575933 1.9988518l-.2812257.206484c-2.7656613 2.048638-4.4442202 2.7946642-7.6428413 2.7946642-3.0799788 0-4.7505688-.691778-7.3396541-2.5722859l-.5842915-.4288511c-2.1123848-1.5359891-3.2507613-1.998863-5.5760544-1.998863-2.3252798 0-3.4635811.462851-5.575933 1.9988518l-.2812257.206484c-2.7656613 2.048638-4.4442202 2.7946642-7.6428413 2.7946642-2.9616862 0-4.62016405-.6395972-7.04508494-2.3606273l-.59775639-.4340369c-2.29683864-1.701362-3.43077976-2.2053358-5.85715867-2.2053358v-3c2.9616862 0 4.62016405.6395972 7.04508494 2.3606273l.59775639.4340369c2.29683864 1.701362 3.43077977 2.2053358 5.85715867 2.2053358 2.3252798 0 3.4635811-.462851 5.575933-1.9988518l.2812257-.206484c2.7656613-2.048638 4.4442202-2.7946642 7.6428413-2.7946642 2.961685 0 4.6202271.6396116 7.0451782 2.3606229l.5977629.4340318c2.2969063 1.7013743 3.4308529 2.2053453 5.8570589 2.2053453 2.3252798 0 3.4635811-.462851 5.575933-1.9988518l.2812257-.206484c2.7656613-2.048638 4.4442202-2.7946642 7.6428413-2.7946642z" fill-rule="nonzero"/><path d="m54 32.5v3c-2.3252798 0-3.4635811.462851-5.575933 1.9988518l-.2812257.206484c-2.7656613 2.048638-4.4442202 2.7946642-7.6428413 2.7946642-3.0799788 0-4.7505688-.691778-7.3396541-2.5722859l-.5842915-.4288511c-2.1123848-1.5359891-3.2507613-1.998863-5.5760544-1.998863-2.3252798 0-3.4635811.462851-5.575933 1.9988518l-.2812257.206484c-2.7656613 2.048638-4.4442202 2.7946642-7.6428413 2.7946642-2.9616862 0-4.62016405-.6395972-7.04508494-2.3606273l-.59775639-.4340369c-2.29683864-1.701362-3.43077976-2.2053358-5.85715867-2.2053358v-3c2.9616862 0 4.62016405.6395972 7.04508494 2.3606273l.59775639.4340369c2.29683864 1.701362 3.43077977 2.2053358 5.85715867 2.2053358 2.3252798 0 3.4635811-.462851 5.575933-1.9988518l.2812257-.206484c2.7656613-2.048638 4.4442202-2.7946642 7.6428413-2.7946642 2.961685 0 4.6202271.6396116 7.0451782 2.3606229l.5977629.4340318c2.2969063 1.7013743 3.4308529 2.2053453 5.8570589 2.2053453 2.3252798 0 3.4635811-.462851 5.575933-1.9988518l.2812257-.206484c2.7656613-2.048638 4.4442202-2.7946642 7.6428413-2.7946642z" fill-rule="nonzero"/><path d="m44.283038 14.2831901c-.9847662.9850804-2.5815275.9850804-3.5662938 0-.9847662-.9847901-.9847662-2.5815901 0-3.5660898.9847663-.98508043 2.5815276-.98508043 3.5662938 0 .9847663.9844997.9847663 2.5812997 0 3.5660898m-4.9650567-4.96517691c-1.7573084 1.75735091-1.7573084 4.60691301 0 6.36397361 1.7573084 1.7573509 4.6065112 1.7573509 6.3638197 0 1.7575987-1.7570606 1.7575987-4.6066227 0-6.36397361-1.7573085-1.75735092-4.6065113-1.75735092-6.3638197 0"/><path d="m33.7459937 7.99433992-3.8922898-2.68630847c.8066985-.75047039 1.5127108-1.3958507 1.9124317-1.77714296.3870217-.36948098.941249-.50061645 1.4531457-.34525272l3.4520526 1.75927462zm-9.1089196 9.49566128-3.1034307-3.8898473c.9352018-.9527764 4.1190604-4.15787252 5.2949413-5.36989129.5766019-.59419811 1.2393767-1.238367 1.8961042-1.86224473l3.9597163 2.73264501zm-11.7164787 12.3282479c-.0096755-.0003029-.0178393.0012114-.0272124.0015142-.0226771-.3040646-.2192116-3.7938428 2.2256774-8.5692331 1.0331666-2.0182142 2.4733108-3.6163708 5.3481567-6.5616189l3.1173392 3.9077157zm35.3335737-26.83855355s-1.4549599-1.07482624-2.5685545.04027948c-.8139551-.81497813-1.295011-2.41222625-3.9104314-2.69599976l-6.3087569-.31890449c-1.1432259-.05754212-2.2553087.37674946-3.0562623 1.19566469-1.6200489 1.6556988-4.3461333 4.43437751-5.3405978 5.40199369-5.9640656 5.80630284-8.5462263 8.51926234-7.9563205 7.91537294-1.7276892 1.7689659-5.0473078 5.7636005-6.0073031 8.0437827-.8181882 1.9431066-1.6366787 4.5125137-2.1059426 7.6955015.309315-.0381595.9754157.2731736 1.5000116.4509485.0272125.0436109.0595651.0787419.0982673.1008502.585068.3361671 2.3342249.1441581 2.8763577.0545135 2.1999767-.3637267 4.1529247-2.0751505 7.5768578-4.1024503 3.4478195-2.041231 7.2270264-.5402902 7.2270264-.5402902l9.2337946-9.2488359c-.8015583-.5012221-1.5124084-1.205356-1.9859054-2.2341485-.9805558-2.1311785-.6086521-4.6394092 1.0703571-6.27511968 2.1237818-2.0684878 5.5192929-2.05061946 7.6207.05421073.2990348.29952188.5512037.62751197.7658798.97185613l.0220723-.02210829 2.9945808-4.73813933z"/></g></g></svg>