<svg height="84" viewBox="0 0 84 84" width="84" xmlns="http://www.w3.org/2000/svg"><g fill="none" fill-rule="evenodd"><path d="m0 0h84v84h-84z" fill="none"/><g stroke="#030303" stroke-width="2.8" transform="translate(10 34)"><path d="m7.19192679 19.7838666h-3.54075847c-2.09474242 0-3.75955168-1.7568423-3.64565316-3.8465222l.14000965-2.5605999c.09228932-1.6844277 1.3280658-3.0859435 2.98927352-3.38954527l12.22135667-2.23136067c2.1059972-.39985479 4.0953947-1.26658166 5.8218803-2.53631179l3.8293314-2.816525c2.2266486-1.63720073 4.9381538-2.4809888 7.7018812-2.39732964l11.4011072.34813005c1.7476446.05352387 3.4156052.74078835 4.6923491 1.93450559l3.9486322 3.68999857c1.2042631 1.12580039 2.7596757 1.80271993 4.4046766 1.91786371l4.4627512.31304718c1.8899052.18890777 3.3291683 1.77753222 3.3291683 3.67515577v4.2063465c0 2.0397542-1.654905 3.6931471-3.6965248 3.6931471h-5.7975699l.0018007-.1488773c0-3.1228255-2.5336794-5.6541897-5.659361-5.6541897s-5.6593611 2.5313642-5.6593611 5.6541897l.0018008.1488773h-25.6280683v-.1488773c0-3.1228255-2.5336794-5.6541897-5.6593611-5.6541897-3.12568159 0-5.65936101 2.5313642-5.65936101 5.6541897z"/><path d="m61.618989 8.288109h-48.767476"/></g></g></svg>