<svg height="84" viewBox="0 0 84 84" width="84" xmlns="http://www.w3.org/2000/svg"><g fill="none" fill-rule="evenodd"><path d="m0 0h84v84h-84z" fill="none"/><path d="m50.3953533 5.74900361-.8439371-4.63572532c1.0848064.04070658 2.026224.08412693 2.5702668.09739426.5270507.01266427 1.004616.3114807 1.2535342.78186781l1.1819888 3.67263785zm-12.9598443.26202974.5440428-4.92700349c1.3152421-.01145814 5.765661-.02231323 7.4287924-.04643565.8159151-.0120612 1.7260316.00180919 2.6182617.0259316l.8585442 4.71623388zm-1.5039429.03678669-15.2808947.38113417s2.2670934-2.76744419 7.532235-4.48224644c2.124897-.69201181 4.2411489-.80207033 8.2953855-.84820446zm26.2496914 4.61914116c0-1.14822702.7762671-2.61215615-.849601-4.65592785l-4.1761618-4.67311506c-.7568902-.8466968-1.8345421-1.3249237-2.96317-1.31346555-2.2817005.02321782-6.1162332.05668768-7.4830476.03738974-8.1990973-.11819984-11.8875582-.0289469-11.0558435-.0379928-2.4358211.02683619-7.5304464.49812789-9.7868079 1.42623785-2.2021063.90609825-4.9765754 2.38992837-7.9439189 4.80910518-8.65907429.12845186-11.47080661 1.20250244-13.63833266 1.7193252-.68445053.16342937-1.2705262.60909101-1.61752116 1.22813251-.89789416 1.60202998-.98822017 2.27383928-.98822017 2.27383928s-1.67863281-.0425158-1.67863281 1.528155c0 2.5045099 3.10536637 3.947935 8.14156291 3.9904507.11417446.0009046.22864702.0009046.34341769.0009046-.32344461-.7815663-.47219932-1.6557023-.39290322-2.5729572.22000195-2.5412965 2.22863772-4.62245799 4.73630232-4.89564435 3.2216275-.35037809 5.9448225 2.19302915 5.9448225 5.38020335 0 .42365-.0527647.833731-.1439851 1.2293387.0190788-.0030153.0321955-.0051261.0321955-.0051261h29.5050049c-.2098664-.9181594-.2152323-1.9150183.1708145-2.9733893.7995193-2.1915215 2.8045778-3.69525258 5.113704-3.66298885 2.9202428.04130964 5.2749792 2.44872675 5.2749792 5.41216555 0 .4218408-.0521685.8304142-.1424945 1.2242126h.0307048l5.3858745-1.2242126v-2.4619941s-.2659102-1.7826465-1.8187425-1.7826465z" fill="#060606" transform="translate(10 33)"/></g></svg>