<svg height="84" viewBox="0 0 84 84" width="84" xmlns="http://www.w3.org/2000/svg"><g fill="none" fill-rule="evenodd"><path d="m0 0h84v84h-84z" fill="none"/><g fill="#060606" transform="translate(13 30)"><path d="m4.99984641 21.8021134c-1.54753494 0-2.80202733-1.2545309-2.80202733-2.8021134 0-1.5472753 1.25449239-2.8018062 2.80202733-2.8018062s2.80202734 1.2545309 2.80202734 2.8018062c0 1.5475825-1.2544924 2.8021134-2.80202734 2.8021134m0-7.8021134c-2.76148057 0-4.99984641 2.2387418-4.99984641 5 0 2.7615654 2.23836584 5 4.99984641 5 2.76148058 0 5.00015359-2.2384346 5.00015359-5 0-2.7612582-2.23867301-5-5.00015359-5"/><path d="m44.9998464 21.8021134c-1.5475349 0-2.8020273-1.2545309-2.8020273-2.8021134 0-1.5472753 1.2544924-2.8018062 2.8020273-2.8018062 1.547535 0 2.8020274 1.2545309 2.8020274 2.8018062 0 1.5475825-1.2544924 2.8021134-2.8020274 2.8021134m0-7.8021134c-2.7614806 0-4.9998464 2.2387418-4.9998464 5 0 2.7615654 2.2383658 5 4.9998464 5s5.0001536-2.2384346 5.0001536-5c0-2.7612582-2.238673-5-5.0001536-5"/><path d="m39.472731 7.32119914v-6.35087182h1.0509967c3.4430649 0 6.2342117 2.84337718 6.2342117 6.35087182zm-1.5014237 0h-12.7380792l2.3470256-6.35087182h10.3910536zm17.4210199.10217192h-1.7836914c-.7089723 0-1.3509811.54206179-1.8209268 1.4187825-.8017603-.68033037-1.8320372-1.09024166-2.9569039-1.09024166 0-4.28112573-3.4067305-7.7519119-7.6092157-7.7519119h-15.2274398l-2.7055656 7.32119914h-17.72310639v5.16732946c-.15104323-1.8326705-1.6563707-3.27256041-3.49411339-3.27256041-.12852187 0-.25524204.0082594-.38016049.02202508v3.85377793h-1.69120373v2.8681554c1.19002848-1.5744876 3.05779964-2.5903946 5.15919234-2.5903946 3.59470877 0 6.50867206 2.9687978 6.50867206 6.630468h27.2352265c0-3.6616702 2.9139632-6.630468 6.5083717-6.630468 3.5947088 0 6.508672 2.9687978 6.508672 6.630468h1.5347554v-2.6326094c.0510484.0055063.1017965.0149893.1537458.0149893h1.7836914c1.4401657 0 2.6076728-2.2294279 2.6076728-4.9795044 0-2.75007648-1.1675071-4.97950444-2.6076728-4.97950444z"/><path d="m53 20h5v-2h-5z"/></g></g></svg>