<svg height="84" viewBox="0 0 84 84" width="84" xmlns="http://www.w3.org/2000/svg"><g fill="none" fill-rule="evenodd"><path d="m0 0h84v84h-84z" fill="none"/><g stroke="#030303" stroke-width="2.8" transform="translate(11 28)"><path d="m55.8206312 25.0319896c0-2.6577525-2.1568689-4.8122007-4.816602-4.8122007-2.6601833 0-4.816602 2.1544482-4.816602 4.8122007s2.1564187 4.8122007 4.816602 4.8122007c2.6597331 0 4.816602-2.1544482 4.816602-4.8122007z"/><path d="m16.5471146 25.0319896c0-2.6577525-2.1564187-4.8122007-4.8166021-4.8122007-2.66018327 0-4.81660197 2.1544482-4.81660197 4.8122007s2.1564187 4.8122007 4.81660197 4.8122007c2.6601834 0 4.8166021-2.1544482 4.8166021-4.8122007z"/><path d="m16.547115 25.03199h29.640177"/><path d="m55.8206312 25.0319896h6.9135954c0-6.4727901-5.2519375-11.7199284-11.7301974-11.7199284-6.4787101 0-11.7306476 5.2471383-11.7306476 11.7199284-16.9591751 0-16.2834372-11.7199284-27.5431842-11.7199284-6.47825992 0-11.7301974 5.2471383-11.7301974 11.7199284h6.91359539"/><path d="m10.3846642 13.3904129v-4.27201443h20.9825392v-9.11839847h14.9436664c2.5917542 0 4.6932495 2.099575 4.6932495 4.68896089v8.62319021"/><path d="m31.367158 9.118398h19.636916"/></g></g></svg>