<svg height="84" viewBox="0 0 84 84" width="84" xmlns="http://www.w3.org/2000/svg"><g fill="none" fill-rule="evenodd"><path d="m0 0h84v84h-84z" fill="none"/><g stroke="#030303" stroke-width="2.8" transform="translate(11 34)"><path d="m15.4685901 18.7925613c0-2.6577525-2.1568689-4.8122007-4.816602-4.8122007-2.66018336 0-4.81660205 2.1544482-4.81660205 4.8122007s2.15641869 4.8122007 4.81660205 4.8122007c2.6597331 0 4.816602-2.1544482 4.816602-4.8122007z"/><path d="m52.4135797 18.7925613c0-2.6577525-2.1568689-4.8122007-4.816602-4.8122007-2.6601833 0-4.816602 2.1544482-4.816602 4.8122007s2.1564187 4.8122007 4.816602 4.8122007c2.6597331 0 4.816602-2.1544482 4.816602-4.8122007z"/><path d="m15.365721 19.783922h27.41443"/><path d="m59.419464 8.288164h-46.468346"/><path d="m52.4135797 19.7839223h6.638078c2.0416198 0 3.6969751-1.6538426 3.6969751-3.6935968v-4.2063465c0-1.89762356-1.4392632-3.48624801-3.3291684-3.67515579l-4.4627512-.31259739c-1.6450008-.11559357-3.2004135-.7925131-4.4051267-1.91786371l-3.9481821-3.69044836c-1.2767439-1.19371723-2.9447045-1.88098171-4.6923491-1.9340558l-11.4011072-.34813005c-2.7637274-.08410894-5.4756828.76012891-7.7023314 2.39732964l-3.8293314 2.81607522c-1.7264855 1.26973012-3.9211705 2.66944679-6.0271677 3.06885181l-3.33772201-2.77334608c-.55463629 1.69432285-3.47818181 2.04515158-6.08434211 1.85759314.97016332 3.22987317-.08463606 6.07878237-3.52905348 7.43756907 0 0 2.09249146 3.3693051 1.45186854 4.9741216h4.38306731"/><path d="m15.365721 19.783922h27.41443"/></g></g></svg>