<svg height="84" viewBox="0 0 84 84" width="84" xmlns="http://www.w3.org/2000/svg"><g fill="none" fill-rule="evenodd"><path d="m0 0h84v84h-84z" fill="none"/><g fill="#060606" transform="translate(12 34)"><path d="m49.5 17.0217419c-1.3926774 0-2.5217419-1.1290645-2.5217419-2.5217419 0-1.3923871 1.1290645-2.5214516 2.5217419-2.5214516s2.5217419 1.1290645 2.5217419 2.5214516c0 1.3926774-1.1290645 2.5217419-2.5217419 2.5217419m0-7.0217419c-2.4854516 0-4.5 2.0148387-4.5 4.5 0 2.4854516 2.0145484 4.5 4.5 4.5 2.4851613 0 4.5-2.0145484 4.5-4.5 0-2.4851613-2.0148387-4.5-4.5-4.5"/><path d="m9.5 17.0217419c-1.39267742 0-2.52174194-1.1290645-2.52174194-2.5217419 0-1.3923871 1.12906452-2.5214516 2.52174194-2.5214516 1.3926774 0 2.5217419 1.1290645 2.5217419 2.5214516 0 1.3926774-1.1290645 2.5217419-2.5217419 2.5217419m0-7.0217419c-2.48545161 0-4.5 2.0148387-4.5 4.5 0 2.4854516 2.01454839 4.5 4.5 4.5 2.4851613 0 4.5-2.0145484 4.5-4.5 0-2.4851613-2.0148387-4.5-4.5-4.5"/><path d="m46.3973531 5.74905871-.843813-4.63570261c1.0846469.04070637 2.0259261.08382498 2.5698889.09709225.5269733.01296573 1.0044683.31147917 1.25335.78186398l1.181815 3.67261986zm-12.9579392.26172693.5439628-4.92697936c1.3150487-.01115656 5.7648135-.02231312 7.4277003-.04643542.8157952-.01175962 1.7257779.0021107 2.6178769.026233l.858418 4.71621078zm-1.5037219.0367865-15.2786485.38143384s2.2667601-2.76743063 7.5311278-4.48222449c2.1245846-.69230995 4.2405254-.80206641 8.2941661-.8482003zm26.2458329 4.61911856c0-1.14791988.7761529-2.61184184-.8494762-4.65590506l-4.1755479-4.67309217c-.7567789-.84669266-1.8342724-1.32491722-2.9627344-1.31345913-2.2813651.02321772-6.1153342.05698893-7.4819476.03738957-8.1978921-.11789774-11.8858109-.02864523-11.0542185-.03799262-2.435463.02683605-7.5293394.49842698-9.7853693 1.42653239-2.2017826.90609382-4.9758438 2.38991667-7.9427511 4.8087801-8.65780149.12845124-5.39551495-3.81584601-7.56242433-3.29872425-.68434992.16312704-1.24560031 2.83135473-1.55737296 3.46878645-.30759979.62959198-4.32368465-2.06818552-3.20476061 1.53146439 1.20416972 3.87343803-1.53203771 2.76140003-1.53203771 4.33206323 0 2.5044975-.95856679 4.6637447 4.07688946 4.7065618.11415768.0009046.22861341.0009046.34336721.0009046-.32339706-.781864-.47212991-1.6559958-.39284547-2.5732461.21996962-2.5412841 2.22831011-4.62243538 4.73560608-4.89531888 3.22115403-.3506779 5.94394863 2.19301838 5.94394863 5.38017708 0 .4236478-.0527569.8337269-.1439638 1.2293326.0190759-.0030153.0321906-.0054276.0321906-.0054276h29.5006679c-.2098355-.9178534-.2152006-1.9147074.1707894-2.9730732.7994018-2.1915107 2.8041656-3.69553602 5.1129524-3.66297092 2.9198135.04130944 5.2742037 2.44871482 5.2742037 5.41213912 0 .4215371-.0521608.8304101-.1424735 1.223905h.0307003l5.3850828-1.223905v-2.4619821s-.2658711-1.7829393-1.8184751-1.7829393z"/></g></g></svg>