<svg height="84" viewBox="0 0 84 84" width="84" xmlns="http://www.w3.org/2000/svg"><g fill="none" fill-rule="evenodd"><path d="m0 0h84v84h-84z" fill="none"/><path d="m50.3953533 5.74911748-.8439371-4.63597992c1.0848064.04070617 2.026224.08412608 2.5702668.09739327.5270507.01296567 1.004616.31147755 1.2535342.7818599l1.1819888 3.67260068zm-12.9598443.26172557.5440428-4.92695362c1.3152421-.01115651 5.765661-.02231301 7.4287924-.04643518.8159151-.01175956 1.7260316.00211069 2.6182617.02593133l.8585442 4.71618614zm-2.3156845 8.76147435h-14.4691531v-8.3432562s2.2670934-2.76741617 7.532235-4.48220107c2.124897-.69230633 4.2411489-.80236374 8.2953855-.84819587zm27.061433-4.1055936c0-1.14821543.7762671-2.61182821-.849601-4.65588075l-4.1761618-4.67306776c-.7568902-.84668824-1.8345421-1.3249103-2.96317-1.31345226-2.2817005.02321759-6.1162332.05698863-7.4830476.03738936-8.1990973-.11789711-11.8875582-.0289466-11.0558435-.03799242-2.4358211.02683592-7.5304464.49842438-9.7868079 1.42652495-2.2021063.90608908-4.9765754 2.38990418-7.9439189 4.80875497-8.65907429.12845057-11.47080661 1.20249027-13.63833266 1.71960933-.68445053.16312619-1.2705262.60908484-1.61752116 1.22812008-.89789416 1.6020137-.98822017 2.2738162-.98822017 2.2738162s-1.67863281-.0425153-1.67863281 1.5281396c0 2.5044845 3.10536637 3.9475935 8.14156291 3.9901088.11417446.0012061.22864702.0012061.34341769.0012061-.32344461-.7818599-.47219932-1.6559871-.39290322-2.5732327.22000195-2.5412708 2.22863772-4.62241119 4.73630232-4.89529326 3.2216275-.35067607 5.9448225 2.19300696 5.9448225 5.38014896 0 .4233441-.0527647.8337225-.1439851 1.2293262.0190788-.0030153.0321955-.0054275.0321955-.0054275h29.5050049c-.2098664-.9178487-.2152323-1.9146974.1708145-2.9730577.7995193-2.1918009 2.8045778-3.69551677 5.113704-3.66295184 2.9202428.0410077 5.2749792 2.44870194 5.2749792 5.41211084 0 .4215349-.0521685.8301042-.1424945 1.2238987h.0307048l5.3858745-1.2238987v-2.4619692s-.2659102-1.78293-1.8187425-1.78293z" fill="#060606" transform="translate(10 33)"/></g></svg>