<svg height="84" viewBox="0 0 84 84" width="84" xmlns="http://www.w3.org/2000/svg"><g fill="none" fill-rule="evenodd"><path d="m0 0h84v84h-84z" fill="none"/><g transform="translate(10 34)"><g stroke="#030303" stroke-width="2.8"><path d="m7.19192679 19.7839223h-3.54075847c-2.09474242 0-3.75955168-1.7568423-3.64565316-3.8465221l.14000965-2.5606c.09228932-1.6844276 1.3280658-3.0859434 2.98927352-3.3895452l12.22135667-2.23136067c2.1059972-.39985479 4.0953947-1.26658166 5.8218803-2.53631179l3.8293314-2.816525c2.2266486-1.63720073 4.9381538-2.48143858 7.7018812-2.39732964l11.4011072.34813005c1.7476446.05307409 3.4156052.74078835 4.6923491 1.93450559l3.9486322 3.68999857c1.2042631 1.12580039 2.7596757 1.80271992 4.4046766 1.91786371l4.4627512.31259739c1.8899052.18890778 3.3291683 1.77753223 3.3291683 3.67515579v4.2063465c0 2.0397542-1.654905 3.6935968-3.6965248 3.6935968h-5.7975699l.0018007-.1493271c0-3.1223756-2.5336794-5.6537398-5.659361-5.6537398s-5.6593611 2.5313642-5.6593611 5.6537398l.0018008.1493271h-25.6280683v-.1493271c0-3.1223756-2.5336794-5.6537398-5.6593611-5.6537398-3.12568159 0-5.65936101 2.5313642-5.65936101 5.6537398z"/><path d="m61.618989 8.288164h-25.637972"/><path d="m35.980927 19.783922v-19.783591"/><path d="m12.851423 13.98072v-5.692421"/></g><path d="m12.8380072 8.21525507 2.5179227-.45922581c2.1059972-.39985479 4.0953948-1.26658166 5.8218803-2.53631179l3.8297816-2.81652499c2.2261984-1.63720073 4.9381538-2.48143858 7.7018812-2.39732965l3.2683924.09985126h.0031514v19.67834321h-17.4701428v-.1493271c0-3.1228255-2.5341296-5.6541897-5.6593611-5.6541897v-5.692421z" fill="#030303"/></g></g></svg>