<svg height="84" viewBox="0 0 86 84" width="86" xmlns="http://www.w3.org/2000/svg"><g fill="none" fill-rule="evenodd"><path d="m1 0h84v84h-84z" fill="none"/><g stroke="#030303" stroke-width="2.8" transform="translate(4 22)"><path d="m4.56359423 22.7049156 1.4100007-8.2152393-5.97359493-5.81701023 8.25561714-1.19866482 3.69202286-7.47400125 3.692023 7.47400125 8.2551669 1.19866482"/><path d="m30.0348157 21.2646738c0 2.6573027-2.1568689 4.8122007-4.816602 4.8122007-2.6601833 0-4.816602-2.154898-4.816602-4.8122007 0-2.6577526 2.1564187-4.8126505 4.816602-4.8126505 2.6597331 0 4.816602 2.1548979 4.816602 4.8126505z"/><path d="m66.9798054 21.2646738c0 2.6573027-2.1568689 4.8122007-4.816602 4.8122007-2.6601834 0-4.8166021-2.154898-4.8166021-4.8122007 0-2.6577526 2.1564187-4.8126505 4.8166021-4.8126505 2.6597331 0 4.816602 2.1548979 4.816602 4.8126505z"/><path d="m29.931947 20.273313h27.414429"/><path d="m73.98569 31.769071h-46.468347"/><path d="m66.9798054 20.2733127h6.638078c2.0416198 0 3.696975 1.6538426 3.696975 3.6935968v4.2063465c0 1.8976236-1.4392632 3.4862481-3.3291683 3.6751559l-4.4627513.3125974c-1.6450008.1155935-3.2004135.7925131-4.4051267 1.9178637l-3.948182 3.6904483c-1.276744 1.1932675-2.9447046 1.8809817-4.6923491 1.9340558l-11.4011072.3481301c-2.7637275.0841089-5.4756828-.7601289-7.7023314-2.3973297l-3.8293315-2.816525c-1.7264855-1.2692803-3.9211705-2.668997-6.0271677-3.068402l-3.337722 2.7733461c-.5546363-1.6947726-3.4781818-2.0451516-6.0843421-1.8575932.9701633-3.2298732-.084636-6.0787823-3.5290535-7.437569 0 0 2.0924915-3.3693051 1.4518686-4.9741217h4.3835175"/><path d="m29.931947 20.273313h27.414429"/></g></g></svg>