<svg height="84" viewBox="0 0 84 84" width="84" xmlns="http://www.w3.org/2000/svg"><g fill="none" fill-rule="evenodd"><path d="m0 0h84v84h-84z" fill="none"/><g fill="#060606" transform="translate(4 28)"><path d="m63.0217419 13.5c0 1.3929677-1.1290645 2.5220323-2.5217419 2.5220323s-2.5217419-1.1290646-2.5217419-2.5220323c0-1.3926774 1.1290645-2.5217419 2.5217419-2.5217419s2.5217419 1.1290645 2.5217419 2.5217419m1.9782581 0c0-2.4851613-2.0145484-4.5-4.5-4.5-2.4851613 0-4.5 2.0148387-4.5 4.5 0 2.4854516 2.0148387 4.5 4.5 4.5 2.4854516 0 4.5-2.0145484 4.5-4.5"/><path d="m23.0217419 13.5c0 1.3929677-1.1290645 2.5220323-2.5217419 2.5220323s-2.5217419-1.1290646-2.5217419-2.5220323c0-1.3926774 1.1290645-2.5217419 2.5217419-2.5217419s2.5217419 1.1290645 2.5217419 2.5217419m1.9782581 0c0-2.4851613-2.0145484-4.5-4.5-4.5-2.4851613 0-4.5 2.0148387-4.5 4.5 0 2.4854516 2.0148387 4.5 4.5 4.5 2.4854516 0 4.5-2.0145484 4.5-4.5"/><path d="m61.5588462 22.3348218-1.1821189 3.6726378c-.2485848.4700856-.7260821.7689021-1.253058.7815663-.5439654.0132673-1.4852492.0569892-2.5699014.0976958l.8438171-4.6357253zm-5.6712497-.1145815-.8584222 4.7162339c-.8921033.0241224-1.8023885.0379928-2.6178896.0259316-1.663193-.0241224-6.1129795-.035279-7.4277365-.0467372l-.5442635-4.926702zm-12.4050949 4.6812564c-4.0539584-.0464357-6.1696115-.1561927-8.2945044-.8482045-5.2640953-1.7148022-7.5308664-4.4825479-7.5308664-4.4825479l15.2787228.3811341zm27.5174984-11.3511044v-2.4622957l-5.385109-1.2242126h-.0304024c.0900151.3941.1424742.8026734.1424742 1.2242126 0 2.9637404-2.3544017 5.370856-5.2742294 5.4121656-2.3090961.0325653-4.3135715-1.4714674-5.1132752-3.6626873-.385992-1.058371-.3806268-2.0558329-.1704922-2.9736909h-29.5011094s-.0131148-.0018092-.0318928-.005126c.0909093.3956076.1436665.8059902.1436665 1.2293386 0 3.1871743-2.7228079 5.730883-5.9436795 5.3802034-2.5076062-.2731863-4.5156584-2.3540463-4.7356291-4.8956443-.0792848-.9172549.0691507-1.7910894.3925493-2.5726557-.1144563 0-.2292106 0-.3433689.0009046-5.0351827.0425157-4.0766112 2.2017735-4.0766112 4.7065849 0 1.5703693 2.7362207.4583259 1.5320452 4.3320844-1.1189295 3.599366 2.8971749.9018768 3.2047761 1.5311704.3114762.6377363.8727293 3.3056756 1.5573806 3.4691049 2.1669199.5168228-1.0953825-3.4274938 7.5624611-3.2993434 2.9669217 2.4194783 5.7409965 3.9033084 7.9424917 4.8091051 2.2560408.9284115 7.35024 1.3997032 9.7854169 1.4265394-.8315965-.0090459 2.8563402.0802071 11.0545702-.0379928 1.3666201-.0195994 5.2006078.0141719 7.481984.0373898 1.1284676.0114581 2.2059662-.4667688 2.9624508-1.3134656l4.1758663-4.6731151c1.625339-2.0440732.8494803-3.5077008.8494803-4.6559278 1.5526115 0 1.8181859-1.7826465 1.8181859-1.7826465z"/><path d="m15.8572734 9.1823161 3.1427266-8.32509219-7.2573819 4.81798939-6.65721144-5.6752133 2.17197521 8.65258472-7.25738187 4.81768388 8.59989156.5297314 1.80198294-5.63641521z"/></g></g></svg>