<svg height="84" viewBox="0 0 84 84" width="84" xmlns="http://www.w3.org/2000/svg"><g fill="none" fill-rule="evenodd"><path d="m0 0h84v84h-84z" fill="none"/><g fill="#060606" transform="translate(10 34)"><path d="m53.5 17.0217419c-1.3926774 0-2.5217419-1.1290645-2.5217419-2.5217419s1.1290645-2.5217419 2.5217419-2.5217419 2.5217419 1.1290645 2.5217419 2.5217419-1.1290645 2.5217419-2.5217419 2.5217419m0-7.0217419c-2.4854516 0-4.5 2.0148387-4.5 4.5 0 2.4854516 2.0145484 4.5 4.5 4.5 2.4851613 0 4.5-2.0145484 4.5-4.5 0-2.4851613-2.0148387-4.5-4.5-4.5"/><path d="m13.5 17.0217419c-1.3926774 0-2.5217419-1.1290645-2.5217419-2.5217419s1.1290645-2.5217419 2.5217419-2.5217419 2.5217419 1.1290645 2.5217419 2.5217419-1.1290645 2.5217419-2.5217419 2.5217419m0-7.0217419c-2.4854516 0-4.5 2.0148387-4.5 4.5 0 2.4854516 2.0145484 4.5 4.5 4.5 2.4851613 0 4.5-2.0145484 4.5-4.5 0-2.4851613-2.0148387-4.5-4.5-4.5"/><path d="m50.3953533 5.74930514-.8439371-4.63602685c1.0848064.04070658 2.026224.08412693 2.5702668.09739426.5270507.0129658 1.004616.3114807 1.2535342.78186781l1.1819888 3.67263785zm-12.9598443.26172821.5440428-4.92700349c1.3152421-.01145814 5.765661-.02231323 7.4287924-.04643565.8159151-.01175967 1.7260316.00211072 2.6182617.0259316l.8585442 4.71623388zm-1.5039429.03678669-15.2808947.3814357s2.2670934-2.76774572 7.532235-4.48224644c2.124897-.69231334 4.2411489-.80237186 8.2953855-.84850599zm26.2496914 4.61914116c0-1.14822702.7762671-2.61185462-.849601-4.65592785l-4.1761618-4.67311506c-.7568902-.8466968-1.8345421-1.3249237-2.96317-1.31346555-2.2817005.02321782-6.1162332.05698921-7.4830476.03738974-8.1990973-.11819984-11.8875582-.0289469-11.0558435-.0379928-2.4358211.02683619-7.5304464.49812789-9.7868079 1.42653938-2.2021063.90579672-4.9765754 2.38992837-7.9439189 4.80880365-8.65907429.12845186-11.47080661 1.20250244-13.63833266 1.71962673-.68445053.16312784-1.2705262.60909101-1.61752116 1.22783098-.89789416 1.60233148-.98822017 2.27414078-.98822017 2.27414078s-1.67863281-.0428173-1.67863281 1.5278535c0 2.5048114 3.10536637 3.947935 8.14156291 3.9904507.11417446.0009046.22864702.0009046.34341769.0009046-.32344461-.7815663-.47219932-1.6557023-.39290322-2.5729572.22000195-2.5412965 2.22863772-4.62245799 4.73630232-4.89534282 3.2216275-.35067962 5.9448225 2.19272762 5.9448225 5.38020342 0 .4233484-.0527647.8334294-.1439851 1.2293386.0190788-.0033168.0321955-.0054276.0321955-.0054276h29.5050049c-.2098664-.9178579-.2152323-1.9147167.1708145-2.9730877.7995193-2.1918231 2.8045778-3.69555418 5.113704-3.66298892 2.9202428.04100811 5.2749792 2.44842522 5.2749792 5.41216562 0 .4215392-.0521685.8301126-.1424945 1.223911h.0307048l5.3858745-1.223911v-2.4619941s-.2659102-1.7829481-1.8187425-1.7829481z"/></g></g></svg>