<svg height="84" viewBox="0 0 84 84" width="84" xmlns="http://www.w3.org/2000/svg"><g fill="none" fill-rule="evenodd"><path d="m0 0h84v84h-84z" fill="none"/><g stroke="#030303" stroke-width="2.8" transform="translate(10 34)"><path d="m17.6679309 18.7925613c0-2.6577525-2.1568689-4.8122007-4.816602-4.8122007-2.6601833 0-4.81660202 2.1544482-4.81660202 4.8122007s2.15641872 4.8122007 4.81660202 4.8122007c2.6597331 0 4.816602-2.1544482 4.816602-4.8122007z"/><path d="m54.6129206 18.7925613c0-2.6577525-2.1568689-4.8122007-4.8166021-4.8122007-2.6601833 0-4.816602 2.1544482-4.816602 4.8122007s2.1564187 4.8122007 4.816602 4.8122007c2.6597332 0 4.8166021-2.1544482 4.8166021-4.8122007z"/><path d="m17.565062 19.783922h27.414429"/><path d="m54.6129206 19.7839223h6.638078c2.0416198 0 3.696975-1.6538426 3.696975-3.6935968v-4.2063465c0-1.89762356-1.4392632-3.48624801-3.3291683-3.67515579l-4.4627513-.31259739c-1.6450008-.11559357-3.2004135-.7925131-4.4051267-1.91786371l-3.948182-3.69044836c-1.276744-1.19371723-2.9447046-1.88098171-4.6923491-1.9340558l-11.4011072-.34813005c-2.7637275-.08410894-5.4756828.76012891-7.7018813 2.39732964l-3.8297816 2.816525c-1.7264855 1.26928034-3.7154328 2.13600722-5.8218802 2.53586201l-12.22090652 2.23181045c-1.66120772.303152-2.89743439 1.7046678-2.98927351 3.3890955l-.14000965 2.5605999c-.11434872 2.0901296 1.55091073 3.8469719 3.64565315 3.8469719h4.38351751"/><path d="m61.618805 8.288164h-48.767476"/></g></g></svg>