<svg height="84" viewBox="0 0 84 84" width="84" xmlns="http://www.w3.org/2000/svg"><g fill="none" fill-rule="evenodd"><path d="m0 0h84v84h-84z" fill="none"/><g stroke="#030303" stroke-width="2.8" transform="translate(9 35)"><path d="m17.3832975 17.7137405c.2318488-2.6478573-1.7287364-4.9817679-4.3785654-5.2134048-2.650279-.231637-4.98632427 1.726707-5.21817305 4.3745643-.23184877 2.6474076 1.7282863 4.981768 4.37856545 5.2134049 2.6498289.2316369 4.9863243-1.726707 5.218173-4.3745644z"/><path d="m40.735016 8.621519-27.233902-1.791925"/><path d="m17.1944871 18.691923 12.7894987 1.1177043-1.2654891-6.8596012 12.0165194-4.32868675-3.3512278-8.5570725-3.3179135.0067467c-1.9349243-.07556311-5.5805775.51724749-7.9413832 1.95429593l-4.06073 2.47244298c-1.8304799 1.11455588-3.8878564 1.80451904-6.0208651 2.01951409l-12.36946976 1.15863436c-1.68101616.15742315-3.03474289 1.44649383-3.27334454 3.11652849l-.36285459 2.5385607c-.2962262 2.0721384 1.20966535 3.9670634 3.29630432 4.1496742l4.36641022.3814138"/><path d="m55.5478118 17.4655967c-.2318488-2.6474076-2.567894-4.6057516-5.2181731-4.3745644-2.6502791.2316369-4.6104142 2.5659973-4.3785654 5.2134048.2318487 2.6478574 2.5683441 4.6062013 5.2181731 4.3750142 2.6502791-.2320867 4.6104141-2.5659973 4.3785654-5.2138546z"/><path d="m61.610905 6.391058-21.07888 1.842751"/><path d="m37.3836533.06426685 6.0933459-.05262431c1.7453936-.09940147 3.466927.44033503 4.8427132 1.51800892l4.255663 3.33242314c1.297903 1.01650375 2.9064382 1.55579047 4.5554908 1.52745431l4.4731057-.07736224c1.8993591.02338859 3.4714289 1.48112693 3.6366493 3.37110426l.3673565 4.19060417c.1778257 2.0321079-1.3267152 3.8231336-3.3606818 4.0012466l-6.6128672.5779679"/><path d="m40.5321146 8.23367361-6.3688633 6.70307759 5.0146864 4.9547811 6.8595724-.5995573"/></g></g></svg>