<svg height="84" viewBox="0 0 84 84" width="84" xmlns="http://www.w3.org/2000/svg"><g fill="none" fill-rule="evenodd"><path d="m0 0h84v84h-84z" fill="none"/><g fill="#060606" transform="translate(8 34)"><path d="m56.8072452 17.0025362c-1.3820769.169816-2.6401994-.8130848-2.8100198-2.1951257-.1695301-1.3823312.8133962-2.6401307 2.1954731-2.8099467s2.6401994.8130848 2.8097295 2.1951257c.1698204 1.3823312-.8131059 2.640421-2.1951828 2.8099467m-.8554885-6.9685517c-2.4666051.3030562-4.2205452 2.5478205-3.9177713 5.0143615.3030641 2.466541 2.5478867 4.2204355 5.0144918 3.9176695 2.4663149-.3030562 4.2205452-2.5481108 3.9174811-5.0143615-.3027738-2.466541-2.5478867-4.22043547-5.0142016-3.9176695"/><path d="m13.1927247 16.0027183c-1.3820854-.1698204-2.3650179-1.4279429-2.1951964-2.8100197.1695311-1.3820769 1.4276615-2.3650032 2.809747-2.1951828 1.3820854.1695301 2.3650179 1.4276526 2.1954867 2.8100197-.1698214 1.3817866-1.4279518 2.3647129-2.8100373 2.1951828m.8557841-6.96873281c-2.4666205-.30277382-4.71174739 1.45116621-5.0145231 3.91748101-.30277571 2.4666051 1.4511752 4.711718 3.9175055 5.0144918 2.4666205.3030641 4.7117474-1.4511662 5.0145231-3.917481.3027757-2.4666051-1.4511752-4.71171799-3.9175055-5.01449181"/><path d="m29.2343548 2.48081174c2.185641-.41304284 3.9778369-.46167058 8.2899832-.24372457l-1.1155535 5.12612532-15.1651688-1.46234743s2.5755201-2.39711317 7.9907391-3.42005332zm24.7656452-2.45687257c-1.8314215-.21530957-24.6539116 1.07596196-26.9976438 1.70079911-2.2875682.6098973-5.2110673 1.7084155-8.4373766 3.68574826-8.58298689-.91308833-11.49400513-.21413781-13.70015044.02460681-.69714668.07557805-1.33070026.4350132-1.74821564.990424-1.08078535 1.43744768-1.25106031 2.0742953-1.25106031 2.0742953s-1.65550047-.24196694-1.84419959 1.27281642c-.3010271 2.41468943 2.59840175 4.17817733 7.57589824 4.82234843.1129223.0146469.22643894.0281221.33995558.0418902-.22643895-.7921049-.26833907-1.6530502-.07963995-2.5277637.52271142-2.42435639 2.76005891-4.19048071 5.27406611-4.1535705 3.229578.04804186 5.6184792 2.8268535 5.2354348 5.900068-.050815.4083558-.1524451.7976707-.2897348 1.1679446.0190185-.0005859.0320937-.0011718.0320937-.0011718l16.338075 1.9776257-.7747065-3.9537867 3.1793573-1.938372 2.0266583-8.87075413z"/><path d="m39.6742162 2.49110196c1.3095122-.17695087 8.8354652-.53946936 9.7279334-.62717545l1.4262726 4.66934895-11.3850323 1.67472465zm13.8277186-.99338683c.5269185-.05323913 1.0391671.1892605 1.3439415.63425349l1.6226695 3.5713303-4.1384059.60901875-1.4020224-4.58995186c1.0861707-.09539961 2.0298338-.1695651 2.5738173-.22465068zm-2.3262254 12.58320767c.5317086-2.3206723 2.3483799-4.09602815 4.6542471-4.35360708 2.9160149-.32589735 5.5544994 1.81659308 5.9128639 4.81860318.0511949.427144.0485004.8475178.0059877 1.2580438l.0305373-.0040006 5.2206845-1.9175321-.2978885-2.494238s-.4808132-1.77258614-2.0286363-1.57717082c-.1389148-1.1626442.4577605-2.7432002-1.4101057-4.60903179l-4.7284948-4.20866119c-.8568413-.76258135-1.9891173-1.11155925-3.1124118-.95768892-2.2717372.31051032-6.0898007.82720688-7.4546992.97923076-4.0863128.45514843-7.046038.82105207-8.8830675 1.05955108l-.0847261 11.94926188 3.8773418 3.976317 8.4878786-.8853699c-.3203425-.9035265-.4463838-1.9129159-.189511-3.0337073z"/></g></g></svg>