<svg width="99" height="99" viewBox="0 0 99 99" fill="none" xmlns="http://www.w3.org/2000/svg">
<g id="acura">
<path id="Path" fill-rule="evenodd" clip-rule="evenodd" d="M0 3C0 1.34314 1.34315 0 3 0H96C97.6569 0 99 1.34315 99 3V96C99 97.6569 97.6569 99 96 99H3C1.34314 99 0 97.6569 0 96V3Z" />
<g id="Group">
<path id="Shape" fill-rule="evenodd" clip-rule="evenodd" d="M49.4756 53.3533C47.4971 53.4197 45.55 53.2134 43.6781 52.5377C41.88 51.8897 40.4156 50.8 39.401 49.1385C38.6763 47.9546 38.2825 46.6559 38.087 45.2893C37.8272 43.3923 37.8559 41.4996 38.2689 39.6262C38.5669 38.2277 39.1153 36.9386 40.0218 35.8226C41.0979 34.4948 42.494 33.6613 44.0938 33.1531C45.3996 32.7391 46.7409 32.5702 48.0987 32.5162C49.7505 32.4539 51.3845 32.5646 52.9925 32.9676C54.5964 33.3691 56.0457 34.0711 57.2299 35.2702C58.3374 36.3903 59.0088 37.7528 59.393 39.269C59.7048 40.486 59.8251 41.7225 59.8141 42.7956C59.8169 44.525 59.6405 46.0439 59.1168 47.5116C58.1938 50.0842 56.3958 51.7416 53.8607 52.6139C52.4359 53.1013 50.966 53.3048 49.4756 53.3533ZM39.5856 39.4531C40.0478 37.7306 40.8901 36.2505 42.2943 35.1331C43.4826 34.1833 44.8567 33.6557 46.3471 33.4314C46.7316 33.3715 47.1241 33.3386 47.5315 33.3044L47.5315 33.3044C47.708 33.2896 47.8873 33.2745 48.07 33.257C47.9586 33.579 47.8519 33.8885 47.7477 34.1909L47.7468 34.1933L47.746 34.1956L47.7455 34.1973C47.6139 34.579 47.4862 34.9495 47.3576 35.32C47.1019 36.0618 46.8447 36.8029 46.5874 37.5438L46.5872 37.5444L46.5871 37.5448C46.0109 39.2046 45.4349 40.8638 44.8773 42.5283C44.7626 42.8758 44.7124 43.2438 44.6622 43.6127C44.6411 43.7671 44.62 43.9217 44.5942 44.075C44.4387 45.0448 44.2844 46.0149 44.13 46.9854L44.1299 46.9859C43.9504 48.1143 43.7708 49.243 43.5892 50.3722C43.5318 50.7183 43.4771 51.0659 43.4156 51.4577C43.3289 51.4098 43.2447 51.366 43.1628 51.3234C43.0056 51.2416 42.8571 51.1643 42.7168 51.0714C41.4644 50.2503 40.618 49.097 40.0273 47.7303C39.4461 46.3706 39.2041 44.9334 39.1686 43.4588C39.133 42.106 39.2301 40.7643 39.5856 39.4531ZM48.1479 42.3137C48.2122 42.1697 48.2819 42.1033 48.4515 42.1143C48.7199 42.1281 48.996 42.1227 49.266 42.1174H49.266H49.266H49.266L49.3553 42.1157C49.4715 42.113 49.5317 42.1531 49.5782 42.2625C50.4875 44.3131 51.3968 46.3637 52.3115 48.413C52.651 49.1815 52.9951 49.9524 53.3392 50.7233L53.683 51.4937C53.7071 51.5613 53.7371 51.6289 53.777 51.7188L53.8006 51.772C52.3799 52.3563 50.9018 52.6166 49.395 52.672C47.5149 52.7426 45.6963 52.3799 43.9051 51.7222C43.9858 51.5426 44.0634 51.3716 44.1387 51.2055L44.1392 51.2043L44.1396 51.2034L44.1398 51.2031C44.24 50.982 44.3364 50.7694 44.4315 50.5563C45.6717 47.8106 46.9119 45.0622 48.1479 42.3137ZM49.3567 40.7574H48.4118V33.304H49.3567V40.7574ZM53.9769 34.211C55.9528 35.1594 57.2517 36.713 57.9682 38.7857C58.3443 39.8893 58.522 41.0274 58.5767 42.1905C58.6492 43.8257 58.5247 45.4388 57.9997 47.0034C57.4541 48.6262 56.5722 50.0108 55.1706 51.0188C54.9925 51.1435 54.8036 51.2494 54.6064 51.36L54.6063 51.3601C54.5144 51.4116 54.4208 51.4641 54.3256 51.52C54.2707 51.1492 54.2179 50.7885 54.166 50.4336C54.1002 49.9842 54.0358 49.5441 53.9701 49.1039C53.8794 48.4707 53.785 47.8382 53.6907 47.206C53.5077 45.9801 53.3249 44.7548 53.1688 43.5253C53.0672 42.7231 52.7962 41.9828 52.5254 41.243L52.5254 41.2429C52.4573 41.0569 52.3892 40.871 52.3238 40.684C51.7661 39.0976 51.1989 37.5148 50.6319 35.9328L50.6319 35.9326C50.3398 35.1177 50.0479 34.303 49.7573 33.4882C49.7423 33.4492 49.7305 33.4089 49.7166 33.3615C49.7103 33.3399 49.7035 33.3167 49.6958 33.2916C51.2053 33.304 52.6315 33.5671 53.9769 34.211Z" fill="black"/>
<path id="Path_2" d="M67.9114 60.7863C67.9497 59.2937 66.9693 57.6127 64.936 57.6197C62.096 57.6321 59.2492 57.6238 56.4079 57.6238C56.3436 57.6238 56.2766 57.6307 56.2083 57.6363V67.3189H58.5587V59.7229H58.8144H64.251C64.3617 59.7229 64.4793 59.7215 64.5942 59.7284C65.122 59.7631 65.4775 60.0303 65.55 60.4997C65.658 61.1837 65.4406 61.6932 64.6831 61.8081C64.534 61.8289 64.3809 61.8289 64.2346 61.8289H59.3559C59.2861 61.8289 59.2123 61.8386 59.1316 61.8427C59.267 62.4672 59.4119 63.0612 59.5254 63.6649C59.5678 63.8823 59.654 63.9252 59.8604 63.9238C61.2606 63.9169 62.658 63.9183 64.0568 63.9183C64.8089 63.9183 65.3257 64.3323 65.4556 65.0841C65.5226 65.4857 65.5103 65.9011 65.539 66.3123C65.55 66.646 65.5664 66.9797 65.5746 67.3147H67.869C67.869 66.7027 67.8758 66.1087 67.8663 65.5134C67.8567 65.2627 67.8266 65.008 67.776 64.7601C67.642 64.0955 67.3385 63.5264 66.7286 63.1526C67.5313 62.5517 67.8868 61.7541 67.9114 60.7863Z" fill="black"/>
<path id="Path_3" d="M25.4529 57.7433C25.3955 57.6464 25.3244 57.6215 25.2246 57.6242C24.4493 57.6256 23.6754 57.627 22.9083 57.6242C22.8058 57.6215 22.7429 57.6575 22.6882 57.7502C20.8081 60.903 18.9293 64.0516 17.0465 67.2071C17.0287 67.2376 17.0178 67.2791 17 67.3304C17.897 67.3304 18.7762 67.3331 19.6554 67.3276C19.7114 67.3276 19.7867 67.2625 19.8222 67.2085C20.1148 66.7585 20.4047 66.3071 20.6877 65.853C20.7616 65.7353 20.8368 65.6924 20.9735 65.6951C22.7798 65.6979 24.586 65.6979 26.395 65.6979H26.6412C26.5728 65.5802 26.5236 65.4944 26.4689 65.4085C26.1858 64.9475 25.8946 64.4878 25.6198 64.0211C25.5404 63.8924 25.4598 63.8411 25.3066 63.8425C24.2278 63.8495 23.1476 63.8467 22.0674 63.8467H21.7871C22.5596 62.5327 23.3035 61.2602 24.0678 59.9656C24.4247 60.5638 24.7583 61.1356 25.0933 61.7047C26.1735 63.5407 27.2524 65.3739 28.3298 67.2085C28.3859 67.3041 28.4488 67.3331 28.5541 67.3331C29.3813 67.329 30.2127 67.3304 31.0399 67.329C31.085 67.329 31.1315 67.3221 31.1917 67.3151C31.1616 67.2625 31.1466 67.2293 31.1247 67.1975C29.2364 64.0461 27.3426 60.8961 25.4529 57.7433Z" fill="black"/>
<path id="Path_4" d="M81.6343 65.5628C80.0728 62.9666 78.5141 60.3677 76.9594 57.7646C76.8951 57.6594 76.8254 57.6206 76.7023 57.6206C75.9366 57.6261 75.1709 57.6261 74.4011 57.6206C74.289 57.6206 74.2261 57.6608 74.1645 57.7605C72.3487 60.8149 70.5233 63.8694 68.702 66.9225C68.6268 67.0485 68.5557 67.1786 68.4736 67.3157C68.5229 67.324 68.5379 67.3295 68.5584 67.3295C69.4103 67.3309 70.2676 67.3351 71.1181 67.3254C71.1851 67.3254 71.2753 67.2575 71.3136 67.1966C71.6131 66.748 71.9043 66.298 72.1805 65.8411C72.253 65.7289 72.3309 65.6957 72.454 65.6957C74.2671 65.6985 76.0747 65.6985 77.881 65.6985H78.123C78.0792 65.6154 78.0546 65.5614 78.0177 65.5088C77.7128 65.0103 77.3983 64.5118 77.1002 64.0078C77.0223 63.8818 76.9402 63.8431 76.7939 63.8431C75.7096 63.85 74.6226 63.8458 73.5383 63.8458H73.2785C74.0469 62.5332 74.7935 61.2608 75.5565 59.9675C75.603 60.0437 75.629 60.0838 75.6549 60.1268C77.0332 62.4695 78.4101 64.8081 79.7816 67.1523C79.8609 67.2894 79.9498 67.3378 80.107 67.3365C80.8946 67.3295 81.6767 67.3323 82.4602 67.3309C82.5272 67.3309 82.5942 67.3268 82.6845 67.3212C82.6311 67.2243 82.5847 67.1481 82.5423 67.0748C82.2387 66.5721 81.9379 66.0681 81.6343 65.5628Z" fill="black"/>
<path id="Path_5" d="M54.5865 57.6362H52.2511V57.8675C52.2511 59.9305 52.2511 61.995 52.247 64.0608C52.247 64.1799 52.247 64.3018 52.2333 64.4181C52.1909 64.8833 51.9462 65.199 51.4963 65.3222C51.2721 65.3832 51.0301 65.4233 50.7962 65.4261C49.6477 65.4385 48.4977 65.4441 47.3464 65.4344C47.0415 65.4316 46.7202 65.3832 46.418 65.3112C46.0529 65.2212 45.8396 64.9553 45.7562 64.5828C45.7247 64.4292 45.7097 64.2685 45.7097 64.1148C45.7056 62.0255 45.7097 59.9347 45.7097 57.8439V57.6362H43.3155V57.8855C43.3155 59.8239 43.3114 61.7624 43.3196 63.7008C43.3196 64.0304 43.3374 64.3599 43.3907 64.6839C43.5425 65.6476 44.0019 66.4175 44.877 66.8855C45.4267 67.1804 46.0187 67.3188 46.6327 67.3272C48.0602 67.3438 49.4836 67.3438 50.9111 67.3368C51.2584 67.3327 51.6112 67.3078 51.9557 67.2441C52.8008 67.0987 53.5282 66.7304 54.0232 65.9882C54.4402 65.3555 54.5865 64.6396 54.5865 63.8919C54.5906 61.8912 54.5865 59.889 54.5865 57.8882V57.6362Z" fill="black"/>
<path id="Path_6" d="M34.6946 57.624C34.51 57.624 34.3199 57.624 34.1326 57.6365C33.2561 57.7016 32.4631 57.9536 31.8587 58.6279C31.309 59.2357 31.0766 59.9848 31.0397 60.7851C30.9973 61.7017 31.0096 62.6211 31.0123 63.5377C31.0123 63.8617 31.026 64.1829 31.0766 64.5028C31.2037 65.4125 31.5456 66.21 32.3304 66.7514C32.9293 67.1668 33.6198 67.3288 34.3404 67.3288C36.8071 67.3357 39.2656 67.3302 41.7241 67.3302H41.9483V65.3253H41.6352C39.3189 65.3253 37.004 65.3253 34.6864 65.3225C34.577 65.3225 34.4744 65.3225 34.3678 65.3114C33.9275 65.2463 33.6198 65.0096 33.5146 64.5665C33.453 64.3048 33.4093 64.0306 33.4065 63.7606C33.3956 62.8939 33.4011 62.0285 33.4065 61.1589C33.4065 60.9762 33.4216 60.792 33.453 60.6134C33.5515 60.0042 33.8687 59.7065 34.4826 59.6386C34.5701 59.6289 34.67 59.6276 34.7643 59.6276C37.0861 59.6262 39.4065 59.6262 41.7268 59.6262H41.9483V57.624H41.6092H34.6946Z" fill="black"/>
</g>
</g>
</svg>
