<svg width="99" height="99" viewBox="0 0 99 99" fill="none" xmlns="http://www.w3.org/2000/svg">
<g id="audi">
<path id="Path" fill-rule="evenodd" clip-rule="evenodd" d="M0 3C0 1.34314 1.34315 0 3 0H96C97.6569 0 99 1.34315 99 3V96C99 97.6569 97.6569 99 96 99H3C1.34314 99 0 97.6569 0 96V3Z" />
<g id="Group">
<path id="Shape" fill-rule="evenodd" clip-rule="evenodd" d="M58.7658 57.6452L56.607 55.2944H59.9265C60.1305 55.5397 60.3661 55.8102 60.6177 56.0991C61.9264 57.6016 63.6701 59.6034 63.6701 61.1663C63.6701 63.1109 61.2197 64.7011 58.2199 64.7011C55.2148 64.7011 52.7698 63.1109 52.7698 61.1663C52.7698 58.755 55.2148 57.6349 58.2199 57.6349C58.3421 57.6349 58.4596 57.6379 58.5786 57.6409C58.6403 57.6425 58.7025 57.6441 58.7658 57.6452ZM58.2199 62.9207C59.6492 62.9207 60.8152 62.1031 60.8152 61.0971C60.8152 60.0911 59.6492 59.2735 58.2199 59.2735C56.7907 59.2735 55.6176 60.0911 55.6176 61.0971C55.6176 62.1031 56.7907 62.9207 58.2199 62.9207Z" fill="black"/>
<path id="Path_2" d="M49.3446 61.6256C49.3446 63.5581 46.1081 63.5581 46.1081 61.6256V57.835H43.322V61.8849C43.322 65.8346 52.0653 65.8692 52.0653 61.8849V57.835H49.3446V61.6256Z" fill="black"/>
<path id="Path_3" d="M64.3142 64.6757H67.3069V57.8359H64.3142V64.6757Z" fill="black"/>
<path id="Shape_2" fill-rule="evenodd" clip-rule="evenodd" d="M34.7473 56.6866L33.7792 55.5337H37.4485L43.9057 64.6759H40.5349L39.618 63.2637H33.4771L32.599 64.6759H29.3713L34.7473 56.6866ZM36.4804 58.4082L34.6307 61.3986H38.4131L36.4804 58.4082Z" fill="black"/>
<path id="Shape_3" fill-rule="evenodd" clip-rule="evenodd" d="M60.3216 35.3865C61.9152 34.18 63.9186 33.4748 66.0792 33.5007C71.1743 33.5733 75.2747 37.6924 75.2076 42.6775C75.1351 47.6626 70.9252 51.6641 65.8301 51.6019C63.7684 51.5725 61.8622 50.8776 60.3411 49.7368C58.7458 50.9347 56.7424 51.6468 54.5817 51.6122C52.513 51.588 50.6156 50.8914 49.0945 49.7437C47.4974 50.9502 45.4958 51.6572 43.3334 51.6278C41.277 51.6019 39.3796 50.9105 37.8585 49.7731C36.272 50.9692 34.2739 51.6641 32.1256 51.6364C27.0306 51.5673 22.9337 47.4534 23.0008 42.47C23.0715 37.4884 27.2814 33.4748 32.3765 33.5404C34.4329 33.5733 36.3232 34.2543 37.8443 35.3917C39.4396 34.2059 41.4307 33.5007 43.5772 33.5353C45.6477 33.5629 47.5522 34.2543 49.075 35.4021C50.6615 34.199 52.6702 33.4886 54.8326 33.5214C56.8961 33.5474 58.7917 34.237 60.3216 35.3865ZM60.334 48.3816C61.7774 49.7126 63.7154 50.5354 65.8442 50.5665C70.3581 50.6253 74.2924 47.0783 74.1546 42.6636C73.9744 37.3121 70.4641 34.7349 66.0651 34.5344C66.0326 34.5344 65.8896 34.2749 65.7753 34.0674C65.7155 33.959 65.6636 33.8647 65.6393 33.8291C63.6571 33.9034 61.8321 34.607 60.3746 35.753L60.4488 36.8938C58.9648 35.5092 56.8943 34.5793 54.8185 34.5516H54.7796C54.6559 34.2682 54.5217 34.0365 54.3909 33.8516C52.4087 33.9121 50.5749 34.6208 49.128 35.772L49.1899 36.8489C47.7306 35.4816 45.6265 34.5914 43.5648 34.5655C43.4294 34.2652 43.271 34.0414 43.1833 33.9175C43.168 33.8959 43.1548 33.8774 43.1443 33.862C41.1798 33.9294 39.3654 34.6208 37.9168 35.7443L37.9821 36.8765C36.4805 35.4297 34.47 34.607 32.3624 34.5724H32.3235C32.2034 34.2889 32.0638 34.0573 31.9331 33.8689C27.2231 34.0331 23.393 37.8099 23.3294 42.4752C23.3135 43.5521 23.5061 44.5875 23.8559 45.5451C24.0997 45.6177 24.3823 45.673 24.6986 45.7007C25.9229 48.5441 28.7902 50.563 32.138 50.6062C33.9647 50.6322 35.6643 50.0652 37.0423 49.0851C37.3532 48.8673 37.627 48.6461 37.8585 48.4352C39.3354 49.7817 41.3052 50.5682 43.3475 50.5941C45.4693 50.627 47.5645 49.8077 49.1015 48.4041C50.5361 49.7299 52.4653 50.5561 54.5976 50.5803C56.8219 50.6132 58.7458 49.7817 60.334 48.3816Z" fill="black"/>
<path id="Shape_4" fill-rule="evenodd" clip-rule="evenodd" d="M34.5381 42.4634C34.5169 43.5403 34.7077 44.5774 35.0663 45.5402C35.3084 45.6111 35.5857 45.6612 35.9002 45.6872C36.3101 46.6344 36.9037 47.4935 37.628 48.216L36.5539 48.1953C35.2677 49.1321 33.7714 49.6334 32.1513 49.6144C31.7362 49.6075 31.3263 49.5694 30.9323 49.4986C30.8738 49.5714 30.8148 49.6435 30.757 49.7143C30.6857 49.8015 30.6161 49.8867 30.5507 49.9687C27.0651 49.2013 24.4681 46.1262 24.514 42.4876C24.5741 38.3253 28.0933 34.9703 32.3545 35.0256C34.3438 35.0515 36.2306 35.8311 37.6333 37.1638C37.3701 37.1638 36.9107 37.1707 36.4549 37.1845C35.2748 38.6417 34.5646 40.4705 34.5381 42.4634ZM25.4362 42.5015C25.3921 46.1781 28.4095 49.2013 32.1584 49.2531C33.865 49.2721 35.2748 48.6015 36.1051 48.0656C34.8879 46.5134 34.1759 44.5653 34.206 42.4634C34.2325 40.4463 34.9391 38.595 36.1051 37.0981C35.031 36.3773 33.7396 35.9452 32.3421 35.9279C28.5933 35.8812 25.4892 38.8335 25.4362 42.5015Z" fill="black"/>
<path id="Shape_5" fill-rule="evenodd" clip-rule="evenodd" d="M39.5002 39.8525C39.5002 39.8525 39.2281 40.0531 39.0832 40.4264C39.3217 41.1351 39.4401 41.8974 39.433 42.6891C39.4136 44.205 38.8995 45.7002 37.9049 46.8617L37.8766 47.8228C37.6929 47.6654 37.5615 47.4985 37.434 47.3366C37.3739 47.2602 37.3146 47.185 37.2512 47.1124C36.2106 45.9335 35.6859 43.8178 35.723 42.4834C35.776 40.5077 36.5816 38.7255 37.8642 37.3911C38.525 38.0531 39.2493 38.9744 39.5002 39.8525ZM36.647 42.4955C36.624 43.9319 37.0763 45.2698 37.8589 46.3708C38.6027 45.3182 39.0461 44.0529 39.0638 42.6821C39.0832 41.244 38.6292 39.9009 37.8519 38.8016C37.1063 39.8525 36.6647 41.123 36.647 42.4955Z" fill="black"/>
<path id="Shape_6" fill-rule="evenodd" clip-rule="evenodd" d="M50.7015 39.8397C50.7015 39.8397 50.4242 40.0402 50.2793 40.4136C50.516 41.1274 50.6432 41.8915 50.6291 42.6762C50.6097 44.3287 49.9843 45.5905 49.1522 46.899L49.1274 47.7961C47.7759 46.4098 46.9527 44.5257 46.9809 42.4705C47.0057 40.5017 47.8007 38.7196 49.0868 37.3921C49.7051 37.9971 50.4825 39.0912 50.7015 39.8397ZM47.9014 42.4826C47.8819 43.9035 48.3218 45.231 49.0868 46.3269C49.8111 45.2794 50.2387 44.0245 50.2616 42.6693C50.2793 41.2519 49.8376 39.9244 49.0797 38.8285C48.3554 39.8725 47.9208 41.1274 47.9014 42.4826Z" fill="black"/>
<path id="Shape_7" fill-rule="evenodd" clip-rule="evenodd" d="M57.0338 42.4401C57.0197 43.5152 57.2052 44.5455 57.5585 45.5082C57.8059 45.5791 58.0797 45.6379 58.3977 45.6604C58.8005 46.5851 59.3747 47.4217 60.076 48.1356L59.0902 48.1615C57.8377 48.9878 56.3607 49.6152 54.6082 49.5893C54.1948 49.5824 53.7849 49.5426 53.3892 49.4718C53.349 49.5218 53.3086 49.5716 53.2685 49.6211C53.1783 49.7324 53.0896 49.8418 53.0076 49.9471C51.6367 49.6481 50.4124 48.9895 49.4283 48.0855C50.8063 46.6491 51.6172 44.6768 51.642 42.689C51.6773 40.6079 50.8576 38.5699 49.3948 37.0782C50.7993 35.7714 52.7179 34.9798 54.8149 35.004C56.843 35.0316 58.668 35.8371 60.1114 37.1629L58.9524 37.1577C57.7794 38.6149 57.0603 40.4471 57.0338 42.4401ZM50.8187 48.0405C51.8999 48.7769 53.2037 49.2056 54.617 49.2263C56.3413 49.254 57.7652 48.5643 58.5938 48.0284C57.3819 46.4762 56.677 44.5264 56.7035 42.4332C56.73 40.4264 57.4278 38.5837 58.5814 37.0938C57.5091 36.366 56.2035 35.927 54.8008 35.9063C53.3168 35.8872 51.9388 36.3315 50.8063 37.111C52.0183 38.6667 52.7302 40.6061 52.6967 42.7028C52.6702 44.7097 51.9723 46.5523 50.8187 48.0405Z" fill="black"/>
<path id="Shape_8" fill-rule="evenodd" clip-rule="evenodd" d="M66.0611 34.9836C69.4938 34.9836 72.5907 37.6784 73.2055 39.8149C73.2055 39.8149 72.9264 40.0136 72.7815 40.3887C73.02 41.0974 73.1437 41.8563 73.1384 42.6514C73.0783 46.5181 69.8118 49.626 65.8562 49.5759C65.4428 49.5707 65.0347 49.5292 64.639 49.4531C64.5652 49.5462 64.4926 49.636 64.4225 49.7228C64.3649 49.794 64.309 49.8632 64.2556 49.9302C62.8864 49.626 61.6586 48.9709 60.671 48.0755C62.0808 46.6875 62.8811 44.6115 62.9076 42.6773C62.9324 40.6013 62.1073 38.5565 60.6445 37.0544C62.0614 35.7528 63.9729 34.956 66.0611 34.9836ZM62.0738 48.0288C63.155 48.7635 64.4605 49.1973 65.8615 49.2129C69.6139 49.2596 72.7179 46.3141 72.7692 42.6445C72.8151 38.9748 69.7976 35.9378 66.047 35.8859C64.5665 35.8686 63.1885 36.3215 62.0614 37.0941C63.2733 38.6481 63.9853 40.5944 63.9588 42.6894C63.927 44.6945 63.2345 46.5458 62.0738 48.0288Z" fill="black"/>
<path id="Shape_9" fill-rule="evenodd" clip-rule="evenodd" d="M61.9563 39.8278C61.9563 39.8278 61.686 40.0266 61.5341 40.4017C61.7779 41.1156 61.8963 41.8779 61.8892 42.6626C61.8627 44.405 61.4104 45.5787 60.4211 46.8993L60.4087 47.8223C59.0307 46.4291 58.1933 44.5346 58.2198 42.45C58.2463 40.4829 59.0449 38.7043 60.3204 37.3716C60.9811 38.0284 61.7108 38.9636 61.9563 39.8278ZM59.1438 42.4638C59.1226 43.8899 59.5643 45.2243 60.3345 46.3202C61.0677 45.2762 61.5041 44.0161 61.5235 42.6574C61.5394 41.2314 61.0924 39.9004 60.3204 38.808C59.5978 39.852 59.1632 41.1104 59.1438 42.4638Z" fill="black"/>
<path id="Shape_10" fill-rule="evenodd" clip-rule="evenodd" d="M45.7907 42.45C45.7818 43.5269 45.962 44.564 46.3189 45.5268C46.5627 45.5976 46.8401 45.6478 47.1581 45.6737C47.5573 46.6019 48.1368 47.4454 48.8417 48.1576L47.8011 48.1628C46.697 49.1429 44.8102 49.6217 43.3597 49.5992C42.9463 49.5957 42.5382 49.5543 42.1425 49.4817C42.0029 49.6476 41.8775 49.8066 41.7591 49.9622C40.4412 49.6735 39.1657 49.0219 38.1816 48.1178C39.5932 46.6728 40.4218 44.7213 40.4483 42.7024C40.473 40.5158 39.6391 38.6006 38.1816 37.0777C39.5844 35.7779 41.4765 34.9896 43.5576 35.0173C45.6211 35.0432 47.3542 35.8176 48.824 37.1469L47.7181 37.1711C46.538 38.6282 45.8189 40.4605 45.7907 42.45ZM39.6056 48.0746C40.6797 48.8006 41.9694 49.2224 43.3668 49.2397C45.0928 49.2673 46.5238 48.5742 47.3489 48.0349C46.1387 46.4792 45.4373 44.5398 45.4621 42.45C45.4903 40.4466 46.1917 38.6006 47.3418 37.1106C46.2588 36.3777 44.9568 35.9386 43.5452 35.9196C42.0842 35.9006 40.7186 36.3396 39.5932 37.0985C40.8122 38.6541 41.5259 40.6074 41.503 42.7162C41.4765 44.7282 40.7716 46.5846 39.6056 48.0746Z" fill="black"/>
</g>
</g>
</svg>
