<svg width="99" height="99" viewBox="0 0 99 99" fill="none" xmlns="http://www.w3.org/2000/svg">
<g id="bmw">
<path id="Path" fill-rule="evenodd" clip-rule="evenodd" d="M0 3C0 1.34314 1.34315 0 3 0H96C97.6569 0 99 1.34315 99 3V96C99 97.6569 97.6569 99 96 99H3C1.34314 99 0 97.6569 0 96V3Z" />
<g id="Group">
<path id="Shape" fill-rule="evenodd" clip-rule="evenodd" d="M27 49.9449C27 37.5692 37.0692 27.5 49.4466 27.5C61.8224 27.5 71.8933 37.5692 71.8933 49.9449C71.8933 62.3206 61.8224 72.3898 49.4466 72.3898C37.0692 72.3898 27 62.3206 27 49.9449ZM27.6207 49.9449C27.6207 61.9803 37.4113 71.7708 49.4466 71.7708C61.482 71.7708 71.2708 61.9803 71.2708 49.9449C71.2708 37.9077 61.482 28.1207 49.4466 28.1207C37.4113 28.1207 27.6207 37.9077 27.6207 49.9449Z" fill="black"/>
<path id="Path_2" d="M36.6522 41.1329C36.6751 41.1505 36.698 41.1699 36.7192 41.1858C36.7227 41.1875 36.7368 41.1699 36.7368 41.1681C37.1741 40.6197 37.6132 40.0713 38.0506 39.5281C38.2093 39.3289 38.3715 39.1296 38.5302 38.9286C38.6889 38.7275 38.7224 38.4666 38.6272 38.2303C38.5073 37.9869 38.2675 37.8229 37.9924 37.8335C37.7631 37.8423 37.585 37.964 37.4475 38.1368C37.2535 38.3784 37.0595 38.6217 36.8673 38.8633C36.4688 39.3571 36.072 39.8544 35.677 40.3499C35.8816 40.5157 36.0896 40.6797 36.2942 40.8454C36.4159 40.9406 36.5358 41.0359 36.6522 41.1329Z" fill="black"/>
<path id="Shape_2" fill-rule="evenodd" clip-rule="evenodd" d="M28.012 49.9447C28.012 38.1068 37.6068 28.5103 49.4464 28.5103C61.286 28.5103 70.8826 38.1068 70.8826 49.9447C70.8826 61.7826 61.286 71.3809 49.4464 71.3809C37.6068 71.3809 28.012 61.7826 28.012 49.9447ZM45.9848 29.8487L47.9933 29.6265L49.4464 33.8675L50.8995 29.6265L52.908 29.8487L53.1302 35.8778L51.566 35.6557L51.4161 31.635L50.0054 35.6557H48.8856L47.4731 31.635L47.325 35.6557L45.7626 35.8778L45.9848 29.8487ZM62.2083 43.0197L61.4395 41.7024L64.0881 38.2232L60.1134 40.0448L58.9971 39.0115L62.6209 34.2484L63.739 35.2853L61.6475 38.031L64.9945 36.4968L65.9715 37.7171L63.7407 40.6461L66.8779 39.2054L67.6467 40.5227L62.2083 43.0197ZM49.4464 63.3432C42.0471 63.3432 36.0497 57.344 36.0497 49.9447C36.0497 42.5454 42.0471 36.5479 49.4464 36.5479C56.8457 36.5479 62.8431 42.5454 62.8431 49.9447C62.8431 57.344 56.8457 63.3432 49.4464 63.3432ZM31.9691 39.3835C32.1313 39.5123 32.2918 39.6428 32.4523 39.775C32.8568 40.0947 33.2605 40.4181 33.6639 40.7414C33.8726 40.9086 34.0812 41.0757 34.2898 41.2422C34.5324 41.4362 34.7745 41.6301 35.0165 41.8241C35.3797 42.1151 35.7428 42.406 36.1078 42.697C36.2012 42.7732 36.2953 42.8481 36.3892 42.9229C36.4495 42.971 36.5098 43.019 36.5699 43.0673L36.5719 43.0693C36.582 43.0796 36.6127 43.1108 36.6192 43.1026C36.6492 43.0638 36.6792 43.0268 36.7127 42.9862C36.9442 42.6944 37.1773 42.4037 37.4105 42.1129C37.5931 41.8853 37.7757 41.6575 37.9577 41.4291L38.3104 40.9894C38.6918 40.514 39.0729 40.0388 39.4531 39.5616C39.4871 39.5197 39.5215 39.478 39.556 39.4362L39.5561 39.4362L39.5561 39.4362C39.7828 39.1619 40.0108 38.886 40.1179 38.5371C40.1796 38.3272 40.1902 38.1103 40.169 37.897C40.0897 37.3239 39.7458 36.8442 39.2132 36.6026C38.6842 36.361 38.067 36.4545 37.5962 36.7825C37.5755 36.7982 37.5559 36.8156 37.5362 36.8332C37.5206 36.847 37.505 36.8609 37.4886 36.8742C37.5662 36.6097 37.5891 36.3416 37.5239 36.0683C37.4586 35.8038 37.3211 35.5622 37.1253 35.3717C36.7286 34.9838 36.1272 34.8568 35.607 35.049C35.3619 35.1443 35.1433 35.2994 34.981 35.504C34.9316 35.5644 34.8831 35.6253 34.8349 35.6859L34.8349 35.6859L34.8349 35.6859L34.8349 35.6859L34.8349 35.6859C34.7901 35.7421 34.7456 35.798 34.7006 35.8532C34.2951 36.3571 33.8921 36.8611 33.4874 37.3671L33.244 37.6712C32.8646 38.1436 32.488 38.6159 32.1104 39.0895L31.9955 39.2336C31.9656 39.2671 31.9373 39.3024 31.9109 39.3359C31.9091 39.3377 31.9638 39.3818 31.9691 39.3835Z" fill="black"/>
<path id="Path_3" d="M36.6047 37.3071C36.6541 37.0849 36.6047 36.8592 36.4496 36.6899C36.2644 36.4853 35.9576 36.4166 35.6983 36.5224C35.5097 36.6 35.3968 36.764 35.2751 36.9209C34.8025 37.5081 34.3335 38.0936 33.8661 38.6808C33.8591 38.6879 33.7568 38.8113 33.7603 38.8166C33.8556 38.8924 33.9508 38.9682 34.0478 39.0458C34.2982 39.2504 34.5521 39.4497 34.8025 39.6525C35.0529 39.3421 35.298 39.0317 35.5449 38.7231C35.7953 38.4145 36.0405 38.1059 36.2891 37.7991C36.4108 37.6439 36.5501 37.5011 36.6047 37.3071Z" fill="black"/>
<path id="Path_4" d="M36.728 49.9449H49.4459V37.2271C42.5032 37.4087 36.9079 43.0023 36.728 49.9449Z" fill="black"/>
<path id="Path_5" d="M49.4458 62.6654C56.3902 62.4838 61.9838 56.8866 62.1654 49.9458H49.4458L49.4458 62.6654Z" fill="black"/>
</g>
</g>
</svg>
