<svg width="99" height="99" viewBox="0 0 99 99" fill="none" xmlns="http://www.w3.org/2000/svg">
<g id="buick">
<path id="Path" fill-rule="evenodd" clip-rule="evenodd" d="M0 3C0 1.34314 1.34315 0 3 0H96C97.6569 0 99 1.34315 99 3V96C99 97.6569 97.6569 99 96 99H3C1.34314 99 0 97.6569 0 96V3Z" />
<g id="Group">
<path id="Path_2" d="M43.9304 56.8919V56.8884L43.9251 56.8919H43.9304Z" fill="black"/>
<path id="Path_3" d="M63.5613 64.4074C64.4783 63.6914 65.196 63.0055 66.7778 62.7762V62.457H63.5366V62.7692C64.5717 62.7692 64.3002 63.2911 63.9104 63.5856C63.5137 63.8748 62.5032 64.5908 61.9407 65.014V63.5451C61.9407 62.9578 62.2281 62.7974 62.9635 62.7974V62.457H59.5689V62.7974C60.2531 62.7974 60.6093 62.9067 60.6093 63.5451V66.3524C60.6093 67.0419 60.0362 67.1495 59.4172 67.1495V67.4846H63.1169V67.1566C62.5367 67.1566 61.953 66.9326 61.953 66.3313V65.5377C61.953 65.5377 62.0536 65.4619 62.1964 65.3667C62.475 65.1568 62.6179 65.2803 62.8259 65.4672C63.0287 65.6682 65.0285 67.4846 65.0285 67.4846H67.2539V67.1654C66.9488 67.1654 66.5997 66.9943 66.0777 66.5588C65.5504 66.1161 64.6564 65.3208 63.5613 64.4074Z" fill="black"/>
<path id="Shape" fill-rule="evenodd" clip-rule="evenodd" d="M63.0512 46.183C63.0512 53.8239 56.8545 60.0188 49.2189 60.0188C41.5815 60.0188 35.3831 53.8239 35.3831 46.183C35.3831 38.5491 41.5815 32.356 49.2189 32.356C56.8545 32.356 63.0512 38.5491 63.0512 46.183ZM61.5805 46.183C61.5805 39.3497 56.0486 33.8108 49.2189 33.8108C42.3856 33.8108 36.8538 39.3497 36.8538 46.183C36.8538 53.0198 42.3856 58.5499 49.2189 58.5499C56.0486 58.5499 61.5805 53.0198 61.5805 46.183Z" fill="black"/>
<path id="Path_4" d="M55.8585 67.2074C54.4725 67.2074 53.7918 66.8036 53.7918 64.9943C53.7918 63.1851 54.4284 62.7142 55.8585 62.7142C57.2887 62.7142 57.8494 63.1639 57.8494 64.0297H58.8705V62.6296C58.3291 62.5203 57.5602 62.3228 55.8585 62.3228C53.127 62.3228 52.3035 63.2821 52.3035 64.9802C52.3035 67.0188 53.6595 67.5689 55.8585 67.5689C58.0558 67.5689 59.0115 66.7807 59.0115 65.6927H57.8865C57.8865 66.7384 57.2446 67.2074 55.8585 67.2074Z" fill="black"/>
<path id="Path_5" d="M50.7531 66.2691V63.5922C50.7531 62.9909 51.1199 62.7969 51.7829 62.7969V62.4565H48.3637V62.7969C49.0267 62.7969 49.39 62.9909 49.39 63.5922V66.2691C49.39 66.8387 49.1219 67.0979 48.3196 67.0979V67.4841H51.8217V67.0979C51.0264 67.0979 50.7531 66.8387 50.7531 66.2691Z" fill="black"/>
<path id="Shape_2" fill-rule="evenodd" clip-rule="evenodd" d="M37.7534 64.7332C37.5753 64.7561 37.6194 64.8443 37.7481 64.8478C38.7974 64.9272 39.4763 65.0453 39.4781 66.0117C39.4781 66.9904 38.7004 67.5124 37.1309 67.4965C34.9408 67.4701 34.1102 67.4648 31.7507 67.4842V67.1791C32.509 67.1791 32.9428 66.9657 32.9428 66.1246V63.6999C32.9428 63.0809 32.8106 62.7758 31.7931 62.7758V62.4566C34.3769 62.5023 35.4015 62.4867 37.3553 62.4569L37.3743 62.4566C38.5875 62.4372 39.1871 62.6771 39.1871 63.5447C39.1871 64.4105 38.4941 64.6592 37.7534 64.7332ZM34.3042 63.3542C34.3236 63.0615 34.4664 62.8287 35.0801 62.8287C35.3891 62.8287 35.6146 62.8309 35.8391 62.8332C36.0616 62.8354 36.2832 62.8375 36.5843 62.8375C37.1768 62.8375 37.6864 63.0491 37.6864 63.6558C37.6864 64.2641 37.3143 64.5904 36.6442 64.6309C36.117 64.6626 35.6932 64.6528 35.0392 64.6378L35.0392 64.6378C34.8183 64.6327 34.5711 64.627 34.2848 64.6221L34.285 64.5375V64.5375C34.2866 63.9181 34.2873 63.6362 34.3042 63.3542ZM36.8647 67.0698C36.1822 67.1103 35.6655 67.098 35.0801 67.0698C34.5493 67.0451 34.2918 66.904 34.2848 66.2692C34.276 65.6467 34.2918 65.1176 34.2918 65.1176C35.0325 65.0859 36.0817 65.0806 36.7747 65.1176C37.4448 65.1564 37.9915 65.2869 37.9915 66.0046C37.9915 66.7259 37.3796 67.0451 36.8647 67.0698Z" fill="black"/>
<path id="Path_6" d="M46.926 66.0053C46.926 65.143 46.9824 64.0673 47.0089 62.4556H44.4325V62.8118C45.0956 62.8118 45.5805 63.0269 45.5805 63.6318C45.5805 64.2366 45.5805 64.942 45.5276 65.8978C45.4729 66.7566 44.757 67.1657 43.6672 67.1657C42.5703 67.1657 42.2053 66.7248 42.2053 65.8978C42.2053 65.0584 42.2494 64.2366 42.334 62.4556H39.7224V62.7977C40.5318 62.7977 40.8863 62.9899 40.8863 63.5313C40.8863 64.0673 40.8528 64.6528 40.8387 66.0494C40.8316 67.4531 42.5069 67.5854 43.4767 67.5854C44.4484 67.5854 45.0885 67.4372 45.614 66.8218V67.4849H47.9682V67.0969C46.9877 67.0969 46.926 66.8624 46.926 66.0053Z" fill="black"/>
<path id="Shape_3" fill-rule="evenodd" clip-rule="evenodd" d="M49.164 54.7577C48.7707 54.1789 47.6806 52.5747 46.913 50.5935C46.2651 53.6385 44.3456 56.3089 43.9817 56.8152C43.9563 56.8505 43.9385 56.8753 43.9292 56.8889C43.915 56.8585 43.8563 56.7721 43.7642 56.6366C43.1035 55.6647 40.7251 52.1658 40.7251 48.6696V41.7464H46.1141V39.8472H51.4926V37.9409H57.892V44.8483C57.892 48.6129 55.1998 52.3649 54.7504 52.9913C54.7236 53.0286 54.7048 53.0549 54.695 53.0693C54.6824 53.0448 54.6351 52.9759 54.5608 52.8675C54.1761 52.307 53.0669 50.6905 52.2896 48.6925C51.6498 51.6871 49.7806 54.3153 49.3788 54.8803C49.3443 54.9288 49.3206 54.9621 49.3095 54.9791C49.2965 54.9526 49.245 54.8769 49.164 54.7577ZM52.5048 38.9496H56.8763V44.9541C56.8763 47.838 55.0398 50.4664 54.7291 50.9111C54.7114 50.9365 54.6986 50.9548 54.6914 50.9656C54.6823 50.9509 54.6626 50.9222 54.634 50.8805L54.6339 50.8804C54.2744 50.3565 52.5048 47.7778 52.5048 44.9541V38.9496ZM51.4926 40.8594H47.1281V46.8674C47.1281 49.6418 48.857 52.1974 49.2429 52.7679L49.243 52.7679L49.2431 52.7681C49.2785 52.8205 49.3026 52.8561 49.313 52.8736C49.3233 52.8562 49.3471 52.8209 49.3822 52.769L49.3822 52.769L49.3822 52.7689C49.7661 52.2003 51.4926 49.6434 51.4926 46.8674V40.8594ZM46.1141 42.7709H41.7408V48.7789C41.7408 51.5528 43.4736 54.1056 43.8612 54.6767C43.8962 54.7283 43.9202 54.7637 43.931 54.7816C43.9424 54.7619 43.9699 54.7209 44.0104 54.6606C44.4143 54.059 46.1141 51.5275 46.1141 48.7789V42.7709Z" fill="black"/>
<path id="Path_7" d="M56.6515 43.9972V39.1777H52.7314L56.581 46.0234C56.618 45.6707 56.6515 45.0411 56.6515 43.9972Z" fill="black"/>
<path id="Path_8" d="M54.6977 53.0744L54.696 53.0691L54.6924 53.0744H54.6977Z" fill="black"/>
<path id="Path_9" d="M49.3126 54.9841L49.3091 54.9788L49.3056 54.9841H49.3126Z" fill="black"/>
<path id="Shape_4" fill-rule="evenodd" clip-rule="evenodd" d="M56.0195 52.6261C56.0195 52.347 56.242 52.1196 56.5177 52.1196C56.7953 52.1196 57.0195 52.347 57.0195 52.6261C57.0195 52.8941 56.7953 53.1196 56.5177 53.1196C56.242 53.1196 56.0195 52.8978 56.0195 52.6261ZM56.0802 52.6261C56.0802 52.8664 56.275 53.0679 56.5177 53.0679C56.7585 53.0679 56.9589 52.8664 56.9589 52.6261C56.9589 52.3803 56.7585 52.1788 56.5177 52.1788C56.275 52.1788 56.0802 52.3803 56.0802 52.6261Z" fill="black"/>
<path id="Shape_5" fill-rule="evenodd" clip-rule="evenodd" d="M56.7485 52.371C56.7942 52.3855 56.8233 52.4437 56.8233 52.4977C56.8233 52.6223 56.734 52.6639 56.6198 52.668L56.8088 52.965H56.7194L56.5367 52.668H56.3954V52.965H56.3186V52.3315H56.5928C56.6468 52.3315 56.7049 52.3378 56.7485 52.371ZM56.3954 52.6119H56.5159C56.5223 52.6119 56.5289 52.612 56.5356 52.612C56.625 52.6127 56.7381 52.6136 56.7381 52.4977C56.7381 52.4022 56.6551 52.3855 56.5803 52.3855H56.3954V52.6119Z" fill="black"/>
<path id="Path_10" d="M45.3063 51.6984L41.9646 45.8174V48.8734C41.9646 50.8114 43.0015 52.9734 43.9308 54.3753C44.354 53.7087 44.8637 52.887 45.3063 51.6984Z" fill="black"/>
<path id="Path_11" d="M45.8875 47.8064V42.9888H41.9639L45.817 49.8379C45.8505 49.4852 45.8875 48.861 45.8875 47.8064Z" fill="black"/>
<path id="Path_12" d="M50.6877 49.7885L47.3513 43.9146V46.9706C47.3513 48.9121 48.3864 51.0705 49.3122 52.4725C49.7319 51.7988 50.2416 50.9735 50.6877 49.7885Z" fill="black"/>
<path id="Path_13" d="M51.2672 45.9V41.0806H47.3506L51.1984 47.9279C51.2301 47.5788 51.2672 46.9475 51.2672 45.9Z" fill="black"/>
<path id="Path_14" d="M56.0711 47.8888L52.7312 42.0078V45.0603C52.7312 47.0018 53.7628 49.1638 54.6974 50.564C55.1206 49.8886 55.6285 49.0774 56.0711 47.8888Z" fill="black"/>
<path id="Shape_6" fill-rule="evenodd" clip-rule="evenodd" d="M68.5575 66.7857C68.6053 66.8127 68.6323 66.8708 68.6323 66.9207C68.6323 67.0557 68.545 67.0931 68.4349 67.0931L68.6219 67.3838H68.5326L68.3498 67.0931H68.2127V67.3838H68.1338V66.7524H68.4079C68.4619 66.7524 68.5097 66.7524 68.5575 66.7857ZM68.2127 67.0328H68.3311C68.3412 67.0328 68.352 67.0332 68.3633 67.0335C68.4454 67.036 68.5513 67.0393 68.5513 66.9207C68.5513 66.8272 68.4682 66.8127 68.3913 66.8127H68.2127V67.0328Z" fill="black"/>
<path id="Shape_7" fill-rule="evenodd" clip-rule="evenodd" d="M67.8323 67.0455C67.8323 66.7659 68.0559 66.5474 68.3332 66.5474C68.6105 66.5474 68.8323 66.7659 68.8323 67.0455C68.8323 67.3251 68.6105 67.5474 68.3332 67.5474C68.0559 67.5474 67.8323 67.3251 67.8323 67.0455ZM67.897 67.0455C67.897 67.2918 68.0855 67.4863 68.3332 67.4863C68.5753 67.4863 68.775 67.2918 68.775 67.0455C68.775 66.8011 68.5753 66.6085 68.3332 66.6085C68.0855 66.6085 67.897 66.8011 67.897 67.0455Z" fill="black"/>
</g>
</g>
</svg>
