<svg width="99" height="99" viewBox="0 0 99 99" fill="none" xmlns="http://www.w3.org/2000/svg">
<g id="cadillac">
<path id="Path" fill-rule="evenodd" clip-rule="evenodd" d="M0 3C0 1.34314 1.34315 0 3 0H96C97.6569 0 99 1.34315 99 3V96C99 97.6569 97.6569 99 96 99H3C1.34314 99 0 97.6569 0 96V3Z" />
<g id="Group">
<path id="Path_2" d="M53.3267 61.7677C53.6759 61.7677 54.1585 61.43 54.1585 61.0083C54.1585 60.5698 53.8885 60.5698 53.7215 60.5698C53.3722 60.5698 52.8914 60.9109 52.8914 61.3376C52.8914 61.7677 53.1596 61.7677 53.3267 61.7677Z" fill="black"/>
<path id="Shape" fill-rule="evenodd" clip-rule="evenodd" d="M22.5858 67.1083C22.5858 65.5459 23.502 63.9465 24.953 62.4412C20.1292 62.1338 20.0364 60.605 20.0364 59.9229C20.0364 59.1686 20.4312 58.636 20.9914 58.0833C24.0891 54.9888 30.936 54.9148 30.936 54.9148L31.0389 55.2273C26.291 55.2273 21.1837 57.4113 21.2141 59.7482C21.2411 61.697 23.3484 62.0481 25.2955 62.0918C29.5541 57.9388 37.7457 54.5352 41.6567 54.5352C42.8108 54.5352 43.1701 55.1383 43.1701 55.6944C43.1701 56.3315 42.8971 56.6047 42.3237 57.1784C42.2923 57.2097 42.2601 57.242 42.227 57.2752C38.8272 60.6604 31.297 62.4933 26.7718 62.4933H26.4901C24.6594 64.5228 23.7989 66.1876 23.7989 67.3502C23.7989 69.0319 24.6071 69.6972 26.156 69.6972C29.7127 69.6972 34.7322 65.3964 35.5168 64.6185C37.3104 62.8293 39.7906 62.2447 40.7338 62.2447C41.6685 62.2447 42.0836 62.6781 42.0836 62.6781C42.0836 62.6781 40.0268 64.8638 39.2304 65.7559C38.4341 66.6547 38.2873 66.9537 38.2873 67.2561C38.2873 67.2775 38.287 67.2983 38.2868 67.3185C38.2843 67.5279 38.2826 67.6677 38.5673 67.6677C39.1984 67.6677 40.2512 66.7252 42.3738 64.6185C44.4929 62.5152 46.4687 62.2564 47.098 62.2564C47.7274 62.2564 48.053 62.4631 48.053 62.4631C48.0747 62.4423 48.1379 62.3808 48.2479 62.2738C48.618 61.9139 49.517 61.0397 51.139 59.4727H52.2509C52.2509 59.4727 50.3325 61.2904 49.2763 62.3236C48.4951 63.1027 47.4019 64.2688 46.7954 64.9156C46.582 65.1433 46.4288 65.3066 46.3708 65.3661C46.1464 65.5912 45.3602 66.6093 45.3602 67.1503C45.3602 67.1976 45.3598 67.2405 45.3595 67.2794C45.3566 67.6284 45.3564 67.6543 45.6403 67.6543C46.4044 67.6543 47.4429 66.6746 48.0314 66.1193C48.2304 65.9316 48.3779 65.7924 48.4461 65.7559C48.7161 65.5996 48.9726 65.3443 49.6238 64.6958C50.2768 64.0456 51.8122 62.4026 51.8122 62.4026H52.9342C52.9342 62.4026 50.6126 64.8151 50.1317 65.2888C49.6593 65.7693 49.1767 66.5203 49.1767 67.0461C49.1767 67.4779 49.2763 67.6156 49.634 67.6156C50.4607 67.6156 51.4663 67.1872 52.4938 66.5623C52.482 66.4732 52.4753 66.3842 52.4753 66.2935C52.4753 65.0671 52.9899 63.8743 54.9437 61.9389C56.8975 59.9985 58.6607 59.1098 59.2799 59.1098C59.5229 59.1098 59.8266 59.2442 59.8266 59.6474C59.8266 61.0148 58.1217 62.5167 57.0863 63.4288C56.8534 63.6339 56.6544 63.8093 56.5162 63.9465C55.7755 64.6908 54.4915 65.6652 53.1957 66.4699C53.167 67.0814 53.4556 67.6056 54.527 67.6156C55.3554 67.6106 56.3542 67.1872 57.3784 66.5623C57.3649 66.4732 57.3565 66.3842 57.3565 66.2901C57.3565 65.0671 57.8745 63.8743 59.8266 61.9389C61.7804 59.9985 63.5436 59.1098 64.1594 59.1098C64.4041 59.1098 64.7112 59.2442 64.7112 59.6474C64.7112 61.0107 63.004 62.5152 61.9677 63.4284C61.7347 63.6338 61.5356 63.8093 61.3974 63.9465C60.6601 64.6908 59.3761 65.6601 58.0837 66.4632C58.055 67.036 58.2979 67.5266 59.1888 67.6056C59.9498 67.6677 61.4666 66.3019 63.1488 64.6185C64.9558 62.8293 67.4242 62.248 68.3674 62.248C69.3106 62.248 69.7172 62.6781 69.7172 62.6781C69.7172 62.6781 67.6723 64.8672 66.8658 65.7559C66.0677 66.6547 65.9361 66.9537 65.9361 67.2645C65.9361 67.5703 65.9901 67.5787 66.3495 67.5787C67.1222 67.5787 68.8854 65.9121 69.4135 65.3863C69.7429 65.0615 69.8972 64.8853 70.0158 64.75C70.0867 64.669 70.1448 64.6026 70.22 64.5278C72.3071 62.4412 74.2508 62.0263 74.9898 62.0263C75.5837 62.0263 76.1 62.2716 76.1 62.8512C76.1 64.054 74.3757 64.637 74.3757 64.637V64.3195C75.2142 63.7584 75.4386 63.1536 75.4386 62.8176C75.4386 62.4816 75.3593 62.3236 74.7671 62.3236C73.9572 62.3236 72.8335 63.041 72.2953 63.5769C71.0518 64.8151 70.4883 66.0532 70.4883 66.5992C70.4883 66.6206 70.4882 66.6419 70.4882 66.6631C70.4867 67.2841 70.4854 67.8324 71.7368 67.8324C73.7446 67.8324 75.6293 66.0751 75.6293 66.0751L75.7508 66.1759C75.7508 66.1759 74.023 68.1616 71.6204 68.1616C69.495 68.1616 69.4998 66.7551 69.5012 66.3433C69.5012 66.3334 69.5012 66.324 69.5012 66.3153C69.5012 65.934 69.5569 65.7559 69.5569 65.7559C69.5569 65.7559 69.3325 65.7693 68.5446 66.5572C67.76 67.3351 66.6599 67.9046 66.1791 67.9046C65.7083 67.9046 65.462 67.6224 65.462 67.0764C65.462 66.5388 65.7421 65.9928 65.7421 65.9928C65.7421 65.9928 65.5953 65.9508 64.8647 66.6732C64.1341 67.3989 62.9126 67.9096 62.6443 67.9096C62.3726 67.9096 61.8698 67.6358 61.8698 67.0461C61.8698 66.6879 61.9624 66.5256 62.0388 66.3917C62.0925 66.2976 62.1381 66.2176 62.1381 66.0936C62.1381 65.9712 61.8179 66.234 61.3784 66.5948C60.7017 67.1504 59.7421 67.9382 59.2327 67.9096C58.4903 67.8945 57.6973 67.6106 57.4425 66.8445C56.3239 67.4846 55.266 67.9332 54.6181 67.9332L54.4831 67.9231C53.7086 67.9231 52.833 67.6408 52.5613 66.8445C51.4427 67.4846 50.3848 67.9332 49.7369 67.9332C48.6722 67.9332 48.6267 67.246 48.6267 66.7605C48.6267 66.4689 48.6857 66.3299 48.7336 66.2171C48.7662 66.1401 48.7937 66.0754 48.7937 65.9827C48.7937 65.9827 48.7482 65.7912 47.9957 66.5388C47.2448 67.2847 46.2595 67.9332 45.5829 67.9332C44.908 67.9332 44.8085 67.414 44.8085 67.0461C44.8085 66.8276 44.894 66.5924 44.9691 66.3856C45.0246 66.2331 45.0744 66.0961 45.0801 65.9928C45.0801 65.9928 44.8658 65.9827 44.3023 66.5388C43.2393 67.6056 42.5087 67.9332 41.9924 67.9332C41.4762 67.9332 41.3277 67.6224 41.3277 66.984C41.3277 66.3372 41.488 65.9827 41.488 65.9827C41.488 65.9827 41.353 66.0196 40.9362 66.4296C40.0386 67.32 39.0077 67.9332 38.5117 67.9332C38.0072 67.9332 37.7372 67.6224 37.7372 67.1503C37.7372 66.8841 37.8003 66.7073 37.858 66.5453C37.9038 66.4169 37.9463 66.2977 37.9515 66.1507C37.9515 66.1507 37.2547 66.6211 36.8835 66.984C36.5258 67.3435 35.4831 67.9096 34.9769 67.9096C34.4724 67.9096 34.2581 67.6358 34.2581 67.0982C34.2581 66.778 34.348 66.4889 34.4213 66.2531C34.4719 66.0905 34.5146 65.9532 34.5146 65.8483C34.5146 65.8483 29.7127 69.9004 26.043 69.9004C23.3721 69.9004 22.5858 68.5447 22.5858 67.1083ZM27.5007 61.4299C30.0265 58.9166 37.5128 54.8174 41.5318 54.8174C42.362 54.8174 42.7905 55.0408 42.7905 55.6456C42.7905 56.1648 42.362 56.5915 42.092 56.8452C40.0268 58.9082 32.5844 62.0952 27.0536 62.0952H26.8478C26.9678 61.9756 27.0889 61.8512 27.213 61.7238C27.3069 61.6273 27.4026 61.5291 27.5007 61.4299ZM37.1079 64.3077C38.132 63.2728 39.6472 62.574 40.2512 62.574C40.6005 62.574 40.754 62.6076 40.754 62.794C40.754 62.989 39.1698 64.478 38.1245 65.4606L38.1245 65.4606L38.1245 65.4606L38.1241 65.461L38.124 65.4611C37.7821 65.7824 37.498 66.0495 37.3458 66.1994C36.7384 66.8042 35.5826 67.6677 35.0916 67.6677C34.9769 67.6677 34.852 67.5232 34.852 67.32C34.852 66.5376 36.0194 65.3836 37.0223 64.3923L37.1079 64.3077ZM43.038 65.3319C42.9806 65.3904 42.931 65.4409 42.8901 65.482C42.34 66.0213 41.8912 66.9537 41.8912 67.2645C41.8912 67.6061 42.0269 67.6059 42.202 67.6056L42.2169 67.6056C42.9575 67.6056 45.0227 65.5912 45.5829 65.0268C45.8862 64.7248 46.1437 64.4361 46.385 64.1655C46.5907 63.9349 46.7846 63.7175 46.985 63.5164C47.4355 63.0712 47.4929 62.92 47.4929 62.794C47.4929 62.7 47.2786 62.574 46.9327 62.574C45.744 62.574 43.7666 64.5893 43.038 65.3319ZM53.3628 65.6904C53.7188 64.6185 54.9656 62.8394 55.9206 61.8768C55.9751 61.8234 56.0328 61.7665 56.0934 61.7069C56.9554 60.8582 58.39 59.4458 59.1956 59.4458C59.4115 59.4458 59.533 59.4727 59.533 59.7247C59.533 59.9229 59.2209 60.7276 57.4898 62.4379C56.5247 63.4039 54.9083 64.9192 53.2565 66.0667L53.2553 66.0668C53.2548 66.067 53.2545 66.0676 53.254 66.0691L53.2531 66.0717C53.2835 65.9407 53.3206 65.813 53.3628 65.6904ZM60.8035 61.8768C59.8485 62.8394 58.6033 64.6185 58.2423 65.6904C58.2018 65.813 58.1663 65.9407 58.1393 66.0667C59.7878 64.9192 61.4092 63.4039 62.3709 62.4379C64.1004 60.7276 64.4176 59.9229 64.4176 59.7247C64.4176 59.4727 64.2927 59.4458 64.0818 59.4458C63.2729 59.4458 61.8377 60.8588 60.9757 61.7075C60.9154 61.7669 60.8578 61.8236 60.8035 61.8768ZM64.7533 64.2808C65.7859 63.2628 67.3011 62.5504 67.895 62.5504C68.2425 62.5504 68.4011 62.5773 68.4011 62.7688C68.4011 62.9708 66.8629 64.4121 65.8169 65.3922L65.8168 65.3922L65.8167 65.3923C65.453 65.7331 65.1489 66.0181 64.9895 66.1759C64.3804 66.784 63.2281 67.6408 62.7337 67.6408C62.6207 67.6408 62.4958 67.4997 62.4958 67.2981C62.4958 66.5342 63.6519 65.3802 64.6531 64.3809L64.7533 64.2808Z" fill="black"/>
<path id="Path_3" d="M77.0058 66.8178C77.3602 66.8279 77.6436 66.5473 77.6436 66.1878C77.6436 65.8434 77.3602 65.5527 77.0058 65.5527C76.6498 65.5527 76.3596 65.8434 76.3596 66.1878C76.3579 66.5473 76.6498 66.8279 77.0058 66.8178Z" fill="black"/>
<path id="Path_4" d="M44.9597 29.7904C45.8843 29.8676 47.057 29.1469 47.2999 28.9235C46.7583 28.7874 45.6549 28.9806 44.9597 29.7904Z" fill="#474150"/>
<path id="Path_5" d="M44.7166 29.2427C44.58 29.1872 43.1239 29.6593 42.9619 30.6287C43.6976 30.4674 44.3691 29.9197 44.7166 29.2427Z" fill="#474150"/>
<path id="Path_6" d="M45.575 30.1578C44.3197 30.0553 43.7612 30.6433 43.7612 30.6433C44.9592 30.9188 45.575 30.1645 45.575 30.1578Z" fill="#474150"/>
<path id="Path_7" d="M42.507 30.2632C41.4221 30.3808 41.0154 32.0944 41.0002 32.0944C41.6414 31.6257 42.3197 31.0561 42.507 30.2632" fill="#474150"/>
<path id="Path_8" d="M42.0134 31.7262C43.0258 31.8018 43.8289 31.0626 43.8289 31.0626C42.3121 30.9752 42.0134 31.7312 42.0134 31.7262Z" fill="#474150"/>
<path id="Path_9" d="M42.4354 32.2035C42.4354 32.2035 41.4703 31.9548 40.5879 33.1947C40.598 33.1947 41.7858 33.02 42.4354 32.2035Z" fill="#474150"/>
<path id="Path_10" d="M40.4409 31.8398C40.4409 31.8398 39.1147 32.7991 39.4741 34.1498C39.4792 34.1498 40.2874 33.4174 40.4409 31.8398Z" fill="#474150"/>
<path id="Path_11" d="M39.4736 35.2174C39.4787 35.2174 40.6699 34.6899 41.2503 33.4434C41.2621 33.4434 39.8684 33.8482 39.4736 35.2174Z" fill="#474150"/>
<path id="Path_12" d="M39.0196 33.856C39.0246 33.856 37.9971 35.037 38.5387 36.5104C38.5387 36.5104 39.3081 35.4704 39.0196 33.856Z" fill="black"/>
<path id="Path_13" d="M38.7842 37.708C38.7842 37.708 40.0783 36.196 40.0783 35.5122C40.0783 35.5189 38.7842 36.028 38.7842 37.708Z" fill="black"/>
<path id="Path_14" d="M38.022 36.1167C38.022 36.1167 37.0586 37.7077 38.1098 38.8534C38.1199 38.8534 38.6126 37.4876 38.022 36.1167Z" fill="black"/>
<path id="Path_15" d="M39.6245 37.4736C39.6245 37.4736 38.5396 38.112 38.5969 39.8156C38.5969 39.8156 39.4878 38.942 39.6245 37.4736Z" fill="black"/>
<path id="Path_16" d="M38.2329 41.3781C38.2414 39.3537 37.3319 38.3726 37.3252 38.3726C37.0586 40.7514 38.2414 41.3781 38.2329 41.3781Z" fill="black"/>
<path id="Path_17" d="M39.0824 42.2837C39.0824 42.2837 39.4789 41.3261 39.2596 39.6948C39.2596 39.6948 38.1612 40.8103 39.0824 42.2837Z" fill="black"/>
<path id="Path_18" d="M37.4067 41.0977C37.4152 41.6806 37.5367 42.2518 37.9652 42.6365C38.2976 42.9255 38.6705 43.154 39.0349 43.3858C38.7987 42.4618 38.0715 41.7411 37.4067 41.0977Z" fill="black"/>
<path id="Path_19" d="M40.2382 44.5249C40.2973 43.7252 40.2331 43.1137 39.6426 41.936C39.3895 42.8332 39.6494 43.821 40.2382 44.5249Z" fill="black"/>
<path id="Path_20" d="M40.2382 45.4303C39.8113 44.5634 39.0099 44.0661 38.1915 43.4983C38.1443 43.4681 38.1106 43.4244 38.0701 43.3857C38.3704 44.4139 39.2174 45.1733 40.2382 45.4303Z" fill="black"/>
<path id="Path_21" d="M40.6782 44.1621C40.5634 45.1164 41.2181 45.9026 41.9335 46.4486C41.6973 45.8606 41.65 45.1634 40.7828 44.1705C40.7676 44.1554 40.6866 44.1621 40.6782 44.1621Z" fill="black"/>
<path id="Path_22" d="M40.3206 46.6511C40.8791 46.9099 41.4949 47.0661 42.1192 47.1098C41.3228 46.4025 40.3864 45.8683 39.3403 45.6045C39.5782 46.0564 39.8853 46.4428 40.3206 46.6511Z" fill="black"/>
<path id="Path_23" d="M41.8844 48.1407C42.5323 48.2919 43.1701 48.1894 43.8112 48.3154C42.8562 47.7258 41.7241 47.4906 40.6038 47.3545C40.9446 47.7661 41.3816 48.0416 41.8844 48.1407Z" fill="black"/>
<path id="Path_24" d="M42.2401 45.726C42.2029 45.6924 42.1557 45.6689 42.1321 45.6235C42.2502 46.6248 43.0111 47.5287 43.9897 47.8277C43.7451 47.5001 43.6236 47.1103 43.3671 46.7643C43.0499 46.3409 42.6787 46.0419 42.2401 45.726Z" fill="black"/>
<path id="Path_25" d="M46.3446 48.9171C46.1 48.5239 45.8351 48.151 45.5263 47.8066C45.1129 47.3395 44.5072 47.1111 43.9302 46.8691C44.4009 47.8536 45.2918 48.6281 46.3446 48.9171Z" fill="black"/>
<path id="Path_26" d="M45.7467 49.1548C45.7214 49.1548 45.7062 49.1665 45.6826 49.1514C44.9419 48.7247 43.0268 48.634 42.3621 48.7936C43.7608 49.479 43.3491 49.6638 45.7467 49.1548Z" fill="black"/>
<path id="Path_27" d="M52.1321 28.924C52.3767 29.1475 53.5494 29.8682 54.4723 29.7909C53.7771 28.9795 52.6737 28.788 52.1321 28.924Z" fill="#474150"/>
<path id="Path_28" d="M56.4631 30.6287C56.3112 29.6593 54.8534 29.1872 54.7151 29.2427C55.0627 29.9197 55.7359 30.4657 56.4631 30.6287Z" fill="#474150"/>
<path id="Path_29" d="M53.8491 30.1578C53.8592 30.1645 54.4734 30.9188 55.6646 30.6433C55.6713 30.6433 55.1129 30.0553 53.8491 30.1578Z" fill="#474150"/>
<path id="Path_30" d="M58.423 32.0939C58.4162 32.0939 58.0113 30.3803 56.9163 30.2627C57.112 31.0557 57.7919 31.6269 58.423 32.0939Z" fill="#474150"/>
<path id="Path_31" d="M55.6045 31.0621C55.6045 31.0621 56.4076 31.8013 57.4217 31.7257C57.4217 31.7307 57.1179 30.9747 55.6045 31.0621Z" fill="#474150"/>
<path id="Path_32" d="M56.9978 32.2035C57.6457 33.02 58.8369 33.1947 58.8369 33.1947C57.9629 31.9548 56.9978 32.2035 56.9978 32.2035Z" fill="#474150"/>
<path id="Path_33" d="M59.9529 34.1498C60.3174 32.7941 58.9912 31.8398 58.9912 31.8398C59.1431 33.4174 59.9529 34.1498 59.9529 34.1498Z" fill="#474150"/>
<path id="Path_34" d="M58.1001 33.4438C58.6923 34.6904 59.8801 35.2179 59.8801 35.2179C59.4921 33.847 58.1001 33.4438 58.1001 33.4438Z" fill="#474150"/>
<path id="Path_35" d="M60.317 33.856C60.0335 35.4704 60.8029 36.5104 60.8029 36.5104C61.3445 35.037 60.317 33.856 60.317 33.856Z" fill="black"/>
<path id="Path_36" d="M59.1843 35.5132C59.1843 36.1953 60.4869 37.7089 60.4818 37.7089C60.4869 36.0289 59.1843 35.5199 59.1843 35.5132Z" fill="black"/>
<path id="Path_37" d="M61.1515 38.8533C62.2027 37.7075 61.241 36.1216 61.241 36.1216C60.6504 37.4891 61.1515 38.8533 61.1515 38.8533Z" fill="black"/>
<path id="Path_38" d="M59.5493 37.4736C59.6877 38.942 60.5785 39.8156 60.5785 39.8156C60.6342 38.112 59.5493 37.4736 59.5493 37.4736Z" fill="black"/>
<path id="Path_39" d="M61.8372 38.3726C61.8473 38.3726 60.943 39.3537 60.9345 41.3781C60.943 41.3781 62.1156 40.7514 61.8372 38.3726Z" fill="black"/>
<path id="Path_40" d="M60.0914 42.2837C61.0143 40.8103 59.9143 39.6948 59.9143 39.6948C59.7017 41.3261 60.0914 42.2837 60.0914 42.2837Z" fill="black"/>
<path id="Path_41" d="M61.7671 41.0977C61.1023 41.7411 60.3717 42.4618 60.1372 43.3858C60.5033 43.154 60.8762 42.9255 61.2002 42.6365C61.6456 42.2518 61.7586 41.6806 61.7671 41.0977Z" fill="black"/>
<path id="Path_42" d="M58.9017 44.5249C59.5006 43.821 59.7503 42.8332 59.5006 41.936C58.9168 43.1137 58.8544 43.7252 58.9017 44.5249Z" fill="black"/>
<path id="Path_43" d="M61.0716 43.3862C61.0295 43.4249 60.9957 43.4686 60.9485 43.4971C60.1369 44.065 59.3389 44.5639 58.9019 45.4308C59.9209 45.1738 60.7798 44.4127 61.0716 43.3862" fill="black"/>
<path id="Path_44" d="M58.4155 44.1621C58.4155 44.1621 58.3362 44.1554 58.3193 44.1705C57.452 45.1634 57.4014 45.8606 57.1602 46.4486C57.8789 45.9026 58.5353 45.1164 58.4155 44.1621Z" fill="black"/>
<path id="Path_45" d="M59.7592 45.6045C58.7131 45.8683 57.775 46.4025 56.9836 47.1098C57.6045 47.0661 58.2204 46.9132 58.7704 46.6511C59.2159 46.4428 59.5229 46.0581 59.7592 45.6045Z" fill="black"/>
<path id="Path_46" d="M58.3984 47.3548C57.2899 47.4909 56.156 47.7261 55.1926 48.3141C55.8388 48.1898 56.48 48.2923 57.1178 48.1411C57.629 48.042 58.066 47.7664 58.3984 47.3548Z" fill="black"/>
<path id="Path_47" d="M56.9377 45.6274C56.9141 45.6678 56.8702 45.693 56.8281 45.7266C56.3928 46.0424 56.0182 46.3414 55.701 46.7648C55.453 47.1109 55.3214 47.499 55.0801 47.8282C56.0671 47.5292 56.823 46.6254 56.9377 45.6274Z" fill="black"/>
<path id="Path_48" d="M52.6584 48.9171C53.718 48.6281 54.6106 47.8536 55.0813 46.8691C54.4975 47.1111 53.8969 47.3395 53.4768 47.8066C53.1781 48.151 52.9082 48.5239 52.6584 48.9171Z" fill="black"/>
<path id="Path_49" d="M56.6503 48.7936C55.9872 48.634 54.0688 48.7247 53.323 49.1514C53.3061 49.1665 53.2825 49.1548 53.2673 49.1548C55.6649 49.6638 55.2431 49.479 56.6503 48.7936Z" fill="black"/>
<path id="Path_50" d="M53.1621 51.606C53.4438 51.6615 53.5822 51.606 53.5822 51.606L53.761 51.3742C51.2926 51.3742 49.1532 49.7211 48.2623 48.8374C47.3816 47.9672 46.0942 47.8546 46.0942 47.8462C46.4671 48.4644 47.4238 49.2792 47.7072 49.3683C47.9941 49.459 48.0295 49.6236 48.0194 49.6186C47.5756 49.6236 47.7528 49.506 46.8147 49.506C45.448 49.506 44.6601 49.921 44.6533 49.921C45.0161 49.921 46.079 50.5258 47.0576 50.5174C48.0346 50.5258 47.8101 50.3477 48.9136 50.3477C50.7561 50.3477 49.8112 50.9492 53.1621 51.606Z" fill="black"/>
<path id="Path_51" d="M52.1321 49.4368C51.3644 49.4586 50.8954 49.5292 50.8954 49.5292C50.8954 49.5292 51.744 49.0571 52.0444 48.7446C52.3413 48.4489 52.9774 47.6963 52.9774 47.6963C52.9774 47.6963 52.6197 47.9432 52.3768 47.9365C52.1321 47.9432 51.3796 48.2423 51.194 48.3784C51.0168 48.5396 50.3015 49.3477 49.9556 49.6568V49.7375C49.9556 49.7492 50.099 49.8299 50.288 50.0147C50.482 50.2096 51.0472 50.4632 51.7103 50.4632C52.8424 50.4632 53.8244 49.8383 54.2142 49.8383C54.2142 49.8383 53.3554 49.42 52.1321 49.4368Z" fill="black"/>
<path id="Path_52" d="M45.0635 51.3743L45.244 51.6061H45.6658C46.3812 51.6061 48.308 50.6838 48.6101 50.6468C48.578 50.6468 48.4936 50.6468 48.2304 50.6787C47.8407 50.7241 46.0117 51.3743 45.6658 51.3743H45.0635Z" fill="black"/>
<path id="Shape_2" fill-rule="evenodd" clip-rule="evenodd" d="M47.1292 33.7033C47.0735 33.5991 47.0398 33.4799 47.0398 33.3455C47.0398 32.9154 47.389 32.576 47.8108 32.571C48.2394 32.571 48.5853 32.9154 48.5853 33.3455C48.5853 33.3891 48.5768 33.4446 48.5701 33.4799H48.9902C48.9598 33.4009 48.943 33.3001 48.943 33.206C48.943 32.7843 49.2905 32.4399 49.7123 32.4399C50.1426 32.4399 50.4902 32.7843 50.4902 33.206C50.4902 33.3001 50.4716 33.4009 50.4429 33.4799H50.8529C50.8529 33.4632 50.8518 33.4419 50.8506 33.4196C50.8493 33.3947 50.8479 33.3685 50.8479 33.3455C50.8479 32.9154 51.1937 32.571 51.6156 32.571C52.0441 32.571 52.3934 32.9154 52.3934 33.3455C52.3934 33.4799 52.3579 33.5991 52.2938 33.7033L52.6988 33.8007C52.7072 33.3656 53.048 33.0263 53.4766 33.0212C53.9068 33.0296 54.2527 33.3656 54.246 33.8007C54.2527 33.9755 54.1886 34.1317 54.0907 34.2594L54.4889 34.3988C54.5463 34.0309 54.8686 33.7117 55.2583 33.7117C55.6869 33.7117 56.0344 34.0628 56.0277 34.4912C56.0344 34.7718 55.7915 35.0759 55.5654 35.217V36.4837H57.6221L55.4861 38.6845V43.6825C55.4861 44.6653 54.553 45.134 53.4277 45.134C52.9284 45.134 52.5188 45.1842 51.8704 45.2635C51.6796 45.2869 51.4681 45.3128 51.2275 45.3407C49.9669 45.4831 49.6274 45.9856 49.5813 46.0537C49.5779 46.0587 49.5761 46.0614 49.5757 46.0614C49.5824 46.0614 48.9902 45.4431 47.9306 45.3222C47.7072 45.2962 47.5086 45.2719 47.3281 45.2499C46.6585 45.1683 46.2395 45.1172 45.7305 45.1172C44.6118 45.1172 43.7142 44.7107 43.7142 43.9715V38.6845L41.7131 36.4871H43.7699V35.1414C43.5539 35.0103 43.3987 34.7718 43.3987 34.4912C43.3987 34.0628 43.7463 33.7151 44.1731 33.7151C44.5629 33.7151 44.8851 34.0309 44.9341 34.3988L45.339 34.2627C45.2412 34.1317 45.1787 33.9755 45.1787 33.8007C45.1787 33.3656 45.5263 33.0296 45.9549 33.0212C46.3834 33.0296 46.7259 33.3656 46.7259 33.8007L47.1292 33.7033ZM49.7123 32.7423C49.9806 32.7423 50.1898 32.9507 50.1831 33.206C50.1898 33.4631 49.9789 33.6731 49.7123 33.6731C49.4542 33.6731 49.2433 33.4631 49.2433 33.206C49.2433 32.9507 49.4542 32.7423 49.7123 32.7423ZM48.2782 33.3455C48.2782 33.0867 48.0673 32.8734 47.8091 32.8734C47.551 32.8734 47.3401 33.0867 47.3401 33.3455C47.3401 33.6025 47.551 33.8125 47.8091 33.8125C48.0673 33.8125 48.2782 33.6025 48.2782 33.3455ZM48.4233 33.8999L48.0032 34.6827L47.335 34.0796L46.6112 34.3199L46.3699 35.1027L45.6242 34.5987L44.9189 34.8591L44.8396 35.7411L44.1917 35.4606V36.5375C44.7097 36.0284 47.3013 34.928 49.6735 34.9482C52.0458 34.9667 54.6374 36.0284 55.1453 36.5375V35.4606L54.5075 35.7411L54.4164 34.8591L53.7195 34.5987L52.967 35.1027L52.7241 34.3199L52.0036 34.0796L51.3405 34.6827L50.9204 33.8999L50.1898 33.8394L49.7377 34.5299H49.601L49.1454 33.8394L48.4233 33.8999ZM52.0829 33.3455C52.0914 33.0867 51.8804 32.8734 51.6156 32.8734C51.3642 32.8734 51.1549 33.0867 51.1448 33.3455C51.1549 33.6025 51.3642 33.8125 51.6156 33.8125C51.8804 33.8125 52.0914 33.6025 52.0829 33.3455ZM53.4766 33.332C53.7364 33.332 53.9456 33.542 53.9456 33.8007C53.9456 34.0527 53.7364 34.2627 53.4766 34.2627C53.2184 34.2627 53.0058 34.0527 53.0058 33.8007C53.0058 33.542 53.2184 33.332 53.4766 33.332ZM55.7274 34.4912C55.7274 34.2291 55.5181 34.0275 55.2583 34.0275C54.9985 34.0275 54.7893 34.2291 54.7893 34.4912C54.7893 34.7449 54.9985 34.9583 55.2583 34.9583C55.5181 34.9583 55.7274 34.7449 55.7274 34.4912ZM56.5271 36.9642L56.1104 37.3892H52.6431V36.9642H56.5271ZM52.6431 38.0495H55.4675L55.8168 37.6563H52.6431V38.0495ZM54.8956 38.6425H52.6431V38.2813H55.2499L54.8956 38.6425ZM54.8854 40.5711H52.5925V39.002H54.8854V40.5711ZM49.7528 42.2427H54.8854V40.9223H49.7528V42.2427ZM54.8854 43.0559H49.7528V42.6745H54.8854V43.0559ZM54.8854 44.0135C54.8854 44.3243 54.4636 44.499 54.2257 44.5561C53.9794 44.6166 53.7111 44.6502 53.4277 44.6502C52.9418 44.6502 52.5408 44.6986 51.9222 44.7733L51.9221 44.7733C51.7179 44.798 51.49 44.8255 51.2275 44.8551C50.394 44.9492 49.9637 45.2096 49.7528 45.3877V43.3448H54.8854V44.0135ZM52.2213 38.6425H49.7781V36.9642H52.2213V38.6425ZM49.7781 39.3834H52.2213V39.002H49.7781V39.3834ZM52.2213 40.5795H49.7781V40.1797H52.2213V40.5795ZM49.7781 39.9731H52.2213V39.5833H49.7781V39.9731ZM49.7123 35.2472C47.8598 35.2657 45.8182 35.973 44.9661 36.4703H54.4569C53.6149 35.973 51.5751 35.2388 49.7123 35.2472ZM49.3884 38.2813H44.0297L42.7761 36.9255H49.3884V38.2813ZM49.3884 38.9768H44.2794V38.5837H49.3884V38.9768ZM44.2794 40.5795H49.3884V39.291H44.2794V40.5795ZM49.3395 41.3641H47.0263V40.9223H49.3395V41.3641ZM47.0263 42.0109H49.3395V41.5556H47.0263V42.0109ZM49.3395 42.6627H47.0263V42.2125H49.3395V42.6627ZM49.3395 45.4314C49.1387 45.2466 48.7152 44.9727 48.069 44.8988C47.8933 44.8775 47.7353 44.8578 47.5899 44.8398L47.5894 44.8397L47.5892 44.8397L47.5885 44.8396C47.3797 44.8136 47.1971 44.7909 47.0263 44.7711V42.9752H49.3395V45.4314ZM46.6365 42.6627H44.2794V40.9223H46.6365V42.6627ZM46.6365 43.3751H44.2744L44.2794 42.9752H44.2879H46.6365V43.3751ZM44.3267 44.0135H46.6365V43.6388H44.2744V43.8539C44.2879 43.9127 44.3014 43.9647 44.3267 44.0135ZM46.6365 44.7241V44.7359L46.5593 44.7309C46.3999 44.7206 46.2452 44.7107 46.078 44.7107C45.4065 44.7107 44.8227 44.5511 44.4988 44.2453H46.6365V44.7241ZM44.1748 34.0275C43.915 34.0275 43.7075 34.2291 43.7075 34.4912C43.7075 34.7449 43.915 34.9583 44.1748 34.9583C44.4347 34.9583 44.6439 34.7449 44.6439 34.4912C44.6439 34.2291 44.4347 34.0275 44.1748 34.0275ZM45.9549 33.332C46.2147 33.332 46.4256 33.542 46.4256 33.8007C46.4256 34.0527 46.2147 34.2627 45.9549 34.2627C45.6967 34.2627 45.4875 34.0527 45.4875 33.8007C45.4875 33.542 45.6967 33.332 45.9549 33.332Z" fill="black"/>
<path id="Path_53" d="M51.8809 43.8574C51.9214 43.8574 52.0108 43.844 52.0041 43.8809C51.9939 43.9263 52.0041 44.1212 52.0041 44.2237C52.0041 44.3345 52.0986 44.3614 52.1492 44.3782C52.1964 44.4034 52.3685 44.3866 52.4562 44.3782C52.5558 44.3866 52.6334 44.3614 52.7566 44.2825C52.8848 44.2203 52.8797 44.0657 52.8797 43.8961C52.7971 43.8961 52.5558 43.8961 52.4428 43.9129C52.328 43.9498 52.2791 44.0137 52.215 44.0288C52.1644 44.0389 52.1407 44.0389 52.1407 43.9885V43.7751C52.1407 43.7449 52.1239 43.6827 52.0513 43.6827C51.9855 43.6911 51.9214 43.7751 51.8674 43.7919C51.8151 43.8137 51.8421 43.8574 51.8809 43.8574Z" fill="black"/>
<path id="Path_54" d="M50.7259 41.4883C50.7191 41.5336 50.7259 41.7201 50.7259 41.8276C50.7259 41.9368 50.8221 41.9486 50.871 41.9755C50.9199 42.0124 51.0903 41.9856 51.1781 41.9856C51.2759 41.9856 51.3552 41.9486 51.4784 41.8898C51.6066 41.8159 51.5982 41.6731 51.5982 41.5051C51.5172 41.5051 51.2759 41.495 51.1629 41.5219C51.0465 41.5437 51.0009 41.6176 50.9351 41.6277C50.8845 41.6361 50.8626 41.6361 50.8626 41.5924V41.374C50.8626 41.3371 50.8474 41.2816 50.7731 41.29C50.7107 41.2951 50.6415 41.374 50.5859 41.3858C50.5386 41.4244 50.5622 41.4547 50.6044 41.448C50.6415 41.4614 50.7326 41.4429 50.7259 41.4883Z" fill="black"/>
<path id="Path_55" d="M46.3446 39.8247C46.3834 39.8365 46.4728 39.8163 46.4677 39.8549V40.2027C46.4677 40.3069 46.5639 40.3304 46.6111 40.3489C46.6685 40.3808 46.8305 40.3589 46.9283 40.3589C47.0262 40.3589 47.0971 40.3304 47.2185 40.2632C47.3501 40.1842 47.3501 40.0397 47.34 39.8768C47.259 39.8768 47.0262 39.8684 46.9047 39.8919C46.7883 39.9221 46.7427 39.9826 46.6837 39.9927C46.6297 40.0078 46.6111 40.0078 46.6027 39.9591C46.6111 39.9137 46.6111 39.8163 46.6027 39.7424C46.6111 39.7088 46.5875 39.6584 46.5133 39.6634C46.4492 39.6718 46.3867 39.7424 46.3344 39.7609C46.2872 39.7945 46.3125 39.8365 46.3446 39.8247Z" fill="black"/>
<path id="Path_56" d="M44.8468 37.4325C44.8839 37.4443 44.975 37.4241 44.9666 37.4628C44.9598 37.5148 44.9666 37.6946 44.9666 37.8105C44.9666 37.918 45.0628 37.9382 45.1134 37.9533C45.169 37.9903 45.331 37.9634 45.4221 37.9634C45.5183 37.9634 45.601 37.9382 45.7208 37.8626C45.8507 37.792 45.8423 37.6492 45.8423 37.4812C45.7613 37.4812 45.5183 37.4728 45.4069 37.4997C45.2922 37.53 45.245 37.5955 45.1859 37.6039C45.1302 37.6156 45.1151 37.6156 45.1049 37.5669C45.1151 37.5232 45.1151 37.4241 45.1049 37.3502C45.1151 37.32 45.0897 37.2578 45.0172 37.2662C44.9514 37.2796 44.8839 37.3502 44.84 37.3687C44.7894 37.4023 44.813 37.4443 44.8468 37.4325Z" fill="black"/>
<path id="Path_57" d="M47.7765 37.4325C47.817 37.4443 47.9064 37.4241 47.898 37.4628C47.8912 37.5148 47.898 37.6946 47.898 37.8105C47.898 37.918 47.9941 37.9382 48.0431 37.9533C48.0937 37.9903 48.2624 37.9634 48.3518 37.9634C48.4514 37.9634 48.5307 37.9382 48.6505 37.8626C48.7804 37.792 48.7736 37.6492 48.7736 37.4812C48.6893 37.4812 48.4514 37.4728 48.3333 37.4997C48.2219 37.53 48.1713 37.5955 48.1156 37.6039C48.0599 37.6156 48.0346 37.6156 48.0346 37.5669V37.3502C48.0346 37.32 48.0194 37.2578 47.9452 37.2662C47.8828 37.2796 47.817 37.3502 47.7613 37.3687C47.7124 37.4023 47.7461 37.4443 47.7765 37.4325Z" fill="black"/>
<path id="Path_58" d="M53.274 41.447C53.3128 41.4621 53.4023 41.4419 53.3955 41.4873C53.3871 41.5343 53.3955 41.7191 53.3955 41.8283C53.3955 41.9358 53.4917 41.9493 53.5423 41.9745C53.5895 42.0114 53.7616 41.9846 53.8477 41.9846C53.9439 41.9846 54.0282 41.9493 54.148 41.8905C54.2779 41.8166 54.2712 41.6738 54.2712 41.5041C54.1885 41.5041 53.9439 41.494 53.8342 41.5209C53.7195 41.5444 53.6688 41.6183 53.6148 41.6267C53.5575 41.6351 53.5339 41.6351 53.5339 41.5914V41.373C53.5339 41.3378 53.517 41.2806 53.4444 41.289C53.3786 41.2941 53.3128 41.373 53.2605 41.3865C53.2082 41.4234 53.2403 41.4621 53.274 41.447Z" fill="black"/>
</g>
</g>
</svg>
