<svg width="99" height="99" viewBox="0 0 99 99" fill="none" xmlns="http://www.w3.org/2000/svg">
<g id="chevrolet">
<path id="Path" fill-rule="evenodd" clip-rule="evenodd" d="M0 3C0 1.34314 1.34315 0 3 0H96C97.6569 0 99 1.34315 99 3V96C99 97.6569 97.6569 99 96 99H3C1.34314 99 0 97.6569 0 96V3Z" />
<g id="Group">
<path id="Shape" fill-rule="evenodd" clip-rule="evenodd" d="M41.2986 45.7078H31.1006C30.6495 45.7078 30.4863 45.3892 30.4863 45.1442C30.4863 45.0463 30.5144 44.9482 30.553 44.8748L33.7611 38.6237C33.912 38.3087 34.2068 38.0673 34.7123 38.0673L41.2986 38.0638C41.5706 38.0638 41.7198 37.9588 41.7198 37.6402V36.1562C41.7198 35.7363 41.9444 35.5 42.3726 35.5H53.8764C54.2958 35.5 54.531 35.7293 54.531 36.1562V37.6437C54.531 37.9973 54.6942 38.0673 54.9557 38.0673H65.0028C65.2555 38.0673 65.6188 38.2142 65.6188 38.6377C65.6188 38.7774 65.576 38.8567 65.5147 38.9701C65.5092 38.9804 65.5035 38.9909 65.4977 39.0017L62.33 45.1775C62.1071 45.5887 61.7877 45.7078 61.3507 45.7078H54.9557C54.6573 45.7078 54.531 45.8338 54.531 46.1365V47.6205C54.531 48.0755 54.2677 48.2715 53.8764 48.2715H48.1254H42.3726C41.9813 48.2715 41.7198 48.0667 41.7198 47.6205V46.1295C41.7198 45.853 41.611 45.7078 41.2986 45.7078ZM35.1615 40.2355L33.6312 43.221C33.6084 43.2648 33.5944 43.3208 33.5944 43.3767C33.5944 43.5763 33.747 43.7145 33.9769 43.7145H43.2817C43.566 43.7145 43.7117 43.8317 43.7117 44.1433V45.8617C43.7117 46.1908 43.8731 46.2817 44.1399 46.2817H48.1254H52.1091C52.4145 46.2817 52.5373 46.1487 52.5373 45.867L52.5391 44.1485C52.5391 43.858 52.6567 43.7145 52.9726 43.7145H60.5592C60.6786 43.7145 60.8453 43.711 60.9436 43.5448L62.4686 40.5557C62.4967 40.512 62.5108 40.456 62.5108 40.3965C62.5108 40.246 62.4125 40.0553 62.1229 40.0553H52.9726C52.6725 40.0553 52.5338 39.9222 52.5338 39.6318V37.9185C52.5338 37.614 52.3934 37.4845 52.1091 37.4845H44.1399C43.8486 37.4845 43.7152 37.6035 43.7152 37.9132V39.6213C43.7152 39.9503 43.5467 40.0553 43.2817 40.0553H35.5459C35.316 40.0553 35.2194 40.1217 35.1615 40.2355Z" fill="black"/>
<path id="Shape_2" fill-rule="evenodd" clip-rule="evenodd" d="M55.7942 37.0458H55.632V37.4129H55.5156V36.5776H55.8836C56.027 36.5776 56.1809 36.6271 56.1809 36.8004C56.1809 36.9674 56.0645 37.0314 55.9169 37.0355L56.1643 37.4129H56.0354L55.7942 37.0458ZM55.8566 36.6808H55.632V36.9489H55.8545C56.0208 36.9489 56.0582 36.8788 56.0582 36.8004C56.0582 36.6931 55.9439 36.6808 55.8566 36.6808Z" fill="black"/>
<path id="Shape_3" fill-rule="evenodd" clip-rule="evenodd" d="M56.3801 36.9358C56.3801 37.2858 56.0993 37.5588 55.75 37.5588C55.3938 37.5588 55.1147 37.2805 55.1147 36.9358C55.1147 36.584 55.399 36.311 55.75 36.311C56.0993 36.311 56.3801 36.584 56.3801 36.9358ZM56.2748 36.9305C56.2748 36.6435 56.0449 36.4055 55.75 36.4055C55.457 36.4055 55.2183 36.6435 55.2183 36.9305C55.2183 37.2263 55.4517 37.4625 55.75 37.4625C56.0449 37.4625 56.2748 37.2263 56.2748 36.9305Z" fill="black"/>
<path id="Path_2" d="M25.2396 59.4221H27.9457V63.4576H29.8323V54.4434H27.9457V58.0519H25.2396V54.4434H23.353V63.4576H25.2396V59.4221Z" fill="black"/>
<path id="Path_3" d="M75.5275 63.4573H77.4176V55.8203H79.9798V54.4448H72.9688V55.8203H75.5275V63.4573Z" fill="black"/>
<path id="Path_4" d="M63.0038 54.4438H61.1172V63.4563H66.5119V62.0808H63.002L63.0038 54.4438Z" fill="black"/>
<path id="Path_5" d="M40.0958 63.4621H41.8384C42.3509 63.4621 42.6773 63.1978 42.8072 62.6833L45.036 54.4478H43.3705L41.4137 61.9606C41.3857 62.0533 41.3155 62.0813 41.2172 62.0813C41.1189 62.0813 41.0487 62.0428 41.0171 61.9553L39.0287 54.4443H36.8315L39.1112 62.6658C39.22 63.2118 39.5868 63.4621 40.0958 63.4621Z" fill="black"/>
<path id="Path_6" d="M18.4092 63.462L22.6299 63.4568V62.0813H19.5763C19.0551 62.0813 18.8866 61.9518 18.8866 61.39V56.5058C18.8866 55.9615 19.0147 55.8198 19.5763 55.8198H22.6299V54.4478H18.4145C17.4493 54.4478 17 54.9413 17 55.846V62.0498C17 63.0543 17.5124 63.462 18.4092 63.462Z" fill="black"/>
<path id="Path_7" d="M33.5429 55.8198H36.6421V54.4478H32.3758C31.4018 54.4478 30.9648 54.9273 30.9648 55.8478V62.0515C30.9648 63 31.4299 63.462 32.3741 63.462H37.0317V62.0813H33.5411C33.0181 62.0813 32.8532 61.964 32.8532 61.3953V59.423H36.6V58.051H32.8549V56.5075C32.8549 55.9843 32.9672 55.8198 33.5429 55.8198Z" fill="black"/>
<path id="Path_8" d="M51.9513 58.2378V55.8473C51.9513 54.9075 51.5037 54.4473 50.5403 54.4473H45.2842V63.4615H47.169V55.8193H49.3715C49.9559 55.8193 50.0629 55.9838 50.0629 56.507L50.0647 57.6008C50.0647 58.131 49.919 58.292 49.375 58.292H48.3448C47.9429 58.292 47.7165 58.5388 47.7165 58.9255C47.7165 59.1215 47.8148 59.2633 47.8938 59.3998L50.2788 63.4563H52.6146L50.1191 59.6483H50.5403C51.4125 59.6483 51.9513 59.2545 51.9513 58.2378Z" fill="black"/>
<path id="Shape_4" fill-rule="evenodd" clip-rule="evenodd" d="M58.5629 63.4628H56.4938H54.4037C53.542 63.4628 52.9927 63.0708 52.9927 62.0505V55.8468C52.9927 54.9473 53.4104 54.4468 54.4037 54.4468H58.5629C59.5369 54.4468 59.9721 54.928 59.9721 55.8468L59.9756 62.0505C59.9756 63.0305 59.4667 63.4628 58.5629 63.4628ZM55.5672 55.8188C54.9424 55.8188 54.8793 56.0323 54.8793 56.5065V61.3943C54.8793 61.9333 55.0284 62.082 55.5672 62.082H56.4938H57.3976C57.9101 62.082 58.0891 61.9683 58.0891 61.3943L58.0873 56.5065C58.0873 55.9028 57.889 55.8188 57.3976 55.8188H55.5672Z" fill="black"/>
<path id="Path_9" d="M68.2909 63.4621L72.9485 63.4568V62.0813H69.4597C68.9332 62.0813 68.7665 61.9641 68.7665 61.3901V59.4213H72.5168V58.0511H68.77V56.5058C68.77 55.9843 68.884 55.8198 69.4597 55.8198H72.5554V54.4443L68.2944 54.4478C67.3169 54.4478 66.8834 54.9273 66.8834 55.8461L66.8799 62.0498C66.8799 62.9983 67.3449 63.4621 68.2909 63.4621Z" fill="black"/>
<path id="Shape_5" fill-rule="evenodd" clip-rule="evenodd" d="M81.2122 55.2121H81.0459V55.5772H80.9253V54.748H81.2912C81.443 54.748 81.5906 54.7934 81.5906 54.9646C81.5906 55.1379 81.4783 55.1977 81.3286 55.2018L81.576 55.5772H81.4492L81.2122 55.2121ZM81.2683 54.847H81.0459V55.1131H81.2662C81.4346 55.1131 81.4741 55.0554 81.4741 54.9646C81.4741 54.8574 81.3577 54.847 81.2683 54.847Z" fill="black"/>
<path id="Shape_6" fill-rule="evenodd" clip-rule="evenodd" d="M81.7919 55.1006C81.7919 55.4506 81.5146 55.7236 81.1619 55.7236C80.8091 55.7236 80.5283 55.4471 80.5283 55.1006C80.5283 54.7524 80.8126 54.4741 81.1619 54.4741C81.5146 54.4741 81.7919 54.7524 81.7919 55.1006ZM81.6919 55.0936C81.6919 54.8084 81.4567 54.5669 81.1619 54.5669C80.8688 54.5669 80.6301 54.8084 80.6301 55.0936C80.6301 55.3911 80.8653 55.6274 81.1619 55.6274C81.4567 55.6274 81.6919 55.3911 81.6919 55.0936Z" fill="black"/>
</g>
</g>
</svg>
