<svg width="99" height="99" viewBox="0 0 99 99" fill="none" xmlns="http://www.w3.org/2000/svg">
<g id="chrysler">
<path id="Path" fill-rule="evenodd" clip-rule="evenodd" d="M0 3C0 1.34314 1.34315 0 3 0H96C97.6569 0 99 1.34315 99 3V96C99 97.6569 97.6569 99 96 99H3C1.34314 99 0 97.6569 0 96V3Z" />
<g id="Group">
<path id="Shape" fill-rule="evenodd" clip-rule="evenodd" d="M58.5763 51.2188C58.7998 51.2188 58.8188 51.243 58.6898 51.4849C58.5473 51.7556 57.6994 52.6391 55.8829 53.1221C55.1182 53.3273 52.498 53.3605 49.8436 53.3646V53.3653H48.0863C45.4332 53.3605 42.8117 53.3273 42.0486 53.1221C40.2305 52.6391 39.3815 51.7556 39.2403 51.4849C39.1122 51.243 39.1306 51.2188 39.3543 51.2188H58.5763ZM46.6147 51.7987H45.6206V52.796H46.0819V51.9818L46.1995 51.9748C46.5464 51.9613 46.83 52.0159 46.83 52.1066C46.83 52.187 46.7543 52.2758 46.3126 52.2525C46.418 52.3597 46.8672 52.796 46.8672 52.796H47.3572L47.3421 52.7839C47.2643 52.7216 46.9082 52.4369 46.798 52.3514C47.0918 52.3219 47.274 52.2092 47.274 52.0807C47.274 51.9422 47.1201 51.7987 46.6147 51.7987ZM54.5179 51.7987H55.5119C56.0178 51.7987 56.1698 51.9422 56.1698 52.0807C56.1698 52.2092 55.9887 52.3219 55.6948 52.3514C55.8048 52.4369 56.1608 52.7216 56.2386 52.7839L56.2537 52.796H55.7641C55.7641 52.796 55.3152 52.3597 55.2091 52.2525C55.6513 52.2758 55.7263 52.187 55.7263 52.1066C55.7263 52.0159 55.4432 51.9613 55.096 51.9748L54.9782 51.9818V52.796H54.5179V51.7987ZM47.8644 51.796H47.3565L47.9772 52.3634L47.9782 52.7926H48.4138V52.3551L48.9883 51.796H48.6932L48.2871 52.1563L47.8644 51.796ZM50.9197 51.796H51.3562V52.6113H52.3491V52.7926H50.9197V51.796ZM54.1489 51.796H52.7088V52.7926H54.1684V52.6113H53.1365V52.3874H54.1294V52.2027H53.1365V51.9781H54.1489V51.796ZM43.4664 51.796H43.9029V52.2027H44.8177V51.796H45.2553V52.7926H44.8177V52.3874H43.9029V52.7926H43.4664V51.796ZM49.7763 51.7528C49.5121 51.7528 49.1068 51.7882 49.1068 52.003C49.1068 52.1577 49.2358 52.2304 49.5479 52.2751L49.5762 52.2788C49.6366 52.2867 49.724 52.2982 49.874 52.3162C50.0331 52.3332 50.1317 52.3509 50.1317 52.4005C50.1317 52.429 50.1099 52.501 49.7568 52.501C49.4452 52.501 49.1902 52.4478 49.1361 52.4352L49.0934 52.6137L49.121 52.6176C49.2122 52.6301 49.4842 52.6649 49.7745 52.6649C50.197 52.6649 50.6013 52.5922 50.6013 52.382C50.6013 52.2335 50.4594 52.1546 50.1655 52.1161L50.0894 52.107C49.9823 52.0942 49.8769 52.0815 49.7972 52.0734C49.6564 52.0588 49.5687 52.0418 49.5687 51.9886C49.5687 51.9445 49.6281 51.9157 49.9062 51.9157C50.1686 51.9157 50.3966 51.956 50.4467 51.966L50.4816 51.8044L50.4433 51.7993C50.3289 51.7847 50.0472 51.7528 49.7763 51.7528ZM41.3886 52.1988C41.3886 51.8941 41.8845 51.7425 42.4359 51.7425C42.6915 51.7425 42.9277 51.7665 43.0329 51.7782L43.0741 51.7829L43.1176 51.956C43.1024 51.9553 43.0744 51.9527 43.0369 51.9493C42.9216 51.9389 42.7163 51.9203 42.5177 51.9203C42.2272 51.9203 41.8226 52.0025 41.8226 52.1988C41.8226 52.3951 42.2272 52.4763 42.5177 52.4763C42.7225 52.4763 42.9344 52.4575 43.0474 52.4474C43.0589 52.4464 43.0694 52.4455 43.0787 52.4447L43.1176 52.4416L43.0741 52.6132C43.0706 52.6136 43.0665 52.6141 43.062 52.6146C42.9778 52.6239 42.7188 52.6525 42.4359 52.6525C41.8845 52.6525 41.3886 52.502 41.3886 52.1988Z" fill="black"/>
<path id="Shape_2" fill-rule="evenodd" clip-rule="evenodd" d="M82.0186 49.4953C85.2927 49.5258 87.6199 49.5474 87.7738 49.5485C88.6051 49.5537 88.9493 49.8418 88.3002 50.4295C87.7098 50.9622 85.5713 52.018 84.2742 52.3363C82.1272 52.8614 69.0206 54.482 66.6072 54.7508C66.2493 54.7909 65.8823 54.8321 65.5089 54.874C60.3369 55.4539 53.9313 56.1721 53.5871 56.1497C53.1287 56.12 52.6858 56.0383 52.1902 55.9469C51.3384 55.7898 50.3308 55.6039 48.8202 55.6039C47.312 55.6039 46.305 55.7904 45.4537 55.948C44.9563 56.04 44.5121 56.1223 44.0522 56.1517C43.707 56.1749 37.263 55.4523 32.0833 54.8715C31.7259 54.8314 31.3744 54.792 31.0314 54.7536C28.618 54.4843 15.5107 52.8642 13.3648 52.3404C12.0673 52.0205 9.92876 50.9649 9.33926 50.4332C8.68903 49.8453 9.0333 49.5574 9.86462 49.551C10.0184 49.55 12.3457 49.5283 15.6198 49.4978C23.8647 49.4211 38.1142 49.2885 38.7832 49.2885C38.8414 49.2885 38.8974 49.2884 38.9516 49.2883C39.7707 49.2869 40.1825 49.2862 41.3467 49.6378C41.4408 49.6661 41.5437 49.698 41.6537 49.7322C42.355 49.9499 43.3456 50.2574 44.1929 50.2891C45.1264 50.3248 48.8191 50.3132 48.8191 50.3132C48.8191 50.3132 52.5117 50.3221 53.4453 50.2864C54.2957 50.2534 55.289 49.9447 55.9902 49.7269C56.0983 49.6933 56.1995 49.6618 56.2921 49.6339C57.456 49.2836 57.8685 49.2844 58.6868 49.2858C58.7412 49.2859 58.7973 49.286 58.8556 49.286C59.5246 49.286 73.7738 49.4186 82.0186 49.4953ZM63.5112 51.4672C62.5809 51.4915 61.3251 51.499 61.0159 51.4901C60.9856 51.368 59.1432 51.2489 59.1432 51.2489C59.1432 51.2489 63.4999 51.2441 63.8734 51.2441H63.9038C64.739 50.8541 65.7677 50.8106 66.4041 50.8017C66.5785 50.7994 70.005 50.728 73.8638 50.6475C78.3936 50.553 83.5191 50.4461 84.6792 50.4242C85.3745 50.3835 86.9941 50.2765 88.0398 50.0072L88.3381 49.9348C88.3494 49.8714 88.1375 49.8444 87.7719 49.8418L82.5166 49.7933C74.4861 49.7182 59.5371 49.5792 58.8556 49.5792H58.6922L58.6885 49.5792C57.8722 49.5778 57.4995 49.5772 56.3759 49.917L56.077 50.0086C55.3459 50.2358 54.3448 50.5468 53.4566 50.5811C52.5276 50.6157 48.9687 50.6079 48.8191 50.6068C48.6699 50.6079 45.1112 50.6178 44.1829 50.5839C43.2993 50.5504 42.3063 50.2422 41.5771 50.0159L41.5625 50.0113L41.2636 49.9197C40.14 49.5797 39.7659 49.5803 38.951 49.5817L38.9473 49.5817H38.7832C38.134 49.5817 24.5013 49.7092 16.2745 49.7862L15.1215 49.797L9.86711 49.8444C9.5072 49.8467 9.29847 49.8734 9.30161 49.9348C9.36003 49.9481 9.42554 49.9643 9.49778 49.9821C9.53038 49.9902 9.56436 49.9986 9.59967 50.0072C10.6454 50.2765 12.2656 50.3835 12.9598 50.4242C14.1195 50.4461 19.2391 50.5529 23.7668 50.6473C27.6292 50.7279 31.0609 50.7994 31.2359 50.8017C31.8752 50.8106 32.9119 50.8552 33.7493 51.2503C33.8048 51.2466 33.8635 51.2441 33.9247 51.2441C34.298 51.2441 38.6547 51.2489 38.6547 51.2489C38.6547 51.2489 36.8108 51.368 36.7824 51.4901C36.4545 51.499 35.0616 51.4901 34.1215 51.4619L34.2008 51.5155C34.5784 51.791 35.0092 52.0523 35.3784 52.2612C35.4527 52.2564 35.5405 52.2523 35.6458 52.2523C36.0141 52.2509 39.756 52.2612 39.756 52.2612C39.756 52.2612 38.1026 52.3631 38.0718 52.4879C37.9161 52.4873 37.3634 52.4723 36.7595 52.4559C36.3894 52.4459 36 52.4353 35.671 52.4272L36.0912 52.6588C35.3306 52.2495 36.416 52.8566 36.192 52.7174L36.0912 52.6588L36.2009 52.7174C36.7963 53.0403 38.6486 53.7619 41.2105 54.1636C42.0325 54.292 42.2699 54.3338 42.5089 54.3629C42.673 54.3828 42.8377 54.3967 43.1925 54.4284C43.1925 54.4284 43.9955 54.4987 43.8604 54.4973C43.8518 54.4972 43.8312 54.4975 43.7997 54.4978C43.3353 54.5031 40.4875 54.5354 38.2572 53.9694C35.9611 53.3857 34.4018 52.4893 33.8597 52.171C33.1186 51.7326 32.3698 51.4825 31.1545 51.3985C30.5956 51.3591 13.0655 50.566 13.0292 50.5646C11.1517 50.4639 9.82337 50.1769 9.58902 50.0954C9.48749 50.061 9.40386 50.0319 9.33269 50.0063C9.36623 50.0546 9.42561 50.1146 9.53259 50.2117C10.0883 50.7135 12.1997 51.75 13.4335 52.0537C15.5698 52.5761 28.7279 54.2003 31.0641 54.4616L32.3711 54.6082L32.4445 54.6164C35.9374 55.0079 40.3483 55.5023 42.5933 55.7313C43.3575 55.8086 43.6332 55.7273 43.8361 55.6675C43.8482 55.6639 43.8601 55.6604 43.8717 55.6571C43.918 55.6443 43.9958 55.6217 44.0929 55.5934C44.4323 55.4946 45.0079 55.327 45.2987 55.2725L45.3627 55.2606C46.1905 55.1056 47.3239 54.8935 48.8202 54.8935C50.3191 54.8935 51.4514 55.1035 52.2796 55.2571L52.3408 55.2684C52.6274 55.3233 53.1925 55.4879 53.5338 55.5873C53.637 55.6174 53.7198 55.6415 53.7682 55.6548C53.7809 55.6584 53.7937 55.6621 53.8069 55.6659C54.0086 55.7246 54.2852 55.8051 55.0456 55.7287C57.307 55.4965 61.7641 54.9982 65.2675 54.6054L66.575 54.4593C68.9121 54.1975 82.0692 52.5733 84.2064 52.0496C85.4387 51.7473 87.5489 50.7121 88.1058 50.2099C88.2091 50.1146 88.2685 50.056 88.3021 50.0072C88.2318 50.0328 88.1498 50.0624 88.0503 50.0954C87.8164 50.1769 86.4887 50.4639 84.6115 50.5646C84.5745 50.566 67.045 51.3591 66.4848 51.3985C65.2695 51.4825 64.5207 51.7326 63.78 52.171C63.2377 52.4893 61.6795 53.3857 59.3834 53.9694C57.1531 54.5354 54.3047 54.5031 53.8402 54.4978C53.8087 54.4975 53.7882 54.4972 53.7795 54.4973C53.6449 54.4987 54.447 54.4284 54.447 54.4284C54.8016 54.3967 54.9665 54.3828 55.1307 54.3629C55.3701 54.3339 55.608 54.292 56.4301 54.1636C58.9925 53.7619 60.8437 53.0403 61.4398 52.7174L61.5485 52.6588L61.4486 52.7174C61.2242 52.8566 62.3092 52.2495 61.5485 52.6588L61.9615 52.4307C61.743 52.4365 61.5056 52.4431 61.2694 52.4496C60.5808 52.4685 59.9016 52.4872 59.7255 52.4879C59.6951 52.3631 58.0417 52.2612 58.0417 52.2612C58.0417 52.2612 61.7842 52.2509 62.1507 52.2523L62.2738 52.255C62.6396 52.0461 63.0659 51.7885 63.4394 51.5155L63.5112 51.4672Z" fill="black"/>
<path id="Shape_3" fill-rule="evenodd" clip-rule="evenodd" d="M46.1877 44.2026C46.2154 44.1822 48.0661 42.8564 48.0661 42.8564H49.4359C49.4359 42.8564 46.7945 44.9284 46.7775 44.9414L46.7781 46.5853H44.757L44.7558 44.9749C44.7368 44.9611 41.8832 42.8564 41.8832 42.8564H44.2321C44.2321 42.8564 46.1605 44.1822 46.1877 44.2026ZM64.9916 46.5865H58.3749V42.8743L60.3972 42.8748V45.9083H64.9916V46.5865ZM66.6597 46.586H73.4122V45.9065H68.6378V45.0708H73.2332V44.3762H68.6378V43.5433H73.325V42.861H66.6597V46.586ZM23.8721 46.5794V42.8853H25.898V44.3863H30.1332V42.886H32.1546V46.5794H30.1332V45.0768H25.898V46.5794H23.8721ZM33.8476 46.5608H35.981C35.981 46.5608 35.979 43.6058 35.981 43.5318C37.8234 43.4178 39.4422 43.6227 39.4422 44.0013C39.4422 44.2967 39.0928 44.6279 37.0489 44.5384C37.5378 44.9362 39.6143 46.5608 39.6143 46.5608H41.8845C41.8845 46.5608 39.8697 45.2563 39.2945 44.9046C40.6575 44.7985 41.4965 44.3748 41.4965 43.9053C41.4965 43.393 40.7917 42.8597 38.448 42.8597H33.8476V46.5608ZM77.1647 46.5803H75.0318V42.8603H79.6333C81.9754 42.8603 82.6802 43.3967 82.6802 43.9111C82.6802 44.3838 81.8412 44.8086 80.4789 44.9151C81.0532 45.2705 83.0691 46.5803 83.0691 46.5803H80.7993C80.7993 46.5803 78.7201 44.9471 78.2324 44.548C80.2767 44.6375 80.6262 44.305 80.6262 44.0084C80.6262 43.6273 79.0075 43.4217 77.1647 43.5364C77.1633 43.6104 77.1647 46.5803 77.1647 46.5803Z" fill="black"/>
<path id="Path_2" d="M49.9834 43.9078C49.9834 44.537 50.5788 44.826 52.0234 45.0078C52.3072 45.0442 52.726 45.0958 53.5392 45.1807C54.2696 45.2533 54.7281 45.3207 54.7281 45.5256C54.7281 45.6452 54.6248 45.9328 52.9898 45.9328C51.5497 45.9328 50.3721 45.7185 50.1196 45.6672C50.1223 45.6672 49.9204 46.3938 49.9204 46.3934C50.114 46.4177 51.5352 46.6043 53.0755 46.6043C55.0291 46.6043 56.9007 46.3052 56.9007 45.4462C56.9007 44.8427 56.2459 44.5225 54.8834 44.3675C54.2739 44.3004 53.6357 44.2292 53.179 44.1911C52.5286 44.1332 52.1206 44.0636 52.1206 43.8485C52.1206 43.6676 52.3999 43.5531 53.6835 43.5531C54.8992 43.5531 55.952 43.7141 56.1904 43.7521L56.3479 43.0951C56.015 43.0559 54.5176 42.8857 53.0832 42.8857C51.8582 42.8857 49.9834 43.0314 49.9834 43.9078Z" fill="black"/>
<path id="Path_3" d="M14.2578 44.7283C14.2578 45.9815 16.5523 46.6019 19.105 46.6019C20.4841 46.6019 21.7415 46.4725 22.0606 46.442L22.258 45.7291C21.9745 45.7474 20.7001 45.875 19.4794 45.875C18.1386 45.875 16.2652 45.5349 16.2652 44.7283C16.2652 43.9219 18.1386 43.5814 19.4794 43.5814C20.7001 43.5814 21.9745 43.7096 22.258 43.7289L22.0606 43.0143C21.7415 42.9841 20.4841 42.854 19.105 42.854C16.5523 42.854 14.2578 43.4758 14.2578 44.7283Z" fill="black"/>
<path id="Shape_4" fill-rule="evenodd" clip-rule="evenodd" d="M39.0748 51.7796C39.0748 51.7796 36.9428 51.6479 36.7826 51.4901C36.4546 51.4986 35.0619 51.4901 34.1216 51.4619L34.2009 51.5155C34.2784 51.5714 34.3589 51.6266 34.4396 51.6811C34.53 51.69 34.6211 51.6976 34.7086 51.7042C35.3606 51.7514 39.0748 51.7796 39.0748 51.7796ZM63.1803 51.6967L63.09 51.7042C62.4385 51.7514 58.7238 51.7796 58.7238 51.7796C58.7238 51.7796 60.8552 51.6479 61.0165 51.4901C61.3257 51.499 62.5817 51.4915 63.5121 51.4672L63.4402 51.5155C63.3575 51.5756 63.2715 51.6343 63.1859 51.6928L63.1858 51.6929L63.1803 51.6967ZM61.5956 52.632C61.2162 52.6615 60.8302 52.678 60.5823 52.6844C59.891 52.7009 57.393 52.7341 57.393 52.7341C57.393 52.7341 59.7077 52.5568 59.7258 52.4879C59.9098 52.4865 60.646 52.4666 61.3671 52.446L61.431 52.4444C61.6143 52.44 61.7932 52.4356 61.9612 52.4307C61.8161 52.5113 61.6912 52.5802 61.5956 52.632ZM38.0719 52.4884C38.0907 52.5568 40.4047 52.7346 40.4047 52.7346C40.4047 52.7346 37.9067 52.7009 37.2152 52.6849C36.9269 52.678 36.4533 52.6553 36.0181 52.6173L35.6725 52.4272C35.7453 52.4291 35.8214 52.431 35.9 52.433C36.0774 52.4374 36.2669 52.4421 36.4571 52.4478C36.6244 52.4522 36.7922 52.4567 36.9533 52.4611C37.4784 52.4751 37.9328 52.4873 38.0719 52.4884Z" fill="black"/>
</g>
</g>
</svg>
