<svg width="99" height="99" viewBox="0 0 99 99" fill="none" xmlns="http://www.w3.org/2000/svg">
<g id="daewoo">
<path id="Path" fill-rule="evenodd" clip-rule="evenodd" d="M0 3C0 1.34314 1.34315 0 3 0H96C97.6569 0 99 1.34315 99 3V96C99 97.6569 97.6569 99 96 99H3C1.34314 99 0 97.6569 0 96V3Z" />
<g id="Group">
<path id="Path_2" d="M55.0869 67.646C54.4972 67.646 53.9512 67.9065 53.9512 68.8833C53.9512 69.853 54.4972 70.1206 55.0869 70.1206C56.1737 70.1206 56.2244 69.2001 56.2244 68.8833C56.2244 68.5577 56.1789 67.646 55.0869 67.646Z" fill="black"/>
<path id="Path_3" d="M46.3571 67.646C45.7674 67.646 45.2231 67.9065 45.2231 68.8833C45.2231 69.853 45.7674 70.1206 46.3571 70.1206C47.4439 70.1206 47.4946 69.2001 47.4946 68.8833C47.4946 68.5577 47.4509 67.646 46.3571 67.646Z" fill="black"/>
<path id="Path_4" d="M60.1614 67.7542H59.2217V68.694H60.1999C60.8037 68.694 60.8877 68.4054 60.8877 68.2294C60.8877 67.8633 60.6217 67.7542 60.1614 67.7542Z" fill="black"/>
<path id="Shape" fill-rule="evenodd" clip-rule="evenodd" d="M69.7876 71.4967H29.7983V66.3804H69.7876V71.4967ZM44.0661 68.8831C44.0661 69.749 44.5701 70.8437 46.3568 70.8437C47.9161 70.8437 48.6476 69.9989 48.6476 68.8831C48.6476 67.762 47.9161 66.9313 46.3568 66.9313C44.5701 66.9313 44.0661 68.0225 44.0661 68.8831ZM52.7933 68.8831C52.7933 69.749 53.2973 70.8437 55.0876 70.8437C56.6468 70.8437 57.3783 69.9989 57.3783 68.8831C57.3783 67.762 56.6468 66.9313 55.0876 66.9313C53.2973 66.9313 52.7933 68.0225 52.7933 68.8831ZM60.8064 70.2113C60.8174 70.4591 60.8227 70.5769 60.9588 70.7346H62.0456C61.8869 70.551 61.8829 70.3991 61.8715 69.9575L61.8706 69.9233C61.8636 69.654 61.8496 69.1717 61.2231 69.0186V69.0116C61.5223 68.9253 62.0141 68.7159 62.0141 68.0911C62.0141 67.1284 60.9326 67.0316 60.4741 67.0316H58.1518V70.7346H59.2211V69.3741H60.0471L60.0656 69.374C60.2178 69.3729 60.735 69.3689 60.7768 69.7948C60.7955 69.9683 60.8015 70.1023 60.8064 70.2112V70.2113ZM51.4651 70.7346H50.3976V67.7549H49.0238V67.0316H52.8318V67.7549H51.4651V70.7346ZM43.2803 70.7346H42.2128V68.0946H42.1918L41.0596 70.7346H40.3368L39.1993 68.0946H39.1818V70.7346H38.1126V67.0316H39.6141L40.6956 69.5801L41.7788 67.0316H43.2803V70.7346Z" fill="black"/>
<path id="Path_5" d="M38.7128 65.0388L42.9408 65.0512L40.5766 59.875H37.8641L35.3721 65.0512H37.3408L39.1101 61.1827L40.4558 63.696H38.0443L38.7128 65.0388Z" fill="black"/>
<path id="Path_6" d="M49.3194 59.8999H42.9512V65.0268H48.0472V63.8247H44.7782V63.0538H47.6044V61.9116H44.7782V61.1636H48.0419L49.6484 65.0021H51.1849L52.1562 62.9553L53.2604 65.0021H54.7269L56.8269 59.8999H55.1084L53.7732 63.1524L52.8387 61.2797L53.5439 59.8999H50.9067L51.5209 61.2956L50.5829 63.1242L49.3194 59.8999Z" fill="black"/>
<path id="Shape_2" fill-rule="evenodd" clip-rule="evenodd" d="M34.5531 60.0275C35.0203 60.207 35.3721 60.4164 35.6153 60.691C35.8568 60.9638 36.0231 61.2507 36.1158 61.5428C36.2033 61.8526 36.2523 62.15 36.2523 62.451C36.2523 63.0529 36.1176 63.551 35.8428 63.9312C35.5698 64.3148 35.2408 64.5912 34.8558 64.7548C34.4726 64.9203 34.0946 65.0294 33.7236 65.0787C33.3788 65.1121 33.0306 65.1368 32.6893 65.1368L29.7686 65.1403V59.7617H32.8293C33.5136 59.7617 34.0893 59.8532 34.5531 60.0275ZM34.1243 63.2747C34.2031 63.1796 34.2608 63.0617 34.2976 62.928C34.3326 62.7907 34.3501 62.6428 34.3501 62.4598C34.3501 61.5358 33.7936 61.0764 32.6806 61.0764H31.7023V63.8256H32.5861C32.9606 63.8256 33.2808 63.7851 33.5363 63.6953C33.7936 63.6144 33.9896 63.4736 34.1243 63.2747Z" fill="black"/>
<path id="Shape_3" fill-rule="evenodd" clip-rule="evenodd" d="M66.3404 59.52C68.2304 59.52 69.7704 60.833 69.7704 62.4504C69.7704 64.0626 68.2304 65.3826 66.3404 65.3826C64.4521 65.3826 62.9121 64.0626 62.9121 62.4504C62.9121 60.833 64.4521 59.52 66.3404 59.52ZM66.3841 60.6975C65.5564 60.6975 64.8826 61.4842 64.8826 62.4504C64.8826 63.4096 65.5564 64.1963 66.3841 64.1963C67.2154 64.1963 67.8891 63.4096 67.8891 62.4504C67.8891 61.4842 67.2154 60.6975 66.3841 60.6975Z" fill="black"/>
<path id="Shape_4" fill-rule="evenodd" clip-rule="evenodd" d="M62.8443 62.4499C62.8443 64.0621 61.306 65.3821 59.416 65.3821C57.5278 65.3821 55.9878 64.0621 55.9878 62.4499C55.9878 60.8325 57.526 59.5195 59.416 59.5195C61.306 59.5195 62.8443 60.8325 62.8443 62.4499ZM60.9648 62.4499C60.9648 61.4837 60.2893 60.697 59.4615 60.697C58.6303 60.697 57.9583 61.4837 57.9583 62.4499C57.9583 63.4091 58.6303 64.1959 59.4615 64.1959C60.2893 64.1959 60.9648 63.4091 60.9648 62.4499Z" fill="black"/>
<path id="Path_7" d="M58.185 42.7998C56.3947 45.3131 55.532 48.3649 55.931 52.0416C64.5917 50.5068 70.939 45.695 70.939 40.0278C70.939 38.5512 70.505 37.1308 69.7105 35.8179C65.381 36.5905 60.8712 39.0246 58.185 42.7998Z" fill="black"/>
<path id="Path_8" d="M48.578 52.5332C48.354 41.3185 46.9523 35.4859 43.258 28.1572C41.7355 28.4705 40.2918 28.8771 38.9478 29.3751C44.5793 35.7833 47.1885 42.2003 47.3355 52.4611C47.7433 52.4963 48.158 52.5156 48.578 52.5332Z" fill="black"/>
<path id="Path_9" d="M43.7209 44.1815C44.6502 46.4783 45.0614 49.4139 45.0107 52.2123C45.4604 52.2687 45.9154 52.3267 46.3774 52.3778C46.4737 41.369 40.6462 33.7429 35.6394 30.897C34.3917 31.5939 33.2874 32.3807 32.3564 33.2413C38.4727 35.8443 41.9342 39.7762 43.7209 44.1815Z" fill="black"/>
<path id="Path_10" d="M43.8698 52.0209C44.2618 48.3495 43.3973 45.3047 41.6123 42.8003C38.9505 39.0655 34.502 36.6367 30.211 35.8359C29.427 37.1401 29 38.5639 29 40.0283C29 45.662 35.279 50.451 43.8698 52.0209Z" fill="black"/>
<path id="Path_11" d="M49.9689 52.5606C50.1019 52.5606 50.2297 52.5606 50.3592 52.5554C50.3662 44.6882 50.7179 36.5323 52.6937 27.5968C51.8012 27.5334 50.8912 27.5 49.9689 27.5C49.0257 27.5 48.0982 27.5334 47.1899 27.6126C49.1622 36.5323 49.5139 44.6952 49.5174 52.5554C49.6697 52.5606 49.8184 52.5606 49.9689 52.5606Z" fill="black"/>
<path id="Path_12" d="M52.4619 52.4681C52.6089 42.1844 55.2287 35.764 60.8812 29.3347C59.5564 28.8507 58.1284 28.4512 56.6269 28.1484C52.9274 35.4841 51.5257 41.315 51.3052 52.5385C51.6954 52.5192 52.0787 52.4998 52.4619 52.4681Z" fill="black"/>
<path id="Path_13" d="M53.4188 52.3921C53.8808 52.3463 54.3358 52.2953 54.7856 52.2355C54.7331 49.43 55.1426 46.482 56.0771 44.1817C57.8673 39.7518 61.3621 35.8023 67.5361 33.2011C66.5963 32.3387 65.4833 31.5519 64.2303 30.855C59.2043 33.6727 53.3156 41.3287 53.4188 52.3921Z" fill="black"/>
</g>
</g>
</svg>
