<svg width="99" height="99" viewBox="0 0 99 99" fill="none" xmlns="http://www.w3.org/2000/svg">
<g id="dodge">
<path id="Path" fill-rule="evenodd" clip-rule="evenodd" d="M0 3C0 1.34314 1.34315 0 3 0H96C97.6569 0 99 1.34315 99 3V96C99 97.6569 97.6569 99 96 99H3C1.34314 99 0 97.6569 0 96V3Z" />
<g id="Group">
<path id="Path_2" d="M39.5694 34.7839C45.3815 34.7839 48.4632 42.1006 48.4632 42.1006L49.1403 39.9082C49.1403 39.9082 46.5253 33.563 40.4003 33.563C35.0548 33.563 33.3877 37.9937 33.3877 37.9937C33.3877 37.9937 35.3604 34.7839 39.5694 34.7839Z" fill="black"/>
<path id="Path_3" d="M37.929 54.4228C33.9853 54.4228 32.4829 44.813 32.4829 44.813H31.5057C31.5057 45.4341 31.1836 56.6576 37.5099 56.6576C39.5815 56.6576 40.4233 55.2916 40.4233 54.1397C40.4233 52.3172 39.5138 51.0361 39.5138 51.0361C39.5138 51.0361 40.5477 54.4228 37.929 54.4228Z" fill="black"/>
<path id="Path_4" d="M59.3725 34.7839C63.5834 34.7839 65.5543 37.9937 65.5543 37.9937C65.5543 37.9937 63.889 33.563 58.549 33.563C52.4204 33.563 49.8071 39.9082 49.8071 39.9082L50.4824 42.1006C50.4824 42.1006 53.5641 34.7839 59.3725 34.7839Z" fill="black"/>
<path id="Path_5" d="M66.4638 44.8135C66.4638 44.8135 64.965 54.4233 61.0141 54.4233C58.3953 54.4233 59.4293 51.0366 59.4293 51.0366C59.4293 51.0366 58.5234 52.3177 58.5234 54.1402C58.5234 55.2904 59.3616 56.6581 61.4331 56.6581C67.7631 56.6581 67.4355 45.4346 67.4355 44.8135H66.4638Z" fill="black"/>
<path id="Shape" fill-rule="evenodd" clip-rule="evenodd" d="M60.2068 43.1461C59.1417 43.1461 58.6384 44.5564 58.6384 44.5564C58.6384 44.5564 59.9707 47.9643 57.4233 49.0525L55.6025 49.8276C55.1047 51.8571 54.5374 54.1592 54.4313 54.5502C54.2593 55.1854 53.6755 56.0702 53.6755 56.0702L52.4457 58.0944L51.8784 60.814C51.732 61.5147 51.5692 62.2225 49.7703 62.2225H49.1773C47.3766 62.2225 47.2211 61.5147 47.0728 60.814L46.5019 58.0944L45.274 56.0702C45.274 56.0702 44.6865 55.1854 44.5145 54.5502C44.443 54.2822 44.155 53.1169 43.8188 51.7567C43.6644 51.1321 43.4999 50.4663 43.3415 49.8276L41.5243 49.0525C38.9769 47.9643 40.3092 44.5564 40.3092 44.5564C40.3092 44.5564 39.7986 43.1461 38.7445 43.1461C36.8944 43.1461 37.1359 46.2303 37.9448 48.8048C38.7793 51.436 38.1187 51.8306 37.6227 51.8306C37.1323 51.8306 36.0123 51.3316 34.7935 49.1623C33.5693 46.9947 33.1063 44.3034 33.1063 44.3034H32.1968C32.1968 38.9101 35.4871 37.9546 37.3171 37.9546C43.12 37.9546 45.274 45.7844 45.274 45.7844L44.1156 46.5736L44.6664 49.256L46.8423 50.1107L47.243 52.7489L46.1615 51.4908L45.0397 51.052L45.3947 52.7454L47.3583 53.5328L48.0446 58.0856L47.5688 59.5365L49.4738 60.2637L51.3788 59.5365L50.903 58.0856L51.582 53.5328L53.551 52.7454L53.9042 51.052L52.777 51.4908L51.7027 52.7489L52.0962 50.1107L54.2757 49.256L54.832 46.5736L53.6755 45.7844C53.6755 45.7844 55.8294 37.9546 61.6232 37.9546C63.4532 37.9546 66.7435 38.9101 66.7435 44.3034H65.8358C65.8358 44.3034 65.3765 46.9947 64.1522 49.1623C62.9298 51.3316 61.8153 51.8306 61.3194 51.8306C60.8216 51.8306 60.1628 51.436 60.9955 48.8048C61.8062 46.2303 62.0477 43.1461 60.2068 43.1461ZM42.5491 48.4297C41.7805 48.1324 41.0412 47.6175 41.0412 46.3258C41.0412 45.5968 41.1418 44.9775 41.2278 44.5741L42.5491 46.5665L43.0468 48.6243L42.5491 48.4297ZM56.3949 48.4297L55.8934 48.6243L56.4004 46.5665L57.7161 44.5741C57.8058 44.9757 57.9028 45.5968 57.9028 46.3258C57.9028 47.6175 57.1653 48.1324 56.3949 48.4297Z" fill="black"/>
<path id="Shape_2" fill-rule="evenodd" clip-rule="evenodd" d="M49.4742 26.0122C57.3194 26.0122 66.1382 26.6191 67.5016 26.7164C69.2272 26.8385 71.9411 27.8843 71.9411 31.9398C71.9411 35.3602 71.5404 47.8472 71.189 53.1643C70.8194 58.7133 68.9893 61.5763 65.7027 63.7315C64.1893 64.7223 59.8393 67.0244 55.8573 69.0716C53.266 70.4076 50.8412 71.6338 49.4742 72.3221L49.3756 72.2723C47.9957 71.5757 45.6193 70.3759 43.0912 69.0716C39.1091 67.0244 34.7519 64.7223 33.2458 63.7315C29.9609 61.5763 28.1255 58.7133 27.7576 53.1643C27.4044 47.8472 27 35.3637 27 31.9398C27 27.8843 29.7212 26.8385 31.4451 26.7164C32.8084 26.6191 41.629 26.0122 49.4742 26.0122ZM64.579 62.146C67.2746 60.3748 68.8594 58.1011 69.198 53.044C69.5457 47.7551 69.9519 35.346 69.9447 31.9398C69.9447 29.1618 68.3397 28.7071 67.3533 28.6345C66.0028 28.539 57.2517 27.9338 49.4742 27.9338C41.6949 27.9338 32.9402 28.539 31.5915 28.6345C30.6014 28.7071 28.9965 29.1618 28.9965 31.9398C28.9965 35.346 29.3973 47.7551 29.7487 53.044C30.0817 58.1011 31.6683 60.3766 34.3657 62.146C36.6038 63.6111 45.4208 68.1073 49.4742 70.1528C53.5277 68.1073 62.3391 63.6111 64.579 62.146Z" fill="black"/>
</g>
</g>
</svg>
