<svg width="99" height="99" viewBox="0 0 99 99" fill="none" xmlns="http://www.w3.org/2000/svg">
<g id="ford">
<path id="Path" fill-rule="evenodd" clip-rule="evenodd" d="M0 3C0 1.34314 1.34315 0 3 0H96C97.6569 0 99 1.34315 99 3V96C99 97.6569 97.6569 99 96 99H3C1.34314 99 0 97.6569 0 96V3Z" />
<path id="Shape" fill-rule="evenodd" clip-rule="evenodd" d="M49.5004 35.5C71.326 35.5 89 41.7576 89 49.5003C89 57.2404 71.326 63.5 49.5004 63.5C27.6768 63.5 10 57.2404 10 49.5003C10 41.7576 27.6768 35.5 49.5004 35.5ZM49.5013 36.2778C28.5577 36.2778 11.58 42.0225 11.58 49.1113C11.58 56.1989 28.5576 61.9444 49.5013 61.9444C70.443 61.9444 87.42 56.1989 87.42 49.1113C87.42 42.0225 70.443 36.2778 49.5013 36.2778ZM86.0879 49.1112C86.0879 42.6363 69.709 37.3892 49.5013 37.3892C29.2935 37.3892 12.9135 42.6363 12.9135 49.1112C12.9135 55.5861 29.2935 60.834 49.5013 60.834C69.709 60.834 86.0879 55.5861 86.0879 49.1112ZM73.0609 44.8333L72.2639 44.8338L72.0521 44.834L71.0242 44.8347L70.9546 44.8368C70.8476 44.8443 70.7836 44.8766 70.7243 44.9936C70.5707 45.2895 69.2842 47.2469 68.272 48.7869L68.2715 48.7876L68.2712 48.7881C67.7464 49.5865 67.2955 50.2725 67.1146 50.5564C67.0255 50.6831 66.9165 50.6656 66.9039 50.5213C66.8503 50.0274 66.4253 49.4598 65.756 49.1883C65.2458 48.9804 64.747 48.9427 64.2286 49.0118C63.2926 49.138 62.4585 49.6341 61.7251 50.1929C61.2623 50.5461 60.8262 50.9431 60.3852 51.3445C59.7729 51.9018 59.1512 52.4677 58.4356 52.9372C57.7636 53.3767 56.8437 53.7602 56.228 53.1879C55.6708 52.6695 55.7336 51.5173 56.5861 50.6266C56.676 50.5334 56.7836 50.6113 56.7667 50.6952C56.6864 51.0982 56.7853 51.4988 57.0898 51.7797C57.4617 52.1142 57.9939 52.1523 58.4495 51.9291C58.9871 51.6616 59.3031 51.1453 59.3951 50.5592C59.5379 49.65 58.8406 48.848 57.9683 48.7838C57.2597 48.734 56.5802 48.9813 55.918 49.5302C55.5863 49.8065 55.3974 50.0108 55.1105 50.4207C55.0405 50.5214 54.9331 50.5318 54.9364 50.3828C54.9697 49.2187 54.4899 48.5639 53.5311 48.5424C52.7873 48.5248 51.9922 48.9298 51.3726 49.4258C50.8632 49.8364 50.4019 50.3471 49.9346 50.8645C49.7788 51.037 49.6223 51.2103 49.4631 51.3808C49.3839 51.4648 49.3147 51.4609 49.2925 51.2979C49.2734 50.5268 49.0801 49.7796 48.7246 49.2494C48.5988 49.0648 48.3342 48.9733 48.1117 49.0982C48.0926 49.1087 48.0648 49.1229 48.0304 49.1405C47.8795 49.2175 47.6029 49.3587 47.3913 49.53C47.262 49.6368 47.2121 49.7911 47.2686 49.9893C47.6121 51.1413 47.5364 52.4513 47.071 53.5578C46.6435 54.571 45.8125 55.4851 44.8359 55.7943C44.1925 55.999 43.5234 55.8988 43.1096 55.3263C42.5411 54.5359 42.7707 53.1617 43.6179 52.0204C44.3659 51.0157 45.4473 50.3773 46.5263 49.9663C46.6533 49.9171 46.6794 49.8354 46.6435 49.7271C46.6064 49.6142 46.5554 49.4759 46.5132 49.3614C46.4888 49.2949 46.4672 49.2364 46.4531 49.1957C46.3542 48.9315 46.077 48.8884 45.7389 48.9254C44.955 49.017 44.2478 49.2867 43.5493 49.6621C41.7203 50.6453 40.8032 52.5485 40.401 53.5666C40.2076 54.0555 40.0421 54.3608 39.8282 54.6314C39.5398 54.9952 39.178 55.3263 38.5159 55.9099C38.4562 55.9634 38.4115 56.0751 38.4618 56.1788C38.5293 56.3192 38.8736 56.8071 38.9707 56.8506C39.0786 56.9039 39.2037 56.8296 39.2536 56.7933C39.7169 56.4781 40.2709 55.9787 40.5422 55.6399C40.6372 55.5239 40.7349 55.5727 40.7853 55.7488C41.0384 56.6552 41.7012 57.3952 42.6175 57.7047C44.2947 58.2726 46.0346 57.4506 47.3475 56.0199C47.9145 55.4022 48.2353 54.9342 48.483 54.573C48.5998 54.4024 48.7004 54.2557 48.8029 54.1282C48.8899 54.02 48.9904 53.8904 49.1031 53.745L49.1033 53.7447C49.6934 52.9836 50.6187 51.79 51.6878 50.977C52.1549 50.62 52.7078 50.3477 52.9857 50.5285C53.2087 50.6733 53.2808 51.0108 52.9229 51.6643C52.1181 53.1396 51.078 54.775 50.3201 55.9667L50.3201 55.9667C49.8552 56.6976 49.4965 57.2617 49.3633 57.5195C49.2994 57.6372 49.3551 57.7297 49.4778 57.7297C49.8175 57.728 50.1558 57.7276 50.4862 57.7276L51.4477 57.728C51.5504 57.7231 51.5965 57.6761 51.6478 57.6034C51.8773 57.2427 52.1037 56.886 52.3285 56.5318L52.3326 56.5255C53.0825 55.344 53.8151 54.1898 54.5875 53.006C54.6437 52.9153 54.6956 52.9855 54.6979 53.0253C54.7186 53.3827 54.806 53.8719 55.0173 54.193C55.3972 54.7867 55.9358 55.0418 56.533 55.0456C57.0082 55.0511 57.2485 54.9786 57.7609 54.7866C58.1779 54.6314 58.5127 54.4274 58.7697 54.2431C58.9197 54.1386 58.946 54.3136 58.942 54.3405C58.7117 55.5836 58.9962 57.0565 60.2272 57.6673C61.6999 58.3962 63.3182 57.3717 64.2493 56.4468C64.3402 56.3576 64.4382 56.367 64.4474 56.559C64.4671 56.9121 64.6261 57.3313 64.9172 57.6246C65.6974 58.4106 67.2719 58.0992 68.8518 56.8715C69.8663 56.0855 70.9278 54.9749 71.8867 53.7988C71.9223 53.7536 71.9487 53.68 71.8802 53.6062C71.785 53.5062 71.6619 53.3967 71.5477 53.2952C71.4868 53.241 71.4284 53.189 71.3781 53.142C71.3119 53.0858 71.2152 53.1019 71.1594 53.1442C70.8815 53.4096 70.6115 53.6854 70.3381 53.9647L70.3379 53.9648L70.3378 53.9649L70.3377 53.965L70.3377 53.9651C69.6445 54.6732 68.9302 55.4029 68.0132 56.0376C67.582 56.3396 66.8949 56.5833 66.5861 56.164C66.4659 56.0014 66.4795 55.7758 66.5981 55.4804C66.8648 54.8131 69.9549 50.0163 71.8089 47.1383L71.8089 47.1382C72.5494 45.9888 73.0926 45.1455 73.1801 44.9936C73.2326 44.9012 73.1773 44.8333 73.0609 44.8333ZM30.7175 44.7931C30.724 41.7557 34.1997 39.7549 37.8514 39.4558C40.929 39.2083 43.8926 39.6921 46.891 40.1816C48.1776 40.3916 49.4706 40.6027 50.7817 40.7575C54.1274 41.1516 57.335 41.1601 60.6977 40.408C61.0952 40.3242 61.3742 40.5709 61.3483 40.9616C61.3154 41.5265 60.866 42.0703 59.7583 42.6582C58.4988 43.3305 57.1811 43.5343 55.805 43.5453C53.516 43.5637 51.3348 42.9724 49.1523 42.3807C48.1616 42.1121 47.1706 41.8434 46.1691 41.6316C46.1698 41.6543 46.1715 41.6777 46.1731 41.7013C46.1815 41.8202 46.1902 41.9457 46.092 42.0174C44.3152 43.2929 42.709 44.5879 41.6332 46.4068C41.5969 46.4489 41.6166 46.489 41.6793 46.4847C41.9821 46.469 42.275 46.456 42.5623 46.4432L42.5625 46.4432L42.5626 46.4432L42.5627 46.4432L42.5627 46.4432C43.1616 46.4165 43.7362 46.391 44.3254 46.3451C44.4775 46.3328 44.4833 46.2959 44.4698 46.1875C44.393 45.5605 44.5809 44.8456 45.1478 44.3538C45.7277 43.8475 46.4543 43.7899 46.9355 44.1546C47.4834 44.5698 47.4349 45.3163 47.1353 45.8762C46.8305 46.4444 46.3273 46.7479 45.8438 46.8955C45.8438 46.8955 45.7428 46.9172 45.7575 47.0067C45.7691 47.0932 46.0129 47.2566 46.217 47.3934C46.3516 47.4835 46.4689 47.5622 46.4912 47.5997C46.5455 47.6896 46.5177 47.8291 46.4176 47.9359C46.3474 48.0135 46.2387 48.0867 46.0989 48.084C45.9889 48.0818 45.9208 48.0458 45.7847 47.9738L45.7731 47.9677C45.4773 47.8119 45.1083 47.5559 44.8624 47.2542C44.7781 47.1522 44.7359 47.15 44.5261 47.161C43.5826 47.2141 42.111 47.3524 41.1141 47.4737C40.8728 47.5029 40.8372 47.5468 40.7874 47.6282L40.6816 47.7981L40.6816 47.7981C39.123 50.3001 37.4599 52.9696 35.6382 54.77C33.6397 56.7444 31.9784 57.2641 30.2152 57.2776C27.9994 57.293 26.0475 55.9603 25.8237 53.6537C25.6992 52.3755 26.0705 51.2363 26.8136 50.298C27.4732 49.4618 28.5891 48.767 29.5338 48.5973C29.8413 48.5425 30.2543 48.5775 30.4249 48.7754C30.6929 49.0788 30.6157 49.4119 30.3482 49.5448C29.6275 49.903 28.7601 50.5159 28.3312 51.3528C27.9828 52.036 27.9127 52.8596 28.4443 53.6438C29.3342 54.9511 31.8143 54.987 34.1204 52.9022C34.6913 52.3921 35.2025 51.9019 35.7219 51.3213C36.7376 50.1912 37.0754 49.7794 38.4255 47.9569C38.4417 47.9361 38.446 47.9082 38.439 47.8948C38.4279 47.8715 38.409 47.8651 38.3697 47.8627C37.4685 47.8869 36.6826 48.1484 35.9191 48.704C35.6991 48.8598 35.3827 48.8379 35.2441 48.6326C35.09 48.4005 35.2003 48.0977 35.4543 47.9272C36.5711 47.1712 37.7819 46.9779 39.0226 46.7798L39.0227 46.7797C39.1467 46.7599 39.2711 46.7401 39.3956 46.7196C39.3945 46.7196 39.491 46.7241 39.5693 46.6227C39.8077 46.3251 40.0213 46.0397 40.234 45.7556L40.2341 45.7556L40.2341 45.7555L40.2342 45.7554C40.5235 45.3691 40.811 44.985 41.1565 44.5755C41.7607 43.8545 42.5418 43.1926 43.1383 42.6952C43.8321 42.1146 44.3183 41.8551 44.7752 41.6183L45.0472 41.4766L45.0873 41.4489C45.1516 41.3838 45.0233 41.317 44.9855 41.317C44.7629 41.2763 44.5397 41.2347 44.3159 41.1931L44.3157 41.193C41.4937 40.6674 38.5858 40.1258 35.7978 41.1302C33.7144 41.887 32.8014 43.4949 33.2406 44.5694C33.5528 45.3314 34.5831 45.4553 35.5474 44.9961C36.3485 44.6141 37.0893 43.9989 37.6149 43.2063C37.9092 42.7664 38.5285 43.0837 38.194 43.8478C37.3136 45.8616 35.6315 47.459 33.5825 47.5262C31.839 47.5813 30.7139 46.3332 30.7175 44.7931ZM65.2214 50.5654C65.9483 50.9136 65.7163 51.7585 65.3911 52.422C65.3667 52.4732 65.3651 52.5168 65.3779 52.5588C65.39 52.6279 65.4797 52.6946 65.5675 52.7264C65.5982 52.7379 65.6157 52.7603 65.5807 52.8328C65.3661 53.2943 65.1664 53.5888 64.9166 53.9574C64.8741 54.0201 64.8301 54.085 64.7844 54.1532C64.4953 54.5867 64.1692 54.925 63.7745 55.2501C63.1792 55.7447 62.3525 56.2831 61.669 55.9211C61.3653 55.7628 61.2342 55.3365 61.2402 54.9911C61.256 54.0202 61.6849 53.0234 62.4793 52.0438C63.4479 50.8469 64.5186 50.226 65.2214 50.5654ZM46.3284 45.5085C46.5074 45.254 46.5911 44.8863 46.4139 44.7391C46.2551 44.6068 45.9976 44.6444 45.8069 44.8084C45.4268 45.1351 45.3109 45.5991 45.3602 45.9454C45.3853 46.0763 45.4378 46.1015 45.4985 46.0906C45.8011 46.0316 46.1327 45.7891 46.3284 45.5085Z" fill="black"/>
</g>
</svg>
