<svg width="99" height="99" viewBox="0 0 99 99" fill="none" xmlns="http://www.w3.org/2000/svg">
<g id="gmc">
<path id="Path" fill-rule="evenodd" clip-rule="evenodd" d="M0 3C0 1.34314 1.34315 0 3 0H96C97.6569 0 99 1.34315 99 3V96C99 97.6569 97.6569 99 96 99H3C1.34314 99 0 97.6569 0 96V3Z" />
<g id="Group">
<path id="Path_2" d="M20.0214 56.4001H32.6244C35.2667 56.4001 36.9417 55.1023 36.9417 52.7306V47.7647H26.6237V50.8547H33.4046V52.1161C33.4046 52.9394 32.9356 53.1631 32.3201 53.1631H20.7389C19.8958 53.1631 19.6278 52.7413 19.6278 52.0837V46.692C19.6278 45.9751 20.0437 45.7365 20.4974 45.7365H36.9417V42.501H19.9879C17.3791 42.501 16 44.0386 16 46.3228V52.6052C16 54.9783 17.4656 56.4001 20.0214 56.4001Z" fill="black"/>
<path id="Path_3" d="M42.799 45.856L48.5972 56.3996H51.9528L57.7455 45.856V56.3996H61.3859V42.5005H55.7914L50.275 52.4821L44.7503 42.5005H39.167V56.3996H42.799V45.856Z" fill="black"/>
<path id="Path_4" d="M63.4897 46.3231V52.6043C63.4897 54.9787 64.9512 56.4004 67.5042 56.4004H82.6964V52.9021H68.2286C67.3883 52.9021 67.1175 52.4843 67.1175 51.828V46.9498C67.1175 46.2396 67.5307 45.9903 67.9899 45.9903H82.6964V42.5H67.4721C64.866 42.5 63.4897 44.039 63.4897 46.3231Z" fill="black"/>
</g>
</g>
</svg>
