<svg width="99" height="99" viewBox="0 0 99 99" fill="none" xmlns="http://www.w3.org/2000/svg">
<g id="honda">
<path id="Path" fill-rule="evenodd" clip-rule="evenodd" d="M0 3C0 1.34314 1.34315 0 3 0H96C97.6569 0 99 1.34315 99 3V96C99 97.6569 97.6569 99 96 99H3C1.34314 99 0 97.6569 0 96V3Z" />
<g id="Group">
<path id="Shape" fill-rule="evenodd" clip-rule="evenodd" d="M32.2792 52.5023C31.9117 51.591 31.6818 50.6391 31.4939 49.6759C31.2786 48.5733 31.1054 47.4641 30.9791 46.3485C30.7476 44.3248 30.5533 42.2979 30.5225 40.2628C30.5031 39.1229 30.5096 37.9878 30.5225 36.8495C30.5371 35.9657 30.5824 35.082 30.7055 34.2015C30.8139 33.3696 31.0293 32.5637 31.3919 31.8048C32.0379 30.4622 33.0725 29.5331 34.4244 28.9477C35.2178 28.6007 36.0532 28.3866 36.9016 28.2293C37.9038 28.0429 38.9189 27.9358 39.934 27.8434C41.974 27.6602 44.0124 27.5742 46.0605 27.5337C47.8771 27.4948 49.6856 27.485 51.4957 27.5288C52.8492 27.5596 54.2027 27.6067 55.5546 27.6748C56.8612 27.7364 58.1694 27.8483 59.4662 28.0056C60.5299 28.1369 61.5823 28.3136 62.6023 28.6477C63.3681 28.8974 64.0854 29.2314 64.733 29.7195C65.7417 30.48 66.3909 31.4903 66.773 32.6821C67.0029 33.3859 67.1259 34.1074 67.1875 34.8436C67.351 36.7538 67.3348 38.6689 67.2878 40.5855C67.2636 41.7774 67.1907 42.9708 67.0693 44.1578C66.9462 45.3496 66.8151 46.5447 66.658 47.7333C66.4913 48.9316 66.2743 50.1235 65.9505 51.2942C65.7805 51.9072 65.5522 52.4958 65.2899 53.0763C64.6666 54.4514 63.6304 55.4081 62.2575 56.0113C61.4318 56.3746 60.5607 56.6016 59.6783 56.7653C58.5984 56.968 57.5104 57.0734 56.4192 57.1513C54.9523 57.2599 53.4871 57.3151 52.0251 57.3475C51.2433 57.3634 50.4578 57.3738 49.5115 57.3862C49.2036 57.3903 48.8786 57.3946 48.5312 57.3994C48.1887 57.3918 47.8217 57.3847 47.4364 57.3772C46.3353 57.3558 45.0849 57.3315 43.8327 57.2859C42.6605 57.2421 41.4899 57.1594 40.3258 57.0605C39.1083 56.9599 37.8973 56.7799 36.7267 56.4264C36.3058 56.3016 35.8929 56.1508 35.4881 55.974C34.4989 55.5427 33.6764 54.8941 33.0612 54.0071C32.7341 53.5401 32.501 53.0244 32.2792 52.5023ZM32.488 35.7079C32.4281 36.6792 32.3925 37.6521 32.3698 38.6267C32.3407 40.1201 32.3618 41.6168 32.4913 43.1119C32.5933 44.354 32.7196 45.5994 32.8491 46.8415C32.9721 47.9522 33.1583 49.0533 33.4222 50.1413C33.6181 50.9343 33.861 51.7126 34.222 52.4536C34.7547 53.5709 35.5804 54.3995 36.7154 54.9184C37.1331 55.1097 37.5735 55.2622 38.03 55.3773C38.948 55.6059 39.879 55.7373 40.8245 55.8184C41.953 55.9124 43.0912 55.9967 44.2278 56.0421C45.3136 56.0838 46.3972 56.1059 47.4806 56.128C47.9576 56.1377 48.4345 56.1475 48.9117 56.1589V56.1329H49.3423C51.1524 56.1329 52.9593 56.0859 54.758 55.987C56.0743 55.9124 57.3874 55.8119 58.6875 55.5995C59.4419 55.4778 60.1916 55.3043 60.9039 55.0092C62.0664 54.5244 62.9439 53.7395 63.5187 52.6174C63.7519 52.1715 63.938 51.7045 64.0902 51.2245C64.5436 49.8251 64.7816 48.3819 64.9613 46.9307C65.0454 46.2188 65.114 45.5049 65.1829 44.789C65.2001 44.6095 65.2174 44.4299 65.2349 44.2502C65.345 43.1573 65.4178 42.0595 65.4438 40.9601C65.4794 39.1083 65.4632 37.2549 65.3078 35.4063C65.2608 34.7853 65.1847 34.1691 65.0374 33.5642C64.89 32.9626 64.6763 32.3886 64.3428 31.86C63.7729 30.9454 62.9553 30.3357 61.9693 29.9303C61.1662 29.5947 60.3146 29.4195 59.4517 29.2914C58.1224 29.0871 56.7818 28.9542 55.4429 28.8796C54.1865 28.8082 52.9334 28.7401 51.6835 28.7158C50.0272 28.685 48.3741 28.6834 46.7178 28.6996C45.813 28.7087 44.9092 28.7524 44.0047 28.7962C43.7844 28.8069 43.5641 28.8175 43.3438 28.8277C42.6605 28.8585 41.9805 28.8958 41.3086 28.959C40.342 29.0531 39.3771 29.165 38.417 29.2866C37.7273 29.3725 37.044 29.5136 36.3786 29.7341C35.7763 29.932 35.2064 30.1946 34.6916 30.5627C33.7817 31.2178 33.2198 32.1097 32.8912 33.1653C32.6354 33.9972 32.5382 34.8485 32.488 35.7079Z" fill="black"/>
<path id="Path_2" d="M22.8168 63.3998C22.9058 63.4144 22.9819 63.4274 23.0645 63.4371C23.309 63.4679 23.5615 63.4922 23.8157 63.5214C24.1169 63.5587 24.2739 63.7095 24.3241 64.0095C24.3338 64.0468 24.3419 64.0841 24.3419 64.1214C24.3419 64.5381 24.3387 64.9516 24.3387 65.3667C24.3387 65.3748 24.3241 65.3878 24.3209 65.3975C24.0942 65.4348 19.7568 65.4235 19.6127 65.3813V64.6906C19.6175 64.47 19.6094 64.2495 19.6289 64.0338C19.6564 63.7322 19.8231 63.5668 20.1194 63.5247C20.2554 63.5036 20.3979 63.4955 20.5323 63.4776C20.7379 63.4549 20.9403 63.4274 21.1491 63.3998C21.1491 63.2101 21.1524 63.0414 21.1491 62.8696C21.1427 62.7042 21.1686 62.5339 21.1346 62.3701H15V63.3998C15.0923 63.4144 15.17 63.4274 15.251 63.4371C15.5019 63.4679 15.7496 63.4922 16.0022 63.5214C16.3033 63.5587 16.4652 63.7063 16.5203 64.0079C16.5332 64.0938 16.5332 64.183 16.5332 64.269V68.1153C16.5332 68.2126 16.5332 68.3034 16.5154 68.3974C16.4571 68.6909 16.3017 68.832 16.007 68.8677C15.7529 68.8985 15.5051 68.9228 15.2558 68.952C15.1668 68.9633 15.0874 68.9796 15.0049 68.9925V70.0011C15.2105 70.0417 21.0002 70.0336 21.1427 69.993V68.986C20.8237 68.9471 20.5112 68.9066 20.1988 68.8725C19.815 68.832 19.6386 68.6731 19.624 68.2871C19.6094 67.8672 19.6208 67.4456 19.6208 67.0256C19.6208 67.0142 19.6353 67.0077 19.6386 66.9964C19.8944 66.9559 24.1946 66.9705 24.3419 67.0142C24.3419 67.418 24.3451 67.825 24.3419 68.232C24.3419 68.2823 24.3338 68.3326 24.3241 68.3828C24.2739 68.6731 24.1233 68.8255 23.8287 68.866C23.6894 68.8839 23.5534 68.8952 23.4142 68.9114C23.2215 68.9358 23.0175 68.9601 22.82 68.986V70.0109H28.9481V68.9877C28.8445 68.9731 28.7457 68.9585 28.6534 68.9471C28.4122 68.9212 28.1677 68.8969 27.9216 68.8644C27.6448 68.8255 27.499 68.6828 27.4424 68.4055C27.4262 68.3017 27.4213 68.1947 27.4213 68.0893C27.4181 66.8245 27.4181 65.5629 27.4213 64.2981C27.4213 64.1992 27.4262 64.0987 27.4391 63.9982C27.499 63.6982 27.6577 63.5571 27.967 63.5198C28.1062 63.5036 28.2535 63.4906 28.3944 63.4744C28.579 63.4517 28.7619 63.4257 28.9481 63.4014V62.3701H22.8168V63.3998Z" fill="black"/>
<path id="Path_3" d="M50.7406 62.387V63.3956C50.7794 63.4053 50.8102 63.4102 50.8442 63.4134C51.134 63.4507 51.4319 63.4864 51.7249 63.5188C52.0552 63.5577 52.2187 63.7199 52.2608 64.0458C52.2689 64.0961 52.2689 64.148 52.2689 64.1966V67.8516C52.2689 67.8905 52.2608 67.9311 52.2479 67.9927C52.1815 67.91 52.1329 67.85 52.0925 67.7932C50.8102 66.1101 49.5344 64.4318 48.265 62.7437C48.0756 62.4956 47.8522 62.361 47.5478 62.361C47.4976 62.361 47.4442 62.3578 47.394 62.3578H42.3328C42.281 62.3578 42.2276 62.3659 42.1628 62.3708V63.4005C42.2406 63.4102 42.3102 63.4248 42.3733 63.4345C42.6307 63.4637 42.8833 63.4896 43.1456 63.5188C43.4613 63.5529 43.6281 63.7085 43.6847 64.0264C43.6961 64.1139 43.6928 64.2031 43.6928 64.2907C43.6961 65.5604 43.6961 66.8268 43.6961 68.0981C43.6961 68.1646 43.6961 68.2359 43.6896 68.3024C43.6605 68.6591 43.484 68.8343 43.1262 68.8716C42.9853 68.8862 42.8428 68.9007 42.6971 68.9186C42.519 68.9429 42.3426 68.9672 42.1628 68.9899V70.0002C42.362 70.0391 46.9115 70.0342 47.0524 69.9969C47.0847 69.7715 47.0767 69.1229 47.0427 68.9834C46.9471 68.9721 46.8548 68.9591 46.7609 68.9478C46.5197 68.9202 46.2849 68.8975 46.0502 68.8634C45.7442 68.8262 45.579 68.6478 45.5483 68.3413C45.5434 68.2716 45.5434 68.2051 45.5434 68.1354C45.5386 66.9598 45.5434 65.7857 45.5434 64.6101V64.4301C45.5547 64.4285 45.5693 64.4253 45.5839 64.4204C45.6244 64.4755 45.6681 64.529 45.7086 64.5842C46.9844 66.2673 48.2699 67.9473 49.5376 69.6369C49.7448 69.9077 49.9893 70.0277 50.3261 70.0261C51.5307 70.0212 52.7401 70.0245 53.9511 70.0245C53.9997 70.0245 54.0564 70.0131 54.1147 70.0083V69.7618V64.3345C54.1147 64.2469 54.1147 64.1577 54.1227 64.0718C54.147 63.7394 54.3267 63.5577 54.6538 63.5188C54.8027 63.5026 54.9452 63.4896 55.0877 63.4718C55.2755 63.4507 55.4585 63.4232 55.6398 63.4005V62.3724C55.3548 62.3383 50.8782 62.3513 50.7406 62.387Z" fill="black"/>
<path id="Shape_2" fill-rule="evenodd" clip-rule="evenodd" d="M67.5284 63.376C68.312 63.9793 68.7216 64.7868 68.8139 65.7597C68.8674 66.324 68.8301 66.8883 68.6536 67.4348C68.3444 68.3704 67.7114 69.0061 66.8387 69.4309C66.2218 69.7276 65.5613 69.8963 64.8845 69.9595C64.4457 70.0017 64.0021 70.0211 63.5666 70.0211C61.571 70.0266 59.5764 70.0263 57.5849 70.0261C57.1868 70.0261 56.7888 70.026 56.391 70.026H56.1335V68.9898C56.214 68.9794 56.2944 68.9687 56.3742 68.9581C56.4808 68.9439 56.5861 68.9299 56.6889 68.9169C56.833 68.899 56.9771 68.8844 57.1244 68.8698C57.4385 68.8342 57.5972 68.6882 57.6538 68.3769C57.6668 68.2893 57.6716 68.2018 57.6716 68.1142V64.1933C57.6716 63.702 57.5227 63.5398 57.0354 63.4879C56.873 63.4719 56.7106 63.4552 56.546 63.4383C56.4446 63.4279 56.3424 63.4174 56.2388 63.4069V62.3691C56.2971 62.3626 56.3521 62.3577 56.4072 62.3577C57.1488 62.3577 57.8916 62.3573 58.6349 62.3568C60.3712 62.3558 62.1105 62.3548 63.8451 62.3593C64.7145 62.361 65.5694 62.4647 66.387 62.7647C66.795 62.9155 67.1835 63.1101 67.5284 63.376ZM64.9574 67.8256C65.0594 67.6488 65.1338 67.4478 65.184 67.2515C65.2941 66.8478 65.3071 66.4327 65.2941 66.0143C65.2795 65.6008 65.2455 65.1857 65.0804 64.7965C64.9104 64.383 64.6125 64.1041 64.1883 63.9598C63.9131 63.8706 63.6216 63.8366 63.3367 63.8349C62.5013 63.8317 61.6707 63.8333 60.8401 63.8349C60.8101 63.8349 60.7794 63.8392 60.7485 63.8435C60.7327 63.8457 60.7168 63.8479 60.7009 63.8495V68.5455C60.7319 68.5463 60.7602 68.5481 60.7869 68.5498C60.8172 68.5518 60.8457 68.5536 60.8741 68.5536C61.0922 68.5536 61.3104 68.554 61.5286 68.5544C62.1108 68.5553 62.6934 68.5563 63.2752 68.5504C63.4905 68.5488 63.7155 68.5293 63.9293 68.492C64.3632 68.4142 64.7339 68.218 64.9574 67.8256Z" fill="black"/>
<path id="Shape_3" fill-rule="evenodd" clip-rule="evenodd" d="M38.4635 62.4246C39.1402 62.6013 39.7814 62.851 40.348 63.2645C41.4344 64.0591 41.9023 65.1423 41.8181 66.4736C41.7372 67.7724 41.0831 68.7243 39.9643 69.3713C39.3491 69.728 38.6804 69.9421 37.9826 70.075C36.7699 70.3085 35.5476 70.3345 34.3171 70.2404C33.4914 70.1739 32.6867 70.028 31.9112 69.7394C31.5598 69.6096 31.236 69.4524 30.9284 69.2513C29.8145 68.5248 29.2543 67.4935 29.2639 66.1639C29.2721 64.8001 29.8841 63.7704 31.0482 63.0635C31.6278 62.7083 32.2657 62.4975 32.9263 62.3532C33.7877 62.1619 34.6652 62.1003 35.5735 62.0986C36.5336 62.1051 37.5115 62.1748 38.4635 62.4246ZM36.6696 68.7032C37.4969 68.507 38.0134 67.98 38.1882 67.14C38.3226 66.506 38.3226 65.8671 38.185 65.2331C38.0085 64.4029 37.4937 63.8856 36.6712 63.6878C35.8924 63.5029 35.1039 63.5029 34.3333 63.7105C33.5917 63.9099 33.119 64.3899 32.9263 65.139C32.8324 65.486 32.8033 65.8412 32.7822 66.2044C32.7951 66.3056 32.8054 66.4069 32.8157 66.508C32.8367 66.7132 32.8576 66.9175 32.8988 67.1173C33.0607 67.9395 33.5448 68.4778 34.3689 68.6854C35.1282 68.8799 35.9021 68.8816 36.6696 68.7032Z" fill="black"/>
<path id="Shape_4" fill-rule="evenodd" clip-rule="evenodd" d="M79.8808 66.6109C80.2682 67.2022 80.6554 67.7932 81.0374 68.3879C81.2317 68.6831 81.4811 68.8566 81.8389 68.8841C82.0361 68.8985 82.2363 68.9248 82.4386 68.9515C82.5335 68.964 82.6288 68.9765 82.7245 68.9879V69.9884C82.7218 69.9911 82.7203 69.9937 82.7189 69.996C82.7169 69.9994 82.7154 70.002 82.7115 70.003C82.7105 70.004 82.7096 70.005 82.7087 70.006C82.7053 70.0097 82.7024 70.0127 82.6986 70.0127C82.695 70.0133 82.6913 70.014 82.6876 70.0146C82.6611 70.0191 82.6319 70.0241 82.6063 70.0241C80.4578 70.0241 78.3126 70.0241 76.1657 70.0225C76.157 70.0225 76.1471 70.019 76.1332 70.0141C76.124 70.0108 76.1129 70.0069 76.0993 70.003V68.9847C76.1791 68.9763 76.2574 68.9685 76.335 68.9609C76.497 68.9449 76.6557 68.9293 76.8166 68.9085C76.9639 68.889 77.1064 68.8679 77.2408 68.8177C77.4739 68.7268 77.5435 68.5323 77.4237 68.3134C77.3322 68.1424 77.2239 67.9822 77.1154 67.8215C77.0973 67.7947 77.0791 67.7679 77.0611 67.7409C77.0424 67.7115 76.9984 67.6965 76.9618 67.6839C76.9539 67.6812 76.9465 67.6786 76.9396 67.6761C76.9184 67.6705 76.8957 67.6718 76.8724 67.6732C76.862 67.6738 76.8514 67.6745 76.8409 67.6745C76.5518 67.6745 76.2625 67.6745 75.9732 67.6746C74.8157 67.6749 73.6572 67.6751 72.5018 67.6712C72.3626 67.6712 72.2784 67.7004 72.2136 67.8269C72.1686 67.9128 72.1166 67.995 72.0646 68.0772C72.0194 68.1486 71.9742 68.22 71.9335 68.2939C71.7668 68.5712 71.8639 68.8047 72.1845 68.8712C72.3253 68.9015 72.4677 68.915 72.6113 68.9287C72.6675 68.934 72.7238 68.9394 72.7803 68.9458C72.8043 68.9485 72.8284 68.9513 72.8526 68.9541C72.9411 68.9644 73.0314 68.9748 73.1268 68.9863V69.99C72.9892 70.0338 68.5044 70.0468 68.2275 70.003V68.9879C68.3647 68.9695 68.5034 68.9518 68.6403 68.9344C68.6958 68.9274 68.7509 68.9203 68.8055 68.9133C68.9432 68.8987 69.0824 68.8841 69.2168 68.8712C69.4192 68.8517 69.5762 68.7609 69.696 68.602C69.7413 68.5469 69.7786 68.4901 69.8126 68.4285C70.4438 67.3998 71.0777 66.3721 71.7123 65.3432C71.929 64.9919 72.1458 64.6404 72.3626 64.2887C72.3901 64.2465 72.416 64.2043 72.4387 64.1589C72.5795 63.8703 72.429 63.593 72.1084 63.5573C71.7409 63.5152 71.3831 63.4747 71.022 63.4341C70.9427 63.4244 70.8714 63.413 70.7953 63.4001V62.3688C70.8077 62.3677 70.82 62.3666 70.8323 62.3654C70.876 62.3614 70.9187 62.3574 70.9605 62.3574C71.4269 62.3574 71.8931 62.3577 72.3592 62.358C73.7569 62.3589 75.1535 62.3598 76.5511 62.3525C76.951 62.3525 77.2133 62.5309 77.4189 62.852C77.8319 63.4929 78.2527 64.1316 78.6734 64.7701C78.8892 65.0977 79.105 65.4252 79.3196 65.7529C79.5064 66.0393 79.6936 66.3251 79.8808 66.6109ZM74.5726 64.0033C74.1063 64.7622 73.64 65.5194 73.1575 66.2929C73.4425 66.3351 75.9601 66.3237 76.0913 66.2848C75.9569 66.0091 74.6827 64.0925 74.5726 64.0033Z" fill="black"/>
<path id="Path_4" d="M37.9923 31.9521C38.036 32.6105 38.0749 33.2704 38.1186 33.9272C38.185 35.0071 38.2578 36.0838 38.3226 37.1622C38.3841 38.0475 38.4343 38.9313 38.4926 39.8134C38.559 40.8398 38.6351 41.8695 38.7047 42.896C38.7597 43.7165 38.8132 44.5386 38.8731 45.3607C38.9524 46.4812 39.035 47.6017 39.1143 48.7222C39.1872 49.6367 39.2503 50.5529 39.3232 51.4675C39.4074 52.5247 39.498 53.5803 39.5838 54.6408C39.5887 54.73 39.6049 54.8208 39.6178 54.9084C40.2784 55.0527 42.7118 55.1759 43.2834 55.1646C43.306 55.0851 43.3319 55.0041 43.3562 54.9197C43.6719 53.7652 43.9795 52.6058 44.3034 51.4545C44.4863 50.8237 44.7114 50.2124 45.0174 49.627C45.3914 48.8957 45.9888 48.4854 46.7983 48.3573C47.5042 48.2471 48.2101 48.1919 48.9225 48.1936C49.6414 48.1936 50.3554 48.2471 51.0645 48.3638C51.8352 48.4952 52.418 48.8892 52.7774 49.5848C52.8584 49.7373 52.9329 49.8865 53.0009 50.0437C53.2534 50.6194 53.4623 51.2113 53.6242 51.8177C53.9156 52.8523 54.186 53.8901 54.4645 54.9278C54.4888 55.0089 54.5179 55.0884 54.5406 55.1646C55.2562 55.2051 57.8694 55.0089 58.2191 54.8906C58.9039 46.6855 59.4155 38.4626 59.9336 30.2219C59.082 30.0954 58.2401 30.0484 57.3869 30.0273C57.3674 30.0987 57.3561 30.1522 57.3448 30.2073C57.0015 31.7575 56.6599 33.3077 56.3151 34.8579C55.8083 37.1249 55.2562 39.3804 54.6539 41.623C54.4564 42.3511 54.2184 43.0695 53.8897 43.7505C53.2615 45.0656 52.2059 45.7888 50.7714 45.9899C50.2388 46.0661 49.6932 46.0888 49.154 46.0936C48.3655 46.0969 47.5787 46.0936 46.8032 45.9477C45.8285 45.7693 45.0222 45.3169 44.4054 44.5305C44.0977 44.1364 43.8873 43.6873 43.7011 43.2251C43.3854 42.4306 43.1587 41.6068 42.9385 40.7815C42.0869 37.5059 41.3502 34.2061 40.6394 30.8997C40.5747 30.6111 40.5083 30.3273 40.4371 30.0273C39.579 30.0468 38.7403 30.0987 37.8935 30.2171C37.8935 30.2852 37.8919 30.3306 37.8935 30.3727C37.9227 30.8997 37.9615 31.4267 37.9923 31.9521Z" fill="black"/>
</g>
</g>
</svg>
