<svg width="99" height="99" viewBox="0 0 99 99" fill="none" xmlns="http://www.w3.org/2000/svg">
<g id="hyundai">
<path id="Path" fill-rule="evenodd" clip-rule="evenodd" d="M0 3C0 1.34314 1.34315 0 3 0H96C97.6569 0 99 1.34315 99 3V96C99 97.6569 97.6569 99 96 99H3C1.34314 99 0 97.6569 0 96V3Z" />
<g id="Group">
<path id="Shape" fill-rule="evenodd" clip-rule="evenodd" d="M29.3478 46.237C28.7743 44.3646 29.1161 42.6361 30.1512 41.0315C31.1039 39.5528 32.4102 38.4577 33.8657 37.5345C36.0853 36.1437 38.5073 35.2505 41.0314 34.607C42.8523 34.1354 44.7145 33.8377 46.5943 33.6619C46.9987 33.6208 47.4032 33.5976 47.8102 33.5742C47.9981 33.5634 48.1866 33.5526 48.3759 33.54C48.4082 33.5366 48.4417 33.5274 48.4751 33.5183C48.5006 33.5113 48.526 33.5043 48.5507 33.5H52.0412C52.1748 33.5111 52.3077 33.5239 52.4409 33.5367C52.6662 33.5584 52.892 33.5801 53.1216 33.5939C54.7186 33.6918 56.2998 33.9116 57.8653 34.2274C60.1105 34.679 62.2928 35.3344 64.3671 36.3395C66.1055 37.1748 67.7182 38.2019 69.0362 39.6467C69.9064 40.6078 70.5723 41.6849 70.8453 42.9838C71.1832 44.5584 70.8709 46.0192 70.0695 47.38C69.2523 48.7808 68.0914 49.8399 66.7871 50.7471C64.6736 52.2198 62.3223 53.165 59.8689 53.8624C57.9832 54.4039 56.0602 54.7436 54.1077 54.9654C52.2259 55.1712 50.3303 55.2412 48.4368 55.1772C44.5475 55.0414 40.7387 54.4219 37.0871 52.9671C35.2112 52.2198 33.4414 51.2726 31.9073 49.9138C30.7582 48.9067 29.8114 47.7357 29.3478 46.237ZM47.5234 36.2556C48.2875 35.4383 49.2402 35.0926 50.3343 35.0547C53.0941 34.9567 55.8107 35.3084 58.4841 35.9858C59.1943 36.1611 59.9064 36.3906 60.6091 36.6171L60.6092 36.6171L60.6409 36.6273C60.8668 36.7032 61.0828 36.8191 61.2812 36.947C61.5268 37.1249 61.5445 37.3487 61.3421 37.5745C61.2086 37.7223 61.0514 37.8562 60.8766 37.9601C58.0696 39.7246 55.1134 41.1873 51.9803 42.2544C50.79 42.6501 49.58 42.9598 48.3228 43.0218C47.7827 43.0497 47.2484 42.9878 46.7396 42.762C45.9323 42.3883 45.6809 41.7029 45.6986 40.6758C45.8302 39.1371 46.3173 37.5465 47.5234 36.2556ZM41.4812 36.1317C41.8988 36.022 42.3516 36.0158 42.7908 36.0098L42.7934 36.0098C43.1666 36.0078 43.2491 36.1917 43.0271 36.4954C42.7527 36.8676 42.4727 37.2328 42.1931 37.5976L42.1931 37.5976C41.8542 38.0397 41.5158 38.4811 41.1886 38.9333C39.0318 41.9167 37.1657 45.05 35.9262 48.541C35.8143 48.8647 35.6611 49.1704 35.4803 49.4502C35.2368 49.8518 34.9618 49.9198 34.5257 49.7739C33.9993 49.5801 33.5809 49.2344 33.1802 48.8527C32.3002 47.9855 31.5105 47.0423 31.1039 45.8413C30.9986 45.528 30.9357 45.1986 30.8725 44.868L30.8725 44.868C30.8414 44.7052 30.8102 44.5421 30.7739 44.3806C30.7938 44.3705 30.8122 44.3661 30.8269 44.3625L30.8348 44.3606C30.8505 43.1397 31.3612 42.1125 32.1175 41.1953C32.9877 40.1363 34.0759 39.3389 35.2407 38.6555C37.1952 37.4985 39.3107 36.7392 41.4812 36.1317ZM64.4293 39.8521C64.35 40.0122 64.2708 40.1721 64.1903 40.3301C63.9217 40.8705 63.6568 41.4122 63.3919 41.9536L63.3917 41.9542L63.3916 41.9544C62.7831 43.1983 62.1754 44.4406 61.5268 45.6615C60.5741 47.4599 59.5409 49.2104 58.3289 50.841L58.1812 51.0384L58.1811 51.0385C57.8891 51.4286 57.5995 51.8153 57.3271 52.2138C57.2603 52.3137 57.2446 52.4896 57.2878 52.6095C57.2977 52.6594 57.502 52.6894 57.608 52.6754C60.0987 52.2398 62.4677 51.4225 64.6775 50.1756C65.97 49.4462 67.1545 48.5789 68.06 47.37C68.7357 46.4788 69.1502 45.4956 69.1325 44.3426C69.1325 44.289 69.1355 44.2338 69.1385 44.1783V44.1782V44.1782C69.1447 44.0663 69.1509 43.9532 69.1325 43.849C68.777 41.597 67.5512 40.0104 65.5595 39.0132C65.1411 38.7954 64.9171 38.8993 64.6932 39.325C64.6037 39.4997 64.5164 39.6761 64.4293 39.8521ZM54.4553 48.509C54.1725 50.2615 53.3396 51.7182 52.0373 52.8912C51.5521 53.3268 50.953 53.4927 50.3303 53.5446C50.0157 53.5704 49.6981 53.5838 49.4457 53.5945C49.3451 53.5988 49.2548 53.6026 49.1793 53.6066C47.5686 53.5806 46.1484 53.4247 44.7203 53.2289C43.2491 53.0251 41.7857 52.7693 40.3557 52.3577C39.8627 52.2198 39.3775 52.0559 38.908 51.8781C38.5152 51.7142 38.5034 51.4744 38.8275 51.2107C41.9193 48.7048 45.4295 47.1002 49.2618 46.205C50.2596 45.9712 51.2634 45.7834 52.3025 45.8593C53.0745 45.9133 53.7816 46.1431 54.2078 46.8824C54.5123 47.386 54.5477 47.9535 54.4553 48.509Z" fill="black"/>
<path id="Shape_2" fill-rule="evenodd" clip-rule="evenodd" d="M63.1765 58.3169C63.3317 58.3169 63.4888 58.3269 63.6362 58.3489C64.4749 58.5127 64.8442 58.9803 64.8776 59.9934C64.8944 60.4085 64.8912 60.8246 64.888 61.2425C64.8867 61.41 64.8855 61.5778 64.8855 61.7459C64.8855 62.0757 64.8859 62.4046 64.8863 62.7334C64.8872 63.3909 64.8881 64.048 64.8855 64.7114C64.8855 64.9132 64.8737 65.119 64.8285 65.3188C64.7381 65.8384 64.4435 66.2041 63.9446 66.3779C63.8948 66.3948 63.8457 66.4135 63.7972 66.4321C63.7595 66.4465 63.7222 66.4607 63.6853 66.4738H57.0735C57.0749 66.4394 57.0771 66.4034 57.0793 66.3668C57.0832 66.3017 57.0872 66.2348 57.0872 66.1721V58.6406V58.3349C57.1354 58.333 57.1797 58.329 57.2215 58.3253C57.27 58.3209 57.315 58.3169 57.3583 58.3169H63.1765ZM61.776 64.4995C62.3437 64.4915 62.5008 64.3397 62.5283 63.7522C62.5309 63.7262 62.5301 63.7045 62.5292 63.6803C62.5288 63.6674 62.5283 63.6537 62.5283 63.6383C62.5283 63.361 62.5287 63.0838 62.5292 62.8067C62.5301 62.253 62.5309 61.6998 62.5283 61.1484C62.5283 61.0345 62.5126 60.9146 62.4871 60.8007C62.4262 60.453 62.2867 60.2792 61.9371 60.2692C61.3581 60.2593 60.7782 60.2614 60.1946 60.2635C59.9505 60.2643 59.7057 60.2652 59.4601 60.2652V64.4995H61.776Z" fill="black"/>
<path id="Shape_3" fill-rule="evenodd" clip-rule="evenodd" d="M73.6474 58.308V58.5897C73.6474 59.8556 73.6464 61.1235 73.6455 62.3914C73.6445 63.6593 73.6435 64.9272 73.6435 66.1932C73.6435 66.2871 73.6474 66.381 73.6514 66.4749H71.3217V64.6905H68.2496V66.4749H65.969C65.969 65.9164 65.9682 65.3575 65.9674 64.7982C65.9652 63.2126 65.9629 61.6245 65.9788 60.0365C65.9867 59.0593 66.6703 58.3939 67.6367 58.336C67.6622 58.334 67.6876 58.3313 67.7129 58.3286C67.7635 58.3233 67.8141 58.318 67.8665 58.318C68.6574 58.3137 69.4482 58.3105 70.2386 58.3073C71.2955 58.3031 72.3516 58.2989 73.4058 58.292C73.4423 58.292 73.4772 58.2952 73.517 58.2988C73.5544 58.3022 73.5961 58.306 73.6474 58.308ZM68.2496 62.6262H71.3178V60.2743C71.2375 60.2743 71.1574 60.2736 71.0777 60.2729C70.9197 60.2716 70.7634 60.2703 70.6106 60.2743C70.4232 60.278 70.235 60.2794 70.0466 60.2808C69.623 60.284 69.1987 60.2872 68.7799 60.3162C68.4755 60.3322 68.2633 60.544 68.2594 60.8518C68.2409 61.2785 68.244 61.7063 68.2472 62.1351C68.2484 62.2986 68.2496 62.4624 68.2496 62.6262Z" fill="black"/>
<path id="Path_2" d="M46.9195 58.2923C46.287 58.2923 45.6466 58.3043 45.0102 58.2863C44.7921 58.2823 44.7411 58.3582 44.745 58.57C44.7509 60.3425 44.7509 62.127 44.745 63.9014C44.745 64.363 44.6075 64.4889 44.1636 64.4929H41.9498H41.6945V58.3143H39.3236V58.642C39.3236 60.2126 39.3157 61.7793 39.3236 63.3479C39.3236 64.395 39.3236 65.4341 39.3275 66.4752H45.9884C46.0159 66.4692 46.0336 66.4392 46.063 66.4332C46.7132 66.3193 47.0353 65.8977 47.1277 65.2642C47.1591 65.0724 47.1787 64.8686 47.1787 64.6708C47.1866 62.6485 47.1866 60.6103 47.1905 58.59V58.3083C47.0864 58.3043 47 58.2923 46.9195 58.2923Z" fill="black"/>
<path id="Path_3" d="M56.0349 61.629C56.0349 60.9936 56.029 60.3581 55.9917 59.7367C55.9426 59.0633 55.5851 58.5997 55.0036 58.4418C54.6874 58.3619 54.3613 58.3039 54.0451 58.3039C52.1593 58.2819 50.2717 58.2859 48.384 58.2859C48.3231 58.2859 48.2701 58.2919 48.1817 58.2999V58.5697V60.6279C48.1817 62.5802 48.1817 64.5225 48.1777 66.4748H50.5506C50.5506 64.4346 50.5506 62.4024 50.5427 60.3621C50.5427 60.3441 50.5545 60.3242 50.5643 60.2862C50.6036 60.2742 50.6468 60.2642 50.6901 60.2642C51.4777 60.2622 52.2772 60.2562 53.0629 60.2622C53.4342 60.2622 53.5952 60.4221 53.5952 60.8018C53.6011 62.6521 53.5952 64.5085 53.5952 66.3589C53.5952 66.4029 53.5874 66.4429 53.5756 66.4748H56.0526C56.0388 66.4329 56.029 66.3809 56.029 66.341C56.0349 64.7623 56.0388 63.1917 56.0349 61.629Z" fill="black"/>
<path id="Path_4" d="M27.4646 58.2924C27.3075 58.2924 27.3291 58.4083 27.3291 58.5122V60.7462V61.2078H24.2707V58.2924H23.98C23.318 58.2864 22.6639 58.2824 22 58.2764V66.4753H24.2845V63.266H27.3586V66.4753H29.7354C29.7413 66.4593 29.7413 66.4333 29.7413 66.4093V58.4922C29.7413 58.4342 29.7236 58.3723 29.7137 58.3003C28.9536 58.2924 28.2111 58.3003 27.4646 58.2924Z" fill="#474150"/>
<path id="Path_5" d="M36.7509 58.304C36.6782 58.304 36.5741 58.3899 36.527 58.4598C35.9357 59.2911 35.3582 60.1344 34.7689 60.9657C34.7316 61.0336 34.6766 61.0916 34.6157 61.1755C34.5548 61.0836 34.5155 61.0276 34.4802 60.9657C33.9478 60.1444 33.4155 59.3191 32.8852 58.4918C32.8125 58.3799 32.7418 58.314 32.5925 58.314C31.8637 58.314 31.135 58.304 30.4043 58.292H30.1077C30.1902 58.4199 30.2314 58.4918 30.2786 58.5598C31.1409 59.8746 31.9777 61.2115 32.8773 62.5063C33.2584 63.0479 33.4391 63.5894 33.39 64.2588C33.3409 64.9942 33.3703 65.7375 33.3645 66.4749H35.7412C35.7412 65.4778 35.7412 64.4726 35.753 63.4695C35.753 63.3476 35.8002 63.2037 35.865 63.0978C36.8962 61.5771 37.9393 60.0505 38.9705 58.5278C39.0137 58.4698 39.0511 58.4039 39.0923 58.332C39.055 58.314 39.0314 58.3 39.0078 58.3C38.2595 58.3 37.5052 58.286 36.7509 58.304Z" fill="black"/>
<path id="Path_6" d="M74.7379 58.6006C74.7477 61.1224 74.7438 63.6502 74.7438 66.172C74.7438 66.27 74.7261 66.3779 74.7261 66.4738H76.9555V58.3308C76.3191 58.3129 75.6729 58.3169 75.0266 58.2869C74.787 58.2769 74.7379 58.3668 74.7379 58.6006Z" fill="black"/>
</g>
</g>
</svg>
