<svg width="99" height="99" viewBox="0 0 99 99" fill="none" xmlns="http://www.w3.org/2000/svg">
<g id="jeep">
<path id="Path" fill-rule="evenodd" clip-rule="evenodd" d="M0 3C0 1.34314 1.34315 0 3 0H96C97.6569 0 99 1.34315 99 3V96C99 97.6569 97.6569 99 96 99H3C1.34314 99 0 97.6569 0 96V3Z" />
<g id="Group">
<path id="Shape" fill-rule="evenodd" clip-rule="evenodd" d="M57.43 56.315C55.9759 56.315 54.8306 56.0654 53.9924 55.5662C53.1541 55.0653 52.4606 54.2714 51.9153 53.1777C51.3612 52.0874 51.0876 50.8047 51.0876 49.3366C51.0876 47.2427 51.64 45.5406 52.7412 44.2475C53.8459 42.9527 55.3653 42.3027 57.3065 42.3027C58.8876 42.3027 60.1212 42.5905 61.0371 43.1746C61.9441 43.7518 62.6447 44.5994 63.1194 45.6966C63.5924 46.799 63.8341 48.2359 63.8341 50.0039V50.5811H55.3776C55.4571 51.4114 55.6353 52.0233 55.9265 52.4254C56.3376 53.013 56.8688 53.3007 57.5235 53.3007C57.9418 53.3007 58.3371 53.1742 58.7006 52.9194C58.9318 52.7599 59.1806 52.4809 59.4435 52.0735L63.5924 52.545C62.9624 53.8866 62.1947 54.8573 61.2965 55.4449C60.4018 56.0221 59.11 56.315 57.43 56.315ZM57.4847 45.343C56.8106 45.343 56.2759 45.6671 55.8718 46.3171C55.6141 46.7227 55.4606 47.3242 55.3918 48.1215H59.5476C59.4594 47.1249 59.2441 46.4125 58.8912 45.9878C58.5329 45.5545 58.0653 45.343 57.4847 45.343Z" fill="black"/>
<path id="Shape_2" fill-rule="evenodd" clip-rule="evenodd" d="M72.6578 42.8973C73.2754 42.4969 73.9566 42.3027 74.7031 42.3027C76.1766 42.3027 77.3096 42.9874 78.1231 44.3585C78.9207 45.7313 79.3266 47.4282 79.3266 49.4545C79.3266 51.6766 78.8907 53.377 78.0137 54.5609C77.1366 55.7343 76.0231 56.315 74.6854 56.315C74.0307 56.315 73.4378 56.185 72.9049 55.9163C72.3737 55.6425 71.8919 55.2421 71.4719 54.7151V62.1147H67.2119V42.6095H71.1596V44.5855C71.7066 43.7518 72.2078 43.1885 72.6578 42.8973ZM73.3743 52.4809C73.8701 52.4809 74.2796 52.2365 74.6113 51.7407C74.9431 51.2485 75.109 50.4095 75.109 49.2361C75.109 48.1493 74.9378 47.3467 74.5866 46.8458C74.2425 46.331 73.8225 46.0727 73.3284 46.0727C72.7849 46.0727 72.3349 46.3345 71.9766 46.8458C71.6201 47.3606 71.4401 48.1943 71.4401 49.3453C71.4401 50.4061 71.6237 51.1947 71.9925 51.7095C72.349 52.2226 72.8184 52.4809 73.3743 52.4809Z" fill="black"/>
<path id="Path_2" d="M30.0094 55.1905C30.9412 54.4296 31.5571 53.4919 31.8659 52.3895C32.1712 51.2853 32.33 49.6768 32.33 47.5673V36.5H27.6253V48.9176C27.6253 50.0443 27.5018 50.8451 27.2529 51.3269C27.0112 51.7984 26.6229 52.0341 26.0953 52.0341C25.7653 52.0341 25.5129 51.9561 25.3312 51.7949C25.0718 51.554 24.8829 51.2351 24.7665 50.8381C24.6641 50.4412 24.6024 49.8363 24.5953 49.0181L20 48.8535C20.0847 50.2817 20.4641 52.3999 20.9247 53.3688C21.3835 54.3395 22.0312 55.0848 22.8765 55.5857C23.7218 56.0901 24.9059 56.3415 26.4412 56.3415C27.8918 56.3415 29.0812 55.9636 30.0094 55.1905Z" fill="black"/>
<path id="Shape_3" fill-rule="evenodd" clip-rule="evenodd" d="M41.8611 56.315C40.4 56.315 39.2547 56.0654 38.4217 55.5662C37.5782 55.0653 36.89 54.2714 36.3376 53.1777C35.7905 52.0874 35.5117 50.8047 35.5117 49.3366C35.5117 47.2427 36.0694 45.5406 37.1652 44.2475C38.2717 42.9527 39.7929 42.3027 41.7358 42.3027C43.3064 42.3027 44.5523 42.5905 45.4611 43.1746C46.3717 43.7518 47.0723 44.5994 47.5452 45.6966C48.0252 46.799 48.2617 48.2359 48.2617 50.0039V50.5811H39.8052C39.8811 51.4114 40.0629 52.0233 40.3505 52.4254C40.7635 53.013 41.2947 53.3007 41.9529 53.3007C42.3641 53.3007 42.7611 53.1742 43.1335 52.9194C43.3611 52.7599 43.6047 52.4809 43.8676 52.0735L48.0252 52.545C47.3864 53.8866 46.6223 54.8573 45.7276 55.4449C44.8276 56.0221 43.5429 56.315 41.8611 56.315ZM41.9088 45.343C41.2347 45.343 40.707 45.6671 40.3047 46.3171C40.0452 46.7227 39.8847 47.3242 39.8176 48.1215H43.9735C43.8905 47.1249 43.6682 46.4125 43.3152 45.9878C42.957 45.5545 42.4894 45.343 41.9088 45.343Z" fill="black"/>
</g>
</g>
</svg>
