<svg width="99" height="99" viewBox="0 0 99 99" fill="none" xmlns="http://www.w3.org/2000/svg">
<g id="kia">
<path id="Path" fill-rule="evenodd" clip-rule="evenodd" d="M0 3C0 1.34314 1.34315 0 3 0H96C97.6569 0 99 1.34315 99 3V96C99 97.6569 97.6569 99 96 99H3C1.34314 99 0 97.6569 0 96V3Z" />
<g id="Group">
<path id="Shape" fill-rule="evenodd" clip-rule="evenodd" d="M79.7794 49.8411C79.7794 58.2967 66.35 65.1929 49.8888 65.1929C33.4259 65.1929 20 58.2967 20 49.8411C20 41.3855 33.4259 34.5 49.8888 34.5C66.35 34.5 79.7794 41.3855 79.7794 49.8411ZM77.4447 49.8411C77.4447 43.3981 65.0671 38.1339 49.8888 38.1339C34.7124 38.1339 22.3329 43.3981 22.3329 49.8411C22.3329 56.293 34.7124 61.5465 49.8888 61.5465C65.0671 61.5465 77.4447 56.293 77.4447 49.8411Z" fill="black"/>
<path id="Path_2" d="M60.4546 57.129L63.3734 46.9068L66.294 57.129H70.314L66.1652 42.4888H64.4799H62.1452H59.9852L59.9816 43.1543H60.5763L56.4346 57.129H60.4546Z" fill="black"/>
<path id="Path_3" d="M31.7997 57.1289H35.8197V50.7479L40.3515 56.7749H45.0209L39.6279 49.6026L44.2832 42.8198H39.6103L35.8197 48.3388V42.8145H31.7997V42.8286H31.0762V43.4322C31.3321 43.4251 31.5756 43.4641 31.7997 43.5473V57.1289Z" fill="black"/>
<path id="Path_4" d="M48.3939 57.1289H52.4121V42.8145H48.3939V42.8286H47.6721V43.4322C47.928 43.4251 48.168 43.4641 48.3939 43.5473V57.1289Z" fill="black"/>
</g>
</g>
</svg>
