<svg width="99" height="99" viewBox="0 0 99 99" fill="none" xmlns="http://www.w3.org/2000/svg">
<g id="land rover">
<path id="Path" fill-rule="evenodd" clip-rule="evenodd" d="M0 3C0 1.34314 1.34315 0 3 0H96C97.6569 0 99 1.34315 99 3V96C99 97.6569 97.6569 99 96 99H3C1.34314 99 0 97.6569 0 96V3Z" />
<g id="Group">
<path id="Path_2" d="M68.6832 52.3398H67.7855L67.2515 53.9577H68.1105C68.2036 53.9577 68.3951 53.9266 68.6867 53.854C68.829 53.8177 68.9696 53.7382 69.0978 53.6017C69.2261 53.4651 69.3174 53.3147 69.3771 53.1402C69.4632 52.8809 69.4632 52.6856 69.3719 52.5455C69.2858 52.4107 69.0539 52.3398 68.6832 52.3398" fill="black"/>
<path id="Path_3" d="M55.9707 47.1068C56.3905 47.1068 56.7067 47.0532 56.9211 46.9305C57.1371 46.8181 57.3462 46.6141 57.5482 46.3272C57.7503 46.0403 57.9663 45.5753 58.2 44.9323C58.5004 44.0767 58.5988 43.4959 58.4898 43.183C58.3757 42.8684 58.0647 42.7163 57.5482 42.7163H57.0546L55.4875 47.1068H55.9707Z" fill="black"/>
<path id="Path_4" d="M38.1631 52.3398H37.2689L36.7366 53.9577H37.5904C37.6817 53.9577 37.8714 53.9266 38.1666 53.854C38.3071 53.8177 38.4477 53.7382 38.5812 53.6017C38.7059 53.4651 38.8025 53.3147 38.8605 53.1402C38.9431 52.8809 38.9431 52.6856 38.8587 52.5455C38.7604 52.4107 38.532 52.3398 38.1631 52.3398" fill="black"/>
<path id="Path_5" d="M42.1207 42.9731L40.385 45.865H41.8027L42.1207 42.9731Z" fill="black"/>
<path id="Shape" fill-rule="evenodd" clip-rule="evenodd" d="M18.708 49.487C18.708 41.6584 32.4388 35.2681 49.2598 35.2681C66.086 35.2681 79.8115 41.6584 79.8115 49.487C79.8115 57.3172 66.086 63.7076 49.2598 63.7076C32.4388 63.7076 18.708 57.3172 18.708 49.487ZM48.2022 44.5174L49.0331 48.9321H50.9094L53.7764 40.891H51.9054L50.3191 45.3385L49.4864 40.891H47.6313L44.7642 48.9321H46.6299L48.2022 44.5174ZM50.421 58.7035L50.5721 50.7332H52.703L52.2796 56.4668L55.6403 50.7332H57.708L52.6275 58.7035H50.421ZM59.5087 55.3294H62.6744L63.2137 53.7011H60.0445L60.4679 52.4376H63.876L64.4399 50.7332H58.9887L56.3518 58.7035H61.9067L62.5004 56.8937H58.9887L59.5087 55.3294ZM70.8749 54.0883C71.1384 53.7651 71.344 53.3865 71.4898 52.9423C71.6531 52.4376 71.7006 52.0054 71.6092 51.6545C71.5231 51.2985 71.3334 51.0547 71.0471 50.932C70.7572 50.7937 70.2969 50.7332 69.6645 50.7332H66.2775L63.6388 58.7035H65.6819L66.7535 55.4642H66.9292C67.1207 55.4642 67.2665 55.5265 67.3702 55.6492C67.451 55.7494 67.5019 55.95 67.5335 56.2645L67.8181 58.7035H70.123L69.8981 56.3925C69.8911 56.2766 69.8472 56.1072 69.7804 55.8964C69.7067 55.682 69.6417 55.5455 69.5942 55.4729C69.5117 55.383 69.3676 55.2827 69.1585 55.1808C69.4871 55.1047 69.7629 54.9941 69.9737 54.8662C70.3162 54.6691 70.6167 54.4081 70.8749 54.0883ZM48.6115 54.6536C48.3023 55.5852 47.9194 56.3527 47.4608 56.9473C47.0041 57.5488 46.4841 58.0069 45.8833 58.3457C45.2807 58.6707 44.6167 58.8401 43.8858 58.8401C43.141 58.8401 42.5735 58.6949 42.1835 58.4131C41.7935 58.1244 41.5494 57.6647 41.4527 57.0493C41.3473 56.427 41.4563 55.6544 41.7654 54.7227C42.1976 53.4228 42.8335 52.4099 43.6715 51.6857C44.5077 50.9597 45.4652 50.5984 46.528 50.5984C47.6242 50.5984 48.3533 50.9528 48.7081 51.6632C49.0648 52.3788 49.0331 53.3727 48.6115 54.6536ZM40.3548 54.0883C40.62 53.7651 40.8221 53.3865 40.9679 52.9423C41.1383 52.4376 41.1769 52.0054 41.0873 51.6545C40.9995 51.2985 40.815 51.0547 40.5252 50.932C40.2318 50.7937 39.775 50.7332 39.1496 50.7332H35.7556L33.1169 58.7035H35.1635L36.2317 55.4642H36.4144C36.5988 55.4642 36.7481 55.5265 36.8483 55.6492C36.9273 55.7494 36.9818 55.95 37.0169 56.2645L37.3015 58.7035H39.5958L39.378 56.3925C39.3675 56.2766 39.3253 56.1072 39.2585 55.8964C39.1848 55.682 39.1215 55.5455 39.0706 55.4729C38.9933 55.383 38.8457 55.2827 38.6384 55.1808C38.9652 55.1047 39.241 54.9941 39.4553 54.8662C39.7944 54.6691 40.0965 54.4081 40.3548 54.0883ZM32.1841 55.2136L26.624 55.3069L27.736 53.6164L33.2223 51.0547L30.3008 53.6424L32.7533 53.5542L32.1841 55.2136ZM35.4358 40.891H33.4525L30.5802 48.9321H35.6677L36.3722 46.9478H33.2733L35.4358 40.891ZM41.8041 40.891H43.9684L43.5152 48.9321H41.4387L41.5985 47.6046H39.3306L38.5488 48.9321H36.5163L41.8041 40.891ZM59.9777 41.19C59.6879 40.993 59.2557 40.891 58.6672 40.891H55.7229L52.8541 48.9321H55.8072C56.1585 48.9321 56.5731 48.8561 57.0615 48.7126C57.4217 48.6089 57.7958 48.3876 58.1894 48.0696C58.5776 47.7481 58.9377 47.3591 59.2627 46.8803C59.5842 46.4136 59.8987 45.743 60.2096 44.8839C60.4064 44.3342 60.5399 43.8191 60.6084 43.3248C60.6769 42.8356 60.6576 42.4086 60.5557 42.0284C60.4608 41.6671 60.2641 41.3836 59.9777 41.19ZM63.0995 45.603L63.6704 43.9384L69.2271 43.8485L68.115 45.5407L62.6287 48.1007L65.5554 45.5131L63.0995 45.603Z" fill="black"/>
<path id="Path_6" d="M45.907 52.46C45.5012 52.46 45.1164 52.6363 44.7458 52.9941C44.3803 53.3381 44.0659 53.9223 43.7936 54.7347C43.5283 55.5385 43.4651 56.1141 43.5933 56.4667C43.7268 56.821 44.0044 56.9956 44.4243 56.9956C44.8617 56.9956 45.2622 56.8228 45.6153 56.4771C45.9649 56.1348 46.2899 55.516 46.5833 54.6241C46.8345 53.8722 46.8908 53.3294 46.7537 52.982C46.6132 52.6363 46.3374 52.46 45.907 52.46" fill="black"/>
<path id="Shape_2" fill-rule="evenodd" clip-rule="evenodd" d="M17 49.4872C17 40.6855 31.4915 33.5 49.2593 33.5C67.0272 33.5 81.5169 40.6855 81.5169 49.4872C81.5169 58.2923 67.0272 65.4709 49.2593 65.4709C31.4915 65.4709 17 58.2923 17 49.4872ZM17.7168 49.4872C17.7168 57.779 31.885 64.541 49.2593 64.541C66.6354 64.541 80.8036 57.779 80.8036 49.4872C80.8036 41.1972 66.6354 34.4369 49.2593 34.4369C31.885 34.4369 17.7168 41.1972 17.7168 49.4872Z" fill="black"/>
</g>
</g>
</svg>
