<svg width="99" height="99" viewBox="0 0 99 99" fill="none" xmlns="http://www.w3.org/2000/svg">
<g id="lexus">
<path id="Path" fill-rule="evenodd" clip-rule="evenodd" d="M0 3C0 1.34314 1.34315 0 3 0H96C97.6569 0 99 1.34315 99 3V96C99 97.6569 97.6569 99 96 99H3C1.34314 99 0 97.6569 0 96V3Z" />
<path id="Shape" fill-rule="evenodd" clip-rule="evenodd" d="M44.12 43.5246C44.5869 42.7862 48.6841 37.0834 50.1205 35.317C50.3415 35.0446 50.0945 34.7546 49.7772 34.7634C41.3699 34.9302 38.0124 39.9742 37.951 43.6298C37.951 47.725 41.0791 52.4794 49.5654 52.4794C53.7419 52.4794 56.9056 51.275 58.7476 49.579H60.8716C58.7657 51.8722 55.1258 53.6566 49.5654 53.6566C39.5459 53.6566 35.8535 48.305 35.8535 43.6914C35.8535 39.4382 39.5199 33.7002 49.5389 33.7002C51.3456 33.7002 52.8346 33.911 54.2622 34.2098C54.9493 34.3502 55.1788 34.781 54.835 35.229C53.557 36.837 52.3412 38.375 51.1073 40.0182C49.8248 41.7235 48.6562 43.5111 47.6091 45.3694C47.3447 45.8354 47.4506 46.6614 48.1819 46.6614H60.3959C61.0305 45.6946 61.2864 44.649 61.2599 43.6822C61.2599 40.0794 59.5411 37.5046 55.3817 35.5366L55.9726 34.693C61.2162 36.5034 63.2868 40.5102 63.2868 43.6914C63.2868 45.1766 62.8372 46.8374 61.8327 48.3666C61.5419 48.753 61.3831 48.9114 60.8455 48.9114H48.2882C48.1037 48.9114 47.9163 48.914 47.7274 48.9166H47.7273H47.7273C46.3548 48.9355 44.8972 48.9555 43.8204 47.9978C43.0891 47.3386 43.0891 46.5302 43.1152 46.0818C43.1417 45.625 43.2211 44.9394 44.12 43.5246ZM81.1487 62.5846C81.1487 62.1182 80.7608 61.723 80.2586 61.6526L70.4682 61.689C70.2653 61.689 70.1425 61.575 70.151 61.3906C70.2127 58.763 72.3977 56.5046 75.1298 56.5046H83.7573L83.783 58.2006H75.6492C74.7944 58.2006 73.9493 59.0174 73.8434 59.9926H81.88C83.4304 59.9926 84.6995 61.161 84.6995 62.5854C84.6995 64.0174 83.598 65.203 81.88 65.1774L59.6289 65.2298C55.6898 65.2298 55.1876 63.8766 55.1876 61.9258V57.3038C54.9585 57.4385 54.7273 57.5693 54.4962 57.7C54.0341 57.9615 53.5719 58.2229 53.1254 58.5162L49.9789 60.563L56.1042 65.159H51.4683L47.3973 62.259L44.1898 64.201C43.8459 64.408 43.5218 64.6349 43.1962 64.8629L43.1961 64.863C43.0379 64.9737 42.8794 65.0847 42.7181 65.1938H38.1099V63.4274H42.0927L45.7586 61.1346L40.3919 57.2938V58.261H38.1099V56.4946H44.4197L48.4731 59.447L51.5927 57.5314C51.9391 57.3221 52.2709 57.087 52.6022 56.8522L52.6023 56.8521L52.6026 56.8519L52.6028 56.8518C52.7854 56.7224 52.9679 56.5931 53.1527 56.4682H58.4135V61.7142C58.4135 62.593 58.7392 63.551 60.3164 63.551H66.1501V56.5118H69.323V63.533H80.091C80.673 63.533 81.1487 63.111 81.1487 62.5846ZM38.1095 56.4946H32.1527C30.5402 56.4946 29.2975 56.9166 28.3813 57.6366C26.7334 58.9374 26.2048 60.3078 26.2224 60.9234H28.3725C27.4294 61.6266 26.7948 62.4694 26.4603 63.4454H19.41C18.1412 63.4454 17.3213 62.5494 17.3213 61.679V56.433H14.2021V61.8814C14.2021 63.8406 16.0706 65.1938 19.0663 65.1938H38.1095V63.4274H30.549C30.5843 62.5314 31.5446 61.6266 32.4171 61.6266H38.1099H39.6783V59.825H38.1099H30.4607C30.3552 59.2978 31.342 58.261 32.0998 58.261H38.1095V56.4946Z" fill="black"/>
</g>
</svg>
