<svg width="99" height="99" viewBox="0 0 99 99" fill="none" xmlns="http://www.w3.org/2000/svg">
<g id="lincoln">
<path id="Path" fill-rule="evenodd" clip-rule="evenodd" d="M0 3C0 1.34314 1.34315 0 3 0H96C97.6569 0 99 1.34315 99 3V96C99 97.6569 97.6569 99 96 99H3C1.34314 99 0 97.6569 0 96V3Z" />
<g id="Group">
<path id="Path_2" d="M11.1239 63.7893H7.17087V56.415H6V64.8648H11.1239V63.7893Z" fill="black"/>
<path id="Path_3" d="M18.0923 64.8648H19.2632V56.415H18.0923V64.8648Z" fill="black"/>
<path id="Path_4" d="M28.4171 57.9194H28.4389L33.2311 64.8634H34.7174V56.4136H33.5465V63.3594H33.5211L28.7814 56.4136H27.248V64.8634H28.4171V57.9194Z" fill="black"/>
<path id="Path_5" d="M46.597 65.0778C48.5672 65.0778 49.6003 63.9489 49.8505 63.5969L48.8735 62.8698C48.3606 63.5773 47.6084 63.9987 46.6224 63.9987C44.6087 63.9987 43.407 62.4858 43.407 60.7045C43.407 58.788 44.6848 57.2805 46.6224 57.2805C47.4108 57.2805 48.2101 57.6218 48.7013 58.2422L49.6765 57.5151C48.9786 56.6245 47.7896 56.2031 46.6568 56.2031C44.0033 56.2031 42.1709 58.0893 42.1709 60.7045C42.1709 62.836 43.8601 65.0778 46.597 65.0778Z" fill="black"/>
<path id="Shape" fill-rule="evenodd" clip-rule="evenodd" d="M65.4837 60.6463C65.4837 63.1494 63.6205 65.0783 60.9942 65.0783C58.3697 65.0783 56.5137 63.1494 56.5137 60.6463C56.5137 58.1343 58.3697 56.2036 60.9942 56.2036C63.6259 56.2036 65.4837 58.1343 65.4837 60.6463ZM64.244 60.6463C64.244 58.7885 62.9698 57.2809 60.9942 57.2809C59.0204 57.2809 57.748 58.7938 57.748 60.6463C57.748 62.4863 59.0204 63.9974 60.9942 63.9974C62.9698 63.9974 64.244 62.4863 64.244 60.6463Z" fill="black"/>
<path id="Path_6" d="M78.0623 63.7893H74.1093V56.415H72.9438V64.8648H78.0623V63.7893Z" fill="black"/>
<path id="Path_7" d="M86.1903 57.9194H86.2193L91.008 64.8634H92.4942V56.4136H91.3233V63.3594H91.3052L86.5583 56.4136H85.0249V64.8634H86.1903V57.9194Z" fill="black"/>
<path id="Shape_2" fill-rule="evenodd" clip-rule="evenodd" d="M48.982 51.0698C47.9398 51.0573 47.1368 50.9702 47.1368 50.9702C46.7471 48.4742 46.604 45.7613 46.6003 43.3649C45.7376 43.2636 45.0488 43.1711 45.0488 43.1711V42.924C45.0488 42.924 45.7376 42.8244 46.6003 42.7284C46.604 40.3249 46.7471 37.6138 47.1332 35.1249C47.1332 35.1249 47.9398 35.0342 48.982 35.0129C49.0581 34.0369 49.1197 33.5 49.1197 33.5H49.3771C49.3771 33.5 49.4333 34.0369 49.5112 35.0129C50.5534 35.0342 51.36 35.1249 51.36 35.1249C51.7478 37.6138 51.8892 40.3249 51.9037 42.7284C52.7592 42.8244 53.4443 42.924 53.4443 42.924V43.1711C53.4443 43.1711 52.7592 43.2671 51.9037 43.3649C51.8892 45.7613 51.7478 48.4742 51.36 50.9702C51.36 50.9702 50.5534 51.0573 49.5112 51.0698C49.4333 52.0493 49.3771 52.5827 49.3771 52.5827H49.1197C49.1197 52.5827 49.0581 52.0493 48.982 51.0698ZM47.7132 35.8609H48.9294C48.8261 37.4271 48.7228 39.7151 48.7083 42.5418C48.2751 42.5596 47.7694 42.6076 47.2855 42.6538C47.2891 41.132 47.3743 38.1969 47.7132 35.8609ZM48.7083 43.5551C48.7228 46.3747 48.8261 48.6609 48.9294 50.2236H47.7132C47.3743 47.8947 47.2891 44.9631 47.2855 43.436C47.7694 43.4911 48.2751 43.5267 48.7083 43.5551ZM51.2168 43.436C50.7238 43.4911 50.2181 43.5267 49.7849 43.5551C49.7704 46.3747 49.6671 48.6609 49.5692 50.2236H50.78C51.1189 47.8947 51.2041 44.9631 51.2168 43.436ZM50.78 35.8609C51.1189 38.1969 51.2041 41.132 51.2168 42.6538C50.7238 42.604 50.2181 42.5596 49.7849 42.5418C49.7704 39.7151 49.6671 37.4271 49.5692 35.8609H50.78Z" fill="black"/>
</g>
</g>
</svg>
