<svg width="99" height="99" viewBox="0 0 99 99" fill="none" xmlns="http://www.w3.org/2000/svg">
<g id="mazda">
<path id="Path" fill-rule="evenodd" clip-rule="evenodd" d="M0 3C0 1.34314 1.34315 0 3 0H96C97.6569 0 99 1.34315 99 3V96C99 97.6569 97.6569 99 96 99H3C1.34314 99 0 97.6569 0 96V3Z" />
<g id="Group">
<path id="Shape" fill-rule="evenodd" clip-rule="evenodd" d="M18.1684 41.0537C21.0319 41.0537 24.4392 41.5598 26.5219 43.9056C26.5938 43.9964 26.6698 44.0873 26.7457 44.1768C27.7558 45.4322 28.3727 47.2327 28.3727 49.6456C28.3727 57.0828 22.591 58.2711 18.1684 58.2711C13.7844 58.2711 8 57.0828 8 49.6456C8 47.2327 8.62095 45.4322 9.62566 44.1768C9.63062 44.1696 9.63555 44.1625 9.64048 44.1553C9.66728 44.1164 9.69387 44.0778 9.72427 44.0412C11.7697 41.5598 15.2808 41.0537 18.1684 41.0537ZM11.5431 45.3664C12.9076 43.1605 15.51 42.6152 18.1684 42.6152C20.8361 42.6152 23.3718 43.1255 24.7656 45.2979C24.7789 45.3219 24.7932 45.3455 24.8073 45.369L24.8073 45.369C24.8229 45.3949 24.8383 45.4205 24.8522 45.4461C24.2 45.847 23.523 46.1413 22.8504 46.4337C21.0836 47.2017 19.3467 47.9567 18.1684 50.5963C16.8957 48.0476 15.1591 47.3217 13.4122 46.5916L13.4122 46.5916C12.7339 46.308 12.0541 46.0238 11.3992 45.6321C11.4445 45.5426 11.4925 45.4559 11.5431 45.3664ZM18.1684 56.7096C14.2401 56.7445 10.5358 55.5562 10.5358 49.6456C10.5358 49.2039 10.5358 48.7621 10.6011 48.3875C10.6153 48.3334 10.6283 48.2781 10.6413 48.2228C10.6478 48.1952 10.6544 48.1675 10.661 48.14C11.605 48.4728 12.5477 48.8063 13.4909 49.14L13.4915 49.1402L14.6319 49.5436C16.1883 50.2244 17.229 51.1736 18.1684 53.3125C19.1131 51.1736 20.1218 50.0874 21.7128 49.408C22.6182 49.0696 23.5229 48.7305 24.427 48.3917L24.4282 48.3912L25.7144 47.9094C25.7168 47.9185 25.7194 47.9276 25.7221 47.9368L25.7221 47.937C25.7296 47.9629 25.7371 47.9892 25.741 48.017C25.8063 48.4895 25.8383 49.0697 25.8383 49.647C25.8383 55.5562 22.1019 56.7445 18.1684 56.7096Z" fill="black"/>
<path id="Path_2" d="M62.1497 47.3145L66.0998 44.1841H57.7998V47.3145H62.1497Z" fill="black"/>
<path id="Shape_2" fill-rule="evenodd" clip-rule="evenodd" d="M80.8793 44.1857H87.8672C87.8672 44.1857 91.0002 44.0545 91.0002 47.2346V55.1406H82.8272C82.8272 55.1406 80.1613 55.0964 79.7813 52.3128C79.1438 54.3449 77.7925 55.0964 76.3513 55.0964H68.8144V47.0578L59.2055 55.1378H49.47C49.47 55.1378 47.7768 55.1378 46.9282 53.6804V55.1378H43.4138V48.8674C43.4138 48.8674 43.6262 47.4542 41.9753 47.4542H40.835V55.1378H37.4473V47.4542H34.9504V55.1406H31.3911V44.1871H43.1591C43.1591 44.1871 46.9282 43.9246 46.9282 48.2941V49.5292C47.7331 48.2319 49.2978 48.2435 49.9265 48.2481C49.9606 48.2483 49.9919 48.2486 50.0203 48.2486H54.4638C54.4638 48.2486 54.6776 47.1475 53.0675 47.1475H47.522V44.1857H54.506C54.506 44.1857 57.6417 44.0545 57.6417 47.2346V52.0917L67.2083 44.1857H76.6047C76.6047 44.1857 80.2023 44.0545 80.2023 49.0443V49.572C81.0059 48.2321 82.6146 48.2436 83.2442 48.2481C83.2774 48.2483 83.3078 48.2486 83.3353 48.2486H87.7814C87.7814 48.2486 88.0348 47.1475 86.4234 47.1475H80.8793V44.1857ZM72.2034 51.9149H75.3774C76.2259 51.9149 76.9412 51.4729 76.9412 49.4435C76.9412 47.4086 75.4183 47.2788 75.4183 47.2788H72.2034V51.9149ZM83.9714 52.1346H87.6943V50.6785H84.0532C83.8434 50.6785 83.2086 50.7227 83.2086 51.3858C83.2086 52.1802 83.9714 52.1346 83.9714 52.1346ZM54.4189 52.1346H50.6933C50.6933 52.1346 49.9345 52.1802 49.9345 51.3858C49.9345 50.7227 50.527 50.6785 50.7369 50.6785H54.4189V52.1346Z" fill="black"/>
<path id="Path_3" d="M60.0635 55.1407H68.3635V52.0103H64.0114L60.0635 55.1407Z" fill="black"/>
</g>
</g>
</svg>
