<svg width="99" height="99" viewBox="0 0 99 99" fill="none" xmlns="http://www.w3.org/2000/svg">
<g id="mercury">
<path id="Path" fill-rule="evenodd" clip-rule="evenodd" d="M0 3C0 1.34314 1.34315 0 3 0H96C97.6569 0 99 1.34315 99 3V96C99 97.6569 97.6569 99 96 99H3C1.34314 99 0 97.6569 0 96V3Z" />
<g id="Group">
<path id="Shape" fill-rule="evenodd" clip-rule="evenodd" d="M61.5593 57.4683C57.945 61.0096 53.6139 62.8281 48.4652 62.8281C43.4102 62.8281 38.9731 61.0096 35.3605 57.4683C31.7533 53.9234 30 49.6745 30 44.7162C30 39.6571 31.7533 35.4099 35.3605 31.8686C38.9731 28.3254 43.4102 26.5 48.4652 26.5C53.6139 26.5 57.945 28.3254 61.5593 31.8686C65.1631 35.4099 66.9199 39.6571 66.9199 44.7162C66.9199 49.6745 65.1631 53.9234 61.5593 57.4683ZM48.4652 27.7187C43.7174 27.7187 39.5946 29.3355 36.1904 32.677C32.7827 36.0132 31.1353 40.0639 31.1353 44.7162C31.1353 49.3737 32.7827 53.3184 36.1904 56.6564C39.5946 60.0013 43.7174 61.7155 48.4652 61.7155C53.2025 61.7155 57.3306 59.9978 60.733 56.6564C64.1354 53.3184 65.7863 49.3737 65.7863 44.7162C65.7863 40.0639 64.1354 36.0132 60.733 32.677C57.3306 29.3355 53.2025 27.7187 48.4652 27.7187Z" fill="black"/>
<path id="Shape_2" fill-rule="evenodd" clip-rule="evenodd" d="M58.0842 54.0595C55.4233 56.6569 52.2187 57.9608 48.4578 57.9608C44.8064 57.9608 41.6053 56.6569 38.9462 54.0595C36.2907 51.4483 34.9629 48.3033 34.9629 44.7202C34.9629 41.0259 36.2907 37.8861 38.9462 35.2818C41.6053 32.674 44.8064 31.3701 48.4578 31.3701C52.2187 31.3701 55.4233 32.674 58.0842 35.2818C60.7344 37.8861 62.0622 41.0259 62.0622 44.7202C62.0622 48.3033 60.7344 51.4483 58.0842 54.0595ZM35.5155 44.7202C35.5155 41.2484 36.7303 38.206 39.2782 35.6052C41.8242 33.1034 44.9212 31.9125 48.4578 31.9125C50.7796 31.9125 52.992 32.4619 55.0896 33.6493C57.0848 34.8454 58.6298 36.3631 59.7368 38.4302H44.1408C43.4787 38.4302 42.9278 38.6389 42.5941 39.077L42.2656 39.5099L36.5114 49.3864C35.851 47.7626 35.5155 46.1319 35.5155 44.7202ZM45.6928 40.4834L46.0194 40.054C46.4644 39.7272 47.0206 39.5099 47.5732 39.5099H60.2912L60.7344 40.4834H48.5708C48.0146 40.4834 47.4567 40.706 47.0206 41.1406L46.6869 41.464L39.4989 53.837L38.5066 52.747L45.6928 40.4834ZM52.992 42.5523H61.2853L61.0699 41.464H51.9962C51.3358 41.464 50.7796 41.6778 50.34 42.2272L50.1193 42.5523L42.2656 55.7876L43.4787 56.4448L51.1116 43.6336L51.4471 43.199C51.7719 42.7679 52.3299 42.5523 52.992 42.5523ZM61.4001 44.7202C61.4001 48.1955 60.1835 51.1267 57.6375 53.6214C55.0896 56.1127 52.1092 57.4166 48.4578 57.4166L47.0206 57.3088L54.5405 44.6055L54.7612 44.2873C55.2008 43.7414 55.7535 43.5276 56.3097 43.5276H61.4001V44.7202Z" fill="black"/>
<path id="Path_2" d="M37.425 71.8343V65.6626H35.8783L33.8178 70.3184L31.8562 65.6626H30.207V71.8343H31.3423V67.1786L33.2987 71.8343H34.3316L36.3974 67.1786V71.8343H37.425Z" fill="black"/>
<path id="Shape_3" fill-rule="evenodd" clip-rule="evenodd" d="M38.1484 69.6067C38.1484 67.9864 38.973 67.1797 40.6239 67.1797C42.379 67.1797 43.3077 68.0872 43.3077 69.9126H39.1778C39.3826 70.7211 39.9035 71.1279 40.7245 71.227C41.346 71.227 41.7574 71.0236 42.0717 70.5176H43.2035L42.582 71.4321C42.1741 71.8337 41.5526 72.0423 40.7245 72.0423C38.973 72.0423 38.1484 71.227 38.1484 69.6067ZM40.6239 67.9864C39.9035 67.9864 39.3826 68.3967 39.2838 69.106H42.1741C42.0717 68.3967 41.5526 67.9864 40.6239 67.9864Z" fill="black"/>
<path id="Path_3" d="M49.9071 68.0877C50.6293 68.0877 51.1449 68.3971 51.249 68.8961H52.379C52.1725 67.7852 51.3514 67.1802 49.8047 67.1802C49.079 67.1802 48.4664 67.3818 47.9508 67.8878C47.4299 68.2963 47.2251 68.7987 47.2251 69.5081C47.2251 71.2275 48.1521 72.0393 49.9071 72.0393C51.249 72.0393 52.0736 71.4326 52.379 70.3182H51.249C51.1449 70.8259 50.7282 71.1231 49.8047 71.1231C48.8778 71.1231 48.3586 70.6207 48.3586 69.5081C48.3551 68.5988 48.8742 68.0877 49.9071 68.0877Z" fill="black"/>
<path id="Path_4" d="M57.5369 71.8345V67.3804H56.5076V70.4193C56.0944 70.9252 55.5788 71.1286 55.0597 71.1286C54.3376 71.1286 54.0321 70.7201 54.0321 69.8108V67.3804H52.895V70.3185C52.895 71.4311 53.5165 72.0431 54.7543 72.0431C55.3669 72.0431 55.9867 71.8345 56.5076 71.332V71.8345H57.5369Z" fill="black"/>
<path id="Path_5" d="M58.4644 67.3814V71.8354H59.5997V69.4085C59.5997 68.6939 60.0075 68.2958 60.9345 68.2958H61.662V67.1797H61.2488C60.5266 67.1797 59.9122 67.4805 59.5997 67.9881V67.3866H58.4644V67.3814Z" fill="black"/>
<path id="Path_6" d="M44.0254 67.3814V71.8354H45.1607V69.4085C45.1607 68.6939 45.5739 68.2958 46.5008 68.2958H47.2248V67.1797H46.8098C46.0894 67.1797 45.4732 67.4805 45.1607 67.9881V67.3866H44.0254V67.3814Z" fill="black"/>
<path id="Path_7" d="M62.7945 72.5443L62.1729 72.4452V73.3544L63.107 73.4535C64.0357 73.4535 64.6519 73.0519 64.9574 72.2348L67.4364 67.3809H66.3046L64.6519 70.6197L63.107 67.3809H61.8657L63.8291 71.0231L63.928 71.8349C63.928 72.3409 63.5201 72.5443 62.7945 72.5443Z" fill="black"/>
</g>
</g>
</svg>
