<svg width="99" height="99" viewBox="0 0 99 99" fill="none" xmlns="http://www.w3.org/2000/svg">
<g id="mercedes">
<path id="Path" fill-rule="evenodd" clip-rule="evenodd" d="M0 3C0 1.34314 1.34315 0 3 0H96C97.6569 0 99 1.34315 99 3V96C99 97.6569 97.6569 99 96 99H3C1.34314 99 0 97.6569 0 96V3Z" />
<g id="Group">
<path id="Path_2" d="M49.3999 34.9404C49.3999 34.6494 49.3117 34.6388 49.287 34.9298L48.356 48.8221L49.2835 49.3634L49.3999 34.9404Z" fill="black"/>
<path id="Path_3" d="M45.0524 52.0668L48.9636 49.8995L48.0749 49.4058L44.943 51.9733C44.7667 52.1197 44.846 52.1814 45.0524 52.0668Z" fill="black"/>
<path id="Shape" fill-rule="evenodd" clip-rule="evenodd" d="M27 49.7245C27 37.4493 37.0621 27.4947 49.4678 27.5C61.8911 27.5 71.9462 37.4545 71.9462 49.7245C71.9462 62.0032 61.8841 71.9577 49.4696 71.9577C37.0551 71.9542 27 61.9979 27 49.7245ZM70.9922 45.9578C70.944 45.901 70.9109 45.8122 70.8733 45.7112L70.8705 45.7038C69.227 40.6393 67.8268 38.6484 65.1305 35.6894C61.579 31.7887 55.7756 28.7785 49.6053 28.7714C37.8098 28.7714 28.2379 38.3451 28.2379 50.1406C28.2379 53.6498 29.0015 56.6759 29.6169 58.1977C30.3382 59.9629 31.5849 62.3382 31.6466 62.4458C31.7031 62.571 31.7083 62.6221 31.7136 62.728C31.6255 62.6609 31.5884 62.6063 31.5126 62.4934C31.1546 61.975 29.6892 59.3351 29.2307 58.1818C28.2379 55.6707 27.5043 52.9339 27.5043 50.0595C27.5043 37.9007 37.346 28.0379 49.5119 28.0379C60.3799 28.0379 69.1423 35.5871 70.9922 45.6933C70.9936 45.7198 70.9968 45.7454 70.9998 45.7704C71.0077 45.835 71.0151 45.8955 70.9922 45.9578ZM31.0382 60.3879C30.2958 58.8467 29.5111 56.6759 29.1866 54.9583C29.1856 54.9376 29.1839 54.9177 29.1824 54.8984C29.1763 54.824 29.171 54.7581 29.199 54.6867C29.2477 54.75 29.274 54.8208 29.3122 54.9238L29.3224 54.9512L29.3633 55.0776C29.8564 56.6041 30.3076 58.0009 31.4385 60.074L31.0382 60.3879ZM47.1912 48.8727L31.4456 60.1921C31.0647 60.462 31.1758 60.5889 31.5937 60.3597L49.1821 50.2006V53.8562L32.1986 60.3368C35.7519 66.1419 42.0579 69.8451 49.4114 69.8451C56.749 69.8451 63.159 66.1384 66.7123 60.3438L49.757 53.8667V50.2112L66.6718 59.9664C67.058 60.1798 67.1673 60.0634 66.8058 59.806L51.7461 48.8833L53.0952 48.1127L67.1073 59.7848C68.7174 56.9104 69.7807 53.2407 69.7807 49.7245C69.7807 38.823 60.7167 30.0041 49.7782 29.7096L52.8359 47.4849L49.6406 49.3612L49.533 29.7131C49.533 29.4786 49.3761 29.4786 49.3426 29.7131L47.5386 48.3455L46.1984 47.5678L49.0693 29.7131C37.9385 29.7819 29.1496 38.7189 29.1496 49.7597C29.1496 53.246 30.2447 56.9104 31.8194 59.7672L45.8457 48.1056L47.1912 48.8727ZM49.4678 71.1113C41.0245 71.1113 34.3993 66.7221 31.2446 60.6894L31.7295 60.5113C32.5389 61.8308 33.5923 62.9938 35.0033 64.5517L35.0589 64.6131C36.8329 66.5634 42.4423 70.3248 49.4607 70.3248C56.9324 70.3266 63.4976 66.4505 67.1814 60.529C67.4636 60.4496 67.5553 60.3262 67.46 60.0793C69.1476 57.1079 70.2939 53.3747 70.2939 49.7245C70.2939 47.4267 69.957 45.5575 69.421 43.8875C69.0242 42.6284 68.4652 41.3764 68.2148 40.8809C68.1478 40.7627 68.1425 40.701 68.1372 40.5934C68.2271 40.6675 68.2712 40.7169 68.3365 40.8368C68.6627 41.4328 69.3945 42.8912 69.7366 43.8399C69.7948 44 69.8587 44.1677 69.9261 44.3444L69.9261 44.3445C70.3934 45.5704 71.0239 47.2244 71.0239 49.7245C71.0239 61.423 61.4485 71.1183 49.4678 71.1113Z" fill="black"/>
<path id="Path_4" d="M62.5108 57.1264L50.9269 49.3638L49.9746 49.9087L62.4544 57.2128C62.6766 57.3415 62.7242 57.2639 62.5108 57.1264Z" fill="black"/>
</g>
</g>
</svg>
