<svg width="99" height="99" viewBox="0 0 99 99" fill="none" xmlns="http://www.w3.org/2000/svg">
<g id="mini">
<path id="Path" fill-rule="evenodd" clip-rule="evenodd" d="M0 3C0 1.34314 1.34315 0 3 0H96C97.6569 0 99 1.34315 99 3V96C99 97.6569 97.6569 99 96 99H3C1.34314 99 0 97.6569 0 96V3Z" />
<g id="Group">
<path id="Shape" fill-rule="evenodd" clip-rule="evenodd" d="M62.4681 49.2729C62.4681 56.4768 56.6381 62.3157 49.4423 62.3157C42.2495 62.3157 36.4165 56.4768 36.418 49.2729C36.418 42.0645 42.2495 36.2241 49.4423 36.2241C56.6381 36.2241 62.4681 42.0645 62.4681 49.2729ZM61.5017 49.2729C61.5017 42.6028 56.1037 37.195 49.4423 37.195C42.7839 37.195 37.3859 42.6028 37.3859 49.2729C37.3859 55.937 42.7839 61.3448 49.4423 61.3448C56.1037 61.3448 61.5017 55.937 61.5017 49.2729Z" fill="black"/>
<path id="Shape_2" fill-rule="evenodd" clip-rule="evenodd" d="M16.1717 46.5621C15.3403 45.6358 14.6233 44.7913 14.0309 44.0716H14.0265C12.7067 42.4703 12 41.4785 12 41.4785H12.0074H34.7855H35.7431C38.4525 36.7087 43.5714 33.5 49.4415 33.5C55.313 33.5 60.4334 36.7087 63.1443 41.4785H86.7909H86.7953C86.7953 41.4785 79.258 52.0948 67.3857 59.7968H67.3783H61.1697C58.2882 63.0203 54.1001 65.0484 49.4429 65.0484C44.7858 65.0484 40.5977 63.0203 37.7146 59.7968H35.6139H31.4155H31.4125C30.0749 58.9284 28.7922 58.0318 27.5734 57.1115H27.5764C26.4896 56.2878 25.4489 55.4581 24.4602 54.6225H24.4557C23.3438 53.6813 22.3016 52.749 21.3232 51.8361H21.3277C20.4206 50.9871 19.5729 50.1485 18.7846 49.3515H18.7787C17.8122 48.3642 16.9392 47.4245 16.1673 46.5621H16.1717ZM49.4429 35.6173C56.9713 35.6173 63.076 41.7298 63.076 49.2727C63.076 56.8082 56.9713 62.9192 49.4429 62.9192C41.9146 62.9192 35.8099 56.8082 35.8099 49.2727C35.8099 41.7298 41.9146 35.6173 49.4429 35.6173ZM33.9215 46.5621C34.0715 45.7042 34.2867 44.8731 34.5658 44.0716H14.5565C15.1637 44.8032 15.8852 45.6447 16.7136 46.5621H33.9215ZM28.2518 57.1115H35.7698C35.317 56.316 34.931 55.4848 34.6208 54.6225H25.0897C26.1363 55.4878 27.1904 56.3205 28.2518 57.1115ZM73.7116 54.6225H64.2666C63.9534 55.4848 63.5689 56.316 63.1175 57.1115H70.5494C71.6109 56.3205 72.6664 55.4878 73.7116 54.6225ZM84.2433 44.0716C83.6361 44.7987 82.9146 45.6447 82.0847 46.5621H64.9629C64.8174 45.7042 64.5992 44.8731 64.3215 44.0716H84.2433ZM64.9881 51.8361H76.8782C77.7467 51.0272 78.6048 50.199 79.4481 49.3515H65.196C65.1915 50.1946 65.1203 51.0272 64.9881 51.8361ZM21.9201 51.8361C21.0531 51.0272 20.195 50.199 19.3517 49.3515H33.6914C33.6959 50.1946 33.7641 51.0272 33.8963 51.8361H21.9201Z" fill="black"/>
<path id="Path_2" d="M47.7944 52.6865H49.4408V45.9302H47.7944V52.6865Z" fill="black"/>
<path id="Path_3" d="M42.9638 52.6865L44.6578 48.7136V52.6865H46.319V45.9302H44.6978H44.6578H44.493L42.5793 50.3848L40.826 45.9302H38.9658V52.6865H40.3792V48.6199L41.9929 52.6865H42.9638Z" fill="black"/>
<path id="Path_4" d="M52.3123 48.612L55.4462 52.686H56.72V45.9297H55.2874V50.0364V50.0394L52.1326 45.9297H50.8989V52.686H52.3123V48.612Z" fill="black"/>
<path id="Path_5" d="M58.1982 52.6865H59.8447V45.9302H58.1982V52.6865Z" fill="black"/>
</g>
</g>
</svg>
