<svg width="99" height="99" viewBox="0 0 99 99" fill="none" xmlns="http://www.w3.org/2000/svg">
<g id="mitsubishi">
<path id="Path" fill-rule="evenodd" clip-rule="evenodd" d="M0 3C0 1.34314 1.34315 0 3 0H96C97.6569 0 99 1.34315 99 3V96C99 97.6569 97.6569 99 96 99H3C1.34314 99 0 97.6569 0 96V3Z" />
<g id="Group">
<path id="Path_2" d="M49.8601 28.5L43.2405 39.8273L49.8601 51.1003L56.5277 39.8273L49.8601 28.5Z" fill="black"/>
<path id="Path_3" d="M49.8601 51.0996L56.5277 62.3848H69.767L63.1509 51.0996H49.8601Z" fill="black"/>
<path id="Path_4" d="M30 62.3853H43.2411L49.8607 51.1001H36.6232L30 62.3853Z" fill="black"/>
<path id="Path_5" d="M34.8965 68.1259L33.8219 65.6514H32.7332V71.0844H33.7171V67.5436L34.8965 70.1146L36.1344 67.5436V71.0844H37.1202V65.6514H36.0385L34.8965 68.1259Z" fill="black"/>
<path id="Path_6" d="M38.003 71.0827H38.9887V65.6514H38.003V71.0827Z" fill="black"/>
<path id="Path_7" d="M39.4358 66.4809H40.6151V71.0844H41.6009V66.4809H42.7856V65.6514H39.4358V66.4809Z" fill="black"/>
<path id="Path_8" d="M44.9498 67.9314C44.1648 67.5438 43.8646 67.3492 43.8646 66.9633C43.8646 66.6179 44.1079 66.4285 44.5537 66.4285C45.0493 66.4285 45.2926 66.8651 45.2926 67.3053H46.2819C46.2322 66.3829 45.7881 65.606 44.5537 65.606C43.4223 65.606 42.8806 66.1882 42.8806 67.0124C42.8806 67.7858 43.3744 68.2243 44.1079 68.6574C45.1505 69.2397 45.3903 69.3887 45.3903 69.7237C45.3903 70.1148 45.099 70.3533 44.6017 70.3533C44.0138 70.3533 43.7687 69.871 43.7687 69.3887H42.8291C42.8806 70.4042 43.3246 71.2266 44.6017 71.2266C45.543 71.2266 46.376 70.6953 46.376 69.6781C46.376 68.803 45.8361 68.4189 44.9498 67.9314Z" fill="black"/>
<path id="Path_9" d="M49.541 69.3883C49.541 69.9705 49.255 70.3055 48.7151 70.3055C48.0668 70.3055 47.7702 69.9705 47.7702 69.3883V65.6528H46.7915V69.3883C46.7915 70.8368 47.8252 71.1806 48.7151 71.1806C49.541 71.1806 50.532 70.7948 50.532 69.3883V65.6528H49.541V69.3883Z" fill="black"/>
<path id="Shape" fill-rule="evenodd" clip-rule="evenodd" d="M54.672 67.012C54.672 67.738 54.1285 68.1712 53.8816 68.2238C54.2262 68.322 54.8692 68.7061 54.8692 69.5794C54.8692 70.4528 54.1765 71.0841 53.196 71.0841H51.1748V65.6528H52.9953C54.0255 65.6528 54.672 66.1404 54.672 67.012ZM52.1552 70.2581H52.9456C53.4873 70.2581 53.8319 70.0179 53.8319 69.4339C53.8319 68.9042 53.4873 68.7061 52.8977 68.7061H52.5069V67.8362H52.8977C53.3879 67.8362 53.6827 67.6451 53.6827 67.1575C53.6827 66.6717 53.3435 66.4806 52.8977 66.4806H52.1552V70.2581Z" fill="black"/>
<path id="Path_10" d="M64.076 67.7849H62.108V65.6523H61.0779V71.0836H62.108V68.7056H64.1257V71.0836H65.1062V65.6523H64.076V67.7849Z" fill="black"/>
<path id="Path_11" d="M55.4091 71.0827H56.3966V65.6514H55.4091V71.0827Z" fill="black"/>
<path id="Path_12" d="M66.05 71.0827H67.034V65.6514H66.05V71.0827Z" fill="black"/>
<path id="Path_13" d="M59.1606 67.8819C58.3667 67.447 58.0719 67.2523 58.0719 66.9138C58.0719 66.5736 58.3631 66.3824 58.7557 66.3824C59.2512 66.3824 59.4981 66.7683 59.5478 67.2523H60.4803C60.4323 66.3333 59.9936 65.5547 58.7557 65.5547C57.6243 65.5547 57.0826 66.1404 57.0826 66.9647C57.0826 67.7381 57.5763 68.1712 58.3152 68.5658C59.3525 69.1428 59.5905 69.3357 59.5905 69.6777C59.5905 70.0635 59.3027 70.3055 58.8125 70.3055C58.2193 70.3055 57.9706 69.7724 57.9706 69.2866H57.0364C57.0826 70.3529 57.5266 71.1315 58.8125 71.1315C59.745 71.1315 60.5869 70.5966 60.5869 69.6303C60.5815 68.7061 60.0416 68.3694 59.1606 67.8819Z" fill="black"/>
</g>
</g>
</svg>
