<svg width="99" height="99" viewBox="0 0 99 99" fill="none" xmlns="http://www.w3.org/2000/svg">
<g id="nissan">
<path id="Path" fill-rule="evenodd" clip-rule="evenodd" d="M0 3C0 1.34314 1.34315 0 3 0H96C97.6569 0 99 1.34315 99 3V96C99 97.6569 97.6569 99 96 99H3C1.34314 99 0 97.6569 0 96V3Z" />
<g id="Group">
<path id="Path_2" d="M59.4697 47.5919C58.6522 47.6271 57.3644 47.3807 57.3996 48.6409C58.5095 48.6954 59.6635 48.6796 60.7434 48.6514C60.9425 47.7556 60.0634 47.5673 59.4697 47.5919Z" fill="black"/>
<path id="Shape" fill-rule="evenodd" clip-rule="evenodd" d="M72.1598 43.611C72.9191 43.7149 73.6696 43.8205 74.406 43.9349C74.406 43.9349 75.6639 43.9648 75.6921 45.5981C75.7009 45.5981 75.8911 51.1245 75.6445 53.4037C75.6445 53.416 75.6181 54.9806 74.3091 55.0915C74.3091 55.0915 73.5322 55.2147 72.1386 55.3942C69.4167 64.6501 60.4952 71.4454 49.8983 71.4454C39.2591 71.4454 30.3041 64.6008 27.6228 55.2957C26.9762 55.1954 26.3719 55.0898 25.8293 54.9718C25.8211 54.9677 25.794 54.9661 25.7525 54.9636C25.4387 54.9446 24.2977 54.8754 24.1997 53.3086C24.0535 51.649 23.835 46.7403 24.1997 45.2637C24.1997 45.1898 24.3107 44.044 25.9456 43.7483C26.0637 43.7241 26.1813 43.6999 26.2989 43.6758C26.7545 43.582 27.2101 43.4883 27.7003 43.3946C30.475 34.2162 39.3578 27.5 49.8983 27.5C60.5234 27.5 69.466 34.3235 72.1598 43.611ZM49.8983 32.8592C57.1127 32.8592 63.2964 37.0198 65.9619 42.951C53.2773 41.8898 39.8792 42.3509 33.9721 42.6448C36.7151 36.8773 42.8055 32.8592 49.8983 32.8592ZM44.3787 51.0189C42.7438 51.0118 41.2693 51.0118 39.6678 51.0189C39.6781 51.1829 39.6734 51.3481 39.6688 51.5117C39.6615 51.7675 39.6543 52.0196 39.7048 52.2579C40.6539 52.2521 41.5958 52.2534 42.5366 52.2546C43.5815 52.256 44.625 52.2575 45.6754 52.2491C45.7053 52.2491 45.734 52.2515 45.7623 52.2539L45.7624 52.2539C45.8506 52.2612 45.9351 52.2682 46.0418 52.2016C46.1111 52.1591 46.1476 52.1604 46.1801 52.1616C46.2162 52.1629 46.2473 52.1641 46.3131 52.1048C47.6468 50.9344 46.4277 49.6232 45.2032 49.361C44.5912 49.2314 44.0113 48.9878 43.43 48.7437C42.9137 48.5268 42.3962 48.3095 41.8542 48.1712C41.6639 48.1237 41.4842 47.8526 41.6762 47.7277C41.796 47.652 41.8912 47.6238 42.0215 47.6238C42.6044 47.6219 43.185 47.623 43.7652 47.6241C44.7911 47.626 45.8156 47.6279 46.8487 47.6133L46.8545 47.5169L46.8545 47.5169C46.8788 47.1156 46.8991 46.7809 46.8452 46.3584C46.3502 46.3673 45.8316 46.3622 45.311 46.357C44.5921 46.35 43.8694 46.3429 43.2001 46.3725C42.9266 46.3849 42.6302 46.3695 42.3289 46.3539C41.2622 46.2987 40.1339 46.2403 39.7383 47.3986C39.6392 47.694 39.6876 47.8814 39.753 48.1349C39.7608 48.1653 39.7689 48.1967 39.7771 48.2293C39.8986 48.7221 40.2651 49.0442 40.7125 49.199C41.3043 49.3953 41.864 49.6067 42.4252 49.8186C43.057 50.0572 43.6905 50.2965 44.3735 50.5155C44.6677 50.6088 44.6941 51.0189 44.3787 51.0189ZM38.8821 52.235C38.5649 52.2622 38.2957 52.2586 38.0211 52.255C37.7618 52.2515 37.4977 52.248 37.1838 52.2702C37.1579 50.9037 37.1639 49.5285 37.1698 48.1549V48.1547V48.1545V48.1543V48.154V48.1538C37.1724 47.5606 37.175 46.9678 37.175 46.376C37.788 46.3461 38.269 46.3461 38.8821 46.376C38.8944 48.3296 38.8944 50.2832 38.8821 52.235ZM32.1091 49.9958C32.3469 50.4516 32.585 50.9081 32.8129 51.392C33.2956 52.4216 34.8829 52.5166 35.7479 51.8989C36.0034 51.7211 36.1479 51.3638 36.1479 51.0382C36.1479 50.6826 36.1481 50.326 36.1484 49.9689C36.1494 48.776 36.1503 47.5771 36.1408 46.3866C35.6105 46.3672 35.2036 46.3672 34.6662 46.3866C34.6713 46.867 34.6649 47.3263 34.6585 47.7813V47.7814V47.7814V47.7814V47.7814V47.7815V47.7815C34.6473 48.5848 34.6363 49.3748 34.6891 50.2445C34.7156 50.6722 34.2064 50.8411 34.0214 50.4504C33.7581 49.8995 33.4993 49.4116 33.2462 48.9342L33.2461 48.9342L33.2461 48.934C32.9775 48.4278 32.7153 47.9333 32.4605 47.388C32.2685 46.9867 31.9901 46.6488 31.5744 46.501C30.9472 46.2739 30.2407 46.3214 29.6858 46.7174C29.3598 46.9462 29.277 47.3458 29.2806 47.7312L29.2832 48.0717C29.2932 49.3417 29.3029 50.587 29.277 51.8813C29.2665 52.147 29.3845 52.3213 29.7228 52.2702C29.9994 52.2256 30.1068 52.2379 30.3833 52.2696L30.4046 52.272C30.7129 52.3072 30.7604 52.1206 30.7604 51.8813C30.7604 51.5206 30.7574 51.17 30.7544 50.8231L30.7544 50.8231V50.823V50.8229V50.8228C30.7475 50.0137 30.7407 49.2251 30.7728 48.3789C30.7886 48.1078 31.1938 48.1448 31.3066 48.3859C31.5628 48.9488 31.8357 49.4719 32.1091 49.9958ZM70.1073 51.7282C69.3709 52.4885 67.7008 52.5237 67.1088 51.561C66.7665 51.0034 66.4748 50.4187 66.1859 49.8399L66.1859 49.8398L66.1859 49.8397C65.9441 49.3552 65.7044 48.8747 65.4387 48.4176L65.4353 48.4115C65.3633 48.2833 65.2621 48.1033 65.1233 48.1483C64.9577 48.2029 64.8873 48.3947 64.8873 48.5637C64.8814 49.145 64.8839 49.7295 64.8865 50.3135V50.314V50.3144V50.3148V50.3152V50.3156V50.316V50.3164C64.8892 50.9569 64.892 51.5968 64.8837 52.2315C64.5965 52.2628 64.35 52.2593 64.0942 52.2558C63.8886 52.253 63.6771 52.2501 63.4338 52.265C63.4162 51.1034 63.3986 49.8925 63.4338 48.7326C63.4397 48.5647 63.4283 48.3902 63.417 48.2151L63.417 48.215C63.3871 47.7553 63.357 47.2916 63.6364 46.9322C64.0962 46.3514 64.9419 46.2739 65.636 46.4605C66.0712 46.5837 66.4059 46.9498 66.612 47.3704C66.922 48.0097 67.2525 48.6267 67.5861 49.2496L67.5862 49.2497C67.8156 49.6781 68.0465 50.1093 68.2733 50.5525C68.4019 50.8112 68.8353 50.6986 68.8265 50.3976C68.8117 49.6248 68.8152 48.8856 68.8186 48.1464C68.8212 47.5641 68.8239 46.9818 68.8177 46.383C68.9508 46.3821 69.0787 46.3797 69.204 46.3772L69.2043 46.3772C69.5733 46.3701 69.9189 46.3634 70.3029 46.3989C70.3181 47.2018 70.3159 48.0109 70.3136 48.8175V48.8177V48.8179V48.8181V48.8184V48.8186V48.8188V48.819C70.3117 49.5059 70.3098 50.1912 70.3187 50.8693C70.3223 51.1614 70.2994 51.5328 70.1073 51.7282ZM49.8983 66.0827C42.6681 66.0827 36.465 61.9098 33.81 55.9522C41.3838 56.5206 50.1132 56.5576 50.1132 56.5576C56.2653 56.6579 61.7531 56.3746 65.9426 56.0314C63.2682 61.9432 57.0915 66.0827 49.8983 66.0827ZM49.8085 48.1413C50.4197 48.3993 51.0309 48.6128 51.6343 48.8236C52.6239 49.1694 53.5925 49.5077 54.5053 50.0227C54.8026 50.1883 54.8257 50.6397 54.8427 50.9712C54.8442 50.9991 54.8455 51.0263 54.8471 51.0523C54.8682 51.4114 54.6409 51.8056 54.3273 52.052C54.0948 52.235 53.783 52.2562 53.4835 52.2562C52.9306 52.2562 52.378 52.2559 51.8255 52.2556C50.445 52.2549 49.0653 52.2541 47.6838 52.2579C47.6258 52.0032 47.6342 51.7301 47.6427 51.4533V51.4533V51.4532V51.4531C47.6472 51.3093 47.6516 51.1645 47.6468 51.0206C49.2465 51.0154 50.714 51.0118 52.3524 51.0206C52.6695 51.0242 52.6502 50.6106 52.3524 50.5155C51.6577 50.2921 51.0139 50.0503 50.371 49.8088L50.3709 49.8087L50.3709 49.8087C49.8188 49.6013 49.2672 49.3942 48.6845 49.199C48.237 49.0442 47.8723 48.7238 47.7543 48.2293L47.7392 48.1749C47.6622 47.8991 47.6093 47.7094 47.712 47.3986C48.109 46.2403 49.2353 46.2987 50.3011 46.3539H50.3011H50.3011H50.3012C50.6022 46.3695 50.8985 46.3849 51.172 46.3725C51.8513 46.3426 52.5819 46.3501 53.3062 46.3576H53.3065H53.3065H53.3066C53.8183 46.3629 54.3268 46.3682 54.8118 46.3602C54.8628 46.6923 54.8529 46.9656 54.8422 47.2625C54.8382 47.3762 54.8339 47.4933 54.833 47.6186C54.4283 47.6194 54.0311 47.6209 53.6373 47.6224L53.6362 47.6224H53.636H53.6359H53.6357C52.4202 47.627 51.2369 47.6314 49.9653 47.6168C49.6235 47.6133 49.5001 48.011 49.8085 48.1413ZM62.5032 51.3974V51.3973V51.3972C62.5156 50.8926 62.5279 50.3924 62.4983 49.8819C62.4793 49.5617 62.4954 49.2459 62.5114 48.9311C62.5399 48.3703 62.5683 47.8128 62.3979 47.2402C62.1193 46.2963 60.8805 46.3287 59.9968 46.3519L59.9491 46.3531C59.5428 46.3626 59.1052 46.3594 58.6634 46.3562H58.6632C58.2047 46.3528 57.7417 46.3494 57.3047 46.3602C56.9682 46.3672 56.6035 46.4429 56.3181 46.5942C56.0239 46.7403 55.7667 47.0642 55.7226 47.3986C55.5617 48.4912 55.5912 49.6101 55.6207 50.727V50.7271V50.7271C55.6309 51.1142 55.6411 51.5011 55.6434 51.8866C55.6487 52.1453 55.8319 52.3195 56.1402 52.272C56.4428 52.2264 56.6318 52.2424 56.9423 52.2686L56.9823 52.272C57.2659 52.2949 57.3752 52.14 57.3699 51.8813C57.3682 51.7997 57.3664 51.7203 57.3646 51.6424V51.6423C57.3516 51.0667 57.3404 50.5773 57.3963 49.9541C58.545 49.8995 59.6513 49.8907 60.7877 49.9611C60.8636 50.4201 60.8557 50.839 60.8478 51.2584V51.2585V51.2585C60.8417 51.5788 60.8357 51.8994 60.867 52.2386C61.4219 52.2597 61.924 52.272 62.4895 52.2333C62.4895 51.9518 62.4964 51.6741 62.5032 51.3978V51.3976V51.3974Z" fill="black"/>
</g>
</g>
</svg>
