<svg width="99" height="99" viewBox="0 0 99 99" fill="none" xmlns="http://www.w3.org/2000/svg">
<g id="oldsmobile">
<path id="Path" fill-rule="evenodd" clip-rule="evenodd" d="M0 3C0 1.34314 1.34315 0 3 0H96C97.6569 0 99 1.34315 99 3V96C99 97.6569 97.6569 99 96 99H3C1.34314 99 0 97.6569 0 96V3Z" />
<g id="Group">
<path id="Path_2" d="M37.3503 54.3324C37.3503 54.3324 37.3656 54.3324 37.3851 54.3297C37.431 54.3214 37.5005 54.3172 37.5227 54.3131C37.4629 54.32 37.4045 54.3297 37.3503 54.3324Z" fill="black"/>
<path id="Shape" fill-rule="evenodd" clip-rule="evenodd" d="M36.5217 52.8908C34.3516 54.3322 33.1101 54.1315 31.9729 53.7175C30.8329 53.3035 23.801 49.8073 24.111 45.3724C25.4554 35.5928 42.0035 32.1895 49.9654 32.1895C55.3428 32.3985 59.4788 32.807 63.8247 34.0448L66.5107 32.6035C67.8578 31.7796 68.8393 33.1711 67.5992 33.8884L65.9949 34.769C67.8578 35.4862 73.8539 38.8841 73.6496 43.4215C73.441 52.0684 58.0844 55.9301 50.0697 56.0865C43.9607 56.204 40.0002 55.4121 38.3652 55.0852C38.0348 55.0191 37.7994 54.9721 37.6603 54.9553C36.8318 54.8501 36.3146 53.7175 37.5046 52.841L54.2042 42.3899C55.3442 41.5647 55.9115 42.0798 55.1385 42.9036C53.3988 44.3982 50.6474 47.467 49.0201 49.2819C48.5173 49.8427 48.1218 50.2838 47.8967 50.5218C47.1223 51.3498 47.278 51.6558 49.0367 51.761C65.4791 52.0684 71.2681 46.5576 71.0651 43.4685C70.8566 40.3808 68.1665 38.2651 63.5119 36.2104L36.5217 52.8908ZM63.099 34.3564C53.2769 32.087 47.5867 32.6048 41.3834 33.6308C30.7286 35.4862 25.2496 41.2573 25.1468 44.4461C25.0467 47.4698 27.5475 49.2034 28.428 49.8137C28.4772 49.8478 28.5214 49.8785 28.5598 49.9056C29.2827 50.4248 33.0586 51.8662 35.9531 50.5218C41.0206 48.0516 67.1321 33.2736 67.1321 33.2736C67.6507 33.0161 67.3393 32.6035 66.8749 32.9122C53.327 40.8461 40.1419 45.5815 35.3831 47.0228C30.6271 48.4642 25.0411 47.2278 26.5954 43.211C29.8013 36.6216 39.0047 34.3564 45.9337 33.5298C52.4522 32.7585 57.5995 33.8015 61.6304 34.6184L61.6309 34.6185C61.8836 34.6697 62.132 34.7201 62.3761 34.769L63.099 34.3564ZM34.5573 46.8165C32.1772 47.3358 27.4212 47.3358 28.1455 44.4461C29.6984 37.3388 42.5192 34.5613 48.5181 34.2498C54.517 33.9396 58.2401 34.8701 60.9289 35.5928C50.9997 41.5647 36.0046 46.5022 34.5573 46.8165ZM59.7947 36.2736L59.7948 36.2736L59.7955 36.2732C59.8985 36.2119 59.9973 36.153 60.0905 36.0955C59.9184 36.1983 59.756 36.2958 59.6005 36.3898C59.6666 36.35 59.7314 36.3113 59.7947 36.2736ZM59.2133 36.6244L59.0453 36.7253C58.92 36.8006 58.8002 36.8726 58.687 36.9401C58.7588 36.8972 58.8307 36.8539 58.9024 36.8106C59.0063 36.7479 59.11 36.6854 59.2133 36.6244ZM57.4383 37.6883L57.4384 37.6882L57.4385 37.6882L57.439 37.6879L57.4396 37.6875L57.4402 37.6872L57.4404 37.687L57.441 37.6866C57.5204 37.6387 57.6052 37.5874 57.6979 37.5341L57.6059 37.59C57.498 37.6557 57.3949 37.7185 57.2961 37.7736C57.3412 37.747 57.3878 37.7189 57.4365 37.6894L57.4373 37.6889L57.4382 37.6884L57.4383 37.6883ZM56.6869 38.1413L56.687 38.1412L56.6872 38.1411C56.7479 38.1039 56.8276 38.055 56.9263 37.9993C56.8376 38.0515 56.7588 38.0987 56.6955 38.1366L56.6427 38.1682L56.6869 38.1413ZM35.7339 52.042L35.7338 52.042L35.7338 52.042L35.7338 52.042C35.2485 52.2843 34.8841 52.4661 34.6088 52.7385C34.1959 53.1498 33.2644 53.3035 33.0586 52.7911C32.8515 52.2733 33.5244 51.9147 34.143 51.9673C34.8145 51.8662 35.7988 51.7111 36.2631 51.3511L67.2781 33.5575L67.2892 33.6073L36.5746 51.6045C36.2601 51.7794 35.9813 51.9185 35.7339 52.042ZM68.9436 50.1631C70.7009 48.9807 74.2015 45.9678 73.0796 41.9233C71.9938 38.009 67.0306 35.6953 65.582 35.0764L64.7562 35.5361C67.2864 36.2104 72.8335 39.8838 72.2023 43.8313C71.5809 47.6944 66.7192 49.6508 64.3933 50.5744C57.8306 53.0025 50.6959 52.8108 48.2712 52.7456C48.1739 52.743 48.0841 52.7406 48.0024 52.7385C46.6038 52.6333 45.9337 51.9147 46.708 50.7308C47.4838 49.5456 54.3613 43.2678 54.777 42.9036C55.1885 42.5436 55.2914 42.185 54.7242 42.5436C52.2412 44.1927 46.0866 49.7505 44.6394 51.0922C43.1907 52.4298 43.5536 53.2038 45.8308 53.5139C59.3759 54.4388 65.4958 51.3248 69.2022 48.8228C72.5638 46.5618 72.7682 44.1927 72.7167 41.9759C72.7328 42.1212 72.7579 42.2741 72.7845 42.4365C72.9278 43.3111 73.1164 44.4623 72.1996 46.1976C68.4779 52.895 56.5843 54.4887 50.0683 54.7504C46.3939 54.8916 40.4533 54.1315 39.7791 54.0262C39.6644 54.0085 39.5211 53.9772 39.3617 53.9425C38.5875 53.7737 37.4345 53.5223 37.3503 54.3364C37.3544 54.3352 37.358 54.3343 37.3613 54.3336C37.365 54.3329 37.3683 54.3324 37.3717 54.3319L37.3717 54.3318L37.3718 54.3318C37.3759 54.3312 37.3802 54.3305 37.3851 54.3295L37.4225 54.3255C37.4774 54.3197 37.5101 54.3163 37.5227 54.3128C37.9328 54.2671 38.5126 54.2284 39.3662 54.5385C40.8148 54.8002 46.1408 55.5188 48.1553 55.4676C61.2903 55.2613 67.1836 51.3498 68.9436 50.1631ZM40.3491 51.5561C41.1763 51.0396 53.5355 43.1085 54.5671 42.4384C52.8059 43.7467 47.9983 47.2488 45.1144 49.3495C44.0214 50.1457 43.2047 50.7406 42.9349 50.9385C41.9506 51.6558 40.6063 52.6333 39.469 52.9961C39.087 53.1705 38.6336 53.2726 38.2042 53.3694L38.2042 53.3694L38.2041 53.3694C37.996 53.4163 37.7936 53.4619 37.6075 53.5139C37.6541 53.0141 39.0297 52.2704 39.9915 51.7505C40.1193 51.6814 40.2399 51.6162 40.3491 51.5561Z" fill="black"/>
<path id="Path_3" d="M49.9655 32.1889C49.9655 32.1889 49.9989 32.1917 50.0531 32.1958C50.0211 32.1958 49.9947 32.1917 49.9655 32.1889Z" fill="black"/>
<path id="Path_4" d="M52.0916 32.2734C52.4822 32.2859 52.3905 32.2845 52.0916 32.2734V32.2734Z" fill="black"/>
<path id="Path_5" d="M50.2187 32.1997C50.3702 32.2052 50.5801 32.2121 50.8067 32.2232C50.6302 32.2163 50.4314 32.208 50.2187 32.1997Z" fill="black"/>
<path id="Path_6" d="M29.7021 67.1598H30.7295V61.3721H29.7021V67.1598Z" fill="black"/>
<path id="Shape_2" fill-rule="evenodd" clip-rule="evenodd" d="M28.8771 64.3445C28.8771 66.0089 27.1143 67.3616 24.9386 67.3616C22.7642 67.3616 21 66.0089 21 64.3445C21 62.6816 22.7642 61.333 24.9386 61.333C27.1143 61.333 28.8771 62.6816 28.8771 64.3445ZM27.8497 64.3445C27.8497 63.0901 26.5457 62.0724 24.9386 62.0724C23.3314 62.0724 22.0274 63.0901 22.0274 64.3445C22.0274 65.599 23.3314 66.6209 24.9386 66.6209C26.5457 66.6209 27.8497 65.599 27.8497 64.3445Z" fill="black"/>
<path id="Shape_3" fill-rule="evenodd" clip-rule="evenodd" d="M60.0471 64.7071C60.0471 66.0543 58.6165 67.1523 56.8509 67.1523C55.0867 67.1523 53.6533 66.0543 53.6533 64.7071C53.6533 63.3543 55.0867 62.2646 56.8509 62.2646C58.6165 62.2646 60.0471 63.3543 60.0471 64.7071ZM59.0781 64.7071C59.0781 63.7753 58.0799 63.022 56.8509 63.022C55.6205 63.022 54.6237 63.7753 54.6237 64.7071C54.6237 65.6348 55.6205 66.3908 56.8509 66.3908C58.0799 66.3908 59.0781 65.6348 59.0781 64.7071Z" fill="black"/>
<path id="Path_7" d="M69.6079 67.1598H70.6367V61.3721H69.6079V67.1598Z" fill="black"/>
<path id="Path_8" d="M67.5474 67.1612H68.5817V62.5781H67.5474V67.1612Z" fill="black"/>
<path id="Path_9" d="M68.0719 61.3336C68.4042 61.3336 68.6725 61.5108 68.6725 61.7337C68.6725 61.9511 68.4042 62.1283 68.0719 62.1283C67.741 62.1283 67.4741 61.9511 67.4741 61.7337C67.4741 61.5108 67.741 61.3336 68.0719 61.3336Z" fill="black"/>
<path id="Path_10" d="M44.0143 65.5541C43.9921 64.5668 42.8841 64.4035 42.4392 64.3633C41.9943 64.3259 40.9058 64.3259 40.4206 64.2235C39.9368 64.1224 39.7755 63.9424 39.8353 63.6225C39.895 63.3068 40.4206 63.0784 41.1685 63.0784C42.0749 63.0784 42.5184 63.3788 42.802 63.8012H43.7919C43.7099 63.1947 43.0648 62.375 41.2074 62.375C39.3515 62.375 38.6841 63.1947 38.6841 63.8441C38.6841 64.4838 39.0136 64.9047 40.1578 65.0293C41.0462 65.1068 41.8539 65.1262 42.3766 65.2481C42.9049 65.3699 42.9049 65.5499 42.9049 65.7313C42.9244 66.2547 41.7121 66.4956 41.1268 66.4956C40.5401 66.4956 39.8353 66.3572 39.4099 65.651H38.4214C38.6021 66.5136 39.6309 67.1976 41.1268 67.1602C42.6213 67.1187 44.0352 66.6382 44.0143 65.5541Z" fill="black"/>
<path id="Path_11" d="M49.3643 64.2237C49.3643 63.1949 51.9863 62.8779 51.9863 64.2846V67.1605H53.015V64.3262C53.015 63.0385 52.2101 62.5774 50.9352 62.5151C50.1484 62.4763 49.3017 62.7948 48.9194 63.1576C48.5412 62.7491 47.9434 62.5525 47.2219 62.5151C46.6978 62.4763 46.0124 62.6993 45.7705 63.0565V62.5774H44.7417V67.1605H45.7705V64.2016C45.7705 63.1797 48.3341 62.9969 48.3341 64.2846V67.1605H49.3643V64.2237Z" fill="black"/>
<path id="Shape_4" fill-rule="evenodd" clip-rule="evenodd" d="M37.7562 61.3726V67.1603H36.7275V66.7379C36.17 67.127 35.4373 67.3541 34.6268 67.3541C32.8932 67.3541 31.489 66.2616 31.489 64.9089C31.489 63.5603 32.8932 62.4636 34.6268 62.4636C35.4373 62.4636 36.17 62.7073 36.7275 63.0978V61.3726H37.7562ZM32.458 64.9047C32.458 65.8532 33.4312 66.6244 34.6268 66.6244C35.8252 66.6244 36.7956 65.8532 36.7956 64.9047C36.7956 63.959 35.8252 63.1906 34.6268 63.1906C33.4312 63.1906 32.458 63.959 32.458 64.9047Z" fill="black"/>
<path id="Shape_5" fill-rule="evenodd" clip-rule="evenodd" d="M60.6069 67.1598V61.3721H61.6357V63.0987C62.1932 62.7068 62.9259 62.4631 63.7336 62.4631C65.47 62.4631 66.8742 63.5598 66.8742 64.9098C66.8742 66.2625 65.47 67.3536 63.7336 67.3536C62.9259 67.3536 62.1932 67.1265 61.6357 66.7388V67.1598H60.6069ZM65.9038 64.9098C65.9038 63.9585 64.9334 63.1901 63.7336 63.1901C62.5366 63.1901 61.5634 63.9585 61.5634 64.9098C61.5634 65.8568 62.5366 66.6239 63.7336 66.6239C64.9334 66.6239 65.9038 65.8568 65.9038 64.9098Z" fill="black"/>
<path id="Path_12" d="M74.4732 62.2651C72.7368 62.2651 71.3313 63.3548 71.3313 64.7076C71.3313 66.0548 72.7368 67.1528 74.4732 67.1528C75.819 67.1528 76.9646 66.4951 77.4122 65.5647L76.3264 65.5758C75.9483 66.0701 75.2573 66.4231 74.4732 66.4231C73.4222 66.4231 72.5478 65.8111 72.3476 65.0288H72.3448V65.0261L72.367 64.3074C72.602 63.5501 73.4598 62.9893 74.4732 62.9893C75.4909 62.9893 76.3487 63.5293 76.5809 64.2991L72.367 64.3074L72.3448 65.0261C72.3462 65.0261 72.3476 65.0261 72.3476 65.0288H77.5846C77.6027 64.925 77.6152 64.817 77.6152 64.7076C77.6152 63.3548 76.2069 62.2651 74.4732 62.2651" fill="black"/>
</g>
</g>
</svg>
