<svg width="99" height="99" viewBox="0 0 99 99" fill="none" xmlns="http://www.w3.org/2000/svg">
<g id="pontiac">
<path id="Path" fill-rule="evenodd" clip-rule="evenodd" d="M0 3C0 1.34314 1.34315 0 3 0H96C97.6569 0 99 1.34315 99 3V96C99 97.6569 97.6569 99 96 99H3C1.34314 99 0 97.6569 0 96V3Z" />
<g id="Group">
<path id="Shape" fill-rule="evenodd" clip-rule="evenodd" d="M48.9041 28.0268L59.3202 23.6558L48.9395 61.3847L38.6211 23.6558L48.9041 28.0268ZM57.8375 25.4347L48.9395 29.1388L40.1038 25.396L48.9395 57.5971L57.8375 25.4347Z" fill="black"/>
<path id="Shape_2" fill-rule="evenodd" clip-rule="evenodd" d="M48.9392 29.8843L56.7476 26.6295L48.9392 55.226L41.241 26.6152L48.9392 29.8843ZM48.3008 33.5296L44.3144 34.1639L48.3008 34.7738L48.9392 37.3191L49.5589 34.7738L53.645 34.1639L49.5589 33.5296L48.9392 31.0533L48.3008 33.5296Z" fill="black"/>
<path id="Path_2" d="M58.6828 74.312C58.7847 74.312 58.872 74.2388 58.872 74.1331V67.6457C58.872 67.54 58.7847 67.4546 58.6828 67.4546H57.6514C57.5433 67.4546 57.4622 67.54 57.4622 67.6457V74.1331C57.4622 74.2388 57.5433 74.312 57.6514 74.312H58.6828Z" fill="black"/>
<path id="Path_3" d="M40.9942 74.3181H42.0277C42.1337 74.3181 42.219 74.2388 42.219 74.1331V69.3006C42.219 68.9692 42.506 69.018 42.637 69.1969L45.9121 73.7265C46.2656 74.2347 46.7377 74.3018 47.1432 74.3181C48.3472 74.3181 48.5572 73.4703 48.5572 72.9356V67.6416C48.5572 67.54 48.472 67.4546 48.368 67.4546H47.3324C47.2264 67.4546 47.1432 67.5339 47.1432 67.6416V72.4396C47.1432 72.7547 46.8791 72.7181 46.7481 72.5392L43.527 68.0747C43.1069 67.4831 42.637 67.4546 42.219 67.4546C41.015 67.4546 40.78 68.7354 40.8049 69.3229V74.1331C40.8049 74.2388 40.8923 74.3181 40.9942 74.3181Z" fill="black"/>
<path id="Path_4" d="M30.1723 70.0157C30.1723 67.8932 28.4692 67.4541 27.4461 67.4541H22.1892C22.0853 67.4541 22 67.5395 22 67.6411V74.1326C22 74.2383 22.0853 74.3176 22.1892 74.3176H23.2248C23.3288 74.3176 23.414 74.2383 23.414 74.1326V69.1537C23.414 68.9687 23.4931 68.8406 23.6781 68.8406H27.5501C27.9951 68.8406 28.7562 68.9728 28.7562 70.0015C28.7562 70.9143 28.3133 71.1888 27.5501 71.1888H24.3872C24.2812 71.1888 24.2022 71.2843 24.2022 71.386V72.3984C24.2022 72.4919 24.2812 72.5834 24.3872 72.5834H27.6291C28.6793 72.5773 30.1723 72.1443 30.1723 70.0157Z" fill="black"/>
<path id="Path_5" d="M59.6595 74.3183H60.8095C60.9426 74.3183 60.9925 74.2675 61.0736 74.115L63.8871 69.3273C64.0535 69.0508 64.2739 69.0691 64.4298 69.3415C64.4298 69.3415 65.559 71.2647 65.6214 71.3725C65.6879 71.4741 65.638 71.5575 65.532 71.5575H63.5357C63.4109 71.5575 63.3589 71.6368 63.3256 71.6835C63.3256 71.6835 62.7101 72.6675 62.6373 72.7834C62.5646 72.9013 62.6228 72.9359 62.6976 72.9359H66.2764C66.5592 72.9359 66.605 73.0314 66.6507 73.1107L67.2517 74.1394C67.3037 74.2431 67.4076 74.3183 67.5927 74.3183H68.6553C68.7863 74.3183 68.8612 74.3061 68.7676 74.1659L65.2637 68.201C64.6877 67.2068 63.6916 67.1296 63.0615 68.1766L59.5556 74.1394C59.5036 74.2228 59.4682 74.3183 59.6595 74.3183Z" fill="black"/>
<path id="Path_6" d="M76.0255 72.9361H71.9934C71.3404 72.9361 69.9243 72.5031 69.9243 70.8563C69.9243 69.2218 70.9682 68.8213 71.9934 68.7887H76.0192C76.1253 68.7887 76.2105 68.7034 76.2105 68.6037V67.6401C76.2105 67.5405 76.1253 67.4551 76.0192 67.4551H71.6087C70.5065 67.4551 68.4853 68.2276 68.5102 70.8563C68.5373 73.298 70.3423 74.3186 71.8873 74.3186H76.0255C76.1294 74.3186 76.2168 74.2393 76.2168 74.1336V73.1211C76.2168 73.0154 76.1294 72.9361 76.0255 72.9361Z" fill="black"/>
<path id="Shape_3" fill-rule="evenodd" clip-rule="evenodd" d="M36.5353 74.3186H34.1522C32.4491 74.3186 31.0642 73.0642 31.0642 70.8563C31.0642 68.6546 32.7112 67.4551 34.5203 67.4551H36.6372C37.6603 67.4551 39.6545 68.4086 39.6545 70.7628C39.6545 73.111 38.2384 74.3186 36.5353 74.3186ZM36.2691 68.7887H34.4662C33.8632 68.7887 32.4762 69.1222 32.4762 70.9641C32.4762 71.9135 32.9212 73.0378 34.6763 73.0378H36.0362C36.9533 73.0378 38.2384 72.6373 38.2384 70.8563C38.2384 69.5308 37.3234 68.7887 36.2691 68.7887Z" fill="black"/>
<path id="Path_7" d="M49.3396 67.6411V68.6048C49.3396 68.7024 49.4269 68.7878 49.5309 68.7878H52.1635C52.2675 68.7878 52.3257 68.8467 52.3257 68.9423V74.1326C52.3257 74.2383 52.4151 74.3115 52.517 74.3115H53.5485C53.6545 74.3115 53.7356 74.2383 53.7356 74.1326L53.7398 68.9626C53.7398 68.8569 53.7938 68.7878 53.8895 68.7878H56.5367C56.6386 68.7878 56.728 68.7024 56.728 68.6048V67.6452C56.728 67.5395 56.6427 67.4541 56.5367 67.4541H49.5309C49.4269 67.4541 49.3396 67.5395 49.3396 67.6411" fill="black"/>
<path id="Shape_4" fill-rule="evenodd" clip-rule="evenodd" d="M55.4362 50.9873C56.087 50.9873 56.6714 51.4325 56.6714 52.199C56.6714 52.9614 56.087 53.4005 55.4362 53.4005C54.7749 53.4005 54.1926 52.9614 54.1926 52.199C54.1926 51.4325 54.7749 50.9873 55.4362 50.9873ZM55.4362 51.2658C54.9433 51.2658 54.5482 51.6419 54.5482 52.199C54.5482 52.754 54.9433 53.1342 55.4362 53.1301V53.1342C55.9144 53.1342 56.3158 52.754 56.3158 52.199C56.3158 51.6419 55.9144 51.2658 55.4362 51.2658Z" fill="black"/>
<path id="Shape_5" fill-rule="evenodd" clip-rule="evenodd" d="M55.7385 52.279L56.1141 52.8442H55.7477L55.4019 52.2993H55.2576V52.8442H54.9438V51.541H55.4889C55.869 51.541 56.0912 51.6406 56.0912 51.9395C56.0912 52.1855 55.9331 52.2668 55.7385 52.279ZM55.2576 52.0838H55.5347C55.6744 52.0838 55.7568 52.0574 55.7568 51.907C55.7568 51.7687 55.5988 51.7606 55.4751 51.7606H55.2576V52.0838Z" fill="black"/>
</g>
</g>
</svg>
