<svg width="99" height="99" viewBox="0 0 99 99" fill="none" xmlns="http://www.w3.org/2000/svg">
<g id="saab">
<path id="Path" fill-rule="evenodd" clip-rule="evenodd" d="M0 3C0 1.34314 1.34315 0 3 0H96C97.6569 0 99 1.34315 99 3V96C99 97.6569 97.6569 99 96 99H3C1.34314 99 0 97.6569 0 96V3Z" />
<g id="Group">
<path id="Shape" fill-rule="evenodd" clip-rule="evenodd" d="M71.888 49.9643C71.888 62.3612 61.84 72.4091 49.4431 72.4091C37.048 72.4091 27 62.3612 27 49.9643C27 37.5533 37.048 27.5 49.4431 27.5C61.84 27.5 71.888 37.5533 71.888 49.9643ZM70.2639 49.9643C70.2639 38.4879 60.9124 29.1453 49.4431 29.1453C37.9773 29.1453 28.6224 38.4879 28.6224 49.9643C28.6224 61.4195 37.9773 70.7656 49.4431 70.7656C60.9124 70.7656 70.2639 61.4195 70.2639 49.9643Z" fill="black"/>
<path id="Shape_2" fill-rule="evenodd" clip-rule="evenodd" d="M69.5003 49.9643C69.5003 61.0193 60.5086 70.0127 49.4431 70.0127C38.3794 70.0127 29.3965 61.0193 29.3965 49.9643C29.3965 38.883 38.3794 29.9019 49.4431 29.9019C60.5086 29.9019 69.5003 38.883 69.5003 49.9643ZM43.4316 38.4986C43.9694 38.4986 44.5725 38.6855 45.2426 39.0611C45.3429 38.5563 45.6567 38.0056 46.0429 37.853C46.0304 37.8571 46.0181 37.8602 46.0061 37.8632C45.9913 37.867 45.9767 37.8707 45.9621 37.8761L43.5921 32.3301C44.5725 32.3301 45.5865 32.7516 45.5865 33.5557C45.5865 33.7902 45.5001 34.0671 45.2779 34.3774C45.2779 34.4074 45.292 34.4215 45.3202 34.4215C45.3361 34.4215 45.3449 34.4215 45.3643 34.4074C45.5265 34.2046 45.7769 34.0953 46.0573 34.0953C46.5705 34.0953 46.9867 34.515 46.9867 35.0299C46.9867 35.5237 46.5705 35.9451 46.0573 35.9451C45.9868 35.9451 45.9233 35.9451 45.8775 35.9292C45.9004 36.1391 46.5881 36.5024 47.3288 36.5024C47.9354 36.5024 48.5808 36.2608 48.9617 35.5237C48.8153 35.6436 48.6072 35.7071 48.4256 35.7071C47.8825 35.7071 47.461 35.3032 47.461 34.7918C47.461 34.2699 47.8825 33.8572 48.4256 33.8572C48.5949 33.8572 48.773 33.9031 48.9088 34.0001C48.743 33.8202 48.6072 33.5998 48.6072 33.3264C48.6072 32.8115 49.0358 32.3936 49.5577 32.3936C50.0726 32.3936 50.4906 32.8115 50.4906 33.3264C50.4906 33.5698 50.3883 33.7902 50.2366 33.9524C50.3566 33.8837 50.5082 33.8572 50.6687 33.8572C51.1836 33.8572 51.5998 34.2699 51.5998 34.7918C51.5998 35.3032 51.1836 35.7071 50.6687 35.7071C50.4271 35.7071 50.2084 35.6242 50.0515 35.4954C50.1732 35.9046 50.875 36.5782 51.7691 36.5782C52.2276 36.5782 52.7337 36.3948 53.2433 35.9292C53.1763 35.9451 53.1216 35.9451 53.0758 35.9451C52.5344 35.9451 52.1112 35.5237 52.1112 35.0299C52.1112 34.515 52.5344 34.0953 53.0758 34.0953C53.3297 34.0953 53.5748 34.2046 53.7406 34.4074C53.7564 34.4215 53.7723 34.4215 53.7899 34.4215C53.8129 34.4215 53.8358 34.4074 53.8358 34.3774C53.6154 34.0671 53.5201 33.7902 53.5201 33.5486C53.5201 32.7516 54.5341 32.3301 55.504 32.3301L53.1763 37.8143C53.3297 37.9519 53.4796 38.1353 53.5924 38.3328C54.1162 38.1353 54.5888 38.0841 54.9415 38.0841C55.2906 38.0841 55.5181 38.1353 55.571 38.1476C55.571 38.1476 55.8532 38.2164 55.8955 38.2958C55.5939 39.0364 55.3559 39.4737 55.0702 39.8934C56.264 41.1084 56.7225 42.6373 56.4986 44.6265C56.1547 44.3954 55.504 44.1098 55.1037 44.0269C55.7227 44.9968 55.9202 45.8273 55.9202 46.7849C55.9202 47.4973 55.7738 48.2044 55.4881 48.8781L55.2677 49.4071C54.9291 48.8781 54.5976 48.4989 54.1814 48.1674C54.2819 48.4919 54.4089 49.2043 54.4089 49.691C54.4089 50.9783 53.9046 52.1298 52.6931 52.8687C52.4832 52.2586 51.9683 51.361 51.5045 50.7984C51.5592 51.9888 51.4957 53.3501 51.0496 54.2936C50.1397 55.4944 48.8788 56.2033 46.9373 56.646C47.2635 55.8418 47.5615 53.7187 47.4099 51.0965C47.0237 51.6749 46.5599 52.777 46.4135 54.186L46.4012 54.1762C45.9187 53.7951 44.5408 52.7066 44.5408 50.8866C44.5408 50.1283 44.8018 49.3665 45.3132 48.5906C44.6007 48.8516 44.1564 49.3101 43.6749 50.2289C43.5074 48.9116 43.7331 47.4656 44.4456 46.434C42.7227 46.3634 42.2148 45.3495 42.3065 43.8453C42.8056 44.2491 43.3381 44.5647 44.0488 44.5647C44.7471 44.5647 45.6553 44.2491 46.5705 43.0729C46.2129 42.8609 45.8469 42.7383 45.5805 42.6491L45.493 42.6197C45.4691 42.6124 45.4443 42.6049 45.4186 42.5973C45.072 42.4939 44.566 42.3429 44.0982 41.7503C43.9077 41.5193 43.5921 41.4311 43.1865 41.4311C42.7156 41.4311 42.0014 41.5634 40.8746 42.0959C41.021 39.3503 42.3471 38.4986 43.4316 38.4986ZM42.3203 42.5283C41.871 42.6293 41.3713 42.7417 40.797 42.7378C39.8042 42.7238 39.1126 42.0409 38.6942 41.6278L38.6897 41.6233C39.1182 42.5968 39.8959 43.6848 41.2255 43.6848C41.6912 43.6848 42.2118 43.5129 42.6802 43.3583C43.0633 43.2319 43.4115 43.117 43.6661 43.117C44.4544 43.117 44.9446 43.3762 45.1791 43.5561C44.763 42.6373 43.853 42.3728 43.3205 42.3728C43.0113 42.3728 42.6821 42.4469 42.3203 42.5283L42.3203 42.5283ZM36.2827 59.5415C36.2827 60.8976 37.4712 61.1727 39.1623 61.1727C40.3139 61.1727 40.5766 61.4425 40.5766 61.7881C40.5766 62.0085 40.4743 62.333 39.5185 62.333C38.7356 62.333 38.4922 61.9521 38.4922 61.5871H36.064C36.0975 63.0948 37.7428 63.4845 39.5609 63.4845C41.4707 63.4845 42.0544 63.1407 42.37 62.8426L42.1743 63.3346H44.2939L44.6519 62.4476H47.3817L47.7555 63.3346H50.4147L50.7763 62.4476H53.5007L53.8605 63.3346H60.5421C61.6266 63.3346 62.0304 62.4018 62.0304 61.8498C62.0304 61.3631 61.7941 60.5202 60.7132 60.4232C61.6619 60.2804 61.8682 59.6438 61.8682 59.1553C61.8682 58.6457 61.5543 57.7781 60.2987 57.7781H55.3647V61.8269L53.6841 57.7781H50.6034L49.0851 61.4301L47.5703 57.7781H44.4844L43.0648 61.185C42.922 60.1816 41.9627 59.8043 39.8007 59.8043C38.9313 59.8043 38.6051 59.6579 38.6051 59.2488C38.6051 58.8767 38.9789 58.7286 39.485 58.7286C40.0846 58.7286 40.4937 58.8256 40.4937 59.4445H42.922C42.922 57.9844 41.2502 57.6829 39.485 57.6829C38.069 57.6829 36.2827 58.0126 36.2827 59.5415Z" fill="black"/>
<path id="Path_2" d="M47.6665 39.934C47.5466 39.9005 47.4108 39.9111 47.2592 39.9005C47.2433 40.1174 47.037 40.3802 46.6155 40.3802C46.2205 40.3802 46.0213 40.1545 45.9595 39.9658C45.8749 39.9569 45.7514 39.9393 45.665 39.9111C45.6739 40.59 46.1641 40.8016 46.6279 40.8016C46.9682 40.8016 47.5149 40.6817 47.6665 39.934Z" fill="black"/>
<path id="Path_3" d="M44.5358 41.3533C44.885 41.817 45.3241 41.9246 45.4211 41.9493C46.0736 42.1327 47.1757 42.5242 47.1757 43.0373C47.1757 43.1326 47.1492 43.2472 47.0364 43.3812C45.936 44.8043 44.8974 45.1605 44.0403 45.1605C43.6453 45.1605 43.2979 45.09 43.0211 44.9877C43.2221 45.6437 43.8922 45.8147 44.4371 45.8147C44.8586 45.8147 45.273 45.753 46.0824 45.5573C45.2148 46.2397 44.4812 47.0897 44.3101 48.4123C45.0772 47.848 45.8761 47.728 46.7102 47.7051C45.7244 48.7561 45.1319 49.8212 45.1319 50.8863C45.1319 51.9603 45.6415 52.5898 45.9501 52.9707C46.3434 51.202 47.2427 50.091 47.8211 49.5532C48.1738 52.0202 48.001 54.7006 47.7894 55.7428C48.8192 55.3831 49.7609 54.8876 50.4698 53.9529C50.8824 53.2 50.9212 51.1015 50.7872 49.4051C51.7324 49.9782 52.5171 51.0327 52.9015 51.8686C53.4605 51.3554 53.7427 50.6342 53.7427 49.6925C53.7427 48.5992 53.3988 47.6734 53.0726 46.9416C53.8344 47.1814 54.4869 47.5464 55.0318 48.1425C55.1781 47.6875 55.261 47.2237 55.261 46.7723C55.261 45.1058 54.3493 43.8908 53.7021 43.2754C54.7161 43.2754 55.3157 43.4429 55.8817 43.6475C55.9152 42.6194 55.6542 41.3286 54.6755 40.3481C53.8168 41.3286 53.0003 41.9123 51.3603 42.473C52.801 43.6193 52.3937 45.2734 51.02 46.9345C50.9053 46.2397 50.6937 45.626 50.2247 45.0794C50.3093 45.9964 50.1083 47.6734 48.1914 48.578C48.262 47.8691 48.1579 47.2114 48.0116 46.5959C47.8775 46.7423 47.6465 46.9574 47.4032 47.125C47.3644 46.9521 47.3168 46.6047 47.3415 46.3649C47.6853 46.0898 48.001 45.7266 48.2955 45.3139C48.5811 46.0299 48.7593 47.0033 48.7945 47.4388C49.4717 46.8164 49.9831 45.6754 49.2989 43.5893C50.3287 44.1113 50.8366 44.6385 51.2333 45.5202C52.2879 43.7462 51.1787 42.8063 49.5528 42.1874C51.489 41.9916 53.8344 41.1117 54.9912 38.7134C54.21 38.6764 52.9509 38.9656 51.7818 40.4945C51.6354 40.4028 51.4485 40.2423 51.3656 40.1083C51.8488 39.4417 52.436 38.9144 53.0479 38.5671C53.0179 38.4877 52.9509 38.4013 52.9015 38.3643H46.2517C46.0189 38.3643 45.7791 38.8016 45.6662 39.2918C45.839 39.343 46.0736 39.3606 46.294 39.3606C46.5497 39.3606 46.7842 39.3341 47.0699 39.3341C47.5266 39.3341 48.2814 39.3941 48.7028 39.6639C48.627 39.8649 48.5476 40.0025 48.433 40.1242C48.3448 40.0801 48.262 40.0448 48.1615 40.0166C47.9357 41.1081 47.151 41.348 46.6467 41.348C45.2976 41.348 45.0455 40.3164 45.1319 39.7239C44.4618 39.3236 43.8851 39.1172 43.3879 39.1172C42.2275 39.1172 41.7602 40.371 41.5874 41.124C42.1958 40.9159 42.7178 40.8084 43.1674 40.8084C43.7476 40.8101 44.2008 40.9865 44.5358 41.3533Z" fill="black"/>
<path id="Path_4" d="M52.0995 59.1045L51.2637 61.1571H52.9442L52.0995 59.1045Z" fill="black"/>
<path id="Path_5" d="M45.9877 59.1045L45.1431 61.1571H46.8166L45.9877 59.1045Z" fill="black"/>
<path id="Path_6" d="M59.6844 59.5008C59.6844 59.2768 59.5045 59.1005 59.2841 59.1005H57.5542V59.8976H59.2841C59.5045 59.8976 59.6844 59.7265 59.6844 59.5008Z" fill="black"/>
<path id="Path_7" d="M59.8184 61.4777C59.8184 61.2696 59.6298 61.0968 59.4111 61.0968H57.5542V61.8798H59.4111C59.6298 61.8798 59.8184 61.7052 59.8184 61.4777Z" fill="black"/>
</g>
</g>
</svg>
