<svg width="99" height="99" viewBox="0 0 99 99" fill="none" xmlns="http://www.w3.org/2000/svg">
<g id="saturn">
<path id="Path" fill-rule="evenodd" clip-rule="evenodd" d="M0 3C0 1.34314 1.34315 0 3 0H96C97.6569 0 99 1.34315 99 3V96C99 97.6569 97.6569 99 96 99H3C1.34314 99 0 97.6569 0 96V3Z" />
<g id="Group">
<path id="Path_2" d="M44.6265 39.0171C44.8247 34.1038 46.533 29.5679 49.3169 25.8247H69.7924V26.7762C60.8228 29.3362 51.7971 33.7666 44.6265 39.0171Z" fill="black"/>
<path id="Path_3" d="M65.8603 63.9676C54.8619 62.3159 46.2193 53.7769 44.8071 43.0628C45.7122 42.2359 46.6995 41.4068 47.7763 40.5978C54.3598 35.654 60.3623 32.3594 69.7926 28.979V63.9676H65.8603Z" fill="black"/>
<path id="Path_4" d="M58.9075 63.968C50.7874 60.5403 44.7446 53.3782 43.0989 44.7314C39.4089 48.6167 37.6274 52.4657 37.7303 55.3625C37.9239 60.8323 43.3903 63.968 51.1729 63.968H58.9075Z" fill="black"/>
<path id="Path_5" d="M42.6535 40.5159C42.6495 40.3381 42.6495 40.1554 42.6495 39.9747C42.6495 34.7632 44.2307 29.9024 46.9511 25.8247H29.2271V59.709H30.2037C30.2037 58.8387 30.1922 58.1241 30.3945 57.0507C31.511 51.4884 36.155 45.67 42.6535 40.5159Z" fill="black"/>
<path id="Path_6" d="M35.4475 67.807V66.4629H31.3247C29.7653 66.4674 28.9894 67.3822 29.0001 68.7179C29.0132 70.0561 29.9125 70.9173 31.4601 70.9044H33.2816C34.1621 70.8976 34.2847 71.6364 34.2847 71.8234C34.2871 72.0187 34.2316 72.8394 33.1929 72.8394H29.2159V74.2334H33.3552C35.4082 74.2334 35.9103 72.7768 35.9103 71.7909C35.9103 70.1333 34.6137 69.498 33.4926 69.5061H31.5135C30.9842 69.5061 30.6569 69.2182 30.6509 68.6578C30.6462 68.0783 31.0484 67.8122 31.5559 67.807H35.4475Z" fill="black"/>
<path id="Path_7" d="M40.9014 66.4629H39.0467L35.9414 74.2331H37.614L39.9164 68.2454L42.1358 74.2331H43.8927L40.9014 66.4629Z" fill="black"/>
<path id="Path_8" d="M49.4089 66.4629H42.7568V67.8054H45.2743L45.276 74.2331H46.8978V67.8054H49.4113L49.4089 66.4629Z" fill="black"/>
<path id="Path_9" d="M49.8399 70.7588C49.8399 71.9653 49.8158 72.7513 50.6879 73.593C51.5573 74.4332 52.8404 74.4436 53.0628 74.4436C53.2853 74.4436 54.5664 74.4332 55.4385 73.593C56.3079 72.7513 56.2945 71.9653 56.2945 70.7588V67.7737H58.5118C59.315 67.7737 59.7506 68.1534 59.7506 68.8728C59.7506 69.6568 59.1729 70.0086 58.4298 70.0086H57.389L59.8379 74.2336H61.7058L59.6554 71.0291C60.5205 70.8487 61.3764 69.9618 61.3764 68.7654C61.3764 67.0647 60.0201 66.4634 59.0344 66.4634H54.6464L54.6437 71.5899C54.6437 72.0877 54.2727 73.0096 53.0716 73.007H53.0743C51.8843 73.0096 51.4991 72.0877 51.4991 71.5899L51.4975 66.4634H49.8399V70.7588Z" fill="black"/>
<path id="Path_10" d="M62.4482 74.2336V66.4634H64.9684L68.162 72.4274V66.4634H69.7906V74.2336H67.4704L64.0919 67.9859V74.2336H62.4482Z" fill="black"/>
</g>
</g>
</svg>
