<svg width="99" height="99" viewBox="0 0 99 99" fill="none" xmlns="http://www.w3.org/2000/svg">
<g id="subaru">
<path id="Path" fill-rule="evenodd" clip-rule="evenodd" d="M0 3C0 1.34314 1.34315 0 3 0H96C97.6569 0 99 1.34315 99 3V96C99 97.6569 97.6569 99 96 99H3C1.34314 99 0 97.6569 0 96V3Z" />
<g id="Group">
<path id="Shape" fill-rule="evenodd" clip-rule="evenodd" d="M48.4027 57.1868C48.4027 58.735 47.1166 59.3758 47.0511 59.399C47.0724 59.399 48.578 59.9769 48.578 61.4771C48.578 62.3183 48.4502 64.1099 45.5586 64.1298C42.3778 64.1726 37.3274 64.1334 36.8868 64.13C36.8672 64.1299 36.8567 64.1298 36.856 64.1298V54.7129H45.5586C48.1471 54.7129 48.4027 56.6188 48.4027 57.1868ZM42.59 56.6081H42.59C43.3586 56.6134 44.1466 56.6188 44.7739 56.6188C45.3194 56.6188 45.8224 56.9632 45.8224 57.5842C45.8224 58.2945 45.3849 58.6025 44.8607 58.6025C44.1532 58.6025 43.3105 58.6078 42.5112 58.6128H42.5112C41.0301 58.6221 39.6983 58.6305 39.6525 58.6025V56.6188C39.6989 56.5883 41.1083 56.5979 42.59 56.6081ZM42.3718 62.24H42.3718C40.9162 62.2495 39.6975 62.2574 39.6525 62.2289V60.1955C39.6959 60.1669 41.0162 60.1641 42.4229 60.1611H42.423C43.2989 60.1593 44.2083 60.1574 44.864 60.1491C45.4521 60.1259 45.9993 60.5448 45.9993 61.2105C45.9993 61.9192 45.4521 62.2289 44.9016 62.2289C44.0957 62.2289 43.1958 62.2347 42.3718 62.24Z" fill="black"/>
<path id="Shape_2" fill-rule="evenodd" clip-rule="evenodd" d="M74.3539 58.0705C74.3539 59.5806 73.0219 60.4847 72.9531 60.503C72.9728 60.503 74.4014 61.2994 74.4014 62.6755V64.131H71.9062V62.6258C71.9062 61.9651 71.3148 61.1901 70.5907 61.21C69.0214 61.235 65.9567 61.2129 65.5946 61.2103C65.5726 61.2101 65.5606 61.21 65.5595 61.21V64.131H62.7563V54.7124H71.0723C73.6543 54.7124 74.3539 56.3037 74.3539 58.0705ZM68.3377 59.491C69.13 59.4879 69.9699 59.4846 70.6792 59.4846C71.3574 59.4846 71.8178 58.7775 71.8178 58.1152C71.8178 57.4495 71.3803 56.62 70.6792 56.62C70.0533 56.62 69.2657 56.6144 68.4972 56.6089C67.0145 56.5984 65.6026 56.5883 65.5595 56.62V59.4846C65.5849 59.5018 66.8807 59.4967 68.3377 59.491Z" fill="black"/>
<path id="Shape_3" fill-rule="evenodd" clip-rule="evenodd" d="M48.4932 64.1307L53.5277 54.7104H56.9386L61.9731 64.1307H59.2175L58.2066 62.2297H52.3432L51.2947 64.1307H48.4932ZM55.1872 56.7869L53.3507 60.1963H57.1122L55.1872 56.7869Z" fill="black"/>
<path id="Path_2" d="M84.5472 54.7096C84.5931 54.7792 84.5472 58.8261 84.5095 61.4341C84.5095 61.7901 84.3768 62.2289 83.8509 62.2289H78.9934C78.4232 62.2289 78.2102 61.8944 78.2102 61.4772C78.2102 58.5579 78.0956 54.7527 78.1644 54.6616H75.4055C75.3629 54.7312 75.3629 59.2219 75.4055 62.1842C75.4268 63.6397 76.9389 64.1299 78.646 64.1299C81.0543 64.1299 82.3633 64.1746 85.0387 64.1299C86.4361 64.1067 87.3798 63.3615 87.3536 62.1842C87.3323 59.5795 87.311 54.7096 87.311 54.7096H84.5472Z" fill="black"/>
<path id="Path_3" d="M20.9703 58.2947C18.7373 58.1837 16.021 58.2086 14.3597 58.1159C13.4407 58.0711 13.4407 56.3043 14.4466 56.3043H19.5712C20.2674 56.3043 20.2674 57.076 20.2674 57.1008H22.8052C22.7626 56.9899 23.0689 54.3604 20.6164 54.3604H13.2228C11.999 54.3604 11.1208 55.1105 11.1208 56.0328V58.0231C11.1208 59.313 12.2594 59.929 13.8322 59.977C16.152 60.035 17.5528 60.1062 19.3926 60.1956C20.926 60.2817 20.7065 62.2025 19.3926 62.229C17.6429 62.2737 16.5501 62.229 14.6268 62.229C13.5324 62.229 13.575 61.1212 13.575 61.1212H11.0356C10.9881 61.4342 10.9881 61.6975 11.0356 62.0088C11.2109 63.2176 12.2168 64.13 13.4407 64.13H20.7507C21.8631 64.13 23.0001 63.5107 22.9821 62.1843C22.9821 62.1843 22.9362 60.2403 22.9362 60.1956C22.9411 59.0498 22.0204 58.3609 20.9703 58.2947Z" fill="black"/>
<path id="Path_4" d="M32.9998 54.7096C33.0457 54.7792 33.0457 58.8261 32.9998 61.4341C32.9998 61.7901 32.8671 62.2289 32.3478 62.2289H27.4444C26.9201 62.2289 26.6547 61.8944 26.6547 61.4772C26.6547 58.5579 26.6137 54.7361 26.6547 54.6616H23.8549C23.8123 54.7312 23.8745 59.2219 23.8991 62.1842C23.922 63.6232 25.3899 64.1299 27.0954 64.1299C29.5414 64.1299 30.8602 64.1746 33.4864 64.1299C34.8839 64.1067 35.8669 63.3615 35.8472 62.1842C35.8226 59.5795 35.803 54.7096 35.803 54.7096H32.9998Z" fill="black"/>
<path id="Shape_4" fill-rule="evenodd" clip-rule="evenodd" d="M36.3228 43.6634C36.3228 41.5439 37.9381 39.4575 40.5021 37.9209C42.9415 36.4654 46.2492 35.5 49.8322 35.5C53.4348 35.5 56.7589 36.4604 59.2081 37.9176C61.7803 39.4542 63.4038 41.5439 63.4038 43.6634C63.4038 45.7829 61.7885 47.8461 59.2196 49.3679C56.7687 50.8184 53.443 51.7622 49.8256 51.7622C46.2459 51.7622 42.9267 50.8068 40.484 49.3596C37.9332 47.8428 36.3228 45.7746 36.3228 43.6634ZM59.0246 49.0201C61.469 47.5746 63.009 45.6322 63.009 43.6634C63.009 41.6929 61.4608 39.7258 59.0066 38.2636C56.6164 36.8313 53.3611 35.8958 49.8322 35.8958C46.3229 35.8958 43.0856 36.8412 40.7019 38.2669C38.2641 39.7291 36.7192 41.6979 36.7192 43.6634C36.7192 45.6322 38.251 47.5713 40.6888 49.0201C43.0725 50.4326 46.3131 51.3615 49.8322 51.3615C53.3692 51.3615 56.6278 50.4326 59.0246 49.0201Z" fill="black"/>
<path id="Path_5" d="M44.8629 37.6416L43.6063 40.8523L38.0459 42.0611L43.6063 43.2583L44.9284 46.676L46.2538 43.3312L52.2794 42.0611L46.1866 40.7232L44.8629 37.6416Z" fill="black"/>
<path id="Path_6" d="M51.7505 43.8656L49.3618 44.3955L51.7505 44.9386L52.3419 46.404L52.876 45.0065L55.4563 44.3955L52.876 43.8656L52.2796 42.5293L51.7505 43.8656Z" fill="black"/>
<path id="Path_7" d="M58.6336 42.5298L58.0405 43.8661L55.7207 44.3959L58.0405 44.9391L58.6336 46.4045L59.166 45.007L61.7464 44.3959L59.166 43.8661L58.6336 42.5298Z" fill="black"/>
<path id="Path_8" d="M56.984 42.4669L57.5115 40.9849L60.0918 40.4517L57.5115 39.9119L56.9135 38.5723L56.3827 39.9119L54.0039 40.4517L56.3827 40.9849L56.984 42.4669Z" fill="black"/>
<path id="Path_9" d="M54.5314 45.7363L53.9334 47.0776L51.6201 47.6108L53.9334 48.1456L54.5314 49.5498L55.1228 48.1456L57.7113 47.6108L55.0589 47.008L54.5314 45.7363Z" fill="black"/>
<path id="Path_10" d="M47.6437 46.1372L47.1161 47.5497L44.7324 48.0828L47.1161 48.5498L47.7141 50.0202L48.2367 48.6127L50.8203 48.0828L48.2367 47.4785L47.6437 46.1372Z" fill="black"/>
</g>
</g>
</svg>
