<svg width="99" height="99" viewBox="0 0 99 99" fill="none" xmlns="http://www.w3.org/2000/svg">
<g id="toyota">
<path id="Path" fill-rule="evenodd" clip-rule="evenodd" d="M0 3C0 1.34314 1.34315 0 3 0H96C97.6569 0 99 1.34315 99 3V96C99 97.6569 97.6569 99 96 99H3C1.34314 99 0 97.6569 0 96V3Z" />
<path id="Shape" fill-rule="evenodd" clip-rule="evenodd" d="M77.5887 49.3866C77.5887 59.247 65.12 67.275 49.7935 67.275C34.4688 67.275 22 59.247 22 49.3866C22 39.5208 34.4688 31.5 49.7935 31.5C65.12 31.5 77.5887 39.5208 77.5887 49.3866ZM46.0625 35.7156C40.7285 36.2178 36.5547 37.7784 35.937 39.5622C35.8845 39.7116 35.86 39.8556 35.86 40.005C35.86 40.239 35.9265 40.482 36.0665 40.7214C36.7997 42.0102 39.2917 43.146 42.7585 43.8048C43.3692 40.338 44.54 37.485 46.0625 35.7156ZM31.0825 42.1164C32.199 45.108 36.378 47.601 42.286 48.762C42.2773 49.104 42.272 49.5378 42.272 49.5378C42.272 55.3986 43.623 60.4584 45.8507 63.1872C35.2598 62.0262 27.4022 56.3328 27.4022 49.644C27.4022 46.9476 28.6797 44.3628 31.0825 42.1164ZM25.3652 49.0806C25.3652 49.1236 25.3631 49.167 25.3609 49.2106C25.3587 49.2547 25.3565 49.2991 25.3565 49.3434C25.3565 55.2608 30.4288 60.4167 37.928 63.1051C30.4282 60.4172 25.3547 55.2621 25.3547 49.3434C25.3547 49.2991 25.3574 49.2547 25.36 49.2106C25.3627 49.167 25.3652 49.1236 25.3652 49.0806ZM39.9603 44.2602C40.3558 44.37 40.774 44.4726 41.2028 44.5698C40.774 44.4726 40.3575 44.37 39.9603 44.2602ZM43.4217 47.5398V47.5344C43.3962 47.5324 43.3701 47.5281 43.3438 47.5238L43.3436 47.5237L43.3436 47.5237L43.3435 47.5237L43.3435 47.5237L43.3435 47.5237L43.3434 47.5237L43.3434 47.5237L43.3433 47.5237L43.3433 47.5237L43.3433 47.5237L43.3432 47.5237L43.3432 47.5237L43.3431 47.5237L43.3431 47.5237C43.3228 47.5203 43.3022 47.5169 43.2817 47.5146C43.3034 47.517 43.3246 47.5204 43.3457 47.5238L43.3458 47.5238L43.3458 47.5238L43.3459 47.5238L43.3459 47.5238L43.346 47.5238L43.346 47.5239L43.346 47.5239L43.3461 47.5239L43.3461 47.5239L43.3462 47.5239L43.3462 47.5239C43.3728 47.5282 43.399 47.5324 43.4252 47.5344V47.5398H43.4217ZM53.8885 45.2502C53.5962 43.0074 53.0467 41.1696 52.338 39.8916C53.0485 41.1678 53.5962 43.0074 53.8885 45.2502ZM63.65 39.5622C63.7025 39.7098 63.727 39.8556 63.727 40.005C63.727 40.239 63.6587 40.482 63.524 40.7214C62.7873 42.0102 60.2935 43.146 56.8285 43.8048C56.2178 40.338 55.0488 37.485 53.528 35.7156C58.8602 36.2178 63.0392 37.7802 63.65 39.5622ZM66.6932 43.4358C66.6939 43.4338 66.695 43.4318 66.6963 43.43L66.6984 43.4271C66.6999 43.4254 66.7013 43.424 66.702 43.4232L66.6594 43.4623C66.5936 43.5228 66.525 43.5858 66.4517 43.6464C66.5357 43.578 66.6162 43.506 66.6932 43.4358ZM58.3317 44.5806C58.8008 44.4762 59.254 44.3628 59.688 44.244C59.254 44.3628 58.8025 44.4762 58.3317 44.5806ZM72.1865 49.644C72.1865 46.9476 70.9072 44.3628 68.5063 42.1164C67.3862 45.108 63.2108 47.601 57.3045 48.762C57.3097 49.104 57.3185 49.5378 57.3185 49.5378C57.3185 55.3986 55.9658 60.4584 53.7345 63.189C64.3307 62.0262 72.1865 56.3346 72.1865 49.644ZM54.1003 47.8044L54.102 47.799C54.1195 48.222 54.13 48.6486 54.13 49.0878C54.13 48.6504 54.116 48.2238 54.1003 47.8044ZM49.7935 44.4222C48.824 44.4222 47.8597 44.3844 46.9182 44.3214C47.4957 41.4486 48.6017 39.6126 49.7935 39.6126C50.9887 39.6126 52.0895 41.4486 52.6705 44.3214C51.7272 44.3844 50.7665 44.4222 49.7935 44.4222ZM46.486 49.3254C46.549 54.792 48.2255 58.4442 49.7935 58.4442C51.3615 58.4442 53.0362 54.792 53.0993 49.3254C52.0142 49.4082 50.91 49.4604 49.7935 49.4604C48.6805 49.4604 47.5728 49.4082 46.486 49.3254ZM45.8062 37.5253C45.7831 37.5701 45.7601 37.6153 45.737 37.6614C45.758 37.6158 45.7805 37.5735 45.8031 37.5311L45.8031 37.531L45.8062 37.5253ZM45.8062 37.5253L45.8315 37.476C45.8322 37.4753 45.8326 37.4742 45.8331 37.473C45.8339 37.4712 45.8347 37.4691 45.8368 37.467C45.8267 37.4866 45.8164 37.506 45.8062 37.5253Z" fill="black"/>
</g>
</svg>
