<svg width="99" height="99" viewBox="0 0 99 99" fill="none" xmlns="http://www.w3.org/2000/svg">
<g id="volvo">
<path id="Path" fill-rule="evenodd" clip-rule="evenodd" d="M0 3C0 1.34314 1.34315 0 3 0H96C97.6569 0 99 1.34315 99 3V96C99 97.6569 97.6569 99 96 99H3C1.34314 99 0 97.6569 0 96V3Z" />
<g id="Group">
<path id="Shape" fill-rule="evenodd" clip-rule="evenodd" d="M71.4652 44.491C71.626 44.491 71.778 44.5352 71.9052 44.6325C74.4774 46.5663 75.7635 48.6894 75.7194 50.9416C75.654 54.6269 72.0377 57.1852 71.8822 57.2914C71.7603 57.3798 71.6154 57.4241 71.4652 57.4241H69.4742C66.6829 65.8049 58.7099 71.8751 49.3254 71.8751C39.9409 71.8751 31.9661 65.8049 29.173 57.4241H27.4011C27.2474 57.4241 27.0954 57.3728 26.9717 57.2825C24.2776 55.3028 22.9402 53.1478 23.002 50.8726C23.1027 47.2014 26.841 44.7104 27.0036 44.6042C27.1219 44.5246 27.2597 44.491 27.4011 44.491H29.0953C31.823 35.9881 39.8596 29.8134 49.3254 29.8134C53.4523 29.8134 57.4326 30.9847 60.8741 33.1944L63.6548 30.4981L60.8882 28.4883C60.6427 28.3025 60.5313 27.9841 60.6179 27.6868C60.7062 27.3949 60.9712 27.1844 61.2769 27.1667L72.8715 26.5014C73.0694 26.4891 73.2637 26.5563 73.4104 26.7014C73.557 26.8394 73.64 27.0234 73.6453 27.2251L73.7937 38.4756C73.7955 38.7834 73.6118 39.0665 73.3256 39.1691C73.0376 39.2718 72.7143 39.1957 72.5111 38.9639L70.4194 36.5401L67.2376 39.5654C68.2305 41.1082 69.0043 42.7624 69.5555 44.491H71.4652ZM49.3254 31.2748C53.3605 31.2748 57.2401 32.4744 60.549 34.7408C60.8352 34.9371 61.2186 34.8982 61.4659 34.6594L65.2961 30.9404C65.4498 30.7936 65.5328 30.5866 65.5169 30.3637C65.501 30.1496 65.3914 29.9514 65.2165 29.8311L63.4039 28.5078L72.1931 28.0071L72.3044 36.4905L71.0271 34.9973C70.8964 34.854 70.7091 34.7584 70.5112 34.7549C70.3081 34.7514 70.1173 34.8133 69.9724 34.9584L65.7854 38.9268C65.5222 39.178 65.4815 39.5743 65.6865 39.8644C66.6758 41.3134 67.4514 42.8651 68.0167 44.491H62.556C60.2381 39.5389 55.2278 36.1013 49.4314 36.1013C43.6402 36.1013 38.6335 39.5389 36.3121 44.491H30.6429C33.3123 36.809 40.6758 31.2748 49.3254 31.2748ZM37.9427 44.491H60.9271C58.7205 40.3722 54.3993 37.5644 49.4349 37.5644C44.4724 37.5644 40.1458 40.3722 37.9427 44.491ZM69.9035 55.9609H71.2232C71.8839 55.4408 74.216 53.4309 74.2601 50.908C74.2884 49.2095 73.269 47.5376 71.2179 45.9488H69.9636H68.4619H63.1478H61.5931H37.2785H35.722H30.1906H28.6907H27.6325C26.9664 46.446 24.5267 48.3992 24.4631 50.9186C24.4189 52.6348 25.4895 54.3244 27.6448 55.9609H28.742H30.256H35.9235H37.5011H61.3652H62.9481H68.3948H69.9035ZM60.6126 57.4241H38.2555C40.5398 61.2368 44.6967 63.7844 49.4367 63.7844C54.1714 63.7844 58.3318 61.2368 60.6126 57.4241ZM49.3254 70.4102C40.7588 70.4102 33.4519 64.9858 30.7188 57.4241H36.5859C39.0098 62.0665 43.8593 65.2529 49.4314 65.2529C55.0105 65.2529 59.8582 62.0665 62.2821 57.4241H67.9301C65.1936 64.9858 57.8902 70.4102 49.3254 70.4102Z" fill="black"/>
<path id="Path_2" d="M37.8626 48.248H36.6224H35.1419H33.6561V49.076H34.778L32.8329 52.6835L30.7305 49.092L32.2658 49.0814L32.2622 48.248H29.743H28.2713H26.1602V49.092H27.5647L28.1247 50.1217L29.6864 53.0055L30.3154 54.1502H33.7021L34.9829 51.7971L36.4528 49.0814H36.4952L37.8608 49.0707L37.8626 48.248Z" fill="black"/>
<path id="Shape_2" fill-rule="evenodd" clip-rule="evenodd" d="M37.3149 51.1999C37.3149 49.4767 39.2547 48.0825 41.645 48.0825C44.0336 48.0825 45.9698 49.4767 45.9698 51.1999C45.9698 52.9161 44.0336 54.3155 41.645 54.3155C39.2547 54.3155 37.3149 52.9161 37.3149 51.1999ZM40.4543 51.1362C40.4543 52.3835 40.9596 53.3867 41.5814 53.3867C42.2051 53.3867 42.7103 52.3835 42.7103 51.1362C42.7103 49.8907 42.2051 48.8893 41.5814 48.8893C40.9596 48.8893 40.4543 49.8907 40.4543 51.1362Z" fill="black"/>
<path id="Shape_3" fill-rule="evenodd" clip-rule="evenodd" d="M68.8 48.0815C68.8265 48.0815 68.8583 48.0815 68.8866 48.0851C69.4166 48.0904 69.9201 48.1647 70.3847 48.2992C71.9888 48.7539 73.1266 49.8773 73.1266 51.1989C73.1266 52.5453 71.9411 53.6847 70.284 54.1217C69.8211 54.2491 69.3229 54.3163 68.8 54.3163H68.7682C66.392 54.3039 64.4717 52.9133 64.4717 51.1989C64.4717 49.4775 66.4079 48.0815 68.8 48.0815ZM68.7364 53.3857C68.7982 53.3857 68.8583 53.3715 68.9148 53.3503C69.4519 53.1822 69.8653 52.2587 69.8636 51.1352C69.8636 50.0666 69.4908 49.1679 68.989 48.9449C68.9078 48.9078 68.8247 48.8901 68.7364 48.8901C68.1128 48.8901 67.6075 49.8915 67.6075 51.1352C67.6075 52.3825 68.1128 53.3857 68.7364 53.3857Z" fill="black"/>
<path id="Path_3" d="M52.0141 53.2292H50.5566V49.091L51.9399 49.0804L51.9381 48.2471H46.3766V49.091H47.7847L47.7864 53.2292H46.3042V54.1457L47.7864 54.1492H54.8072V51.4122H53.8903C53.8408 52.8612 52.5564 53.2292 52.0141 53.2292Z" fill="black"/>
<path id="Path_4" d="M65.0019 48.248H63.7299H62.2459H60.7955V49.076H61.9138L59.9705 52.6835L57.8699 49.092L59.4034 49.0814L59.3981 48.248H53.2925V49.092H54.7023L57.4547 54.1502H60.8432L62.4597 51.1655L63.5904 49.0814H63.8448L65.0002 49.0707L65.0019 48.248Z" fill="black"/>
</g>
</g>
</svg>
