<svg width="99" height="99" viewBox="0 0 99 99" fill="none" xmlns="http://www.w3.org/2000/svg">
<g id="vw">
<path id="Path" fill-rule="evenodd" clip-rule="evenodd" d="M0 3C0 1.34314 1.34315 0 3 0H96C97.6569 0 99 1.34315 99 3V96C99 97.6569 97.6569 99 96 99H3C1.34314 99 0 97.6569 0 96V3Z" />
<g id="Group">
<path id="Path_2" d="M53.6789 32.893C52.2532 32.5153 50.7475 32.3203 49.2296 32.3203C47.7256 32.3203 46.2633 32.5153 44.876 32.8739L49.287 45.0451L53.6789 32.893Z" fill="black"/>
<path id="Path_3" d="M66.6154 49.7274C66.6154 47.5567 66.2394 45.4835 65.5135 43.5635L57.2397 65.1521C62.7927 62.2434 66.6154 56.4241 66.6154 49.7274Z" fill="black"/>
<path id="Path_4" d="M57.9798 34.6815L52.8812 48.7171H50.6217H47.9549H45.6972L40.5777 34.624C38.6872 35.7068 37.037 37.1359 35.6653 38.8262L42.9346 57.6784L45.5927 50.7903H47.6503H50.5277H52.5801L55.2399 57.6784L62.5841 38.5999C61.2907 37.0367 59.7258 35.7068 57.9798 34.6815Z" fill="black"/>
<path id="Shape" fill-rule="evenodd" clip-rule="evenodd" d="M26 49.7284C26 36.9236 36.4479 26.5 49.2302 26.5C62.0194 26.5 72.4377 36.9236 72.4377 49.7284C72.4377 62.4933 62.0194 72.9343 49.2302 72.9343C36.4479 72.9343 26 62.4933 26 49.7284ZM28.9662 49.7267C28.9662 60.8727 38.0825 69.9646 49.2302 69.9646C60.3761 69.9646 69.4889 60.8727 69.4889 49.7267C69.4889 38.5581 60.3761 29.4506 49.2302 29.4506C38.0825 29.4506 28.9662 38.5581 28.9662 49.7267Z" fill="black"/>
<path id="Path_5" d="M49.0789 54.4829L44.5912 66.125L44.5686 66.4853C46.0552 66.9031 47.6132 67.112 49.2303 67.112C50.7482 67.112 52.2192 66.9205 53.6205 66.5602L53.5665 66.125L49.0789 54.4829Z" fill="black"/>
<path id="Path_6" d="M31.8296 49.7278C31.8296 56.2712 35.4817 62.0157 40.8797 64.9627L32.8148 43.9468C32.169 45.7537 31.8296 47.6911 31.8296 49.7278" fill="black"/>
</g>
</g>
</svg>
